<?xml version="1.0" encoding="utf-8" standalone="yes"?>
<!DOCTYPE svg PUBLIC "-//W3C//DTD SVG 1.1//EN" "http://www.w3.org/Graphics/SVG/1.1/DTD/svg11.dtd">
<svg width="636" height="331" viewBox="0 0 636 331" style="fill:none;stroke:none;fill-rule:evenodd;clip-rule:evenodd;stroke-linecap:round;stroke-linejoin:round;stroke-miterlimit:1.5;" version="1.1" xmlns="http://www.w3.org/2000/svg" xmlns:xlink="http://www.w3.org/1999/xlink"><style id="fontImports">@import url("https://fonts.googleapis.com/css2?family=Roboto:wght@400;700&amp;display=block");</style><rect id="" x="0" y="0" width="636" height="330.118" style="fill: #ffffff;"></rect><g id="items" style="isolation: isolate"><g id="blend" style="mix-blend-mode:multiply"><g id="g-root-4.Vector_sy_zjg04r1lgyc5n-fill" data-item-order="-93322" data-item-id="4.Vector_sy_zjg04r1lgyc5n" data-item-class="ScenePart Part Indexed Fill Stroke ColorStrokeBlack" data-item-index="4" data-renderer-id="0" transform="translate(103.7030029296875, 57.06298828125)"><g id="4.Vector_sy_zjg04r1lgyc5n-fill" stroke="none" fill="#de9ffb"><g><path d="M 110.974997 70.788996L 116.622997 88.936996L 98.081997 93.118996L 101.669997 86.903996L 79.046997 73.842996C 68.091997 87.338996 48.651997 91.262996 33.118997 82.294996C 15.899997 72.353996 9.999997 50.336996 19.941997 33.117996C 29.882997 15.899996 51.899997 9.999996 69.118997 19.940996C 84.630997 28.896996 90.955997 47.654996 84.787997 63.874996L 107.421997 76.941996L 110.974997 70.788996Z"></path></g></g></g><g id="g-root-3.Vector_sy_1cua1ez1lgydqi-fill" data-item-order="-93320" data-item-id="3.Vector_sy_1cua1ez1lgydqi" data-item-class="ScenePart Part Indexed Fill Stroke ColorStrokeBlack" data-item-index="3" data-renderer-id="0" transform="translate(103.3900146484375, 223.967041015625)"><g id="3.Vector_sy_1cua1ez1lgydqi-fill" stroke="none" fill="#bc83d7"><g><path d="M 111.028001 32.33099L 116.676001 14.18299L 98.136001 9.99999L 101.724001 16.21499L 79.046001 29.30799C 68.091001 15.81199 48.652001 11.88799 33.118001 20.85599C 15.899001 30.79699 10.000001 52.81399 19.941001 70.03299C 29.882001 87.25199 51.899001 93.15099 69.118001 83.20999C 84.630001 74.25399 90.955001 55.49599 84.788001 39.27699L 107.476001 26.17799L 111.028001 32.33099Z"></path></g></g></g><g id="g-root-2.Vector_sy_1lpx1nv1lgycxt-fill" data-item-order="-93318" data-item-id="2.Vector_sy_1lpx1nv1lgycxt" data-item-class="ScenePart Part Indexed Fill Stroke ColorStrokeBlack" data-item-index="2" data-renderer-id="0" transform="translate(369.9339599609375, 223.967041015625)"><g id="2.Vector_sy_1lpx1nv1lgycxt-fill" stroke="none" fill="#9a66b2"><g><path d="M 28.54001 9.99999L 10.00001 14.18299L 15.64801 32.33099L 19.23601 26.11599L 41.91401 39.20899C 35.70301 55.44399 42.02401 74.24099 57.55801 83.20999C 74.77701 93.15099 96.79401 87.25199 106.73501 70.03299C 116.67601 52.81399 110.77701 30.79699 93.55801 20.85599C 78.04601 11.89999 58.63901 15.80099 47.67601 29.25199L 24.98801 16.15299L 28.54001 9.99999Z"></path></g></g></g><g id="g-root-1.Vector_sy_1q5qjsb1lgyc5k-fill" data-item-order="-93316" data-item-id="1.Vector_sy_1q5qjsb1lgyc5k" data-item-class="ScenePart Part Indexed Indexed_1 Fill Stroke ColorStrokeBlack" data-item-index="1" data-renderer-id="0" transform="translate(369.67401123046875, 57.06298828125)"><g id="1.Vector_sy_1q5qjsb1lgyc5k-fill" stroke="none" fill="#784a8e"><g><path d="M 28.540989 93.119996L 9.999989 88.936996L 15.647989 70.788996L 19.236989 77.003996L 41.859989 63.941996C 35.648989 47.706996 41.970989 28.909996 57.503989 19.940996C 74.722989 9.999996 96.739989 15.899996 106.680989 33.117996C 116.622989 50.336996 110.722989 72.353996 93.503989 82.294996C 77.991989 91.250996 58.584989 87.349996 47.621989 73.898996L 24.987989 86.965996L 28.540989 93.119996Z"></path></g></g></g><g id="g-root-0.cr-big_cr_1ulk1wr1lgybdb-fill" data-item-order="-93314" data-item-id="0.cr-big_cr_1ulk1wr1lgybdb" data-item-class="Shape Stroke Fill ScenePart Part Indexed_0 ColorStrokeBlack" data-item-index="0" data-renderer-id="0" transform="translate(218, 109.9959716796875)"><g id="0.cr-big_cr_1ulk1wr1lgybdb-fill" stroke="none" fill="#562d69"><g><path d="M 10 82C 10.000001 121.764503 42.235499 154.000001 82.000001 154.000001C 121.764503 154.000001 154.000001 121.764503 154.000001 82.000001C 154.000001 42.235499 121.764503 10.000001 82.000001 10.000001C 42.235499 10.000001 10.000001 42.235499 10.000001 82.000001"></path></g></g></g><g id="g-root-tx__v5hx9n1lgyby8-fill" data-item-order="0" data-item-id="tx__v5hx9n1lgyby8" data-item-class="Label Stroke SceneTarget SceneTitle Title ColorStrokeBlack" data-item-index="none" data-renderer-id="0" transform="translate(212, 2)"><g id="tx__v5hx9n1lgyby8-fill" stroke="none" fill="#666666"><g><text style="font: 20px Roboto, sans-serif; white-space: pre;"><tspan x="13.04" y="34" dominant-baseline="ideographic">웹 접근성의 이점</tspan></text></g></g></g><g id="g-root-tx__zjg04r1lgyc5o-fill" data-item-order="0" data-item-id="tx__zjg04r1lgyc5o" data-item-class="Label Stroke SceneTarget Indexed ColorStrokeBlack" data-item-index="4" data-renderer-id="0" transform="translate(2, 86)"><g id="tx__zjg04r1lgyc5o-fill" stroke="none" fill="#666666"><g><text style="font: 20px Roboto, sans-serif; white-space: pre;"><tspan x="19.04" y="34" dominant-baseline="ideographic">법적 준수</tspan></text></g></g></g><g id="g-root-hamm_1cz9x9n1lgwwec-fill" data-item-order="0" data-item-id="hamm_1cz9x9n1lgwwec" data-item-class="Icon Stroke SceneTarget Indexed InsideFill InsideColorFill ColorStrokeBlack" data-item-index="4" data-renderer-id="0" transform="translate(120, 74)"></g><g id="g-root-meet_18kpdbf1lgwykv-fill" data-item-order="0" data-item-id="meet_18kpdbf1lgwykv" data-item-class="Icon Stroke SceneTarget Indexed Indexed_1 InsideFill InsideColorFill ColorStrokeBlack" data-item-index="1" data-renderer-id="0" transform="translate(412, 74)"></g><g id="g-root-tx__140igff1lgydjj-fill" data-item-order="0" data-item-id="tx__140igff1lgydjj" data-item-class="Label Stroke SceneTarget Indexed Indexed_1 ColorStrokeBlack" data-item-index="1" data-renderer-id="0" transform="translate(482, 86)"><g id="tx__140igff1lgydjj-fill" stroke="none" fill="#666666"><g><text style="font: 20px Roboto, sans-serif; white-space: pre;"><tspan x="12" y="34" dominant-baseline="ideographic">사회적 포용성</tspan></text></g></g></g><g id="g-root-micr_8znfzf1lgwyyz-fill" data-item-order="0" data-item-id="micr_8znfzf1lgwyyz" data-item-class="Icon Stroke SceneTarget SceneEnd InsideFill InsideColorFill ColorStrokeBlack" data-item-index="none" data-renderer-id="0" transform="translate(254, 145.9959716796875)"></g><g id="g-root-tx_seo_hssgq31lgybd1-fill" data-item-order="0" data-item-id="tx_seo_hssgq31lgybd1" data-item-class="Label Stroke SceneTarget Indexed ColorStrokeBlack" data-item-index="3" data-renderer-id="0" transform="translate(2, 254)"><g id="tx_seo_hssgq31lgybd1-fill" stroke="none" fill="#666666"><g><text style="font: 20px Roboto, sans-serif; white-space: pre;"><tspan x="22.06" y="34" dominant-baseline="ideographic">SEO 향상</tspan></text></g></g></g><g id="g-root-sear_mczdm31lgwwed-fill" data-item-order="0" data-item-id="sear_mczdm31lgwwed" data-item-class="Icon Stroke SceneTarget Indexed InsideFill InsideColorFill ColorStrokeBlack" data-item-index="3" data-renderer-id="0" transform="translate(120, 242)"></g><g id="g-root-1_1ur6euj1lgwzd2-fill" data-item-order="0" data-item-id="1_1ur6euj1lgwzd2" data-item-class="Icon Stroke SceneTarget Indexed InsideFill InsideColorFill ColorStrokeBlack" data-item-index="2" data-renderer-id="0" transform="translate(412, 242)"></g><g id="g-root-tx__1hbyysr1lgybym-fill" data-item-order="0" data-item-id="tx__1hbyysr1lgybym" data-item-class="Label Stroke SceneTarget Indexed ColorStrokeBlack" data-item-index="2" data-renderer-id="0" transform="translate(482, 254)"><g id="tx__1hbyysr1lgybym-fill" stroke="none" fill="#666666"><g><text style="font: 20px Roboto, sans-serif; white-space: pre;"><tspan x="12" y="34" dominant-baseline="ideographic">사용성 향상</tspan></text></g></g></g><g id="g-root-4.Vector_sy_zjg04r1lgyc5n-stroke" data-item-order="-93322" data-item-id="4.Vector_sy_zjg04r1lgyc5n" data-item-class="ScenePart Part Indexed Fill Stroke ColorStrokeBlack" data-item-index="4" data-renderer-id="0" transform="translate(103.7030029296875, 57.06298828125)"><g id="4.Vector_sy_zjg04r1lgyc5n-stroke" fill="none" stroke-linecap="round" stroke-linejoin="round" stroke-miterlimit="4" stroke="#ffffff" stroke-width="2"><g><path d="M 110.974997 70.788996L 116.622997 88.936996L 98.081997 93.118996L 101.669997 86.903996L 79.046997 73.842996C 68.091997 87.338996 48.651997 91.262996 33.118997 82.294996C 15.899997 72.353996 9.999997 50.336996 19.941997 33.117996C 29.882997 15.899996 51.899997 9.999996 69.118997 19.940996C 84.630997 28.896996 90.955997 47.654996 84.787997 63.874996L 107.421997 76.941996L 110.974997 70.788996Z"></path></g></g></g><g id="g-root-3.Vector_sy_1cua1ez1lgydqi-stroke" data-item-order="-93320" data-item-id="3.Vector_sy_1cua1ez1lgydqi" data-item-class="ScenePart Part Indexed Fill Stroke ColorStrokeBlack" data-item-index="3" data-renderer-id="0" transform="translate(103.3900146484375, 223.967041015625)"><g id="3.Vector_sy_1cua1ez1lgydqi-stroke" fill="none" stroke-linecap="round" stroke-linejoin="round" stroke-miterlimit="4" stroke="#ffffff" stroke-width="2"><g><path d="M 111.028001 32.33099L 116.676001 14.18299L 98.136001 9.99999L 101.724001 16.21499L 79.046001 29.30799C 68.091001 15.81199 48.652001 11.88799 33.118001 20.85599C 15.899001 30.79699 10.000001 52.81399 19.941001 70.03299C 29.882001 87.25199 51.899001 93.15099 69.118001 83.20999C 84.630001 74.25399 90.955001 55.49599 84.788001 39.27699L 107.476001 26.17799L 111.028001 32.33099Z"></path></g></g></g><g id="g-root-2.Vector_sy_1lpx1nv1lgycxt-stroke" data-item-order="-93318" data-item-id="2.Vector_sy_1lpx1nv1lgycxt" data-item-class="ScenePart Part Indexed Fill Stroke ColorStrokeBlack" data-item-index="2" data-renderer-id="0" transform="translate(369.9339599609375, 223.967041015625)"><g id="2.Vector_sy_1lpx1nv1lgycxt-stroke" fill="none" stroke-linecap="round" stroke-linejoin="round" stroke-miterlimit="4" stroke="#ffffff" stroke-width="2"><g><path d="M 28.54001 9.99999L 10.00001 14.18299L 15.64801 32.33099L 19.23601 26.11599L 41.91401 39.20899C 35.70301 55.44399 42.02401 74.24099 57.55801 83.20999C 74.77701 93.15099 96.79401 87.25199 106.73501 70.03299C 116.67601 52.81399 110.77701 30.79699 93.55801 20.85599C 78.04601 11.89999 58.63901 15.80099 47.67601 29.25199L 24.98801 16.15299L 28.54001 9.99999Z"></path></g></g></g><g id="g-root-1.Vector_sy_1q5qjsb1lgyc5k-stroke" data-item-order="-93316" data-item-id="1.Vector_sy_1q5qjsb1lgyc5k" data-item-class="ScenePart Part Indexed Indexed_1 Fill Stroke ColorStrokeBlack" data-item-index="1" data-renderer-id="0" transform="translate(369.67401123046875, 57.06298828125)"><g id="1.Vector_sy_1q5qjsb1lgyc5k-stroke" fill="none" stroke-linecap="round" stroke-linejoin="round" stroke-miterlimit="4" stroke="#ffffff" stroke-width="2"><g><path d="M 28.540989 93.119996L 9.999989 88.936996L 15.647989 70.788996L 19.236989 77.003996L 41.859989 63.941996C 35.648989 47.706996 41.970989 28.909996 57.503989 19.940996C 74.722989 9.999996 96.739989 15.899996 106.680989 33.117996C 116.622989 50.336996 110.722989 72.353996 93.503989 82.294996C 77.991989 91.250996 58.584989 87.349996 47.621989 73.898996L 24.987989 86.965996L 28.540989 93.119996Z"></path></g></g></g><g id="g-root-0.cr-big_cr_1ulk1wr1lgybdb-stroke" data-item-order="-93314" data-item-id="0.cr-big_cr_1ulk1wr1lgybdb" data-item-class="Shape Stroke Fill ScenePart Part Indexed_0 ColorStrokeBlack" data-item-index="0" data-renderer-id="0" transform="translate(218, 109.9959716796875)"><g id="0.cr-big_cr_1ulk1wr1lgybdb-stroke" fill="none" stroke-linecap="round" stroke-linejoin="round" stroke-miterlimit="4" stroke="#ffffff" stroke-width="2"><g><path d="M 10 82C 10.000001 121.764503 42.235499 154.000001 82.000001 154.000001C 121.764503 154.000001 154.000001 121.764503 154.000001 82.000001C 154.000001 42.235499 121.764503 10.000001 82.000001 10.000001C 42.235499 10.000001 10.000001 42.235499 10.000001 82.000001"></path></g></g></g><g id="g-root-tx__v5hx9n1lgyby8-stroke" data-item-order="0" data-item-id="tx__v5hx9n1lgyby8" data-item-class="Label Stroke SceneTarget SceneTitle Title ColorStrokeBlack" data-item-index="none" data-renderer-id="0" transform="translate(212, 2)"></g><g id="g-root-tx__zjg04r1lgyc5o-stroke" data-item-order="0" data-item-id="tx__zjg04r1lgyc5o" data-item-class="Label Stroke SceneTarget Indexed ColorStrokeBlack" data-item-index="4" data-renderer-id="0" transform="translate(2, 86)"></g><g id="g-root-hamm_1cz9x9n1lgwwec-stroke" data-item-order="0" data-item-id="hamm_1cz9x9n1lgwwec" data-item-class="Icon Stroke SceneTarget Indexed InsideFill InsideColorFill ColorStrokeBlack" data-item-index="4" data-renderer-id="0" transform="translate(120, 74)"><g id="hamm_1cz9x9n1lgwwec-stroke" fill="none" stroke-linecap="round" stroke-linejoin="round" stroke-miterlimit="4" stroke="#ffffff" stroke-width="2"><g><path d="M 11.714286 55.565716L 37.428574 55.565716M 34 55.565716L 34 46.994286L 15.142858 46.994286L 15.142858 55.565716M 24.405733 25.727448L 36.697269 13.435908C 36.697269 13.435908 39.121635 11.011545 41.545998 13.435908L 46.976582 18.866488C 46.976582 18.866488 49.400948 21.290855 46.976582 23.715223L 34.685043 36.00676C 34.685043 36.00676 32.260674 38.431126 29.836309 36.00676L 24.405733 30.576181C 24.405733 30.576181 21.981365 28.151814 24.405733 25.727448M 40.857143 29.851429L 56.285713 45.279999"></path></g></g></g><g id="g-root-meet_18kpdbf1lgwykv-stroke" data-item-order="0" data-item-id="meet_18kpdbf1lgwykv" data-item-class="Icon Stroke SceneTarget Indexed Indexed_1 InsideFill InsideColorFill ColorStrokeBlack" data-item-index="1" data-renderer-id="0" transform="translate(412, 74)"><g id="meet_18kpdbf1lgwykv-stroke" fill="none" stroke-linecap="round" stroke-linejoin="round" stroke-miterlimit="4" stroke="#ffffff" stroke-width="2"><g><path d="M 11 36.239998C 11.181426 35.04808 11.517597 33.88493 12 32.779999C 12.3 31.559999 12.54 29.34 13.82 28.639999C 15.1 27.940001 16.200001 29.059999 16.459999 30.280001C 16.630032 32.045792 16.383423 33.826843 15.74 35.48C 16.780001 33.099998 16.219999 29.48 19.279999 28.66C 22.34 27.84 20.459999 31.66 20.220001 33.059998C 19.98 34.459999 19.52 36 21.5 36.48C 23.48 36.959999 25.5 35.260002 26.74 34.18C 27.387774 33.714333 27.785904 32.977051 27.82 32.18C 27.82 31.120001 26.860001 29.860001 25.66 30.42C 24.459999 30.98 24.66 32.760002 25 33.559998C 25.562424 34.573761 26.517141 35.311501 27.639999 35.599998C 29.639999 36.279999 32.459999 35.959999 33.120003 33.459999C 33.360001 32.540001 32.82 30.200001 31.379999 30.440001C 29.940001 30.68 30.18 33.68 30.82 34.599998C 32.059998 36.32 35.860001 35.540001 37.200001 34.139999C 38.18 33.279999 37.720001 26.32 37.720001 26.32C 37.720001 26.32 37.720001 33.459999 39.239998 34.739998C 39.670658 35.136459 40.243786 35.34116 40.828163 35.307228C 41.41254 35.273296 41.958122 35.003639 42.34 34.560001C 43.208485 33.516693 43.781677 32.259811 44 30.92C 43.84 32.099998 44 36.260002 45.84 36.220001C 46.959999 36.220001 47.84 34.220001 48.02 33.360001C 48.093109 32.521259 48.086411 31.677473 48 30.84C 48 33.040001 47.360001 35.080002 50 35.580002C 51.840244 36.074402 53.780289 35.248848 54.700001 33.580002C 55.107582 32.856941 55.222126 32.005035 55.02 31.199999C 54.673134 30.68371 54.081932 30.385925 53.460602 30.414539C 52.839272 30.443153 52.277943 30.794016 51.98 31.339998C 51.539074 32.506474 51.282661 33.73455 51.220001 34.980003C 50.939999 36.200001 50.540001 37.400002 50.299999 38.639999C 49.945049 39.6408 50.002609 40.741673 50.459999 41.700001C 50.394672 41.578728 50.341095 41.451477 50.299999 41.32M 51.02 35.700001C 53.015491 36.111004 55.083717 35.993805 57.02 35.360001M 34.739998 28.18L 41.120003 27.940001"></path></g></g></g><g id="g-root-tx__140igff1lgydjj-stroke" data-item-order="0" data-item-id="tx__140igff1lgydjj" data-item-class="Label Stroke SceneTarget Indexed Indexed_1 ColorStrokeBlack" data-item-index="1" data-renderer-id="0" transform="translate(482, 86)"></g><g id="g-root-micr_8znfzf1lgwyyz-stroke" data-item-order="0" data-item-id="micr_8znfzf1lgwyyz" data-item-class="Icon Stroke SceneTarget SceneEnd InsideFill InsideColorFill ColorStrokeBlack" data-item-index="none" data-renderer-id="0" transform="translate(254, 145.9959716796875)"><g id="micr_8znfzf1lgwyyz-stroke" fill="none" stroke-linecap="round" stroke-linejoin="round" stroke-miterlimit="4" stroke="#ffffff" stroke-width="2"><g><path d="M 63.100002 33.357998C 63.032486 30.932716 61.082291 28.982517 58.656998 28.915001M 71.800003 33.528999C 71.59745 26.258114 65.750885 20.411543 58.48 20.209M 71.800003 33.528999C 71.59745 26.258114 65.750885 20.411543 58.48 20.209M 80.5 33.700001C 80.159454 21.583141 70.416855 11.840548 58.300003 11.5M 80.5 33.700001C 80.159454 21.583141 70.416855 11.840548 58.300003 11.5M 23.5 35.5L 53.5 35.5C 53.5 35.5 56.5 35.5 56.5 38.5L 56.5 68.5C 56.5 68.5 56.5 71.5 53.5 71.5L 23.5 71.5C 23.5 71.5 20.5 71.5 20.5 68.5L 20.5 38.5C 20.5 38.5 20.5 35.5 23.5 35.5M 38.5 71.5L 38.5 80.5M 50.5 71.5L 50.5 80.5M 50.5 26.5L 50.5 35.5M 38.5 26.5L 38.5 35.5M 26.5 71.5L 26.5 80.5M 26.5 26.5L 26.5 35.5M 56.5 65.5L 65.5 65.5M 20.5 53.5L 11.5 53.5M 65.5 53.5L 56.5 53.5M 20.5 41.5L 11.5 41.5M 20.5 65.5L 11.5 65.5M 32.5 41.5L 44.5 41.5C 44.5 41.5 50.5 41.5 50.5 47.5L 50.5 59.5C 50.5 59.5 50.5 65.5 44.5 65.5L 32.5 65.5C 32.5 65.5 26.5 65.5 26.5 59.5L 26.5 47.5C 26.5 47.5 26.5 41.5 32.5 41.5"></path></g></g></g><g id="g-root-tx_seo_hssgq31lgybd1-stroke" data-item-order="0" data-item-id="tx_seo_hssgq31lgybd1" data-item-class="Label Stroke SceneTarget Indexed ColorStrokeBlack" data-item-index="3" data-renderer-id="0" transform="translate(2, 254)"></g><g id="g-root-sear_mczdm31lgwwed-stroke" data-item-order="0" data-item-id="sear_mczdm31lgwwed" data-item-class="Icon Stroke SceneTarget Indexed InsideFill InsideColorFill ColorStrokeBlack" data-item-index="3" data-renderer-id="0" transform="translate(120, 242)"><g id="sear_mczdm31lgwwed-stroke" fill="none" stroke-linecap="round" stroke-linejoin="round" stroke-miterlimit="4" stroke="#ffffff" stroke-width="2"><g><path d="M 36 24.48L 12 24.48C 11.447716 24.48 11 24.032284 11 23.48L 11 17.48C 11 16.927715 11.447716 16.48 12 16.48L 36 16.48M 40.040001 19.880001C 40.03936 23.392984 42.887016 26.241161 46.400002 26.241161C 49.912987 26.241161 52.760643 23.392984 52.759998 19.880001C 52.760643 16.367016 49.912987 13.518838 46.400002 13.518838C 42.887016 13.518838 40.03936 16.367016 40.040001 19.880001ZM 50.897999 24.378L 57 30.48M 11 42.48C 11 43.584568 11.895431 44.48 13 44.48C 14.104569 44.48 15 43.584568 15 42.48C 15 41.375431 14.104569 40.48 13 40.48C 11.895431 40.48 11 41.375431 11 42.48ZM 11 52.48C 11 53.584568 11.895431 54.48 13 54.48C 14.104569 54.48 15 53.584568 15 52.48C 15 51.375431 14.104569 50.48 13 50.48C 11.895431 50.48 11 51.375431 11 52.48ZM 19 42.48L 41 42.48M 11 32.48C 11 33.584572 11.895431 34.48 13 34.48C 14.104569 34.48 15 33.584572 15 32.48C 15 31.375431 14.104569 30.48 13 30.48C 11.895431 30.48 11 31.375431 11 32.48ZM 19 32.48L 41 32.48M 19 52.48L 41 52.48"></path></g></g></g><g id="g-root-1_1ur6euj1lgwzd2-stroke" data-item-order="0" data-item-id="1_1ur6euj1lgwzd2" data-item-class="Icon Stroke SceneTarget Indexed InsideFill InsideColorFill ColorStrokeBlack" data-item-index="2" data-renderer-id="0" transform="translate(412, 242)"><g id="1_1ur6euj1lgwzd2-stroke" fill="none" stroke-linecap="round" stroke-linejoin="round" stroke-miterlimit="4" stroke="#ffffff" stroke-width="2"><g><path d="M 28.857143 34C 28.857143 36.840321 31.159679 39.142857 34 39.142857C 36.840321 39.142857 39.142857 36.840321 39.142857 34C 39.142857 31.159679 36.840321 28.857143 34 28.857143C 31.159679 28.857143 28.857143 31.159679 28.857143 34M 11.714286 34C 11.714286 36.840321 14.016822 39.142857 16.857143 39.142857C 19.697464 39.142857 22 36.840321 22 34C 22 31.159679 19.697464 28.857143 16.857143 28.857143C 14.016822 28.857143 11.714286 31.159679 11.714286 34M 46 34C 46 36.840321 48.30254 39.142857 51.142857 39.142857C 53.983181 39.142857 56.285713 36.840321 56.285713 34C 56.285713 31.159679 53.983181 28.857143 51.142857 28.857143C 48.30254 28.857143 46 31.159679 46 34M 22 34L 28.857143 34M 39.142857 34L 46 34"></path></g></g></g><g id="g-root-tx__1hbyysr1lgybym-stroke" data-item-order="0" data-item-id="tx__1hbyysr1lgybym" data-item-class="Label Stroke SceneTarget Indexed ColorStrokeBlack" data-item-index="2" data-renderer-id="0" transform="translate(482, 254)"></g></g></g></svg>