<svg width="362" height="362" viewBox="0 0 362 362" fill="none" xmlns="http://www.w3.org/2000/svg">
<path d="M181 361C280.411 361 361 280.411 361 181C361 81.5887 280.411 1 181 1C81.5887 1 1 81.5887 1 181C1 280.411 81.5887 361 181 361Z" fill="#F0F0F0" stroke="#333333" stroke-width="2"/>
<path d="M181 241C214.137 241 241 214.137 241 181C241 147.863 214.137 121 181 121C147.863 121 121 147.863 121 181C121 214.137 147.863 241 181 241Z" fill="white" stroke="#333333" stroke-width="2"/>
<path d="M135.269 175.1H143.249V177.2H135.269V175.1ZM137.649 180.4H140.269V186.68H137.649V180.4ZM142.189 175.1H144.809V176.6C144.809 178.4 144.809 180.64 144.309 183.72L141.709 183.48C142.189 180.52 142.189 178.38 142.189 176.6V175.1ZM146.389 173.26H149.049V191.78H146.389V173.26ZM148.269 180.7H151.529V182.9H148.269V180.7ZM134.569 188.04L134.329 185.9C137.589 185.9 141.909 185.84 145.549 185.38L145.689 187.32C141.949 187.96 137.789 188.04 134.569 188.04ZM152.888 174.88H163.788V176.98H152.888V174.88ZM158.348 177.56C161.008 177.56 162.888 178.94 162.888 180.98C162.888 183.02 161.008 184.38 158.348 184.38C155.668 184.38 153.788 183.02 153.788 180.98C153.788 178.94 155.668 177.56 158.348 177.56ZM158.348 179.56C157.148 179.56 156.348 180.04 156.348 180.98C156.348 181.9 157.148 182.38 158.348 182.38C159.528 182.38 160.348 181.9 160.348 180.98C160.348 180.04 159.528 179.56 158.348 179.56ZM164.808 173.26H167.468V184.88H164.808V173.26ZM166.728 178.04H169.928V180.2H166.728V178.04ZM155.108 185.64H167.468V191.78H164.808V187.76H155.108V185.64ZM157.008 173.16H159.668V176.08H157.008V173.16ZM175.566 175.1H177.726V176.28C177.726 179.76 176.086 182.98 172.526 184.14L171.186 182.04C174.246 181.04 175.566 178.6 175.566 176.28V175.1ZM176.126 175.1H178.266V176.28C178.266 178.44 179.526 180.72 182.446 181.7L181.146 183.78C177.706 182.64 176.126 179.56 176.126 176.28V175.1ZM181.366 177.68H184.886V179.84H181.366V177.68ZM171.906 174.28H181.866V176.38H171.906V174.28ZM174.166 185.12H186.786V191.78H184.126V187.24H174.166V185.12ZM184.126 173.26H186.786V184.28H184.126V173.26ZM202.854 184.58C206.694 184.58 209.114 185.92 209.114 188.18C209.114 190.46 206.694 191.8 202.854 191.8C198.994 191.8 196.574 190.46 196.574 188.18C196.574 185.92 198.994 184.58 202.854 184.58ZM202.854 186.66C200.494 186.66 199.214 187.14 199.214 188.18C199.214 189.24 200.494 189.74 202.854 189.74C205.214 189.74 206.474 189.24 206.474 188.18C206.474 187.14 205.214 186.66 202.854 186.66ZM206.234 173.26H208.894V184.16H206.234V173.26ZM208.154 177.56H211.354V179.76H208.154V177.56ZM194.854 174.44H197.494V176.72H201.114V174.44H203.754V183.14H194.854V174.44ZM197.494 178.78V181.06H201.114V178.78H197.494ZM213.492 174.2H216.132V176.54H219.652V174.2H222.252V182.86H213.492V174.2ZM216.132 178.56V180.74H219.652V178.56H216.132ZM221.652 177.48H226.152V179.62H221.652V177.48ZM225.552 173.26H228.212V183.4H225.552V173.26ZM215.912 184.18H218.552V185.84H225.572V184.18H228.212V191.56H215.912V184.18ZM218.552 187.88V189.44H225.572V187.88H218.552Z" fill="black"/>
<path d="M181 101C203.091 101 221 83.0914 221 61C221 38.9086 203.091 21 181 21C158.909 21 141 38.9086 141 61C141 83.0914 158.909 101 181 101Z" fill="#EA6666" fill-opacity="0.77" stroke="#333333" stroke-width="2"/>
<path d="M167.849 54.904H174.249V55.992H167.849V54.904ZM170.025 58.136H171.337V61.752H170.025V58.136ZM173.721 54.904H175.033V55.672C175.033 56.616 175.033 58.056 174.649 59.96L173.353 59.816C173.721 57.912 173.721 56.6 173.721 55.672V54.904ZM177.001 53.784H178.329V64.68H177.001V53.784ZM177.721 58.488H180.393V59.592H177.721V58.488ZM169.193 66.84H178.793V67.928H169.193V66.84ZM169.193 63.672H170.505V67.176H169.193V63.672ZM167.113 62.376L166.969 61.288C169.545 61.288 173.097 61.224 176.025 60.824L176.121 61.784C173.113 62.312 169.657 62.376 167.113 62.376ZM185.4 55.96H186.488V56.568C186.488 58.84 184.792 60.648 182.344 61.32L181.752 60.296C183.896 59.736 185.4 58.264 185.4 56.568V55.96ZM185.64 55.96H186.728V56.568C186.728 58.12 188.184 59.496 190.296 60.024L189.72 61.048C187.288 60.424 185.64 58.696 185.64 56.568V55.96ZM182.2 55.256H189.912V56.344H182.2V55.256ZM185.4 53.72H186.728V55.832H185.4V53.72ZM191.688 53.784H193.016V61.4H191.688V53.784ZM192.44 56.984H195.144V58.088H192.44V56.984ZM183.832 62.12H193.016V65.528H185.176V67.624H183.864V64.552H191.72V63.16H183.832V62.12ZM183.864 67.048H193.544V68.088H183.864V67.048Z" fill="black"/>
<path d="M257.085 156.279C263.911 177.289 286.477 188.787 307.487 181.96C328.498 175.134 339.996 152.567 333.169 131.557C326.342 110.547 303.776 99.0491 282.766 105.876C261.756 112.702 250.258 135.268 257.085 156.279Z" fill="#94E3B8" fill-opacity="0.73" stroke="#333333" stroke-width="2"/>
<path d="M291.244 136.356H292.572V143.844H291.244V136.356ZM283.228 144.548H292.588V148.02H284.556V150.084H283.26V147.06H291.276V145.604H283.228V144.548ZM283.26 149.604H293.068V150.66H283.26V149.604ZM284.572 137.636H285.66V138.388C285.66 140.948 283.996 143.06 281.548 143.876L280.924 142.836C283.084 142.132 284.572 140.356 284.572 138.388V137.636ZM284.844 137.636H285.932V138.388C285.932 140.228 287.436 141.892 289.58 142.548L288.956 143.572C286.524 142.82 284.844 140.82 284.844 138.388V137.636ZM281.276 137.172H289.196V138.244H281.276V137.172ZM295.435 143.748H308.539V144.836H295.435V143.748ZM301.419 144.42H302.747V147.748H301.419V144.42ZM297.115 137.028H306.843V142.116H297.115V137.028ZM305.531 138.1H298.411V141.044H305.531V138.1ZM297.099 149.412H307.083V150.5H297.099V149.412ZM297.099 146.356H298.411V149.796H297.099V146.356Z" fill="black"/>
<path d="M228.023 245.721C210.15 258.706 206.189 283.721 219.174 301.593C232.159 319.466 257.173 323.428 275.046 310.443C292.918 297.458 296.88 272.443 283.895 254.571C270.91 236.698 245.895 232.736 228.023 245.721Z" fill="#C081E6" fill-opacity="0.62" stroke="#333333" stroke-width="2"/>
<path d="M247.098 269.946H248.442V284.426H247.098V269.946ZM248.074 275.818H250.746V276.922H248.074V275.818ZM243.402 271.514H244.698C244.698 275.626 242.81 279.338 238.138 281.69L237.402 280.666C241.402 278.634 243.402 275.546 243.402 271.722V271.514ZM238.074 271.514H244.09V272.602H238.074V271.514ZM259.464 272.57H263.16V273.674H259.464V272.57ZM262.6 269.962H263.928V277.418H262.6V269.962ZM254.616 278.17H263.928V281.626H255.96V283.818H254.664V280.634H262.616V279.226H254.616V278.17ZM254.664 283.178H264.472V284.234H254.664V283.178ZM255.64 270.41H256.728V271.77C256.728 274.442 255.128 276.602 252.712 277.466L252.024 276.41C254.2 275.674 255.64 273.866 255.64 271.77V270.41ZM255.864 270.41H256.936V271.77C256.936 273.658 258.392 275.402 260.488 276.09L259.8 277.13C257.464 276.298 255.864 274.218 255.864 271.77V270.41Z" fill="black"/>
<path d="M133.977 245.721C116.105 232.736 91.0901 236.698 78.1051 254.571C65.1201 272.443 69.082 297.458 86.9544 310.443C104.827 323.428 129.841 319.466 142.826 301.593C155.811 283.721 151.849 258.706 133.977 245.721Z" fill="#B1B7F3" fill-opacity="0.67" stroke="#333333" stroke-width="2"/>
<path d="M107.353 269.962H108.681V277.45H107.353V269.962ZM99.3369 278.186H108.697V281.658H100.665V283.642H99.3689V280.666H107.385V279.226H99.3369V278.186ZM99.3689 283.21H109.177V284.266H99.3689V283.21ZM100.601 270.378H101.705V271.482C101.705 274.154 100.041 276.426 97.5929 277.322L96.9369 276.266C99.1129 275.498 100.601 273.578 100.601 271.482V270.378ZM100.841 270.378H101.929V271.482C101.929 273.482 103.449 275.29 105.593 275.994L104.937 277.034C102.505 276.202 100.841 274.074 100.841 271.482V270.378ZM122.12 269.962H123.448V278.714H122.12V269.962ZM119.72 274.346H122.712V275.45H119.72V274.346ZM114.072 279.482H123.448V284.234H114.072V279.482ZM122.152 280.554H115.368V283.162H122.152V280.554ZM111.576 271.466H119.944V272.538H111.576V271.466ZM115.752 273.274C117.704 273.274 119.096 274.33 119.096 275.866C119.096 277.402 117.704 278.426 115.752 278.426C113.8 278.426 112.408 277.402 112.408 275.866C112.408 274.33 113.8 273.274 115.752 273.274ZM115.752 274.298C114.536 274.298 113.672 274.922 113.672 275.866C113.672 276.794 114.536 277.418 115.752 277.418C116.968 277.418 117.832 276.794 117.832 275.866C117.832 274.922 116.968 274.298 115.752 274.298ZM115.096 269.818H116.424V272.234H115.096V269.818Z" fill="black"/>
<path d="M104.445 156.764C111.272 135.753 99.7738 113.187 78.7636 106.361C57.7535 99.5341 35.1873 111.032 28.3607 132.042C21.5341 153.052 33.0321 175.619 54.0423 182.445C75.0524 189.272 97.6186 177.774 104.445 156.764Z" fill="#F8AAEB" fill-opacity="0.76" stroke="#333333" stroke-width="2"/>
<path d="M63.5197 136.841H64.8477V144.217H63.5197V136.841ZM58.9437 137.545H60.3837C60.3837 141.193 57.8717 143.529 53.6477 144.553L53.1837 143.465C56.9277 142.601 58.9437 140.697 58.9437 138.201V137.545ZM53.9357 137.545H59.5517V138.633H53.9357V137.545ZM59.8717 138.921H63.7437V139.977H59.8717V138.921ZM59.7437 141.689H63.6637V142.729H59.7437V141.689ZM55.5357 144.889H64.8477V148.441H56.8957V150.745H55.5837V147.417H63.5357V145.961H55.5357V144.889ZM55.5837 150.105H65.3277V151.161H55.5837V150.105ZM67.6625 145.097H80.7825V146.185H67.6625V145.097ZM69.3905 150.073H79.4065V151.161H69.3905V150.073ZM69.3905 147.145H70.7185V150.393H69.3905V147.145ZM73.5505 143.017H74.8785V145.561H73.5505V143.017ZM69.3265 137.305H79.0865V140.889H70.6705V142.841H69.3585V139.913H77.7905V138.345H69.3265V137.305ZM69.3585 142.489H79.4065V143.529H69.3585V142.489Z" fill="black"/>
</svg>
