<?xml version="1.0" encoding="utf-8" standalone="yes"?>
<!DOCTYPE svg PUBLIC "-//W3C//DTD SVG 1.1//EN" "http://www.w3.org/Graphics/SVG/1.1/DTD/svg11.dtd">
<svg width="637" height="337" viewBox="0 0 637 337" style="fill:none;stroke:none;fill-rule:evenodd;clip-rule:evenodd;stroke-linecap:round;stroke-linejoin:round;stroke-miterlimit:1.5;" version="1.1" xmlns="http://www.w3.org/2000/svg" xmlns:xlink="http://www.w3.org/1999/xlink"><style id="fontImports">@import url("https://fonts.googleapis.com/css2?family=Roboto:wght@400;700&amp;display=block");</style><rect id="" x="0" y="0" width="637" height="337" style="fill: #ffffff;"></rect><g id="items" style="isolation: isolate"><g id="blend" style="mix-blend-mode:multiply"><g id="g-root-ro_18efu231iz8zya-fill" data-item-order="-21168" data-item-id="ro_18efu231iz8zya" data-item-class="Shape Stroke Fill" data-item-index="none" data-renderer-id="0" transform="translate(218, 96)"><g id="ro_18efu231iz8zya-fill" stroke="none" fill="#f0f0f0"><g><path d="M 34 10L 154 10C 154 10 178 10 178 34L 178 112C 178 112 178 136 154 136L 34 136C 34 136 10 136 10 112L 10 34C 10 34 10 10 34 10"></path></g></g></g><g id="g-root-ro_1cuvt9n1izlpfw-fill" data-item-order="-9720" data-item-id="ro_1cuvt9n1izlpfw" data-item-class="Shape Stroke Fill" data-item-index="none" data-renderer-id="0" transform="translate(434, 189)"><g id="ro_1cuvt9n1izlpfw-fill" stroke="none" fill="#ffe7e6"><g><path d="M 22 10L 178 10C 178 10 190 10 190 22L 190 52C 190 52 190 64 178 64L 22 64C 22 64 10 64 10 52L 10 22C 10 22 10 10 22 10"></path></g></g></g><g id="g-root-ro_1ur5pm31iz90cq-fill" data-item-order="-8424" data-item-id="ro_1ur5pm31iz90cq" data-item-class="Shape Stroke Fill" data-item-index="none" data-renderer-id="0" transform="translate(14, 3)"><g id="ro_1ur5pm31iz90cq-fill" stroke="none" fill="#e6efff"><g><path d="M 22 10L 154 10C 154 10 166 10 166 22L 166 52C 166 52 166 64 154 64L 22 64C 22 64 10 64 10 52L 10 22C 10 22 10 10 22 10"></path></g></g></g><g id="g-root-ro_dj73e31izd9u0-fill" data-item-order="-8424" data-item-id="ro_dj73e31izd9u0" data-item-class="Shape Stroke Fill" data-item-index="none" data-renderer-id="0" transform="translate(14, 189)"><g id="ro_dj73e31izd9u0-fill" stroke="none" fill="#f7e6fe"><g><path d="M 22 10L 154 10C 154 10 166 10 166 22L 166 52C 166 52 166 64 154 64L 22 64C 22 64 10 64 10 52L 10 22C 10 22 10 10 22 10"></path></g></g></g><g id="g-root-ro_4m4ff1izg2yu-fill" data-item-order="-5832" data-item-id="ro_4m4ff1izg2yu" data-item-class="Shape Stroke Fill" data-item-index="none" data-renderer-id="0" transform="translate(434, 3)"><g id="ro_4m4ff1izg2yu-fill" stroke="none" fill="#e9fbf3"><g><path d="M 22 10L 106 10C 106 10 118 10 118 22L 118 52C 118 52 118 64 106 64L 22 64C 22 64 10 64 10 52L 10 22C 10 22 10 10 22 10"></path></g></g></g><g id="g-root-cu_1utnlyj1izd8uc-fill" data-item-order="0" data-item-id="cu_1utnlyj1izd8uc" data-item-class="Curve Stroke ColorFillGray ColorStrokeGray" data-item-index="none" data-renderer-id="0" transform="translate(386, 30)"></g><g id="g-root-tx__v6q67f1izg26k-fill" data-item-order="0" data-item-id="tx__v6q67f1izg26k" data-item-class="Label Stroke" data-item-index="none" data-renderer-id="0" transform="translate(482, 18)"><g id="tx__v6q67f1izg26k-fill" stroke="none" fill="#3bc482"><g><text style="font: 20px Roboto, sans-serif; white-space: pre;"><tspan x="14" y="34" dominant-baseline="ideographic">실험</tspan></text></g></g></g><g id="g-root-tx__1lrruuj1iz3dvn-fill" data-item-order="0" data-item-id="tx__1lrruuj1iz3dvn" data-item-class="Label Stroke" data-item-index="none" data-renderer-id="0" transform="translate(74, 69)"><g id="tx__1lrruuj1iz3dvn-fill" stroke="none" fill="#484848"><g><text style="font: 20px Roboto, sans-serif; white-space: pre;"><tspan x="14" y="34" dominant-baseline="ideographic">관찰</tspan></text></g></g></g><g id="g-root-cu_9590iz1izd9my-fill" data-item-order="0" data-item-id="cu_9590iz1izd9my" data-item-class="Curve Stroke ColorFillGray ColorStrokeGray" data-item-index="none" data-renderer-id="0" transform="translate(128, 57)"></g><g id="g-root-cu_i0w0rv1izd8u8-fill" data-item-order="0" data-item-id="cu_i0w0rv1izd8u8" data-item-class="Curve Stroke ColorFillGray ColorStrokeGray" data-item-index="none" data-renderer-id="0" transform="translate(128, 57)"></g><g id="g-root-cu_qwj10r1izd79p-fill" data-item-order="0" data-item-id="cu_qwj10r1izd79p" data-item-class="Curve Stroke ColorFillGray ColorStrokeGray" data-item-index="none" data-renderer-id="0" transform="translate(128, 57)"></g><g id="g-root-cu_1cuvwff1izelmx-fill" data-item-order="0" data-item-id="cu_1cuvwff1izelmx" data-item-class="Curve Stroke ColorFillGray ColorStrokeGray" data-item-index="none" data-renderer-id="0" transform="translate(458, 57)"></g><g id="g-root-cu_1q5pxpn1izen7r-fill" data-item-order="0" data-item-id="cu_1q5pxpn1izen7r" data-item-class="Curve Stroke ColorFillGray ColorStrokeGray" data-item-index="none" data-renderer-id="0" transform="translate(458, 57)"></g><g id="g-root-cu_4g2e3v1izeltw-fill" data-item-order="0" data-item-id="cu_4g2e3v1izeltw" data-item-class="Curve Stroke ColorFillGray ColorStrokeGray" data-item-index="none" data-renderer-id="0" transform="translate(458, 57)"></g><g id="g-root-tx__1uont9n1iz3eha-fill" data-item-order="0" data-item-id="tx__1uont9n1iz3eha" data-item-class="Label Stroke" data-item-index="none" data-renderer-id="0" transform="translate(482, 69)"><g id="tx__1uont9n1iz3eha-fill" stroke="none" fill="#484848"><g><text style="font: 20px Roboto, sans-serif; white-space: pre;"><tspan x="17.52" y="34" dominant-baseline="ideographic">데이터 수집</tspan></text></g></g></g><g id="g-root-tx__zlatbf1iz3d3g-fill" data-item-order="0" data-item-id="tx__zlatbf1iz3d3g" data-item-class="Label Stroke" data-item-index="none" data-renderer-id="0" transform="translate(74, 105)"><g id="tx__zlatbf1iz3d3g-fill" stroke="none" fill="#484848"><g><text style="font: 20px Roboto, sans-serif; white-space: pre;"><tspan x="14" y="34" dominant-baseline="ideographic">질문</tspan></text></g></g></g><g id="g-root-cu_8d23v1izd895-fill" data-item-order="0" data-item-id="cu_8d23v1izd895" data-item-class="Curve Stroke ColorFillGray ColorStrokeGray" data-item-index="none" data-renderer-id="0" transform="translate(170, 30)"></g><g id="g-root-tx__1hd7awb1iz3g27-fill" data-item-order="0" data-item-id="tx__1hd7awb1iz3g27" data-item-class="Label Stroke" data-item-index="none" data-renderer-id="0" transform="translate(482, 105)"><g id="tx__1hd7awb1iz3g27-fill" stroke="none" fill="#484848"><g><text style="font: 20px Roboto, sans-serif; white-space: pre;"><tspan x="14" y="34" dominant-baseline="ideographic">분석</tspan></text></g></g></g><g id="g-root-nega_1lz9gq31iz7myp-fill" data-item-order="0" data-item-id="nega_1lz9gq31iz7myp" data-item-class="Icon Stroke" data-item-index="none" data-renderer-id="0" transform="translate(278, 120)"></g><g id="g-root-tx__hu0stn1iz3fgl-fill" data-item-order="0" data-item-id="tx__hu0stn1iz3fgl" data-item-class="Label Stroke" data-item-index="none" data-renderer-id="0" transform="translate(74, 141)"><g id="tx__hu0stn1iz3fgl-fill" stroke="none" fill="#484848"><g><text style="font: 20px Roboto, sans-serif; white-space: pre;"><tspan x="14" y="34" dominant-baseline="ideographic">예측</tspan></text></g></g></g><g id="g-root-tx__mbpq7f1iz3doq-fill" data-item-order="0" data-item-id="tx__mbpq7f1iz3doq" data-item-class="Label Stroke" data-item-index="none" data-renderer-id="0" transform="translate(482, 291)"><g id="tx__mbpq7f1iz3doq-fill" stroke="none" fill="#484848"><g><text style="font: 20px Roboto, sans-serif; white-space: pre;"><tspan x="15.52" y="34" dominant-baseline="ideographic">이론 수정</tspan></text></g></g></g><g id="g-root-tx__18i6rqj1iz3egw-fill" data-item-order="0" data-item-id="tx__18i6rqj1iz3egw" data-item-class="Label Stroke" data-item-index="none" data-renderer-id="0" transform="translate(482, 141)"><g id="tx__18i6rqj1iz3egw-fill" stroke="none" fill="#484848"><g><text style="font: 20px Roboto, sans-serif; white-space: pre;"><tspan x="14" y="34" dominant-baseline="ideographic">결과</tspan></text></g></g></g><g id="g-root-chem_dg2msr1izg1dx-fill" data-item-order="0" data-item-id="chem_dg2msr1izg1dx" data-item-class="Icon Stroke" data-item-index="none" data-renderer-id="0" transform="translate(446, 15)"></g><g id="g-root-cu_zrjk6j1izd9mq-fill" data-item-order="0" data-item-id="cu_zrjk6j1izd9mq" data-item-class="Curve Stroke ColorFillGray ColorStrokeGray" data-item-index="none" data-renderer-id="0" transform="translate(170, 180)"></g><g id="g-root-tx__9lx4b1iz7lkw-fill" data-item-order="0" data-item-id="tx__9lx4b1iz7lkw" data-item-class="Label Stroke" data-item-index="none" data-renderer-id="0" transform="translate(242, 174)"><g id="tx__9lx4b1iz7lkw-fill" stroke="none" fill="#484848"><g><text style="font: 20px Roboto, sans-serif; white-space: pre;"><tspan x="17.52" y="34" dominant-baseline="ideographic">과학적 방법</tspan></text></g></g></g><g id="g-root-cu_1hitkob1izd79j-fill" data-item-order="0" data-item-id="cu_1hitkob1izd79j" data-item-class="Curve Stroke ColorFillGray ColorStrokeGray" data-item-index="none" data-renderer-id="0" transform="translate(386, 180)"></g><g id="g-root-incr_vah3vv1izd7gv-fill" data-item-order="0" data-item-id="incr_vah3vv1izd7gv" data-item-class="Icon Stroke" data-item-index="none" data-renderer-id="0" transform="translate(128, 201)"></g><g id="g-root-tx__mcc7aj1iz90js-fill" data-item-order="0" data-item-id="tx__mcc7aj1iz90js" data-item-class="Label Stroke" data-item-index="none" data-renderer-id="0" transform="translate(26, 18)"><g id="tx__mcc7aj1iz90js-fill" stroke="none" fill="#4682e3"><g><text style="font: 20px Roboto, sans-serif; white-space: pre;"><tspan x="15.52" y="34" dominant-baseline="ideographic">가설 형성</tspan></text></g></g></g><g id="g-root-tx__1hgy5ez1izd892-fill" data-item-order="0" data-item-id="tx__1hgy5ez1izd892" data-item-class="Label Stroke" data-item-index="none" data-renderer-id="0" transform="translate(26, 204)"><g id="tx__1hgy5ez1izd892-fill" stroke="none" fill="#b65edf"><g><text style="font: 20px Roboto, sans-serif; white-space: pre;"><tspan x="15.52" y="34" dominant-baseline="ideographic">지식 발전</tspan></text></g></g></g><g id="g-root-drop_1lqitij1izlon7-fill" data-item-order="0" data-item-id="drop_1lqitij1izlon7" data-item-class="Icon Stroke" data-item-index="none" data-renderer-id="0" transform="translate(446, 201)"></g><g id="g-root-tx__4gos171izlmh6-fill" data-item-order="0" data-item-id="tx__4gos171izlmh6" data-item-class="Label Stroke" data-item-index="none" data-renderer-id="0" transform="translate(482, 204)"><g id="tx__4gos171izlmh6-fill" stroke="none" fill="#e15e5a"><g><text style="font: 20px Roboto, sans-serif; white-space: pre;"><tspan x="17.52" y="34" dominant-baseline="ideographic">반증 가능성</tspan></text></g></g></g><g id="g-root-tx__hvw82z1iz3egz-fill" data-item-order="0" data-item-id="tx__hvw82z1iz3egz" data-item-class="Label Stroke" data-item-index="none" data-renderer-id="0" transform="translate(2, 255)"><g id="tx__hvw82z1iz3egz-fill" stroke="none" fill="#484848"><g><text style="font: 20px Roboto, sans-serif; white-space: pre;"><tspan x="17.52" y="34" dominant-baseline="ideographic">새로운 발견</tspan></text></g></g></g><g id="g-root-cu_dcyciz1izen7n-fill" data-item-order="0" data-item-id="cu_dcyciz1izen7n" data-item-class="Curve Stroke ColorFillGray ColorStrokeGray" data-item-index="none" data-renderer-id="0" transform="translate(128, 243)"></g><g id="g-root-cu_hsrunf1izemfc-fill" data-item-order="0" data-item-id="cu_hsrunf1izemfc" data-item-class="Curve Stroke ColorFillGray ColorStrokeGray" data-item-index="none" data-renderer-id="0" transform="translate(128, 243)"></g><g id="g-root-cu_18f2eaz1izemf7-fill" data-item-order="0" data-item-id="cu_18f2eaz1izemf7" data-item-class="Curve Stroke ColorFillGray ColorStrokeGray" data-item-index="none" data-renderer-id="0" transform="translate(458, 243)"></g><g id="g-root-cu_v3lvxn1izeo06-fill" data-item-order="0" data-item-id="cu_v3lvxn1izeo06" data-item-class="Curve Stroke ColorFillGray ColorStrokeGray" data-item-index="none" data-renderer-id="0" transform="translate(458, 243)"></g><g id="g-root-tx__zmjrhn1iz3f9l-fill" data-item-order="0" data-item-id="tx__zmjrhn1iz3f9l" data-item-class="Label Stroke" data-item-index="none" data-renderer-id="0" transform="translate(482, 255)"><g id="tx__zmjrhn1iz3f9l-fill" stroke="none" fill="#484848"><g><text style="font: 20px Roboto, sans-serif; white-space: pre;"><tspan x="17.52" y="34" dominant-baseline="ideographic">포퍼의 개념</tspan></text></g></g></g><g id="g-root-tx__4kfppn1iz3g1w-fill" data-item-order="0" data-item-id="tx__4kfppn1iz3g1w" data-item-class="Label Stroke" data-item-index="none" data-renderer-id="0" transform="translate(50, 291)"><g id="tx__4kfppn1iz3g1w-fill" stroke="none" fill="#484848"><g><text style="font: 20px Roboto, sans-serif; white-space: pre;"><tspan x="16" y="34" dominant-baseline="ideographic">정교화</tspan></text></g></g></g><g id="g-root-face_4lonvv1iz8zr5-fill" data-item-order="0" data-item-id="face_4lonvv1iz8zr5" data-item-class="Icon Stroke" data-item-index="none" data-renderer-id="0" transform="translate(128, 15)"></g><g id="g-root-ro_18efu231iz8zya-stroke" data-item-order="-21168" data-item-id="ro_18efu231iz8zya" data-item-class="Shape Stroke Fill" data-item-index="none" data-renderer-id="0" transform="translate(218, 96)"><g id="ro_18efu231iz8zya-stroke" fill="none" stroke-linecap="round" stroke-linejoin="round" stroke-miterlimit="4" stroke="#484848" stroke-width="2"><g><path d="M 34 10L 154 10C 154 10 178 10 178 34L 178 112C 178 112 178 136 154 136L 34 136C 34 136 10 136 10 112L 10 34C 10 34 10 10 34 10"></path></g></g></g><g id="g-root-ro_1cuvt9n1izlpfw-stroke" data-item-order="-9720" data-item-id="ro_1cuvt9n1izlpfw" data-item-class="Shape Stroke Fill" data-item-index="none" data-renderer-id="0" transform="translate(434, 189)"><g id="ro_1cuvt9n1izlpfw-stroke" fill="none" stroke-linecap="round" stroke-linejoin="round" stroke-miterlimit="4" stroke="#e15e5a" stroke-width="2"><g><path d="M 22 10L 178 10C 178 10 190 10 190 22L 190 52C 190 52 190 64 178 64L 22 64C 22 64 10 64 10 52L 10 22C 10 22 10 10 22 10"></path></g></g></g><g id="g-root-ro_1ur5pm31iz90cq-stroke" data-item-order="-8424" data-item-id="ro_1ur5pm31iz90cq" data-item-class="Shape Stroke Fill" data-item-index="none" data-renderer-id="0" transform="translate(14, 3)"><g id="ro_1ur5pm31iz90cq-stroke" fill="none" stroke-linecap="round" stroke-linejoin="round" stroke-miterlimit="4" stroke="#4682e3" stroke-width="2"><g><path d="M 22 10L 154 10C 154 10 166 10 166 22L 166 52C 166 52 166 64 154 64L 22 64C 22 64 10 64 10 52L 10 22C 10 22 10 10 22 10"></path></g></g></g><g id="g-root-ro_dj73e31izd9u0-stroke" data-item-order="-8424" data-item-id="ro_dj73e31izd9u0" data-item-class="Shape Stroke Fill" data-item-index="none" data-renderer-id="0" transform="translate(14, 189)"><g id="ro_dj73e31izd9u0-stroke" fill="none" stroke-linecap="round" stroke-linejoin="round" stroke-miterlimit="4" stroke="#b65edf" stroke-width="2"><g><path d="M 22 10L 154 10C 154 10 166 10 166 22L 166 52C 166 52 166 64 154 64L 22 64C 22 64 10 64 10 52L 10 22C 10 22 10 10 22 10"></path></g></g></g><g id="g-root-ro_4m4ff1izg2yu-stroke" data-item-order="-5832" data-item-id="ro_4m4ff1izg2yu" data-item-class="Shape Stroke Fill" data-item-index="none" data-renderer-id="0" transform="translate(434, 3)"><g id="ro_4m4ff1izg2yu-stroke" fill="none" stroke-linecap="round" stroke-linejoin="round" stroke-miterlimit="4" stroke="#3bc482" stroke-width="2"><g><path d="M 22 10L 106 10C 106 10 118 10 118 22L 118 52C 118 52 118 64 106 64L 22 64C 22 64 10 64 10 52L 10 22C 10 22 10 10 22 10"></path></g></g></g><g id="g-root-cu_1utnlyj1izd8uc-stroke" data-item-order="0" data-item-id="cu_1utnlyj1izd8uc" data-item-class="Curve Stroke ColorFillGray ColorStrokeGray" data-item-index="none" data-renderer-id="0" transform="translate(386, 30)"><g id="cu_1utnlyj1izd8uc-stroke" fill="none" stroke-linecap="round" stroke-linejoin="round" stroke-miterlimit="4" stroke="#888888" stroke-width="2" stroke-dasharray="5.0, 7.0"><g><path d="M 10 118L 13 118L 13.1 118C 24.642749 118.000007 33.999998 108.642757 33.999998 97.100005L 34 97L 34 30.9C 33.999999 19.357249 43.357248 10.000001 54.899999 10.000002L 55 10L 58 10"></path></g></g></g><g id="g-root-tx__v6q67f1izg26k-stroke" data-item-order="0" data-item-id="tx__v6q67f1izg26k" data-item-class="Label Stroke" data-item-index="none" data-renderer-id="0" transform="translate(482, 18)"></g><g id="g-root-tx__1lrruuj1iz3dvn-stroke" data-item-order="0" data-item-id="tx__1lrruuj1iz3dvn" data-item-class="Label Stroke" data-item-index="none" data-renderer-id="0" transform="translate(74, 69)"></g><g id="g-root-cu_9590iz1izd9my-stroke" data-item-order="0" data-item-id="cu_9590iz1izd9my" data-item-class="Curve Stroke ColorFillGray ColorStrokeGray" data-item-index="none" data-renderer-id="0" transform="translate(128, 57)"><g id="cu_9590iz1izd9my-stroke" fill="none" stroke-linecap="round" stroke-linejoin="round" stroke-miterlimit="4" stroke="#888888" stroke-width="2" stroke-dasharray="5.0, 7.0"><g><path d="M 28 10L 28 22L 28 94C 28.000002 100.627415 22.627419 105.999998 16.000002 105.999998L 15.9 106L 10 106"></path></g></g></g><g id="g-root-cu_i0w0rv1izd8u8-stroke" data-item-order="0" data-item-id="cu_i0w0rv1izd8u8" data-item-class="Curve Stroke ColorFillGray ColorStrokeGray" data-item-index="none" data-renderer-id="0" transform="translate(128, 57)"><g id="cu_i0w0rv1izd8u8-stroke" fill="none" stroke-linecap="round" stroke-linejoin="round" stroke-miterlimit="4" stroke="#888888" stroke-width="2" stroke-dasharray="5.0, 7.0"><g><path d="M 28 10L 28 40L 28 70L 19 70L 10 70"></path></g></g></g><g id="g-root-cu_qwj10r1izd79p-stroke" data-item-order="0" data-item-id="cu_qwj10r1izd79p" data-item-class="Curve Stroke ColorFillGray ColorStrokeGray" data-item-index="none" data-renderer-id="0" transform="translate(128, 57)"><g id="cu_qwj10r1izd79p-stroke" fill="none" stroke-linecap="round" stroke-linejoin="round" stroke-miterlimit="4" stroke="#888888" stroke-width="2" stroke-dasharray="5.0, 7.0"><g><path d="M 28 10L 28 22L 28 34L 19 34L 10 34"></path></g></g></g><g id="g-root-cu_1cuvwff1izelmx-stroke" data-item-order="0" data-item-id="cu_1cuvwff1izelmx" data-item-class="Curve Stroke ColorFillGray ColorStrokeGray" data-item-index="none" data-renderer-id="0" transform="translate(458, 57)"><g id="cu_1cuvwff1izelmx-stroke" fill="none" stroke-linecap="round" stroke-linejoin="round" stroke-miterlimit="4" stroke="#888888" stroke-width="2" stroke-dasharray="5.0, 7.0"><g><path d="M 10 10L 10 22L 10 94C 10.000004 100.627423 15.372587 106.000006 22.000005 106.000005L 22.1 106L 28 106"></path></g></g></g><g id="g-root-cu_1q5pxpn1izen7r-stroke" data-item-order="0" data-item-id="cu_1q5pxpn1izen7r" data-item-class="Curve Stroke ColorFillGray ColorStrokeGray" data-item-index="none" data-renderer-id="0" transform="translate(458, 57)"><g id="cu_1q5pxpn1izen7r-stroke" fill="none" stroke-linecap="round" stroke-linejoin="round" stroke-miterlimit="4" stroke="#888888" stroke-width="2" stroke-dasharray="5.0, 7.0"><g><path d="M 10 10L 10 40L 10 70L 19 70L 28 70"></path></g></g></g><g id="g-root-cu_4g2e3v1izeltw-stroke" data-item-order="0" data-item-id="cu_4g2e3v1izeltw" data-item-class="Curve Stroke ColorFillGray ColorStrokeGray" data-item-index="none" data-renderer-id="0" transform="translate(458, 57)"><g id="cu_4g2e3v1izeltw-stroke" fill="none" stroke-linecap="round" stroke-linejoin="round" stroke-miterlimit="4" stroke="#888888" stroke-width="2" stroke-dasharray="5.0, 7.0"><g><path d="M 10 10L 10 22L 10 34L 19 34L 28 34"></path></g></g></g><g id="g-root-tx__1uont9n1iz3eha-stroke" data-item-order="0" data-item-id="tx__1uont9n1iz3eha" data-item-class="Label Stroke" data-item-index="none" data-renderer-id="0" transform="translate(482, 69)"></g><g id="g-root-tx__zlatbf1iz3d3g-stroke" data-item-order="0" data-item-id="tx__zlatbf1iz3d3g" data-item-class="Label Stroke" data-item-index="none" data-renderer-id="0" transform="translate(74, 105)"></g><g id="g-root-cu_8d23v1izd895-stroke" data-item-order="0" data-item-id="cu_8d23v1izd895" data-item-class="Curve Stroke ColorFillGray ColorStrokeGray" data-item-index="none" data-renderer-id="0" transform="translate(170, 30)"><g id="cu_8d23v1izd895-stroke" fill="none" stroke-linecap="round" stroke-linejoin="round" stroke-miterlimit="4" stroke="#888888" stroke-width="2" stroke-dasharray="5.0, 7.0"><g><path d="M 58 118L 55 118L 54.9 118C 43.357248 117.999999 33.999999 108.64275 33.999999 97.099999L 34 97L 34 30.9C 33.999998 19.357248 24.64275 10 13.1 10L 13 10L 10 10"></path></g></g></g><g id="g-root-tx__1hd7awb1iz3g27-stroke" data-item-order="0" data-item-id="tx__1hd7awb1iz3g27" data-item-class="Label Stroke" data-item-index="none" data-renderer-id="0" transform="translate(482, 105)"></g><g id="g-root-nega_1lz9gq31iz7myp-stroke" data-item-order="0" data-item-id="nega_1lz9gq31iz7myp" data-item-class="Icon Stroke" data-item-index="none" data-renderer-id="0" transform="translate(278, 120)"><g id="nega_1lz9gq31iz7myp-stroke" fill="none" stroke-linecap="round" stroke-linejoin="round" stroke-miterlimit="4" stroke="#484848" stroke-width="2"><g><path d="M 54.48 25.950001C 58.246555 35.541233 54.843201 46.461567 46.294518 52.214718C 37.745834 57.967869 26.34774 57.008717 18.880728 49.907845C 11.413715 42.806969 9.883193 31.471447 15.199638 22.64455C 20.516083 13.817654 31.251665 9.870013 41.02 13.15M 24 34C 24 39.52285 28.477154 44 34 44C 39.52285 44 44 39.52285 44 34C 44 28.477154 39.52285 24 34 24C 28.477154 24 24 28.477154 24 34M 29 34L 39 34M 34 29L 34 39M 44 18C 44 20.761425 46.238575 23 49 23C 51.761425 23 54 20.761425 54 18C 54 15.238577 51.761425 13 49 13C 46.238575 13 44 15.238577 44 18M 47 18L 50.792 18"></path></g></g></g><g id="g-root-tx__hu0stn1iz3fgl-stroke" data-item-order="0" data-item-id="tx__hu0stn1iz3fgl" data-item-class="Label Stroke" data-item-index="none" data-renderer-id="0" transform="translate(74, 141)"></g><g id="g-root-tx__mbpq7f1iz3doq-stroke" data-item-order="0" data-item-id="tx__mbpq7f1iz3doq" data-item-class="Label Stroke" data-item-index="none" data-renderer-id="0" transform="translate(482, 291)"></g><g id="g-root-tx__18i6rqj1iz3egw-stroke" data-item-order="0" data-item-id="tx__18i6rqj1iz3egw" data-item-class="Label Stroke" data-item-index="none" data-renderer-id="0" transform="translate(482, 141)"></g><g id="g-root-chem_dg2msr1izg1dx-stroke" data-item-order="0" data-item-id="chem_dg2msr1izg1dx" data-item-class="Icon Stroke" data-item-index="none" data-renderer-id="0" transform="translate(446, 15)"><g id="chem_dg2msr1izg1dx-stroke" fill="none" stroke-linecap="round" stroke-linejoin="round" stroke-miterlimit="4" stroke="#3bc482" stroke-width="2"><g><path d="M 10.625 15.625L 35.625 15.625M 14.0625 12.8125C 13.889911 12.8125 13.75 12.952411 13.75 13.125C 13.75 13.297589 13.889911 13.4375 14.0625 13.4375C 14.235089 13.4375 14.375 13.297589 14.375 13.125C 14.375 12.952411 14.235089 12.8125 14.0625 12.8125L 14.0625 12.8125M 17.1875 12.8125C 17.014912 12.8125 16.875 12.952411 16.875 13.125C 16.875 13.297589 17.014912 13.4375 17.1875 13.4375C 17.360088 13.4375 17.5 13.297589 17.5 13.125C 17.5 12.952411 17.360088 12.8125 17.1875 12.8125L 17.1875 12.8125M 20.3125 12.8125C 20.139912 12.8125 20 12.952411 20 13.125C 20 13.297589 20.139912 13.4375 20.3125 13.4375C 20.485088 13.4375 20.625 13.297589 20.625 13.125C 20.625 12.952411 20.485088 12.8125 20.3125 12.8125L 20.3125 12.8125M 22.5 29.375L 13.125 29.375C 11.744288 29.375 10.625 28.255713 10.625 26.875L 10.625 13.125C 10.625 11.744288 11.744288 10.625 13.125 10.625L 33.125 10.625C 34.505714 10.625 35.625 11.744288 35.625 13.125L 35.625 23.125M 31.875 21.25L 31.875 23.75M 33.125 22.5L 30.625 22.5M 27.5 25.625L 27.5 28.125M 28.75 26.875L 26.25 26.875M 30.262499 35C 31.25 33.125 32.5 31.25 32.5 31.25L 32.5 26.875C 32.5 26.529823 32.779823 26.25 33.125 26.25L 35 26.25C 35.345177 26.25 35.625 26.529823 35.625 26.875L 35.625 31.25C 35.625 31.362499 39.212502 37.5 39.212502 37.5C 39.435127 37.885586 39.435852 38.360489 39.214394 38.746754C 38.992935 39.133015 38.582733 39.372322 38.137501 39.375L 30.299999 39.375M 30.262499 35L 37.75 35M 25 37.8125C 25 38.675446 25.699556 39.375 26.5625 39.375C 27.425446 39.375 28.125 38.675446 28.125 37.8125L 28.125 31.25L 25 31.25Z"></path></g></g></g><g id="g-root-cu_zrjk6j1izd9mq-stroke" data-item-order="0" data-item-id="cu_zrjk6j1izd9mq" data-item-class="Curve Stroke ColorFillGray ColorStrokeGray" data-item-index="none" data-renderer-id="0" transform="translate(170, 180)"><g id="cu_zrjk6j1izd9mq-stroke" fill="none" stroke-linecap="round" stroke-linejoin="round" stroke-miterlimit="4" stroke="#888888" stroke-width="2" stroke-dasharray="5.0, 7.0"><g><path d="M 58 10L 55 10L 54.9 10C 50.350902 9.994769 45.487624 11.792068 41.1 15.099998C 38.462623 17.103929 35.872373 21.810158 34 28.000001C 32.127628 34.189843 29.537377 38.896072 26.9 40.900001C 22.512376 44.207931 17.649098 46.00523 13.099999 46.000002L 13 46L 10 46"></path></g></g></g><g id="g-root-tx__9lx4b1iz7lkw-stroke" data-item-order="0" data-item-id="tx__9lx4b1iz7lkw" data-item-class="Label Stroke" data-item-index="none" data-renderer-id="0" transform="translate(242, 174)"></g><g id="g-root-cu_1hitkob1izd79j-stroke" data-item-order="0" data-item-id="cu_1hitkob1izd79j" data-item-class="Curve Stroke ColorFillGray ColorStrokeGray" data-item-index="none" data-renderer-id="0" transform="translate(386, 180)"><g id="cu_1hitkob1izd79j-stroke" fill="none" stroke-linecap="round" stroke-linejoin="round" stroke-miterlimit="4" stroke="#888888" stroke-width="2" stroke-dasharray="5.0, 7.0"><g><path d="M 10 10L 13 10L 13.1 10C 17.649099 9.994772 22.512377 11.792071 26.9 15.100001C 29.537378 17.103929 32.127628 21.810158 34.000001 28.000001C 35.872373 34.189843 38.462623 38.896072 41.100001 40.900001C 45.487625 44.207934 50.350903 46.005233 54.900002 46.000005L 55 46L 58 46"></path></g></g></g><g id="g-root-incr_vah3vv1izd7gv-stroke" data-item-order="0" data-item-id="incr_vah3vv1izd7gv" data-item-class="Icon Stroke" data-item-index="none" data-renderer-id="0" transform="translate(128, 201)"><g id="incr_vah3vv1izd7gv-stroke" fill="none" stroke-linecap="round" stroke-linejoin="round" stroke-miterlimit="4" stroke="#b65edf" stroke-width="2"><g><path d="M 10.63 39.0625L 39.380001 39.0625M 15.625 39.0625L 15.625 35.9375C 15.625 35.592323 15.345179 35.3125 15 35.3125L 12.5 35.3125C 12.154822 35.3125 11.875 35.592323 11.875 35.9375L 11.875 39.0625M 23.125 39.0625L 23.125 30.9375C 23.125 30.592323 22.845177 30.3125 22.5 30.3125L 20 30.3125C 19.654821 30.3125 19.375 30.592323 19.375 30.9375L 19.375 39.0625M 30.625 39.0625L 30.625 25.9375C 30.625 25.592323 30.345177 25.3125 30 25.3125L 27.5 25.3125C 27.154823 25.3125 26.875 25.592323 26.875 25.9375L 26.875 39.0625M 38.125 39.0625L 38.125 20.9375C 38.125 20.592323 37.845177 20.3125 37.5 20.3125L 35 20.3125C 34.654823 20.3125 34.375 20.592323 34.375 20.9375L 34.375 39.0625M 13.755 26.5625L 36.255001 11.5625M 35.630001 16.5625L 36.255001 11.5625L 31.254999 10.9375"></path></g></g></g><g id="g-root-tx__mcc7aj1iz90js-stroke" data-item-order="0" data-item-id="tx__mcc7aj1iz90js" data-item-class="Label Stroke" data-item-index="none" data-renderer-id="0" transform="translate(26, 18)"></g><g id="g-root-tx__1hgy5ez1izd892-stroke" data-item-order="0" data-item-id="tx__1hgy5ez1izd892" data-item-class="Label Stroke" data-item-index="none" data-renderer-id="0" transform="translate(26, 204)"></g><g id="g-root-drop_1lqitij1izlon7-stroke" data-item-order="0" data-item-id="drop_1lqitij1izlon7" data-item-class="Icon Stroke" data-item-index="none" data-renderer-id="0" transform="translate(446, 201)"><g id="drop_1lqitij1izlon7-stroke" fill="none" stroke-linecap="round" stroke-linejoin="round" stroke-miterlimit="4" stroke="#e15e5a" stroke-width="2"><g><path d="M 31.875 12.375C 26.190413 9.279281 19.137917 10.364676 14.647216 15.026394C 10.156515 19.688112 9.335345 26.776234 12.641268 32.341202C 15.94719 37.906174 22.564722 40.57526 28.806528 38.861233C 35.048332 37.147209 39.374722 31.47287 39.375 25C 39.370235 24.372709 39.324722 23.746389 39.238747 23.125M 29.841249 29.375C 30.227962 29.37442 30.593166 29.552862 30.830364 29.858284C 31.067562 30.163708 31.15004 30.561718 31.053751 30.936251C 30.344353 33.699951 27.853296 35.632347 25 35.632347C 22.146704 35.632347 19.655649 33.699951 18.946251 30.936251C 18.849958 30.561718 18.932438 30.163708 19.169636 29.858284C 19.406834 29.552862 19.772038 29.37442 20.158751 29.375ZM 33.5 22.635C 32.961048 21.773329 32.016342 21.249941 31 21.249941C 29.983658 21.249941 29.038956 21.773329 28.5 22.635M 21.875 22.635C 21.336044 21.773329 20.39134 21.249941 19.375 21.249941C 18.35866 21.249941 17.413954 21.773329 16.875 22.635M 39.375 17.5C 39.375 19.225889 37.975891 20.625 36.25 20.625C 34.524109 20.625 33.125 19.225889 33.125 17.5C 33.125 15.77375 36.25 10.625 36.25 10.625C 36.25 10.625 39.375 15.77375 39.375 17.5Z"></path></g></g></g><g id="g-root-tx__4gos171izlmh6-stroke" data-item-order="0" data-item-id="tx__4gos171izlmh6" data-item-class="Label Stroke" data-item-index="none" data-renderer-id="0" transform="translate(482, 204)"></g><g id="g-root-tx__hvw82z1iz3egz-stroke" data-item-order="0" data-item-id="tx__hvw82z1iz3egz" data-item-class="Label Stroke" data-item-index="none" data-renderer-id="0" transform="translate(2, 255)"></g><g id="g-root-cu_dcyciz1izen7n-stroke" data-item-order="0" data-item-id="cu_dcyciz1izen7n" data-item-class="Curve Stroke ColorFillGray ColorStrokeGray" data-item-index="none" data-renderer-id="0" transform="translate(128, 243)"><g id="cu_dcyciz1izen7n-stroke" fill="none" stroke-linecap="round" stroke-linejoin="round" stroke-miterlimit="4" stroke="#888888" stroke-width="2" stroke-dasharray="5.0, 7.0"><g><path d="M 28 10L 28 17.5L 28 58C 27.999999 64.627415 22.627416 69.999998 16 69.999998L 15.9 70L 10 70"></path></g></g></g><g id="g-root-cu_hsrunf1izemfc-stroke" data-item-order="0" data-item-id="cu_hsrunf1izemfc" data-item-class="Curve Stroke ColorFillGray ColorStrokeGray" data-item-index="none" data-renderer-id="0" transform="translate(128, 243)"><g id="cu_hsrunf1izemfc-stroke" fill="none" stroke-linecap="round" stroke-linejoin="round" stroke-miterlimit="4" stroke="#888888" stroke-width="2" stroke-dasharray="5.0, 7.0"><g><path d="M 28 10L 28 22L 28 34L 19 34L 10 34"></path></g></g></g><g id="g-root-cu_18f2eaz1izemf7-stroke" data-item-order="0" data-item-id="cu_18f2eaz1izemf7" data-item-class="Curve Stroke ColorFillGray ColorStrokeGray" data-item-index="none" data-renderer-id="0" transform="translate(458, 243)"><g id="cu_18f2eaz1izemf7-stroke" fill="none" stroke-linecap="round" stroke-linejoin="round" stroke-miterlimit="4" stroke="#888888" stroke-width="2" stroke-dasharray="5.0, 7.0"><g><path d="M 10 10L 10 22L 10 34L 19 34L 28 34"></path></g></g></g><g id="g-root-cu_v3lvxn1izeo06-stroke" data-item-order="0" data-item-id="cu_v3lvxn1izeo06" data-item-class="Curve Stroke ColorFillGray ColorStrokeGray" data-item-index="none" data-renderer-id="0" transform="translate(458, 243)"><g id="cu_v3lvxn1izeo06-stroke" fill="none" stroke-linecap="round" stroke-linejoin="round" stroke-miterlimit="4" stroke="#888888" stroke-width="2" stroke-dasharray="5.0, 7.0"><g><path d="M 10 10L 10 17.5L 10 58C 10.000002 64.627417 15.372585 70 22.000002 69.999999L 22.1 70L 28 70"></path></g></g></g><g id="g-root-tx__zmjrhn1iz3f9l-stroke" data-item-order="0" data-item-id="tx__zmjrhn1iz3f9l" data-item-class="Label Stroke" data-item-index="none" data-renderer-id="0" transform="translate(482, 255)"></g><g id="g-root-tx__4kfppn1iz3g1w-stroke" data-item-order="0" data-item-id="tx__4kfppn1iz3g1w" data-item-class="Label Stroke" data-item-index="none" data-renderer-id="0" transform="translate(50, 291)"></g><g id="g-root-face_4lonvv1iz8zr5-stroke" data-item-order="0" data-item-id="face_4lonvv1iz8zr5" data-item-class="Icon Stroke" data-item-index="none" data-renderer-id="0" transform="translate(128, 15)"><g id="face_4lonvv1iz8zr5-stroke" fill="none" stroke-linecap="round" stroke-linejoin="round" stroke-miterlimit="4" stroke="#4682e3" stroke-width="2"><g><path d="M 25.25 22.3675C 24 21.1175 21.5 20.4925 20.25 21.7425M 12.875 24.8675C 12.75 24.3675 12.75 23.8675 12.75 23.2425C 12.75 16.4925 18.25 10.9925 25 10.9925C 31.75 10.9925 37.25 16.4925 37.25 23.2425C 37.25 27.7425 34.875 31.6175 31.25 33.7425M 22.6875 38.25C 25.1875 37.25 24.71875 35.046249 24.21875 33.046249L 28.19875 31.505001C 29.121367 31.147957 29.603865 30.131912 29.297501 29.19125L 29.297501 29.19125C 29.139063 28.704741 28.787453 28.304836 28.325226 28.085424C 27.862997 27.866014 27.33086 27.846422 26.85375 28.031252L 19.53125 30.86875C 18.90625 31.118752 18.15625 30.618752 18.15625 29.99375L 18.1075 28.810001C 18.087532 28.327705 17.868391 27.875301 17.502327 27.560652C 17.136261 27.246 16.656075 27.0973 16.17625 27.150002L 16.17625 27.15C 15.29355 27.247471 14.625369 27.993185 14.625 28.881252L 14.625 33.993752C 14.625 37.243752 17.625 39.618752 20.75 38.868748C 20.75 38.868748 22.0625 38.5 22.6875 38.25ZM 19.09375 17.3675C 18.834867 17.3675 18.625 17.157635 18.625 16.89875C 18.625 16.639866 18.834867 16.43 19.09375 16.43M 19.09375 17.3675C 19.352634 17.3675 19.5625 17.157635 19.5625 16.89875C 19.5625 16.639866 19.352634 16.43 19.09375 16.43M 25.75 17.3675C 25.491117 17.3675 25.28125 17.157635 25.28125 16.89875C 25.28125 16.639866 25.491117 16.43 25.75 16.43M 25.75 17.3675C 26.008884 17.3675 26.21875 17.157635 26.21875 16.89875C 26.21875 16.639866 26.008884 16.43 25.75 16.43"></path></g></g></g></g></g></svg>