<?xml version="1.0" encoding="utf-8" standalone="yes"?>
<!DOCTYPE svg PUBLIC "-//W3C//DTD SVG 1.1//EN" "http://www.w3.org/Graphics/SVG/1.1/DTD/svg11.dtd">
<svg width="533" height="434" viewBox="0 0 533 434" style="fill:none;stroke:none;fill-rule:evenodd;clip-rule:evenodd;stroke-linecap:round;stroke-linejoin:round;stroke-miterlimit:1.5;" version="1.1" xmlns="http://www.w3.org/2000/svg" xmlns:xlink="http://www.w3.org/1999/xlink"><style id="fontImports">@import url("https://fonts.googleapis.com/css2?family=Shantell+Sans:wght@300..800&amp;display=block");</style><rect id="" x="0" y="0" width="532" height="434" style="fill: #ffffff;"></rect><g id="items" style="isolation: isolate"><g id="blend" style="mix-blend-mode:multiply"><g id="g-root-3.cu_sy_zmkdmh1nzbjm6-fill" data-item-order="-187483" data-item-id="3.cu_sy_zmkdmh1nzbjm6" data-item-class="ScenePart Part Indexed Stroke ColorStrokeBlack" data-item-index="3" data-renderer-id="0" transform="translate(4, 145.9990234375)"></g><g id="g-root-2.cu_sy_18i7dvd1nzbith-fill" data-item-order="-187481" data-item-id="2.cu_sy_18i7dvd1nzbith" data-item-class="ScenePart Part Indexed Stroke ColorStrokeBlack" data-item-index="2" data-renderer-id="0" transform="translate(256.00048828125, 38)"></g><g id="g-root-1.cu_sy_18i7dvd1nzbitg-fill" data-item-order="-187480" data-item-id="1.cu_sy_18i7dvd1nzbitg" data-item-class="ScenePart Part Indexed Indexed_1 Fill Stroke ColorStrokeBlack" data-item-index="1" data-renderer-id="0" transform="translate(226.00048828125, 62)"><g id="1.cu_sy_18i7dvd1nzbitg-fill" stroke="none" fill="none"><g><path d="M 10 34L 28 10L 28 18L 52 18L 52 10L 70 34L 52 58L 52 50L 28 50L 28 58L 10 34Z"></path></g></g></g><g id="g-root-tx__zmkdmh1nzbjm7-fill" data-item-order="0" data-item-id="tx__zmkdmh1nzbjm7" data-item-class="Label Stroke SceneTarget SceneStart ColorStrokeBlack" data-item-index="none" data-renderer-id="0" transform="translate(190.00048828125, 2)"><g id="tx__zmkdmh1nzbjm7-fill" stroke="none" fill="#484848"><g><text style="font: 20px &quot;Shantell Sans&quot;, cursive; white-space: pre;"><tspan x="12.04" y="35.5" dominant-baseline="ideographic">시뮬레이션 이론</tspan></text></g></g></g><g id="g-root-tx__zofsvt1nzbimn-fill" data-item-order="0" data-item-id="tx__zofsvt1nzbimn" data-item-class="Label Stroke SceneTarget ColorStrokeBlack" data-item-index="none" data-renderer-id="0" transform="translate(64.00048828125, 74)"><g id="tx__zofsvt1nzbimn-fill" stroke="none" fill="#484848"><g><text style="font: 20px &quot;Shantell Sans&quot;, cursive; white-space: pre;"><tspan x="12" y="35.5" dominant-baseline="ideographic">장점</tspan></text></g></g></g><g id="g-root-tx__18jgc1l1nzbkzq-fill" data-item-order="0" data-item-id="tx__18jgc1l1nzbkzq" data-item-class="Label Stroke SceneTarget ColorStrokeBlack" data-item-index="none" data-renderer-id="0" transform="translate(364.00048828125, 74)"><g id="tx__18jgc1l1nzbkzq-fill" stroke="none" fill="#484848"><g><text style="font: 20px &quot;Shantell Sans&quot;, cursive; white-space: pre;"><tspan x="12" y="35.5" dominant-baseline="ideographic">단점</tspan></text></g></g></g><g id="g-root-on_1lr5zw91nzczk1-fill" data-item-order="0" data-item-id="on_1lr5zw91nzczk1" data-item-class="Icon Stroke SceneTarget Indexed Indexed_1 ColorStrokeBlack" data-item-index="1" data-renderer-id="0" transform="translate(4.00048828125, 182)"></g><g id="g-root-tx__1cz9u611nzbk7h-fill" data-item-order="0" data-item-id="tx__1cz9u611nzbk7h" data-item-class="Label Stroke SceneTarget Indexed Indexed_1 ColorStrokeBlack" data-item-index="1" data-renderer-id="0" transform="translate(64.00048828125, 194)"><g id="tx__1cz9u611nzbk7h-fill" stroke="none" fill="#484848"><g><text style="font: 20px &quot;Shantell Sans&quot;, cursive; white-space: pre;"><tspan x="12" y="35.5" dominant-baseline="ideographic">새로운 관점</tspan></text></g></g></g><g id="g-root-mess_1cxeewp1nzczcy-fill" data-item-order="0" data-item-id="mess_1cxeewp1nzczcy" data-item-class="Icon Stroke SceneTarget Indexed ColorStrokeBlack" data-item-index="101" data-renderer-id="0" transform="translate(304.00048828125, 182)"></g><g id="g-root-tx__4mtq11nzbl6q-fill" data-item-order="0" data-item-id="tx__4mtq11nzbl6q" data-item-class="Label Stroke SceneTarget Indexed ColorStrokeBlack" data-item-index="101" data-renderer-id="0" transform="translate(364.00048828125, 194)"><g id="tx__4mtq11nzbl6q-fill" stroke="none" fill="#484848"><g><text style="font: 20px &quot;Shantell Sans&quot;, cursive; white-space: pre;"><tspan x="12" y="35.5" dominant-baseline="ideographic">반증 불가능</tspan></text></g></g></g><g id="g-root-unli_142dvqx1nzcwzv-fill" data-item-order="0" data-item-id="unli_142dvqx1nzcwzv" data-item-class="Icon Stroke SceneTarget Indexed ColorStrokeBlack" data-item-index="2" data-renderer-id="0" transform="translate(4.00048828125, 266)"></g><g id="g-root-tx__1luwuex1nzbjes-fill" data-item-order="0" data-item-id="tx__1luwuex1nzbjes" data-item-class="Label Stroke SceneTarget Indexed ColorStrokeBlack" data-item-index="2" data-renderer-id="0" transform="translate(64.00048828125, 278)"><g id="tx__1luwuex1nzbjes-fill" stroke="none" fill="#484848"><g><text style="font: 20px &quot;Shantell Sans&quot;, cursive; white-space: pre;"><tspan x="12" y="35.5" dominant-baseline="ideographic">기존 법칙에 도전</tspan></text></g></g></g><g id="g-root-divi_142dvqx1nzcwzw-fill" data-item-order="0" data-item-id="divi_142dvqx1nzcwzw" data-item-class="Icon Stroke SceneTarget Indexed ColorStrokeBlack" data-item-index="102" data-renderer-id="0" transform="translate(304.00048828125, 266)"></g><g id="g-root-tx__4kgbuh1nzbkeh-fill" data-item-order="0" data-item-id="tx__4kgbuh1nzbkeh" data-item-class="Label Stroke SceneTarget Indexed ColorStrokeBlack" data-item-index="102" data-renderer-id="0" transform="translate(364.00048828125, 266)"><g id="tx__4kgbuh1nzbkeh-fill" stroke="none" fill="#484848"><g><text style="font: 20px &quot;Shantell Sans&quot;, cursive; white-space: pre;"><tspan x="12" y="35.5" dominant-baseline="ideographic">실제 문제에서 주</tspan><tspan x="12" y="59.5" dominant-baseline="ideographic">의 분산</tspan></text></g></g></g><g id="g-root-ques_1q6zi0p1nzcyrs-fill" data-item-order="0" data-item-id="ques_1q6zi0p1nzcyrs" data-item-class="Icon Stroke SceneTarget Indexed ColorStrokeBlack" data-item-index="3" data-renderer-id="0" transform="translate(4.00048828125, 350)"></g><g id="g-root-tx__1qaqcjd1nzbimj-fill" data-item-order="0" data-item-id="tx__1qaqcjd1nzbimj" data-item-class="Label Stroke SceneTarget Indexed ColorStrokeBlack" data-item-index="3" data-renderer-id="0" transform="translate(64.00048828125, 362)"><g id="tx__1qaqcjd1nzbimj-fill" stroke="none" fill="#484848"><g><text style="font: 20px &quot;Shantell Sans&quot;, cursive; white-space: pre;"><tspan x="12" y="35.5" dominant-baseline="ideographic">철학적 함의</tspan></text></g></g></g><g id="g-root-man_dg3c3d1nzcwzx-fill" data-item-order="0" data-item-id="man_dg3c3d1nzcwzx" data-item-class="Icon Stroke SceneTarget Indexed ColorStrokeBlack" data-item-index="103" data-renderer-id="0" transform="translate(304.00048828125, 350)"></g><g id="g-root-tx__hvwu7t1nzbitk-fill" data-item-order="0" data-item-id="tx__hvwu7t1nzbitk" data-item-class="Label Stroke SceneTarget Indexed ColorStrokeBlack" data-item-index="103" data-renderer-id="0" transform="translate(364.00048828125, 350)"><g id="tx__hvwu7t1nzbitk-fill" stroke="none" fill="#484848"><g><text style="font: 20px &quot;Shantell Sans&quot;, cursive; white-space: pre;"><tspan x="12" y="35.5" dominant-baseline="ideographic">인간의 주체성 감</tspan><tspan x="12" y="59.5" dominant-baseline="ideographic">소</tspan></text></g></g></g><g id="g-root-3.cu_sy_zmkdmh1nzbjm6-stroke" data-item-order="-187483" data-item-id="3.cu_sy_zmkdmh1nzbjm6" data-item-class="ScenePart Part Indexed Stroke ColorStrokeBlack" data-item-index="3" data-renderer-id="0" transform="translate(4, 145.9990234375)"><g id="3.cu_sy_zmkdmh1nzbjm6-stroke" fill="none" stroke-linecap="round" stroke-linejoin="round" stroke-miterlimit="4" stroke="#484848" stroke-width="4"><g><path d="M 514 10C 488.7 9.6 463.3 11.1 438 10C 415.4 9 392.7 10.5 370 10C 345.5 9.4 320.9 9.4 296.4 10C 274.6 10.5 252.9 9.4 231.1 10C 204.3 10.8 177.4 9.4 150.6 10C 126.7 10.6 102.8 11.7 79 10C 56 8.4 32.9 11.4 10 10"></path><path d="M 514.0005 10.000007L 10 10.001007"></path></g></g></g><g id="g-root-2.cu_sy_18i7dvd1nzbith-stroke" data-item-order="-187481" data-item-id="2.cu_sy_18i7dvd1nzbith" data-item-class="ScenePart Part Indexed Stroke ColorStrokeBlack" data-item-index="2" data-renderer-id="0" transform="translate(256.00048828125, 38)"><g id="2.cu_sy_18i7dvd1nzbith-stroke" fill="none" stroke-linecap="round" stroke-linejoin="round" stroke-miterlimit="4" stroke="#484848" stroke-width="4"><g><path d="M 10 298C 8.6 284.1 10 270.1 10 256.1C 10 242.1 10.6 228 10 214M 10 382C 8.9 354 8.4 326 10 298M 10 214C 11.9 198.6 11.5 182.9 10 167.5C 8.4 151.1 11.7 134.4 10 118M 10 118C 8.6 105.4 10.2 92.7 10 80M 10 36C 11.2 27.4 11.6 18.5 10 10"></path><path d="M 10 298L 10 214M 10 382L 10 298M 10 214L 10 118M 10 118L 10 80M 10 36L 10 10"></path></g></g></g><g id="g-root-1.cu_sy_18i7dvd1nzbitg-stroke" data-item-order="-187480" data-item-id="1.cu_sy_18i7dvd1nzbitg" data-item-class="ScenePart Part Indexed Indexed_1 Fill Stroke ColorStrokeBlack" data-item-index="1" data-renderer-id="0" transform="translate(226.00048828125, 62)"><g id="1.cu_sy_18i7dvd1nzbitg-stroke" fill="none" stroke-linecap="round" stroke-linejoin="round" stroke-miterlimit="4" stroke="#484848" stroke-width="4"><g><path d="M 10 34C 14.4 25 21.3 17.4 28 10C 27.4 12.6 27.3 15.4 28 18C 36 18.5 44 17.8 52 18C 51.9 15.3 52.8 12.5 52 10C 57.5 18.4 63.3 26.6 70 34C 65 42.7 56.9 49.3 52 58C 52 55.3 52.6 52.6 52 50C 44 50.7 35.9 51.5 28 50C 28.6 52.6 27.8 55.4 28 58C 22.8 49.4 16.9 41.2 10 34"></path><path d="M 10 34L 28 10L 28 18L 52 18L 52 10L 70 34L 52 58L 52 50L 28 50L 28 58L 10 34Z"></path></g></g><g id="1.cu_sy_18i7dvd1nzbitg-stroke" fill="none" stroke-linecap="round" stroke-linejoin="round" stroke-miterlimit="4" stroke="#484848" stroke-width="4"><g><path d="M 30.6 28.4C 33.3 31.3 34.1 35.6 35 39.5M 35.2 39.1C 37.4 36.1 39.1 32.4 39.6 28.7M 49.4 30.2C 49.2 29.8 48.7 29.7 48.4 29.4C 47.8 28.9 46.7 28.2 45.5 28.8C 44.3 29.3 43.2 29.5 43.4 30.7C 43.4 31.8 44.5 32.4 46.3 33.9C 48.6 34.4 49.2 36 49.4 37.3C 49.2 38.5 48.6 39.3 47.1 39.6C 45.5 39.9 44.7 39.2 43.9 38.5C 43.5 38.1 43.4 37.6 43 37.2"></path><path d="M 30.599 28.373L 34.999 39.48M 35.199 39.097L 39.599 28.66M 49.399 30.192C 49.065 29.937 48.732 29.682 48.399 29.426C 47.799 28.852 46.832 28.628 45.499 28.756C 44.165 28.884 43.465 29.522 43.399 30.671C 43.265 31.82 44.232 32.905 46.299 33.927C 48.432 34.884 49.465 36.001 49.399 37.278C 49.399 38.555 48.632 39.321 47.099 39.576C 45.499 39.767 44.432 39.416 43.899 38.523C 43.565 38.076 43.265 37.629 42.999 37.182"></path></g></g></g><g id="g-root-tx__zmkdmh1nzbjm7-stroke" data-item-order="0" data-item-id="tx__zmkdmh1nzbjm7" data-item-class="Label Stroke SceneTarget SceneStart ColorStrokeBlack" data-item-index="none" data-renderer-id="0" transform="translate(190.00048828125, 2)"></g><g id="g-root-tx__zofsvt1nzbimn-stroke" data-item-order="0" data-item-id="tx__zofsvt1nzbimn" data-item-class="Label Stroke SceneTarget ColorStrokeBlack" data-item-index="none" data-renderer-id="0" transform="translate(64.00048828125, 74)"></g><g id="g-root-tx__18jgc1l1nzbkzq-stroke" data-item-order="0" data-item-id="tx__18jgc1l1nzbkzq" data-item-class="Label Stroke SceneTarget ColorStrokeBlack" data-item-index="none" data-renderer-id="0" transform="translate(364.00048828125, 74)"></g><g id="g-root-on_1lr5zw91nzczk1-stroke" data-item-order="0" data-item-id="on_1lr5zw91nzczk1" data-item-class="Icon Stroke SceneTarget Indexed Indexed_1 ColorStrokeBlack" data-item-index="1" data-renderer-id="0" transform="translate(4.00048828125, 182)"><g id="on_1lr5zw91nzczk1-stroke" fill="none" stroke-linecap="round" stroke-linejoin="round" stroke-miterlimit="4" stroke="#484848" stroke-width="2"><g><path d="M 46 37.428574C 44.285713 31.6 41.885715 24.742859 35.714287 25.428572C 29.885715 26.114285 24.057142 28.171429 22.685715 33.657143C 20.971428 39.485718 23.371429 45.314285 28.514286 48.057144C 28.171429 50.114285 29.200001 52.171429 28.514286 53.885715C 28.514286 54.57143 29.200001 55.600002 29.885715 55.257141C 32.628571 54.57143 35.371429 55.600002 38.114285 55.257141C 38.799999 55.257141 39.142857 54.57143 39.485718 53.885715C 40.171429 52.171429 38.799999 50.114285 39.485718 48.057144C 43.600002 47.028572 45.657143 41.885715 46 37.428574M 34 12.742857C 33.314285 14.457143 34.685715 16.171429 34 17.885714M 47.714287 17.542858C 46.342857 18.571428 45.657143 20.628571 43.942856 21.314285M 55.600002 28.171429C 53.885715 28.514286 52.171429 27.828571 50.457146 28.171429M 20.285715 17.542858C 20.971428 19.257143 22.685715 20.285715 24.057142 21.314285M 12.4 28.171429C 14.114285 28.857143 15.828571 28.514286 17.542858 28.171429"></path><path d="M 46 37.428574C 46.022171 31.506199 41.720341 26.453302 35.870296 25.530289C 30.020248 24.607275 24.371649 28.090206 22.569283 33.731705C 20.766918 39.373199 23.34985 45.48597 28.651428 48.125717L 28.651428 54.022858C 28.670025 54.747917 29.263273 55.325954 29.988571 55.325714L 38.011429 55.325714C 38.736725 55.325954 39.329975 54.747917 39.348572 54.022858L 39.348572 48.022858C 43.376583 46.017712 45.944405 41.927727 46 37.428574ZM 34 12.777143L 34 17.92M 47.714287 17.68L 44.079998 21.348572M 55.531429 28.308573L 50.388573 28.308573M 20.285715 17.68L 23.92 21.348572M 12.468572 28.308573L 17.611429 28.308573"></path></g></g></g><g id="g-root-tx__1cz9u611nzbk7h-stroke" data-item-order="0" data-item-id="tx__1cz9u611nzbk7h" data-item-class="Label Stroke SceneTarget Indexed Indexed_1 ColorStrokeBlack" data-item-index="1" data-renderer-id="0" transform="translate(64.00048828125, 194)"></g><g id="g-root-mess_1cxeewp1nzczcy-stroke" data-item-order="0" data-item-id="mess_1cxeewp1nzczcy" data-item-class="Icon Stroke SceneTarget Indexed ColorStrokeBlack" data-item-index="101" data-renderer-id="0" transform="translate(304.00048828125, 182)"><g id="mess_1cxeewp1nzczcy-stroke" fill="none" stroke-linecap="round" stroke-linejoin="round" stroke-miterlimit="4" stroke="#484848" stroke-width="2"><g><path d="M 27 25.6C 26.6 21.6 30 18.799999 34 18C 37.799999 17.4 41.200001 20.6 42 24.4C 42.799999 28.200001 40 31.799999 36.200001 32.799999C 35.200001 33 34.799999 33.799999 34.400002 34.799999C 34.200001 35.400002 34.599998 36.200001 34.599998 37M 34.599998 42C 34.799999 42 35 42.200001 35 42.599998C 35 42.799999 34.799999 43 34.599998 43C 34.200001 43 34 42.799999 34 42.599998C 34 42.200001 34.200001 42 34.599998 42M 55 49C 44.200001 46.799999 32.799999 51.400002 22 49C 18.200001 50.799999 15.2 54 11.8 56.400002C 11.6 56.599998 11.4 56.599998 11.2 56.400002C 11.2 56.400002 11 56.200001 11 56C 9.6 41.799999 10 27.200001 11 13C 11 11.8 11.8 11 13 11C 27 11 41.200001 8.2 55 11C 56 11.2 56.599998 12 57 13C 61.400002 23.4 58 35.799999 57 47C 57 48.200001 56 49 55 49"></path><path d="M 27 25.501999C 26.998404 21.56826 30.034845 18.300968 33.958168 18.014832C 37.881485 17.728695 41.359856 20.520847 41.929035 24.413193C 42.498211 28.305538 39.964981 31.976765 36.124001 32.826C 35.189735 33.010323 34.512253 33.823807 34.5 34.776001L 34.5 37M 34.5 42C 34.776142 42 35 42.223858 35 42.5C 35 42.776142 34.776142 43 34.5 43C 34.223858 43 34 42.776142 34 42.5C 34 42.223858 34.223858 42 34.5 42M 55 49L 22 49L 11.8 56.424C 11.648491 56.537632 11.445786 56.555908 11.276393 56.471214C 11.107001 56.386517 11 56.213387 11 56.023998L 11 13C 11 11.895431 11.895431 11 13 11L 55 11C 56.104568 11 57 11.895431 57 13L 57 47C 57 48.104568 56.104568 49 55 49Z"></path></g></g></g><g id="g-root-tx__4mtq11nzbl6q-stroke" data-item-order="0" data-item-id="tx__4mtq11nzbl6q" data-item-class="Label Stroke SceneTarget Indexed ColorStrokeBlack" data-item-index="101" data-renderer-id="0" transform="translate(364.00048828125, 194)"></g><g id="g-root-unli_142dvqx1nzcwzv-stroke" data-item-order="0" data-item-id="unli_142dvqx1nzcwzv" data-item-class="Icon Stroke SceneTarget Indexed ColorStrokeBlack" data-item-index="2" data-renderer-id="0" transform="translate(4.00048828125, 266)"><g id="unli_142dvqx1nzcwzv-stroke" fill="none" stroke-linecap="round" stroke-linejoin="round" stroke-miterlimit="4" stroke="#484848" stroke-width="2"><g><path d="M 39.142857 43.257141C 40.514286 40.171429 44.628574 39.142857 46 36.399998C 47.714287 33.314285 51.142857 31.942858 53.542858 29.200001C 56.971428 24.742859 56.285713 19.6 53.542858 14.457143C 50.457146 9.657143 42.914288 10.685715 38.799999 14.457143C 37.085716 16.171429 36.057144 18.228571 34 19.6C 31.942858 20.971428 29.885715 22.685715 28.857143 24.742859M 22 31.6C 18.914286 32.971428 16.857143 36.057144 14.8 38.799999C 11.028571 43.257141 11.028571 49.085712 14.8 53.200001C 18.571428 57.657143 24.4 56.285713 29.200001 53.200001C 30.571428 52.514286 31.257143 50.799999 32.628571 49.771431M 24.4 17.199999C 30.228573 28.514286 34.685715 41.542858 43.600002 51.142857"></path><path d="M 39.279999 43.257141L 46.137142 36.399998L 53.405716 29.131428C 57.416504 25.115646 57.416504 18.610069 53.405716 14.594286L 53.405716 14.594286C 49.389935 10.583496 42.884357 10.583496 38.868572 14.594286L 34 19.462856L 28.720001 24.742859M 22 31.462858L 14.731428 38.73143C 10.720639 42.747215 10.720639 49.252792 14.731428 53.268574L 14.731428 53.26857C 18.747211 57.279362 25.252789 57.279362 29.268574 53.268574L 32.697144 49.84M 24.297144 17.028572L 43.702858 50.971428"></path></g></g></g><g id="g-root-tx__1luwuex1nzbjes-stroke" data-item-order="0" data-item-id="tx__1luwuex1nzbjes" data-item-class="Label Stroke SceneTarget Indexed ColorStrokeBlack" data-item-index="2" data-renderer-id="0" transform="translate(64.00048828125, 278)"></g><g id="g-root-divi_142dvqx1nzcwzw-stroke" data-item-order="0" data-item-id="divi_142dvqx1nzcwzw" data-item-class="Icon Stroke SceneTarget Indexed ColorStrokeBlack" data-item-index="102" data-renderer-id="0" transform="translate(304.00048828125, 266)"><g id="divi_142dvqx1nzcwzw-stroke" fill="none" stroke-linecap="round" stroke-linejoin="round" stroke-miterlimit="4" stroke="#484848" stroke-width="2"><g><path d="M 11.714286 39.142857C 12.057143 40.857143 13.428572 43.257141 15.142858 42.57143M 15.142858 11.714286C 13.085714 11.714286 12.057143 13.428572 11.714286 15.142858M 42.57143 15.142858C 42.57143 13.085714 41.200001 11.714286 39.142857 11.714286M 23.714287 11.714286C 26.114285 11.371428 28.514286 12.4 30.571428 11.714286M 11.714286 23.714287C 11.714286 26.114285 12.4 28.514286 11.714286 30.571428M 42.57143 25.428572C 46 26.114285 49.428574 25.085714 52.857143 25.428572C 54.57143 25.771429 55.942856 27.142857 56.285713 28.857143C 58 36.742859 58.342857 45.314285 56.285713 52.857143C 55.942856 54.57143 54.57143 56.971428 52.857143 56.285713C 45.314285 53.200001 36.399998 53.200001 28.857143 56.285713C 27.142857 56.971428 24.742859 54.57143 25.428572 52.857143C 26.457144 49.428574 26.457144 46 25.428572 42.57143C 29.885715 42.57143 34.685715 42.57143 39.142857 42.57143C 41.200001 42.57143 43.257141 40.857143 42.57143 39.142857C 41.200001 34.685715 40.857143 29.542856 42.57143 25.428572"></path><path d="M 11.714286 39.142857C 11.714286 41.036407 13.24931 42.57143 15.142858 42.57143M 15.142858 11.714286C 13.24931 11.714286 11.714286 13.24931 11.714286 15.142858M 42.57143 15.142858C 42.57143 13.24931 41.036407 11.714286 39.142857 11.714286M 23.714287 11.714286L 30.571428 11.714286M 11.714286 23.714287L 11.714286 30.571428M 42.57143 25.428572L 52.857143 25.428572C 54.750694 25.428572 56.285713 26.963596 56.285713 28.857143L 56.285713 52.857143C 56.285713 54.750694 54.750694 56.285713 52.857143 56.285713L 28.857143 56.285713C 26.963596 56.285713 25.428572 54.750694 25.428572 52.857143L 25.428572 42.57143L 39.142857 42.57143C 41.036407 42.57143 42.57143 41.036407 42.57143 39.142857Z"></path></g></g></g><g id="g-root-tx__4kgbuh1nzbkeh-stroke" data-item-order="0" data-item-id="tx__4kgbuh1nzbkeh" data-item-class="Label Stroke SceneTarget Indexed ColorStrokeBlack" data-item-index="102" data-renderer-id="0" transform="translate(364.00048828125, 266)"></g><g id="g-root-ques_1q6zi0p1nzcyrs-stroke" data-item-order="0" data-item-id="ques_1q6zi0p1nzcyrs" data-item-class="Icon Stroke SceneTarget Indexed ColorStrokeBlack" data-item-index="3" data-renderer-id="0" transform="translate(4.00048828125, 350)"><g id="ques_1q6zi0p1nzcyrs-stroke" fill="none" stroke-linecap="round" stroke-linejoin="round" stroke-miterlimit="4" stroke="#484848" stroke-width="2"><g><path d="M 34 11.714286C 25.771429 12.057143 16.857143 15.828571 14.457143 23.371429C 11.714286 31.257143 11.714286 39.142857 15.485714 46.342857C 14.8 49.771431 13.771429 53.542858 11.714286 56.285713C 15.828571 56.971428 19.942858 54.57143 24.4 53.885715C 32.971428 56.285713 43.942856 58 49.085712 50.457146C 54.228569 42.57143 57.657143 34.685715 54.914288 25.771429C 51.828571 17.199999 42.914288 8.971429 34 11.714286M 28.857143 28.857143C 28.514286 26.114285 31.257143 23.371429 34 23.714287C 36.742859 24.057142 39.828571 26.114285 39.142857 28.857143C 38.457146 31.6 36.742859 33.314285 34 34C 33.657143 35.028572 33.657143 36.399998 34 37.428574"></path><path d="M 34 11.714286C 25.78648 11.716842 18.24015 16.237019 14.361948 23.477287C 10.483745 30.717556 10.902401 39.504124 15.451428 46.342857L 11.714286 56.285713L 24.228573 54.022858C 32.478989 58.054592 42.357716 56.612949 49.111847 50.391537C 55.865974 44.170128 58.112556 34.442822 54.770702 25.889679C 51.428848 17.336535 43.182823 11.708866 34 11.714286ZM 28.857143 28.857143C 28.857143 26.016823 31.159679 23.714287 34 23.714287C 36.840321 23.714287 39.142857 26.016823 39.142857 28.857143C 39.142857 31.697466 36.840321 34 34 34L 34 37.428574"></path></g></g></g><g id="g-root-tx__1qaqcjd1nzbimj-stroke" data-item-order="0" data-item-id="tx__1qaqcjd1nzbimj" data-item-class="Label Stroke SceneTarget Indexed ColorStrokeBlack" data-item-index="3" data-renderer-id="0" transform="translate(64.00048828125, 362)"></g><g id="g-root-man_dg3c3d1nzcwzx-stroke" data-item-order="0" data-item-id="man_dg3c3d1nzcwzx" data-item-class="Icon Stroke SceneTarget Indexed ColorStrokeBlack" data-item-index="103" data-renderer-id="0" transform="translate(304.00048828125, 350)"><g id="man_dg3c3d1nzcwzx-stroke" fill="none" stroke-linecap="round" stroke-linejoin="round" stroke-miterlimit="4" stroke="#484848" stroke-width="2"><g><path d="M 36.599998 30.6C 35 29.4 32.599998 29.200001 31.4 30.6M 24 26.799999C 24.799999 31.6 29 34.799999 34 35.200001C 39 35.599998 43.200001 31.6 44 26.799999M 43.400002 18.200001C 41.200001 14.6 37.799999 10.2 34 11.6C 30.200001 13.2 26.4 14.4 24.6 18.200001M 52.400002 47C 52.599998 45.799999 52.200001 44.400002 51.200001 44C 48.400002 43.200001 43.599998 40.200001 34 39.400002C 24.4 38.599998 19.6 43.200001 16.799999 44C 15.8 44.400002 15.6 45.599998 15.6 46.799999M 34 26C 37 26.4 41.200001 26.200001 43.599998 26.799999C 44.200001 26.799999 44.799999 26.6 45.200001 26.200001C 45.599998 25.799999 46 25.4 46 24.799999C 46 23.200001 46.400002 21.6 46 20.200001C 45.799999 19.200001 45.200001 18.6 44.200001 18.200001C 42 17.200001 37.200001 17 34 17.4C 30.799999 17.6 26.200001 18 23.799999 18.200001C 22.799999 18.4 21.799999 19.200001 22 20.200001C 22.4 21.6 22.6 23.4 22 24.799999C 21.6 25.799999 23.200001 26.4 24.4 26.799999C 26.799999 27.4 31 25.200001 34 26M 22.200001 22.799999C 24.6 21.799999 28.4 21.200001 30.4 21.799999M 39 21.4C 41.400002 22 43.200001 22.4 45.400002 22.4M 14 56.400002C 27.4 56.599998 41.200001 60 54 56.400002C 55.200001 56 56.599998 55.400002 56.400002 54C 56.200001 52.799999 55.400002 51.599998 54 51.599998C 40.799999 52.799999 27.4 51.400002 14 51.599998C 12.6 51.799999 11.8 52.799999 11.6 54C 11.6 55.400002 12.6 56.200001 14 56.400002M 15 51.599998C 27.6 53.599998 40.400002 54.200001 52.799999 51.599998C 54 51.400002 55 50.599998 55.200001 49.400002C 55.400002 48 54 47.200001 52.799999 47C 40.400002 45.400002 27.4 44.200001 15 47C 13.8 47.200001 12.8 48 12.8 49.400002C 12.8 50.599998 13.8 51.799999 15 51.599998M 10 10M 22.4 51.599998C 21.6 53.200001 20.799999 55 19.6 56.400002M 47.599998 51.599998C 46.200001 53 45.599998 54.799999 44.599998 56.400002M 34.799999 51.599998C 33.599998 53 33.400002 55.200001 32 56.400002M 29.799999 47C 28.4 48.200001 27.799999 50.200001 26.799999 51.599998M 43.599998 47C 43.400002 48.799999 41.799999 50.200001 40.799999 51.599998"></path><path d="M 36.515999 30.552C 35.025368 29.434999 32.976631 29.434999 31.486 30.552M 24.068001 26.705999C 24.853291 31.581654 29.06151 35.166321 34 35.166321C 38.938492 35.166321 43.146709 31.581654 43.931999 26.705999M 43.402 18.156C 41.907616 14.263075 38.168896 11.693539 33.999001 11.693539C 29.829103 11.693539 26.09038 14.263075 24.596001 18.156M 52.445999 46.967999L 52.445999 46.723999C 52.452965 45.687893 51.974937 44.70816 51.153999 44.076C 48.924 42.368 43.608002 39.356003 34 39.356003C 24.392 39.356003 19.084 42.374001 16.846001 44.076C 16.025063 44.70816 15.547035 45.687893 15.554 46.723999L 15.554 46.931999M 34.035999 25.938C 37.052002 25.938 41.143997 26.396 43.667999 26.718C 44.247192 26.793749 44.83102 26.617085 45.271046 26.232925C 45.711067 25.848764 45.964901 25.294117 45.968002 24.709999L 45.967999 20.226C 45.974026 19.244902 45.2551 18.409855 44.284 18.27C 41.858002 17.93 37.313999 17.360001 34.035999 17.358C 30.733999 17.358 26.156 17.93 23.716 18.27C 22.744904 18.409855 22.025978 19.244902 22.032001 20.226002L 22.032 24.709999C 22.032 25.934 23.118 26.874001 24.332001 26.719999C 26.870001 26.396 30.993999 25.936001 34.035999 25.938ZM 22.262001 22.866001C 24.778 22.026001 28.382 21.712 30.49 21.712M 38.926003 21.397999C 41.442001 21.66 43.326 21.746 45.476002 22.341999M 13.972 56.377998L 54.028 56.377998C 55.323658 56.377998 56.374001 55.32766 56.374001 54.031998C 56.374001 52.73634 55.323658 51.686001 54.028 51.686001L 13.972 51.686001C 12.67634 51.686001 11.625999 52.73634 11.625999 54.031998C 11.625999 55.32766 12.67634 56.377998 13.972 56.377998ZM 15.064 51.686001L 52.801998 51.686001C 54.098209 51.685997 55.148998 50.635212 55.148998 49.338997C 55.148998 48.042786 54.098209 46.991997 52.801998 46.991997L 15.064 46.992001C 13.767788 46.991997 12.717 48.042786 12.717 49.338997C 12.717 50.635212 13.767788 51.685997 15.063999 51.685997ZM 10 10M 22.417999 51.686001L 19.538 56.377998M 47.532001 51.686001L 44.652 56.377998M 34.82 51.686001L 31.940001 56.377998M 29.705999 46.992001L 26.826 51.686001M 43.605999 46.992001L 40.725998 51.686001"></path></g></g></g><g id="g-root-tx__hvwu7t1nzbitk-stroke" data-item-order="0" data-item-id="tx__hvwu7t1nzbitk" data-item-class="Label Stroke SceneTarget Indexed ColorStrokeBlack" data-item-index="103" data-renderer-id="0" transform="translate(364.00048828125, 350)"></g></g></g></svg>