<?xml version="1.0" encoding="utf-8" standalone="yes"?>
<!DOCTYPE svg PUBLIC "-//W3C//DTD SVG 1.1//EN" "http://www.w3.org/Graphics/SVG/1.1/DTD/svg11.dtd">
<svg width="780" height="348" viewBox="0 0 780 348" style="fill:none;stroke:none;fill-rule:evenodd;clip-rule:evenodd;stroke-linecap:round;stroke-linejoin:round;stroke-miterlimit:1.5;" version="1.1" xmlns="http://www.w3.org/2000/svg" xmlns:xlink="http://www.w3.org/1999/xlink"><style id="fontImports">@import url("https://fonts.googleapis.com/css2?family=Roboto:wght@400;700&amp;display=block");</style><rect id="" x="0" y="0" width="780" height="348" style="fill: #ffffff;"></rect><g id="items" style="isolation: isolate"><g id="blend" style="mix-blend-mode:multiply"><g id="g-root-3.cu_sy_m98csb1i5mvi9-fill" data-item-order="-54428" data-item-id="3.cu_sy_m98csb1i5mvi9" data-item-class="ScenePart Part Indexed Fill Stroke ColorStrokeBlack" data-item-index="3" data-renderer-id="0" transform="translate(332, 150)"><g id="3.cu_sy_m98csb1i5mvi9-fill" stroke="none" fill="url(#gradient-d685fb-249354988)"><g><path d="M 28.273 57.698C 27.102 57.247 25.83 57 24.5 57C 18.701 57 14 61.701 14 67.5C 14 68.412 14.116 69.297 14.335 70.141C 11.636 73.308 10 77.457 10 82C 10 87.691 12.567 92.764 16.575 96.063C 16.202 97.14 16 98.296 16 99.5C 16 105.299 20.701 110 26.5 110C 27.29 110 28.06 109.913 28.8 109.747C 31.353 112.365 34.979 114 39 114C 43.501 114 47.506 111.951 50.068 108.768C 51.651 110.158 53.727 111 56 111C 60.97 111 65 106.971 65 102C 65 101.139 64.879 100.307 64.653 99.519C 67.982 95.645 70 90.564 70 85C 70 80.663 68.773 76.618 66.655 73.211C 66.881 72.176 67 71.102 67 70C 67 61.716 60.284 55 52 55C 50.211 55 48.494 55.313 46.903 55.888C 44.542 54.682 41.853 54 39 54C 34.933 54 31.199 55.386 28.273 57.698ZM 32 36C 32 40.418278 35.581722 44 40 44C 44.418278 44 48 40.418278 48 36C 48 31.581722 44.418278 28 40 28C 35.581722 28 32 31.581722 32 36M 44 14C 44 16.209137 42.209137 18 40 18C 37.790863 18 36 16.209137 36 14C 36 11.790863 37.790863 10 40 10C 42.209137 10 44 11.790863 44 14"></path></g></g></g><g id="g-root-2.cu_sy_qp1uwr1i5muq0-fill" data-item-order="-54426" data-item-id="2.cu_sy_qp1uwr1i5muq0" data-item-class="ScenePart Part Indexed Fill Stroke ColorStrokeBlack" data-item-index="2" data-renderer-id="0" transform="translate(426, 92)"><g id="2.cu_sy_qp1uwr1i5muq0-fill" stroke="none" fill="url(#gradient-44d0ff-453494305)"><g><path d="M 83 70C 87.95 70 92.518 68.402 96.194 65.706C 97.782 66.533 99.586 67 101.5 67C 107.851 67 113 61.851 113 55.5C 113 52.514 111.862 49.794 109.996 47.75C 112.435 45.827 114 42.846 114 39.5C 114 37.08 113.181 34.852 111.806 33.076C 111.934 32.237 112 31.376 112 30.5C 112 21.387 104.837 14 96 14C 95.01 14 94.04 14.093 93.099 14.27C 90.011 11.613 85.95 10 81.5 10C 76.933 10 72.774 11.7 69.658 14.483C 68.661 14.169 67.6 14 66.5 14C 60.701 14 56 18.701 56 24.5C 56 27.072 56.925 29.428 58.46 31.254C 56.915 33.417 56 36.098 56 39C 56 41.302 56.575 43.464 57.584 45.339C 55.359 47.746 54 50.964 54 54.5C 54 61.956 60.044 68 67.5 68C 69.122 68 70.677 67.714 72.118 67.19C 75.327 68.978 79.041 70 83 70ZM 28 22C 28 26.418278 31.581722 30 36 30C 40.418278 30 44 26.418278 44 22C 44 17.581722 40.418278 14 36 14C 31.581722 14 28 17.581722 28 22M 18 16C 18 18.209137 16.209167 20 14 20C 11.790863 20 10 18.209137 10 16C 10 13.790863 11.790863 12 14 12C 16.209167 12 18 13.790863 18 16"></path></g></g></g><g id="g-root-1.cu_sy_v48vy31i5mx3j-fill" data-item-order="-54424" data-item-id="1.cu_sy_v48vy31i5mx3j" data-item-class="ScenePart Part Indexed Indexed_1 Fill Stroke ColorStrokeBlack" data-item-index="1" data-renderer-id="0" transform="translate(194, 92)"><defs><linearGradient id="gradient-d685fb-249354988" x2="0" y2="1"><stop offset="0" stop-color="#de9ffb"></stop><stop offset="1" stop-color="#CD6AFB"></stop></linearGradient><linearGradient id="gradient-44d0ff-453494305" x2="0" y2="1"><stop offset="0" stop-color="#6ddafe"></stop><stop offset="1" stop-color="#1AC6FF"></stop></linearGradient><linearGradient id="gradient-b8e45c-154771520" x2="0" y2="1"><stop offset="0" stop-color="#c8ea80"></stop><stop offset="1" stop-color="#A8DD38"></stop></linearGradient></defs><g id="1.cu_sy_v48vy31i5mx3j-fill" stroke="none" fill="url(#gradient-b8e45c-154771520)"><g><path d="M 20.598 19C 20.565 19 20.533 19 20.5 19C 14.701 19 10 23.701 10 29.5C 10 32.574 11.321 35.339 13.426 37.259C 13.147 38.459 13 39.712 13 41C 13 41.745 13.049 42.478 13.145 43.196C 11.788 45.301 11 47.809 11 50.5C 11 57.956 17.044 64 24.5 64C 24.847 64 25.19 63.987 25.53 63.961C 29.172 67.682 34.308 70 40 70C 45.641 70 50.737 67.723 54.373 64.059C 55.621 64.662 57.021 65 58.5 65C 63.747 65 68 60.747 68 55.5C 68 52.628 66.726 50.055 64.712 48.313C 67.948 45.469 70 41.232 70 36.5C 70 32.425 68.478 28.717 65.99 25.95C 65.996 25.801 66 25.651 66 25.5C 66 20.253 61.747 16 56.5 16C 55.92 16 55.353 16.052 54.802 16.151C 50.681 12.338 45.12 10 39 10C 31.475 10 24.794 13.535 20.598 19ZM 80 22C 80 26.418278 83.581722 30 88 30C 92.418278 30 96 26.418278 96 22C 96 17.581722 92.418278 14 88 14C 83.581722 14 80 17.581722 80 22M 114 16C 114 18.209137 112.209137 20 110 20C 107.790863 20 106 18.209137 106 16C 106 13.790863 107.790863 12 110 12C 112.209137 12 114 13.790863 114 16"></path></g></g></g><g id="g-root-tx__4my4zf1i5mxa8-fill" data-item-order="0" data-item-id="tx__4my4zf1i5mxa8" data-item-class="Label Stroke SceneTarget SceneTitle Title ColorFillBlack ColorStrokeBlack" data-item-index="none" data-renderer-id="0" transform="translate(206, 2)"><g id="tx__4my4zf1i5mxa8-fill" stroke="none" fill="#484848"><g><text style="font: bold 20px Roboto, sans-serif; white-space: pre;"><tspan x="17.41" y="34.8" dominant-baseline="ideographic">어떤 웹 접근성 도구를 사용할까?</tspan></text></g></g></g><g id="g-root-face_qs6bi31i5bn62-fill" data-item-order="0" data-item-id="face_qs6bi31i5bn62" data-item-class="Icon Stroke SceneTarget ColorFillBlack ColorStrokeBlack" data-item-index="0" data-renderer-id="0" transform="translate(326, 50)"></g><g id="g-root-tx_wave_qtf6ij1i5mxan-fill" data-item-order="0" data-item-id="tx_wave_qtf6ij1i5mxan" data-item-class="Label Stroke SceneTarget Indexed Indexed_1 ColorFillBlack ColorStrokeBlack" data-item-index="1" data-renderer-id="0" transform="translate(122, 110)"><g id="tx_wave_qtf6ij1i5mxan-fill" stroke="none" fill="#484848"><g><text style="font: bold 20px Roboto, sans-serif; white-space: pre;"><tspan x="11.5" y="34.8" dominant-baseline="ideographic">WAVE</tspan></text></g></g></g><g id="g-root-4_18fphh71i5d0y6-fill" data-item-order="0" data-item-id="4_18fphh71i5d0y6" data-item-class="Icon Stroke SceneTarget Indexed Indexed_1 InsideFill InsideColorFill ColorStrokeBlack" data-item-index="1" data-renderer-id="0" transform="translate(206, 104)"></g><g id="g-root-add_1lqjirf1i5d2j1-fill" data-item-order="0" data-item-id="add_1lqjirf1i5d2j1" data-item-class="Icon Stroke SceneTarget Indexed InsideFill InsideColorFill ColorStrokeBlack" data-item-index="2" data-renderer-id="0" transform="translate(482, 104)"></g><g id="g-root-tx_axe_91ioxn1i5mubx-fill" data-item-order="0" data-item-id="tx_axe_91ioxn1i5mubx" data-item-class="Label Stroke SceneTarget Indexed ColorFillBlack ColorStrokeBlack" data-item-index="2" data-renderer-id="0" transform="translate(542, 110)"><g id="tx_axe_91ioxn1i5mubx-fill" stroke="none" fill="#484848"><g><text style="font: bold 20px Roboto, sans-serif; white-space: pre;"><tspan x="12" y="34.8" dominant-baseline="ideographic">aXe</tspan></text></g></g></g><g id="g-root-tx__1d0ip4r1i5mux2-fill" data-item-order="0" data-item-id="tx__1d0ip4r1i5mux2" data-item-class="Label Stroke SceneTarget Indexed Indexed_1 ColorStrokeBlack" data-item-index="1" data-renderer-id="0" transform="translate(2, 146)"><g id="tx__1d0ip4r1i5mux2-fill" stroke="none" fill="#484848"><g><text style="font: 20px Roboto, sans-serif; white-space: pre;"><tspan x="13.14" y="34" dominant-baseline="ideographic">웹 접근성 평가 도구</tspan></text></g></g></g><g id="g-root-tx__znt8l71i5mubw-fill" data-item-order="0" data-item-id="tx__znt8l71i5mubw" data-item-class="Label Stroke SceneTarget Indexed ColorStrokeBlack" data-item-index="2" data-renderer-id="0" transform="translate(542, 146)"><g id="tx__znt8l71i5mubw-fill" stroke="none" fill="#484848"><g><text style="font: 20px Roboto, sans-serif; white-space: pre;"><tspan x="12" y="34" dominant-baseline="ideographic">브라우저 확장 프로그램</tspan></text></g></g></g><g id="g-root-bird_8wizej1i5d0ck-fill" data-item-order="0" data-item-id="bird_8wizej1i5d0ck" data-item-class="Icon Stroke SceneTarget Indexed InsideFill InsideColorFill ColorStrokeBlack" data-item-index="3" data-renderer-id="0" transform="translate(344, 206)"></g><g id="g-root-tx_lighthou_dfgrsr1i5mvb7-fill" data-item-order="0" data-item-id="tx_lighthou_dfgrsr1i5mvb7" data-item-class="Label Stroke SceneTarget Indexed ColorFillBlack ColorStrokeBlack" data-item-index="3" data-renderer-id="0" transform="translate(302, 266)"><g id="tx_lighthou_dfgrsr1i5mvb7-fill" stroke="none" fill="#484848"><g><text style="font: bold 20px Roboto, sans-serif; white-space: pre;"><tspan x="17.49" y="34.8" dominant-baseline="ideographic">Lighthouse</tspan></text></g></g></g><g id="g-root-tx_chrome_1uo1v3v1i5mvb6-fill" data-item-order="0" data-item-id="tx_chrome_1uo1v3v1i5mvb6" data-item-class="Label Stroke SceneTarget Indexed ColorStrokeBlack" data-item-index="3" data-renderer-id="0" transform="translate(242, 302)"><g id="tx_chrome_1uo1v3v1i5mvb6-fill" stroke="none" fill="#484848"><g><text style="font: 20px Roboto, sans-serif; white-space: pre;"><tspan x="17.5" y="34" dominant-baseline="ideographic">Chrome 개발자 도구 내장</tspan></text></g></g></g><g id="g-root-3.cu_sy_m98csb1i5mvi9-stroke" data-item-order="-54428" data-item-id="3.cu_sy_m98csb1i5mvi9" data-item-class="ScenePart Part Indexed Fill Stroke ColorStrokeBlack" data-item-index="3" data-renderer-id="0" transform="translate(332, 150)"><g id="3.cu_sy_m98csb1i5mvi9-stroke" fill="none" stroke-linecap="round" stroke-linejoin="round" stroke-miterlimit="4" stroke="#484848" stroke-width="2"><g><path d="M 28.273 57.698C 27.102 57.247 25.83 57 24.5 57C 18.701 57 14 61.701 14 67.5C 14 68.412 14.116 69.297 14.335 70.141C 11.636 73.308 10 77.457 10 82C 10 87.691 12.567 92.764 16.575 96.063C 16.202 97.14 16 98.296 16 99.5C 16 105.299 20.701 110 26.5 110C 27.29 110 28.06 109.913 28.8 109.747C 31.353 112.365 34.979 114 39 114C 43.501 114 47.506 111.951 50.068 108.768C 51.651 110.158 53.727 111 56 111C 60.97 111 65 106.971 65 102C 65 101.139 64.879 100.307 64.653 99.519C 67.982 95.645 70 90.564 70 85C 70 80.663 68.773 76.618 66.655 73.211C 66.881 72.176 67 71.102 67 70C 67 61.716 60.284 55 52 55C 50.211 55 48.494 55.313 46.903 55.888C 44.542 54.682 41.853 54 39 54C 34.933 54 31.199 55.386 28.273 57.698ZM 32 36C 32 40.418278 35.581722 44 40 44C 44.418278 44 48 40.418278 48 36C 48 31.581722 44.418278 28 40 28C 35.581722 28 32 31.581722 32 36M 44 14C 44 16.209137 42.209137 18 40 18C 37.790863 18 36 16.209137 36 14C 36 11.790863 37.790863 10 40 10C 42.209137 10 44 11.790863 44 14"></path></g></g></g><g id="g-root-2.cu_sy_qp1uwr1i5muq0-stroke" data-item-order="-54426" data-item-id="2.cu_sy_qp1uwr1i5muq0" data-item-class="ScenePart Part Indexed Fill Stroke ColorStrokeBlack" data-item-index="2" data-renderer-id="0" transform="translate(426, 92)"><g id="2.cu_sy_qp1uwr1i5muq0-stroke" fill="none" stroke-linecap="round" stroke-linejoin="round" stroke-miterlimit="4" stroke="#484848" stroke-width="2"><g><path d="M 83 70C 87.95 70 92.518 68.402 96.194 65.706C 97.782 66.533 99.586 67 101.5 67C 107.851 67 113 61.851 113 55.5C 113 52.514 111.862 49.794 109.996 47.75C 112.435 45.827 114 42.846 114 39.5C 114 37.08 113.181 34.852 111.806 33.076C 111.934 32.237 112 31.376 112 30.5C 112 21.387 104.837 14 96 14C 95.01 14 94.04 14.093 93.099 14.27C 90.011 11.613 85.95 10 81.5 10C 76.933 10 72.774 11.7 69.658 14.483C 68.661 14.169 67.6 14 66.5 14C 60.701 14 56 18.701 56 24.5C 56 27.072 56.925 29.428 58.46 31.254C 56.915 33.417 56 36.098 56 39C 56 41.302 56.575 43.464 57.584 45.339C 55.359 47.746 54 50.964 54 54.5C 54 61.956 60.044 68 67.5 68C 69.122 68 70.677 67.714 72.118 67.19C 75.327 68.978 79.041 70 83 70ZM 28 22C 28 26.418278 31.581722 30 36 30C 40.418278 30 44 26.418278 44 22C 44 17.581722 40.418278 14 36 14C 31.581722 14 28 17.581722 28 22M 18 16C 18 18.209137 16.209167 20 14 20C 11.790863 20 10 18.209137 10 16C 10 13.790863 11.790863 12 14 12C 16.209167 12 18 13.790863 18 16"></path></g></g></g><g id="g-root-1.cu_sy_v48vy31i5mx3j-stroke" data-item-order="-54424" data-item-id="1.cu_sy_v48vy31i5mx3j" data-item-class="ScenePart Part Indexed Indexed_1 Fill Stroke ColorStrokeBlack" data-item-index="1" data-renderer-id="0" transform="translate(194, 92)"><g id="1.cu_sy_v48vy31i5mx3j-stroke" fill="none" stroke-linecap="round" stroke-linejoin="round" stroke-miterlimit="4" stroke="#484848" stroke-width="2"><g><path d="M 20.598 19C 20.565 19 20.533 19 20.5 19C 14.701 19 10 23.701 10 29.5C 10 32.574 11.321 35.339 13.426 37.259C 13.147 38.459 13 39.712 13 41C 13 41.745 13.049 42.478 13.145 43.196C 11.788 45.301 11 47.809 11 50.5C 11 57.956 17.044 64 24.5 64C 24.847 64 25.19 63.987 25.53 63.961C 29.172 67.682 34.308 70 40 70C 45.641 70 50.737 67.723 54.373 64.059C 55.621 64.662 57.021 65 58.5 65C 63.747 65 68 60.747 68 55.5C 68 52.628 66.726 50.055 64.712 48.313C 67.948 45.469 70 41.232 70 36.5C 70 32.425 68.478 28.717 65.99 25.95C 65.996 25.801 66 25.651 66 25.5C 66 20.253 61.747 16 56.5 16C 55.92 16 55.353 16.052 54.802 16.151C 50.681 12.338 45.12 10 39 10C 31.475 10 24.794 13.535 20.598 19ZM 80 22C 80 26.418278 83.581722 30 88 30C 92.418278 30 96 26.418278 96 22C 96 17.581722 92.418278 14 88 14C 83.581722 14 80 17.581722 80 22M 114 16C 114 18.209137 112.209137 20 110 20C 107.790863 20 106 18.209137 106 16C 106 13.790863 107.790863 12 110 12C 112.209137 12 114 13.790863 114 16"></path></g></g></g><g id="g-root-tx__4my4zf1i5mxa8-stroke" data-item-order="0" data-item-id="tx__4my4zf1i5mxa8" data-item-class="Label Stroke SceneTarget SceneTitle Title ColorFillBlack ColorStrokeBlack" data-item-index="none" data-renderer-id="0" transform="translate(206, 2)"></g><g id="g-root-face_qs6bi31i5bn62-stroke" data-item-order="0" data-item-id="face_qs6bi31i5bn62" data-item-class="Icon Stroke SceneTarget ColorFillBlack ColorStrokeBlack" data-item-index="0" data-renderer-id="0" transform="translate(326, 50)"><g id="face_qs6bi31i5bn62-stroke" fill="none" stroke-linecap="round" stroke-linejoin="round" stroke-miterlimit="4" stroke="#484848" stroke-width="2"><g><path d="M 46.599998 39.681999C 43.599998 36.681999 37.599998 35.181999 34.599998 38.181999M 16.9 45.681999C 16.6 44.482002 16.6 43.281998 16.6 41.781998C 16.6 25.581999 29.799999 12.382 46 12.382C 62.199997 12.382 75.399994 25.581999 75.399994 41.781998C 75.399994 52.582001 69.699997 61.882004 61 66.981995M 40.449997 77.800003C 46.449997 75.399994 45.324997 70.111 44.125 65.311005L 53.677002 61.612C 55.891281 60.755096 57.049278 58.316589 56.314003 56.059002L 56.313999 56.058998C 55.93375 54.891376 55.08989 53.931606 53.980541 53.405022C 52.871193 52.878433 51.594067 52.831413 50.449001 53.275002L 32.875 60.084999C 31.375 60.685001 29.575001 59.485001 29.575001 57.985001L 29.458 55.144001C 29.410076 53.986492 28.88414 52.900726 28.005583 52.145561C 27.127028 51.390404 25.974579 51.03352 24.823002 51.160004L 24.823 51.16C 22.704519 51.393932 21.100885 53.183647 21.1 55.315002L 21.1 67.584999C 21.1 75.385002 28.299999 81.084999 35.800003 79.284996C 35.800003 79.284996 38.949997 78.399994 40.449997 77.800003ZM 31.825001 27.681999C 31.20368 27.681999 30.700001 27.178322 30.700001 26.556999C 30.700001 25.93568 31.20368 25.431999 31.825001 25.431999M 31.825001 27.681999C 32.44632 27.681999 32.950001 27.178322 32.950001 26.556999C 32.950001 25.93568 32.44632 25.431999 31.825001 25.431999M 47.800003 27.681999C 47.17868 27.681999 46.675003 27.178322 46.675003 26.556999C 46.675003 25.93568 47.17868 25.431999 47.800003 25.431999M 47.800003 27.681999C 48.421322 27.681999 48.925003 27.178322 48.925003 26.556999C 48.925003 25.93568 48.421322 25.431999 47.800003 25.431999"></path></g></g></g><g id="g-root-tx_wave_qtf6ij1i5mxan-stroke" data-item-order="0" data-item-id="tx_wave_qtf6ij1i5mxan" data-item-class="Label Stroke SceneTarget Indexed Indexed_1 ColorFillBlack ColorStrokeBlack" data-item-index="1" data-renderer-id="0" transform="translate(122, 110)"></g><g id="g-root-4_18fphh71i5d0y6-stroke" data-item-order="0" data-item-id="4_18fphh71i5d0y6" data-item-class="Icon Stroke SceneTarget Indexed Indexed_1 InsideFill InsideColorFill ColorStrokeBlack" data-item-index="1" data-renderer-id="0" transform="translate(206, 104)"><g id="4_18fphh71i5d0y6-stroke" fill="none" stroke-linecap="round" stroke-linejoin="round" stroke-miterlimit="4" stroke="#484848" stroke-width="2"><g><path d="M 11.285714 17.714285L 17.199999 24.605713C 17.664492 25.145571 18.332073 25.468615 19.04365 25.497856C 19.755226 25.5271 20.447063 25.259922 20.954287 24.759998L 26.097143 19.617144C 26.579971 19.130339 27.237217 18.856518 27.922857 18.856518C 28.608496 18.856518 29.265743 19.130339 29.748571 19.617144L 34.89143 24.759998C 35.398647 25.259922 36.090485 25.5271 36.802063 25.497856C 37.513641 25.468615 38.181225 25.145571 38.645714 24.605713L 44.714287 17.714285M 11.285714 30.571428L 17.199999 37.462856C 17.664492 38.002712 18.332073 38.325756 19.04365 38.355C 19.755226 38.384243 20.447063 38.117065 20.954287 37.617142L 26.097143 32.474285C 26.579971 31.987482 27.237217 31.713661 27.922857 31.713661C 28.608496 31.713661 29.265743 31.987482 29.748571 32.474285L 34.89143 37.617142C 35.398647 38.117065 36.090485 38.384243 36.802063 38.355C 37.513641 38.325756 38.181225 38.002712 38.645714 37.462856L 44.714287 30.571428"></path></g></g></g><g id="g-root-add_1lqjirf1i5d2j1-stroke" data-item-order="0" data-item-id="add_1lqjirf1i5d2j1" data-item-class="Icon Stroke SceneTarget Indexed InsideFill InsideColorFill ColorStrokeBlack" data-item-index="2" data-renderer-id="0" transform="translate(482, 104)"><g id="add_1lqjirf1i5d2j1-stroke" fill="none" stroke-linecap="round" stroke-linejoin="round" stroke-miterlimit="4" stroke="#484848" stroke-width="2"><g><path d="M 28 11.5L 28 44.5M 44.5 28L 11.5 28"></path></g></g></g><g id="g-root-tx_axe_91ioxn1i5mubx-stroke" data-item-order="0" data-item-id="tx_axe_91ioxn1i5mubx" data-item-class="Label Stroke SceneTarget Indexed ColorFillBlack ColorStrokeBlack" data-item-index="2" data-renderer-id="0" transform="translate(542, 110)"></g><g id="g-root-tx__1d0ip4r1i5mux2-stroke" data-item-order="0" data-item-id="tx__1d0ip4r1i5mux2" data-item-class="Label Stroke SceneTarget Indexed Indexed_1 ColorStrokeBlack" data-item-index="1" data-renderer-id="0" transform="translate(2, 146)"></g><g id="g-root-tx__znt8l71i5mubw-stroke" data-item-order="0" data-item-id="tx__znt8l71i5mubw" data-item-class="Label Stroke SceneTarget Indexed ColorStrokeBlack" data-item-index="2" data-renderer-id="0" transform="translate(542, 146)"></g><g id="g-root-bird_8wizej1i5d0ck-stroke" data-item-order="0" data-item-id="bird_8wizej1i5d0ck" data-item-class="Icon Stroke SceneTarget Indexed InsideFill InsideColorFill ColorStrokeBlack" data-item-index="3" data-renderer-id="0" transform="translate(344, 206)"><g id="bird_8wizej1i5d0ck-stroke" fill="none" stroke-linecap="round" stroke-linejoin="round" stroke-miterlimit="4" stroke="#484848" stroke-width="2"><g><path d="M 45.25 45.082001C 41.5 45.863503 39.16 42.113503 39.16 42.113503L 39.16 42.113503C 37.979843 43.986584 35.940228 45.144356 33.727001 45.197502C 31.530325 45.091621 29.515209 43.946487 28.299999 42.113503L 28.299999 42.113503C 27.12158 43.986916 25.082602 45.144966 22.870001 45.197502C 20.671764 45.094231 18.654636 43.948589 17.439999 42.113499L 17.440001 42.113503C 17.440001 42.113503 14.440001 45.926498 10.7575 45.143501M 30.248499 10.75L 30.248499 13.75M 22.2355 40.651001L 25.748499 24.25L 25.748499 18.25L 34.748501 18.25L 34.748501 24.25L 37.917999 39.038498M 25.75 18.25C 25.75 15.764719 27.764719 13.75 30.25 13.75C 32.735283 13.75 34.75 15.764719 34.75 18.25M 23.498499 24.25L 36.998501 24.25M 24.463001 30.25L 36.034 30.25M 22.856501 37.75L 37.641998 37.75M 30.248499 26.5L 30.248499 28M 30.248499 33.25L 30.248499 34.75M 18.248501 10.75L 20.498501 13L 22.748499 10.75M 12.2485 16L 14.4985 18.25L 16.748501 16"></path></g></g></g><g id="g-root-tx_lighthou_dfgrsr1i5mvb7-stroke" data-item-order="0" data-item-id="tx_lighthou_dfgrsr1i5mvb7" data-item-class="Label Stroke SceneTarget Indexed ColorFillBlack ColorStrokeBlack" data-item-index="3" data-renderer-id="0" transform="translate(302, 266)"></g><g id="g-root-tx_chrome_1uo1v3v1i5mvb6-stroke" data-item-order="0" data-item-id="tx_chrome_1uo1v3v1i5mvb6" data-item-class="Label Stroke SceneTarget Indexed ColorStrokeBlack" data-item-index="3" data-renderer-id="0" transform="translate(242, 302)"></g></g></g></svg>