<?xml version="1.0" encoding="utf-8" standalone="yes"?>
<!DOCTYPE svg PUBLIC "-//W3C//DTD SVG 1.1//EN" "http://www.w3.org/Graphics/SVG/1.1/DTD/svg11.dtd">
<svg width="182" height="520" viewBox="0 0 182 520" style="fill:none;stroke:none;fill-rule:evenodd;clip-rule:evenodd;stroke-linecap:round;stroke-linejoin:round;stroke-miterlimit:1.5;" version="1.1" xmlns="http://www.w3.org/2000/svg" xmlns:xlink="http://www.w3.org/1999/xlink"><style id="fontImports">@import url("https://fonts.googleapis.com/css2?family=Roboto:wght@400;700&amp;display=block");</style><rect id="" x="0" y="0" width="182" height="520" style="fill: #ffffff;"></rect><g id="items" style="isolation: isolate"><g id="blend" style="mix-blend-mode:multiply"><g id="g-root-ro_qnswrv1i5395a-fill" data-item-order="-8424" data-item-id="ro_qnswrv1i5395a" data-item-class="Shape Stroke Fill" data-item-index="none" data-renderer-id="0" transform="translate(3, 443)"><g id="ro_qnswrv1i5395a-fill" stroke="none" fill="#e6f9ff"><g><path d="M 22 10L 154 10C 154 10 166 10 166 22L 166 52C 166 52 166 64 154 64L 22 64C 22 64 10 64 10 52L 10 22C 10 22 10 10 22 10"></path></g></g></g><g id="g-root-ro_4oth4b1i58t8i-fill" data-item-order="-8424" data-item-id="ro_4oth4b1i58t8i" data-item-class="Shape Stroke Fill" data-item-index="none" data-renderer-id="0" transform="translate(3, 223)"><g id="ro_4oth4b1i58t8i-fill" stroke="none" fill="#e6f9ff"><g><path d="M 22 10L 154 10C 154 10 166 10 166 22L 166 52C 166 52 166 64 154 64L 22 64C 22 64 10 64 10 52L 10 22C 10 22 10 10 22 10"></path></g></g></g><g id="g-root-ro_hxrzzf1i5lh50-fill" data-item-order="-5832" data-item-id="ro_hxrzzf1i5lh50" data-item-class="Shape Stroke Fill" data-item-index="none" data-renderer-id="0" transform="translate(27, 3)"><g id="ro_hxrzzf1i5lh50-fill" stroke="none" fill="#f0f0f0"><g><path d="M 22 10L 106 10C 106 10 118 10 118 22L 118 52C 118 52 118 64 106 64L 22 64C 22 64 10 64 10 52L 10 22C 10 22 10 10 22 10"></path></g></g></g><g id="g-root-ro_qvwzqj1i5fu9t-fill" data-item-order="-5832" data-item-id="ro_qvwzqj1i5fu9t" data-item-class="Shape Stroke Fill" data-item-index="none" data-renderer-id="0" transform="translate(27, 333)"><g id="ro_qvwzqj1i5fu9t-fill" stroke="none" fill="#e6f9ff"><g><path d="M 22 10L 106 10C 106 10 118 10 118 22L 118 52C 118 52 118 64 106 64L 22 64C 22 64 10 64 10 52L 10 22C 10 22 10 10 22 10"></path></g></g></g><g id="g-root-ro_91ilt71i54n48-fill" data-item-order="-5832" data-item-id="ro_91ilt71i54n48" data-item-class="Shape Stroke Fill" data-item-index="none" data-renderer-id="0" transform="translate(27, 113)"><g id="ro_91ilt71i54n48-fill" stroke="none" fill="#e6f9ff"><g><path d="M 22 10L 106 10C 106 10 118 10 118 22L 118 52C 118 52 118 64 106 64L 22 64C 22 64 10 64 10 52L 10 22C 10 22 10 10 22 10"></path></g></g></g><g id="g-root-ques_mcz46j1i54ljb-fill" data-item-order="0" data-item-id="ques_mcz46j1i54ljb" data-item-class="Icon Stroke" data-item-index="none" data-renderer-id="0" transform="translate(39, 125)"></g><g id="g-root-tx__1cz9nu31i54lja-fill" data-item-order="0" data-item-id="tx__1cz9nu31i54lja" data-item-class="Label Stroke" data-item-index="none" data-renderer-id="0" transform="translate(75, 128)"><g id="tx__1cz9nu31i54lja-fill" stroke="none" fill="#17b0e3"><g><text style="font: 20px Roboto, sans-serif; white-space: pre;"><tspan x="12" y="34" dominant-baseline="ideographic">질문</tspan></text></g></g></g><g id="g-root-chec_zjfx0r1i538cl-fill" data-item-order="0" data-item-id="chec_zjfx0r1i538cl" data-item-class="Icon Stroke" data-item-index="none" data-renderer-id="0" transform="translate(15, 455)"></g><g id="g-root-tx__1ha3gff1i53958-fill" data-item-order="0" data-item-id="tx__1ha3gff1i53958" data-item-class="Label Stroke" data-item-index="none" data-renderer-id="0" transform="translate(51, 458)"><g id="tx__1ha3gff1i53958-fill" stroke="none" fill="#17b0e3"><g><text style="font: 20px Roboto, sans-serif; white-space: pre;"><tspan x="12" y="34" dominant-baseline="ideographic">결론 도출</tspan></text></g></g></g><g id="g-root-on_mfh0iz1i58u15-fill" data-item-order="0" data-item-id="on_mfh0iz1i58u15" data-item-class="Icon Stroke" data-item-index="none" data-renderer-id="0" transform="translate(15, 235)"></g><g id="g-root-tx__1d1rk6j1i58u14-fill" data-item-order="0" data-item-id="tx__1d1rk6j1i58u14" data-item-class="Label Stroke" data-item-index="none" data-renderer-id="0" transform="translate(51, 238)"><g id="tx__1d1rk6j1i58u14-fill" stroke="none" fill="#17b0e3"><g><text style="font: 20px Roboto, sans-serif; white-space: pre;"><tspan x="12" y="34" dominant-baseline="ideographic">가설 설정</tspan></text></g></g></g><g id="g-root-1_mdli3v1i5lgcr-fill" data-item-order="0" data-item-id="1_mdli3v1i5lgcr" data-item-class="Icon Stroke" data-item-index="none" data-renderer-id="0" transform="translate(39, 15)"></g><g id="g-root-expe_146r10r1i5fvuo-fill" data-item-order="0" data-item-id="expe_146r10r1i5fvuo" data-item-class="Icon Stroke" data-item-index="none" data-renderer-id="0" transform="translate(39, 345)"></g><g id="g-root-tx__1d2e19n1i5fua7-fill" data-item-order="0" data-item-id="tx__1d2e19n1i5fua7" data-item-class="Label Stroke" data-item-index="none" data-renderer-id="0" transform="translate(75, 348)"><g id="tx__1d2e19n1i5fua7-fill" stroke="none" fill="#17b0e3"><g><text style="font: 20px Roboto, sans-serif; white-space: pre;"><tspan x="12" y="34" dominant-baseline="ideographic">실험</tspan></text></g></g></g><g id="g-root-tx__zofje31i5lhxm-fill" data-item-order="0" data-item-id="tx__zofje31i5lhxm" data-item-class="Label Stroke" data-item-index="none" data-renderer-id="0" transform="translate(75, 18)"><g id="tx__zofje31i5lhxm-fill" stroke="none" fill="#484848"><g><text style="font: 20px Roboto, sans-serif; white-space: pre;"><tspan x="12" y="34" dominant-baseline="ideographic">관찰</tspan></text></g></g></g><g id="g-root-cu_1cw5dkb1i538xu-fill" data-item-order="2" data-item-id="cu_1cw5dkb1i538xu" data-item-class="Curve Stroke" data-item-index="none" data-renderer-id="0" transform="translate(81, 167)"></g><g id="g-root-cu_1414uej1i536kt-fill" data-item-order="2" data-item-id="cu_1414uej1i536kt" data-item-class="Curve Stroke" data-item-index="none" data-renderer-id="0" transform="translate(81, 277)"></g><g id="g-root-cu_18gbvfv1i538y7-fill" data-item-order="2" data-item-id="cu_18gbvfv1i538y7" data-item-class="Curve Stroke" data-item-index="none" data-renderer-id="0" transform="translate(81, 57)"></g><g id="g-root-cu_18gyciz1i536kg-fill" data-item-order="2" data-item-id="cu_18gyciz1i536kg" data-item-class="Curve Stroke" data-item-index="none" data-renderer-id="0" transform="translate(81, 387)"></g><g id="g-root-ro_qnswrv1i5395a-stroke" data-item-order="-8424" data-item-id="ro_qnswrv1i5395a" data-item-class="Shape Stroke Fill" data-item-index="none" data-renderer-id="0" transform="translate(3, 443)"><g id="ro_qnswrv1i5395a-stroke" fill="none" stroke-linecap="round" stroke-linejoin="round" stroke-miterlimit="4" stroke="#17b0e3" stroke-width="2"><g><path d="M 22 10L 154 10C 154 10 166 10 166 22L 166 52C 166 52 166 64 154 64L 22 64C 22 64 10 64 10 52L 10 22C 10 22 10 10 22 10"></path></g></g></g><g id="g-root-ro_4oth4b1i58t8i-stroke" data-item-order="-8424" data-item-id="ro_4oth4b1i58t8i" data-item-class="Shape Stroke Fill" data-item-index="none" data-renderer-id="0" transform="translate(3, 223)"><g id="ro_4oth4b1i58t8i-stroke" fill="none" stroke-linecap="round" stroke-linejoin="round" stroke-miterlimit="4" stroke="#17b0e3" stroke-width="2"><g><path d="M 22 10L 154 10C 154 10 166 10 166 22L 166 52C 166 52 166 64 154 64L 22 64C 22 64 10 64 10 52L 10 22C 10 22 10 10 22 10"></path></g></g></g><g id="g-root-ro_hxrzzf1i5lh50-stroke" data-item-order="-5832" data-item-id="ro_hxrzzf1i5lh50" data-item-class="Shape Stroke Fill" data-item-index="none" data-renderer-id="0" transform="translate(27, 3)"><g id="ro_hxrzzf1i5lh50-stroke" fill="none" stroke-linecap="round" stroke-linejoin="round" stroke-miterlimit="4" stroke="#484848" stroke-width="2"><g><path d="M 22 10L 106 10C 106 10 118 10 118 22L 118 52C 118 52 118 64 106 64L 22 64C 22 64 10 64 10 52L 10 22C 10 22 10 10 22 10"></path></g></g></g><g id="g-root-ro_qvwzqj1i5fu9t-stroke" data-item-order="-5832" data-item-id="ro_qvwzqj1i5fu9t" data-item-class="Shape Stroke Fill" data-item-index="none" data-renderer-id="0" transform="translate(27, 333)"><g id="ro_qvwzqj1i5fu9t-stroke" fill="none" stroke-linecap="round" stroke-linejoin="round" stroke-miterlimit="4" stroke="#17b0e3" stroke-width="2"><g><path d="M 22 10L 106 10C 106 10 118 10 118 22L 118 52C 118 52 118 64 106 64L 22 64C 22 64 10 64 10 52L 10 22C 10 22 10 10 22 10"></path></g></g></g><g id="g-root-ro_91ilt71i54n48-stroke" data-item-order="-5832" data-item-id="ro_91ilt71i54n48" data-item-class="Shape Stroke Fill" data-item-index="none" data-renderer-id="0" transform="translate(27, 113)"><g id="ro_91ilt71i54n48-stroke" fill="none" stroke-linecap="round" stroke-linejoin="round" stroke-miterlimit="4" stroke="#17b0e3" stroke-width="2"><g><path d="M 22 10L 106 10C 106 10 118 10 118 22L 118 52C 118 52 118 64 106 64L 22 64C 22 64 10 64 10 52L 10 22C 10 22 10 10 22 10"></path></g></g></g><g id="g-root-ques_mcz46j1i54ljb-stroke" data-item-order="0" data-item-id="ques_mcz46j1i54ljb" data-item-class="Icon Stroke" data-item-index="none" data-renderer-id="0" transform="translate(39, 125)"><g id="ques_mcz46j1i54ljb-stroke" fill="none" stroke-linecap="round" stroke-linejoin="round" stroke-miterlimit="4" stroke="#17b0e3" stroke-width="2"><g><path d="M 25 11.071428C 19.86655 11.073027 15.150094 13.898137 12.726217 18.423304C 10.302341 22.948471 10.564 28.440077 13.407143 32.714287L 11.071428 38.92857L 18.892857 37.514286C 24.049366 40.034119 30.223572 39.133091 34.444901 35.244709C 38.666233 31.356327 40.070347 25.276762 37.981689 19.931049C 35.893028 14.585334 30.739262 11.068042 25 11.071428ZM 21.785713 21.785713C 21.785713 20.010513 23.2248 18.571428 25 18.571428C 26.775202 18.571428 28.214285 20.010513 28.214285 21.785713C 28.214285 23.560915 26.775202 25 25 25L 25 27.142857"></path></g></g></g><g id="g-root-tx__1cz9nu31i54lja-stroke" data-item-order="0" data-item-id="tx__1cz9nu31i54lja" data-item-class="Label Stroke" data-item-index="none" data-renderer-id="0" transform="translate(75, 128)"></g><g id="g-root-chec_zjfx0r1i538cl-stroke" data-item-order="0" data-item-id="chec_zjfx0r1i538cl" data-item-class="Icon Stroke" data-item-index="none" data-renderer-id="0" transform="translate(15, 455)"><g id="chec_zjfx0r1i538cl-stroke" fill="none" stroke-linecap="round" stroke-linejoin="round" stroke-miterlimit="4" stroke="#17b0e3" stroke-width="2"><g><path d="M 11.071428 28.321428L 16.921429 35.842857C 17.321363 36.362484 17.937195 36.670399 18.592857 36.67857C 19.237696 36.686031 19.851604 36.402687 20.264286 35.907143L 38.92857 13.321428"></path></g></g></g><g id="g-root-tx__1ha3gff1i53958-stroke" data-item-order="0" data-item-id="tx__1ha3gff1i53958" data-item-class="Label Stroke" data-item-index="none" data-renderer-id="0" transform="translate(51, 458)"></g><g id="g-root-on_mfh0iz1i58u15-stroke" data-item-order="0" data-item-id="on_mfh0iz1i58u15" data-item-class="Icon Stroke" data-item-index="none" data-renderer-id="0" transform="translate(15, 235)"><g id="on_mfh0iz1i58u15-stroke" fill="none" stroke-linecap="round" stroke-linejoin="round" stroke-miterlimit="4" stroke="#17b0e3" stroke-width="2"><g><path d="M 32.5 27.142857C 32.513855 23.441374 29.825212 20.283314 26.168934 19.70643C 22.512655 19.129547 18.982281 21.306377 17.855803 24.832314C 16.729324 28.358248 18.343657 32.17873 21.657143 33.828571L 21.657143 37.514286C 21.668766 37.967445 22.039545 38.32872 22.492857 38.328571L 27.507143 38.328571C 27.960453 38.32872 28.331234 37.967445 28.342857 37.514286L 28.342857 33.764286C 30.860363 32.51107 32.465252 29.954826 32.5 27.142857ZM 25 11.735714L 25 14.95M 33.571426 14.8L 31.299999 17.092857M 38.457142 21.442858L 35.242855 21.442858M 16.428572 14.8L 18.699999 17.092857M 11.542857 21.442858L 14.757143 21.442858"></path></g></g></g><g id="g-root-tx__1d1rk6j1i58u14-stroke" data-item-order="0" data-item-id="tx__1d1rk6j1i58u14" data-item-class="Label Stroke" data-item-index="none" data-renderer-id="0" transform="translate(51, 238)"></g><g id="g-root-1_mdli3v1i5lgcr-stroke" data-item-order="0" data-item-id="1_mdli3v1i5lgcr" data-item-class="Icon Stroke" data-item-index="none" data-renderer-id="0" transform="translate(39, 15)"><g id="1_mdli3v1i5lgcr-stroke" fill="none" stroke-linecap="round" stroke-linejoin="round" stroke-miterlimit="4" stroke="#484848" stroke-width="2"><g><path d="M 20.625 25C 20.625002 27.416246 22.583755 29.375002 25.000002 29.375002C 27.416246 29.375002 29.375002 27.416246 29.375002 25.000002C 29.375002 22.583755 27.416246 20.625002 25.000002 20.625002C 22.583755 20.625002 20.625002 22.583755 20.625002 25.000002M 39.224998 24.5875C 37.762497 22.9375 31.949999 16.875 25 16.875C 18.049999 16.875 12.2375 22.9375 10.775 24.5875C 10.578117 24.827259 10.578117 25.172737 10.775 25.412498C 12.2375 27.0625 18.049999 33.125 25 33.125C 31.949999 33.125 37.762497 27.0625 39.224998 25.4125C 39.421879 25.172737 39.421879 24.827259 39.224998 24.5875Z"></path></g></g></g><g id="g-root-expe_146r10r1i5fvuo-stroke" data-item-order="0" data-item-id="expe_146r10r1i5fvuo" data-item-class="Icon Stroke" data-item-index="none" data-renderer-id="0" transform="translate(39, 345)"><g id="expe_146r10r1i5fvuo-stroke" fill="none" stroke-linecap="round" stroke-linejoin="round" stroke-miterlimit="4" stroke="#17b0e3" stroke-width="2"><g><path d="M 21.25 13.125L 21.25 23.125L 12.325 35.4375C 11.788027 36.201546 11.721661 37.201172 12.152915 38.029495C 12.584169 38.857819 13.441137 39.376724 14.375 39.375L 35.625 39.375C 36.558861 39.376724 37.415833 38.857819 37.847084 38.029495C 38.278339 37.201172 38.211971 36.201546 37.674999 35.4375L 28.75 23.125L 28.75 13.125M 30.625 11.875C 30.625 12.565356 30.065355 13.125 29.375 13.125L 20.625 13.125C 19.934645 13.125 19.375 12.565356 19.375 11.875C 19.375 11.184644 19.934645 10.625 20.625 10.625L 29.375 10.625C 30.065355 10.625 30.625 11.184644 30.625 11.875ZM 28.75 16.25L 26.25 16.25M 28.75 22.5L 26.25 22.5M 28.75 19.375L 25 19.375M 17.025 29.375L 32.974998 29.375M 20 34.375C 20 35.410534 20.839466 36.25 21.875 36.25C 22.910534 36.25 23.75 35.410534 23.75 34.375C 23.75 33.339466 22.910534 32.5 21.875 32.5C 20.839466 32.5 20 33.339466 20 34.375M 29.6875 36.25C 29.860088 36.25 30 36.389912 30 36.5625M 29.375 36.5625C 29.375 36.389912 29.514912 36.25 29.6875 36.25M 29.6875 36.875C 29.514912 36.875 29.375 36.735088 29.375 36.5625M 30 36.5625C 30 36.735088 29.860088 36.875 29.6875 36.875M 27.5 32.5C 27.672588 32.5 27.8125 32.639912 27.8125 32.8125M 27.1875 32.8125C 27.1875 32.639912 27.327412 32.5 27.5 32.5M 27.5 33.125C 27.327412 33.125 27.1875 32.985088 27.1875 32.8125M 27.8125 32.8125C 27.8125 32.985088 27.672588 33.125 27.5 33.125"></path></g></g></g><g id="g-root-tx__1d2e19n1i5fua7-stroke" data-item-order="0" data-item-id="tx__1d2e19n1i5fua7" data-item-class="Label Stroke" data-item-index="none" data-renderer-id="0" transform="translate(75, 348)"></g><g id="g-root-tx__zofje31i5lhxm-stroke" data-item-order="0" data-item-id="tx__zofje31i5lhxm" data-item-class="Label Stroke" data-item-index="none" data-renderer-id="0" transform="translate(75, 18)"></g><g id="g-root-cu_1cw5dkb1i538xu-stroke" data-item-order="2" data-item-id="cu_1cw5dkb1i538xu" data-item-class="Curve Stroke" data-item-index="none" data-renderer-id="0" transform="translate(81, 167)"><g id="cu_1cw5dkb1i538xu-stroke" fill="none" stroke-linecap="round" stroke-linejoin="round" stroke-miterlimit="4" stroke="#484848" stroke-width="2"><g><path d="M 10 10L 10 38L 10 64"></path><path d="M 3.5 58L 10 64.5L 16.5 58" stroke-dasharray="none"></path></g></g></g><g id="g-root-cu_1414uej1i536kt-stroke" data-item-order="2" data-item-id="cu_1414uej1i536kt" data-item-class="Curve Stroke" data-item-index="none" data-renderer-id="0" transform="translate(81, 277)"><g id="cu_1414uej1i536kt-stroke" fill="none" stroke-linecap="round" stroke-linejoin="round" stroke-miterlimit="4" stroke="#484848" stroke-width="2"><g><path d="M 10 10L 10 38L 10 64"></path><path d="M 3.5 58L 10 64.5L 16.5 58" stroke-dasharray="none"></path></g></g></g><g id="g-root-cu_18gbvfv1i538y7-stroke" data-item-order="2" data-item-id="cu_18gbvfv1i538y7" data-item-class="Curve Stroke" data-item-index="none" data-renderer-id="0" transform="translate(81, 57)"><g id="cu_18gbvfv1i538y7-stroke" fill="none" stroke-linecap="round" stroke-linejoin="round" stroke-miterlimit="4" stroke="#484848" stroke-width="2"><g><path d="M 10 10L 10 38L 10 64"></path><path d="M 3.5 58L 10 64.5L 16.5 58" stroke-dasharray="none"></path></g></g></g><g id="g-root-cu_18gyciz1i536kg-stroke" data-item-order="2" data-item-id="cu_18gyciz1i536kg" data-item-class="Curve Stroke" data-item-index="none" data-renderer-id="0" transform="translate(81, 387)"><g id="cu_18gyciz1i536kg-stroke" fill="none" stroke-linecap="round" stroke-linejoin="round" stroke-miterlimit="4" stroke="#484848" stroke-width="2"><g><path d="M 10 10L 10 38L 10 64"></path><path d="M 3.5 58L 10 64.5L 16.5 58" stroke-dasharray="none"></path></g></g></g></g></g></svg>