<?xml version="1.0" encoding="utf-8" standalone="yes"?>
<!DOCTYPE svg PUBLIC "-//W3C//DTD SVG 1.1//EN" "http://www.w3.org/Graphics/SVG/1.1/DTD/svg11.dtd">
<svg width="624" height="229" viewBox="0 0 624 229" style="fill:none;stroke:none;fill-rule:evenodd;clip-rule:evenodd;stroke-linecap:round;stroke-linejoin:round;stroke-miterlimit:1.5;" version="1.1" xmlns="http://www.w3.org/2000/svg" xmlns:xlink="http://www.w3.org/1999/xlink"><style id="fontImports">@import url("https://fonts.googleapis.com/css2?family=Shantell+Sans:wght@300..800&amp;display=block");</style><rect id="" x="0" y="0" width="624" height="228.996" style="fill: #ffffff;"></rect><g id="items" style="isolation: isolate"><g id="blend" style="mix-blend-mode:multiply"><g id="g-root-0.Union_sy_vahmto1nf9lam-fill" data-item-order="-59564" data-item-id="0.Union_sy_vahmto1nf9lam" data-item-class="ScenePart Part Indexed_0 Fill Stroke ColorFillGray ColorStrokeBlack" data-item-index="0" data-renderer-id="0" transform="translate(190, 61.9959716796875)"><g id="0.Union_sy_vahmto1nf9lam-fill" stroke="none" fill="#eaeaea"><g><path d="M 122 9.999998C 159.818 9.999998 190.825 39.155998 193.771 76.216998L 220.135 76.216998L 220.135 69.111998L 234.101 82.003998L 220.135 94.896998L 220.135 87.719998L 193.776 87.719998C 190.861 124.810998 159.839 153.999998 122 153.999998C 84.148 153.999998 53.119 124.791998 50.221 87.683998L 23.965 87.683998L 23.965 94.788998L 10 81.895998L 23.965 69.003998L 23.965 76.179998L 50.232 76.179998C 53.195 39.136998 84.195 9.999998 122 9.999998Z"></path></g></g></g><g id="g-root-2.cr-small_cr_qvalsc1nf9ix4-fill" data-item-order="-59562" data-item-id="2.cr-small_cr_qvalsc1nf9ix4" data-item-class="Shape Stroke Fill ScenePart Part Indexed" data-item-index="2" data-renderer-id="0" transform="translate(98, 98)"><g id="2.cr-small_cr_qvalsc1nf9ix4-fill" stroke="none" fill="#d5f7e8"><g><path d="M 10 46C 10 65.882251 26.117749 82 46 82C 65.882251 82 82 65.882251 82 46C 82 26.117749 65.882251 10 46 10C 26.117749 10 10 26.117749 10 46"></path></g></g></g><g id="g-root-1.cr-small_cr_qvalsc1nf9ix3-fill" data-item-order="-59560" data-item-id="1.cr-small_cr_qvalsc1nf9ix3" data-item-class="Shape Stroke Fill ScenePart Part Indexed Indexed_1" data-item-index="1" data-renderer-id="0" transform="translate(434, 98)"><g id="1.cr-small_cr_qvalsc1nf9ix3-fill" stroke="none" fill="#fff9ce"><g><path d="M 10 46C 10 65.882251 26.117749 82 46 82C 65.882251 82 82 65.882251 82 46C 82 26.117749 65.882251 10 46 10C 26.117749 10 10 26.117749 10 46"></path></g></g></g><g id="g-root-tx__dju3f01nf9ki3-fill" data-item-order="0" data-item-id="tx__dju3f01nf9ki3" data-item-class="Label Stroke SceneTarget SceneTitle Title ColorStrokeBlack" data-item-index="none" data-renderer-id="0" transform="translate(260, 2)"><g id="tx__dju3f01nf9ki3-fill" stroke="none" fill="#484848"><g><text style="font: 20px &quot;Shantell Sans&quot;, cursive; white-space: pre;"><tspan x="17.4" y="35.5" dominant-baseline="ideographic">수학철학</tspan></text></g></g></g><g id="g-root-brai_dil58s1nfaxak-fill" data-item-order="0" data-item-id="brai_dil58s1nfaxak" data-item-class="Icon Stroke SceneTarget SceneStart InsideFill InsideGrayFill ColorStrokeBlack" data-item-index="none" data-renderer-id="0" transform="translate(266, 97.9959716796875)"></g><g id="g-root-tx__mfh3nw1nf9jpd-fill" data-item-order="0" data-item-id="tx__mfh3nw1nf9jpd" data-item-class="Label Stroke SceneTarget Indexed ColorStrokeBlack" data-item-index="2" data-renderer-id="0" transform="translate(2, 122)"><g id="tx__mfh3nw1nf9jpd-fill" stroke="none" fill="#484848"><g><text style="font: 20px &quot;Shantell Sans&quot;, cursive; white-space: pre;"><tspan x="15.98" y="35.5" dominant-baseline="ideographic">존재 탐구</tspan></text></g></g></g><g id="g-root-ques_1hduax81nfazv0-fill" data-item-order="0" data-item-id="ques_1hduax81nfazv0" data-item-class="Icon Stroke SceneTarget Indexed InsideFill" data-item-index="2" data-renderer-id="0" transform="translate(110, 110)"></g><g id="g-root-on_1cyn9vw1nfaxhh-fill" data-item-order="0" data-item-id="on_1cyn9vw1nfaxhh" data-item-class="Icon Stroke SceneTarget Indexed Indexed_1 InsideFill" data-item-index="1" data-renderer-id="0" transform="translate(446, 110)"></g><g id="g-root-tx__dju3f01nf9ki2-fill" data-item-order="0" data-item-id="tx__dju3f01nf9ki2" data-item-class="Label Stroke SceneTarget Indexed Indexed_1 ColorStrokeBlack" data-item-index="1" data-renderer-id="0" transform="translate(518, 122)"><g id="tx__dju3f01nf9ki2-fill" stroke="none" fill="#484848"><g><text style="font: 20px &quot;Shantell Sans&quot;, cursive; white-space: pre;"><tspan x="12" y="35.5" dominant-baseline="ideographic">개념 이해</tspan></text></g></g></g><g id="g-root-0.Union_sy_vahmto1nf9lam-stroke" data-item-order="-59564" data-item-id="0.Union_sy_vahmto1nf9lam" data-item-class="ScenePart Part Indexed_0 Fill Stroke ColorFillGray ColorStrokeBlack" data-item-index="0" data-renderer-id="0" transform="translate(190, 61.9959716796875)"><g id="0.Union_sy_vahmto1nf9lam-stroke" fill="none" stroke-linecap="round" stroke-linejoin="round" stroke-miterlimit="4" stroke="#ffffff" stroke-width="2"><g><path d="M 122 9.999998C 159.818 9.999998 190.825 39.155998 193.771 76.216998L 220.135 76.216998L 220.135 69.111998L 234.101 82.003998L 220.135 94.896998L 220.135 87.719998L 193.776 87.719998C 190.861 124.810998 159.839 153.999998 122 153.999998C 84.148 153.999998 53.119 124.791998 50.221 87.683998L 23.965 87.683998L 23.965 94.788998L 10 81.895998L 23.965 69.003998L 23.965 76.179998L 50.232 76.179998C 53.195 39.136998 84.195 9.999998 122 9.999998Z"></path></g></g></g><g id="g-root-2.cr-small_cr_qvalsc1nf9ix4-stroke" data-item-order="-59562" data-item-id="2.cr-small_cr_qvalsc1nf9ix4" data-item-class="Shape Stroke Fill ScenePart Part Indexed" data-item-index="2" data-renderer-id="0" transform="translate(98, 98)"><g id="2.cr-small_cr_qvalsc1nf9ix4-stroke" fill="none" stroke-linecap="round" stroke-linejoin="round" stroke-miterlimit="4" stroke="#3bc482" stroke-width="2"><g><path d="M 10 46C 10 65.882251 26.117749 82 46 82C 65.882251 82 82 65.882251 82 46C 82 26.117749 65.882251 10 46 10C 26.117749 10 10 26.117749 10 46"></path></g></g></g><g id="g-root-1.cr-small_cr_qvalsc1nf9ix3-stroke" data-item-order="-59560" data-item-id="1.cr-small_cr_qvalsc1nf9ix3" data-item-class="Shape Stroke Fill ScenePart Part Indexed Indexed_1" data-item-index="1" data-renderer-id="0" transform="translate(434, 98)"><g id="1.cr-small_cr_qvalsc1nf9ix3-stroke" fill="none" stroke-linecap="round" stroke-linejoin="round" stroke-miterlimit="4" stroke="#e3cd09" stroke-width="2"><g><path d="M 10 46C 10 65.882251 26.117749 82 46 82C 65.882251 82 82 65.882251 82 46C 82 26.117749 65.882251 10 46 10C 26.117749 10 10 26.117749 10 46"></path></g></g></g><g id="g-root-tx__dju3f01nf9ki3-stroke" data-item-order="0" data-item-id="tx__dju3f01nf9ki3" data-item-class="Label Stroke SceneTarget SceneTitle Title ColorStrokeBlack" data-item-index="none" data-renderer-id="0" transform="translate(260, 2)"></g><g id="g-root-brai_dil58s1nfaxak-stroke" data-item-order="0" data-item-id="brai_dil58s1nfaxak" data-item-class="Icon Stroke SceneTarget SceneStart InsideFill InsideGrayFill ColorStrokeBlack" data-item-index="none" data-renderer-id="0" transform="translate(266, 97.9959716796875)"><g id="brai_dil58s1nfaxak-stroke" fill="none" stroke-linecap="round" stroke-linejoin="round" stroke-miterlimit="4" stroke="#484848" stroke-width="2"><g><path d="M 62.968002 11.503L 62.968002 23.503M 68.968002 17.503L 56.968002 17.503M 70.981003 28.003L 79.468002 36.489998M 79.468002 28.003L 70.981003 36.489998M 55.468002 35.490997L 43.468002 35.490997M 49.468002 28.741001C 49.053787 28.741001 48.718002 29.076786 48.718002 29.491001M 50.218002 29.5C 50.218002 29.085787 49.882214 28.75 49.468002 28.75M 49.468002 30.241001C 49.882214 30.241001 50.218002 29.905214 50.218002 29.491001M 48.718002 29.5C 48.718002 29.914213 49.053787 30.25 49.468002 30.25M 49.468002 40.740997C 49.053787 40.740997 48.718002 41.076786 48.718002 41.490997M 50.218002 41.5C 50.218002 41.085785 49.882214 40.75 49.468002 40.75M 49.468002 42.240997C 49.882214 42.240997 50.218002 41.905212 50.218002 41.490997M 48.718002 41.5C 48.718002 41.914215 49.053787 42.25 49.468002 42.25M 32.968002 16.003L 35.968002 20.503L 38.968002 11.503L 49.468002 11.503M 30.552999 80.5L 30.552999 73.069L 27.796001 73.069C 23.689629 73.070663 20.360342 69.741379 20.362 65.635002L 20.362 58.200996L 14.029 58.200996C 13.550747 58.199074 13.10208 57.969204 12.821136 57.582165C 12.540192 57.195126 12.460649 56.697311 12.607 56.241997C 15.907 46 18.607 35.275002 25.465 28.999001M 65.248001 47.667999C 65.249802 55.370659 61.57082 62.610458 55.348003 67.150002L 55.348 80.5"></path></g></g></g><g id="g-root-tx__mfh3nw1nf9jpd-stroke" data-item-order="0" data-item-id="tx__mfh3nw1nf9jpd" data-item-class="Label Stroke SceneTarget Indexed ColorStrokeBlack" data-item-index="2" data-renderer-id="0" transform="translate(2, 122)"></g><g id="g-root-ques_1hduax81nfazv0-stroke" data-item-order="0" data-item-id="ques_1hduax81nfazv0" data-item-class="Icon Stroke SceneTarget Indexed InsideFill" data-item-index="2" data-renderer-id="0" transform="translate(110, 110)"><g id="ques_1hduax81nfazv0-stroke" fill="none" stroke-linecap="round" stroke-linejoin="round" stroke-miterlimit="4" stroke="#3bc482" stroke-width="2"><g><path d="M 34 11.714286C 25.78648 11.716842 18.24015 16.237019 14.361948 23.477287C 10.483745 30.717556 10.902401 39.504124 15.451428 46.342857L 11.714286 56.285713L 24.228573 54.022858C 32.478989 58.054592 42.357716 56.612949 49.111847 50.391537C 55.865974 44.170128 58.112556 34.442822 54.770702 25.889679C 51.428848 17.336535 43.182823 11.708866 34 11.714286ZM 28.857143 28.857143C 28.857143 26.016823 31.159679 23.714287 34 23.714287C 36.840321 23.714287 39.142857 26.016823 39.142857 28.857143C 39.142857 31.697466 36.840321 34 34 34L 34 37.428574"></path></g></g></g><g id="g-root-on_1cyn9vw1nfaxhh-stroke" data-item-order="0" data-item-id="on_1cyn9vw1nfaxhh" data-item-class="Icon Stroke SceneTarget Indexed Indexed_1 InsideFill" data-item-index="1" data-renderer-id="0" transform="translate(446, 110)"><g id="on_1cyn9vw1nfaxhh-stroke" fill="none" stroke-linecap="round" stroke-linejoin="round" stroke-miterlimit="4" stroke="#e3cd09" stroke-width="2"><g><path d="M 46 37.428574C 46.022171 31.506199 41.720341 26.453302 35.870296 25.530289C 30.020248 24.607275 24.371649 28.090206 22.569283 33.731705C 20.766918 39.373199 23.34985 45.48597 28.651428 48.125717L 28.651428 54.022858C 28.670025 54.747917 29.263273 55.325954 29.988571 55.325714L 38.011429 55.325714C 38.736725 55.325954 39.329975 54.747917 39.348572 54.022858L 39.348572 48.022858C 43.376583 46.017712 45.944405 41.927727 46 37.428574ZM 34 12.777143L 34 17.92M 47.714287 17.68L 44.079998 21.348572M 55.531429 28.308573L 50.388573 28.308573M 20.285715 17.68L 23.92 21.348572M 12.468572 28.308573L 17.611429 28.308573"></path></g></g></g><g id="g-root-tx__dju3f01nf9ki2-stroke" data-item-order="0" data-item-id="tx__dju3f01nf9ki2" data-item-class="Label Stroke SceneTarget Indexed Indexed_1 ColorStrokeBlack" data-item-index="1" data-renderer-id="0" transform="translate(518, 122)"></g></g></g></svg>