<?xml version="1.0" encoding="utf-8" standalone="yes"?>
<!DOCTYPE svg PUBLIC "-//W3C//DTD SVG 1.1//EN" "http://www.w3.org/Graphics/SVG/1.1/DTD/svg11.dtd">
<svg width="660" height="444" viewBox="0 0 660 444" style="fill:none;stroke:none;fill-rule:evenodd;clip-rule:evenodd;stroke-linecap:round;stroke-linejoin:round;stroke-miterlimit:1.5;" version="1.1" xmlns="http://www.w3.org/2000/svg" xmlns:xlink="http://www.w3.org/1999/xlink"><style id="fontImports">@import url("https://fonts.googleapis.com/css2?family=Roboto:wght@400;700&amp;display=block");</style><rect id="" x="0" y="0" width="660" height="444" style="fill: #ffffff;"></rect><g id="items" style="isolation: isolate"><g id="blend" style="mix-blend-mode:multiply"><g id="g-root-3.Vector_sy_qvailn1jjkvex-fill" data-item-order="-122556" data-item-id="3.Vector_sy_qvailn1jjkvex" data-item-class="ScenePart Part Indexed Fill Stroke ColorFillGray ColorStrokeGray" data-item-index="3" data-renderer-id="0" transform="translate(163.7030029296875, 57.06298828125)"><g id="3.Vector_sy_qvailn1jjkvex-fill" stroke="none" fill="#eaeaea"><g><path d="M 110.974997 70.788996L 116.622997 88.936996L 98.081997 93.118996L 101.669997 86.903996L 79.046997 73.842996C 68.091997 87.338996 48.651997 91.262996 33.118997 82.294996C 15.899997 72.353996 9.999997 50.336996 19.941997 33.117996C 29.882997 15.899996 51.899997 9.999996 69.118997 19.940996C 84.630997 28.896996 90.955997 47.654996 84.787997 63.874996L 107.421997 76.941996L 110.974997 70.788996Z"></path></g></g></g><g id="g-root-2.Vector_sy_zqxiuj1jjkum8-fill" data-item-order="-122554" data-item-id="2.Vector_sy_zqxiuj1jjkum8" data-item-class="ScenePart Part Indexed Fill Stroke ColorFillGray ColorStrokeGray" data-item-index="2" data-renderer-id="0" transform="translate(314, 274.29901123046875)"><g id="2.Vector_sy_zqxiuj1jjkum8-fill" stroke="none" fill="#eaeaea"><g><path d="M 58.893 23.965989L 46 9.999989L 33.108 23.965989L 40.284 23.965989L 40.284 50.151989C 23.118 52.890989 10 67.763989 10 85.700989C 10 105.582989 26.118 121.700989 46 121.700989C 65.882 121.700989 82 105.582989 82 85.700989C 82 67.788989 68.918 52.931989 51.788 50.163989L 51.788 23.965989L 58.893 23.965989Z"></path></g></g></g><g id="g-root-1.Vector_sy_18ly20b1jjkw7j-fill" data-item-order="-122552" data-item-id="1.Vector_sy_18ly20b1jjkw7j" data-item-class="ScenePart Part Indexed Indexed_1 Fill Stroke" data-item-index="1" data-renderer-id="0" transform="translate(429.67401123046875, 57.06298828125)"><g id="1.Vector_sy_18ly20b1jjkw7j-fill" stroke="none" fill="#d8ceff"><g><path d="M 28.540989 93.119996L 9.999989 88.936996L 15.647989 70.788996L 19.235989 77.003996L 41.859989 63.941996C 35.648989 47.706996 41.969989 28.909996 57.503989 19.940996C 74.722989 9.999996 96.739989 15.899996 106.680989 33.117996C 116.621989 50.336996 110.722989 72.353996 93.503989 82.294996C 77.991989 91.250996 58.584989 87.349996 47.621989 73.898996L 24.987989 86.965996L 28.540989 93.119996Z"></path></g></g></g><g id="g-root-0.Vector_sy_1hhl2971jjkveu-fill" data-item-order="-122550" data-item-id="0.Vector_sy_1hhl2971jjkveu" data-item-class="ScenePart Part Indexed_0 Fill Stroke ColorFillGray ColorStrokeGray" data-item-index="0" data-renderer-id="0" transform="translate(278, 109.99600219726562)"><g id="0.Vector_sy_1hhl2971jjkveu-fill" stroke="none" fill="#eaeaea"><g><path d="M 154 81.999998C 154 42.235998 121.765 9.999998 82 9.999998C 42.236 9.999998 10 42.235998 10 81.999998C 10 121.764998 42.236 153.999998 82 153.999998C 121.764 153.999998 154 121.764998 154 81.999998Z"></path></g></g></g><g id="g-root-tx__dbpx9n1jizthh-fill" data-item-order="0" data-item-id="tx__dbpx9n1jizthh" data-item-class="Label Stroke SceneTarget SceneTitle Title ColorStrokeBlack" data-item-index="none" data-renderer-id="0" transform="translate(194, 2)"><g id="tx__dbpx9n1jizthh-fill" stroke="none" fill="#666666"><g><text style="font: 20px Roboto, sans-serif; white-space: pre;"><tspan x="13.62" y="34" dominant-baseline="ideographic">포괄적인 웹 개발을 위한 주요 요소</tspan></text></g></g></g><g id="g-root-tx__mfh0h71jjkw76-fill" data-item-order="0" data-item-id="tx__mfh0h71jjkw76" data-item-class="Label Stroke SceneTarget Indexed ColorStrokeBlack" data-item-index="3" data-renderer-id="0" transform="translate(2, 86)"><g id="tx__mfh0h71jjkw76-fill" stroke="none" fill="#666666"><g><text style="font: 20px Roboto, sans-serif; white-space: pre;"><tspan x="19.04" y="34" dominant-baseline="ideographic">브라우저 호환성</tspan></text></g></g></g><g id="g-root-brow_1hgyobv1jj3ztb-fill" data-item-order="0" data-item-id="brow_1hgyobv1jj3ztb" data-item-class="Icon Stroke SceneTarget Indexed InsideFill InsideGrayFill ColorStrokeBlack" data-item-index="3" data-renderer-id="0" transform="translate(180, 74)"></g><g id="g-root-disa_92560b1jj400e-fill" data-item-order="0" data-item-id="disa_92560b1jj400e" data-item-class="Icon Stroke SceneTarget Indexed Indexed_1 InsideFill" data-item-index="1" data-renderer-id="0" transform="translate(472, 74)"></g><g id="g-root-tx__18nth9n1jjkv7w-fill" data-item-order="0" data-item-id="tx__18nth9n1jjkv7w" data-item-class="Label Stroke SceneTarget Indexed Indexed_1" data-item-index="1" data-renderer-id="0" transform="translate(542, 86)"><g id="tx__18nth9n1jjkv7w-fill" stroke="none" fill="#886AFF"><g><text style="font: 20px Roboto, sans-serif; white-space: pre;"><tspan x="12" y="34" dominant-baseline="ideographic">웹 접근성</tspan></text></g></g></g><g id="g-root-3_1qaq9bf1jj400c-fill" data-item-order="0" data-item-id="3_1qaq9bf1jj400c" data-item-class="Icon Stroke SceneTarget SceneEnd InsideFill InsideGrayFill ColorStrokeBlack" data-item-index="none" data-renderer-id="0" transform="translate(314, 145.99600219726562)"></g><g id="g-root-arra_1czw8171jj3yfh-fill" data-item-order="0" data-item-id="arra_1czw8171jj3yfh" data-item-class="Icon Stroke SceneTarget Indexed InsideFill InsideGrayFill ColorStrokeBlack" data-item-index="2" data-renderer-id="0" transform="translate(326, 326)"></g><g id="g-root-tx_css_8zyy31jjkvez-fill" data-item-order="0" data-item-id="tx_css_8zyy31jjkvez" data-item-class="Label Stroke SceneTarget Indexed ColorStrokeBlack" data-item-index="2" data-renderer-id="0" transform="translate(302, 398)"><g id="tx_css_8zyy31jjkvez-fill" stroke="none" fill="#666666"><g><text style="font: 20px Roboto, sans-serif; white-space: pre;"><tspan x="17.15" y="34" dominant-baseline="ideographic">고급 CSS</tspan></text></g></g></g><g id="g-root-3.Vector_sy_qvailn1jjkvex-stroke" data-item-order="-122556" data-item-id="3.Vector_sy_qvailn1jjkvex" data-item-class="ScenePart Part Indexed Fill Stroke ColorFillGray ColorStrokeGray" data-item-index="3" data-renderer-id="0" transform="translate(163.7030029296875, 57.06298828125)"><g id="3.Vector_sy_qvailn1jjkvex-stroke" fill="none" stroke-linecap="round" stroke-linejoin="round" stroke-miterlimit="4" stroke="#888888" stroke-width="2"><g><path d="M 110.974997 70.788996L 116.622997 88.936996L 98.081997 93.118996L 101.669997 86.903996L 79.046997 73.842996C 68.091997 87.338996 48.651997 91.262996 33.118997 82.294996C 15.899997 72.353996 9.999997 50.336996 19.941997 33.117996C 29.882997 15.899996 51.899997 9.999996 69.118997 19.940996C 84.630997 28.896996 90.955997 47.654996 84.787997 63.874996L 107.421997 76.941996L 110.974997 70.788996Z"></path></g></g></g><g id="g-root-2.Vector_sy_zqxiuj1jjkum8-stroke" data-item-order="-122554" data-item-id="2.Vector_sy_zqxiuj1jjkum8" data-item-class="ScenePart Part Indexed Fill Stroke ColorFillGray ColorStrokeGray" data-item-index="2" data-renderer-id="0" transform="translate(314, 274.29901123046875)"><g id="2.Vector_sy_zqxiuj1jjkum8-stroke" fill="none" stroke-linecap="round" stroke-linejoin="round" stroke-miterlimit="4" stroke="#888888" stroke-width="2"><g><path d="M 58.893 23.965989L 46 9.999989L 33.108 23.965989L 40.284 23.965989L 40.284 50.151989C 23.118 52.890989 10 67.763989 10 85.700989C 10 105.582989 26.118 121.700989 46 121.700989C 65.882 121.700989 82 105.582989 82 85.700989C 82 67.788989 68.918 52.931989 51.788 50.163989L 51.788 23.965989L 58.893 23.965989Z"></path></g></g></g><g id="g-root-1.Vector_sy_18ly20b1jjkw7j-stroke" data-item-order="-122552" data-item-id="1.Vector_sy_18ly20b1jjkw7j" data-item-class="ScenePart Part Indexed Indexed_1 Fill Stroke" data-item-index="1" data-renderer-id="0" transform="translate(429.67401123046875, 57.06298828125)"><g id="1.Vector_sy_18ly20b1jjkw7j-stroke" fill="none" stroke-linecap="round" stroke-linejoin="round" stroke-miterlimit="4" stroke="#795ee3" stroke-width="2"><g><path d="M 28.540989 93.119996L 9.999989 88.936996L 15.647989 70.788996L 19.235989 77.003996L 41.859989 63.941996C 35.648989 47.706996 41.969989 28.909996 57.503989 19.940996C 74.722989 9.999996 96.739989 15.899996 106.680989 33.117996C 116.621989 50.336996 110.722989 72.353996 93.503989 82.294996C 77.991989 91.250996 58.584989 87.349996 47.621989 73.898996L 24.987989 86.965996L 28.540989 93.119996Z"></path></g></g></g><g id="g-root-0.Vector_sy_1hhl2971jjkveu-stroke" data-item-order="-122550" data-item-id="0.Vector_sy_1hhl2971jjkveu" data-item-class="ScenePart Part Indexed_0 Fill Stroke ColorFillGray ColorStrokeGray" data-item-index="0" data-renderer-id="0" transform="translate(278, 109.99600219726562)"><g id="0.Vector_sy_1hhl2971jjkveu-stroke" fill="none" stroke-linecap="round" stroke-linejoin="round" stroke-miterlimit="4" stroke="#888888" stroke-width="2"><g><path d="M 154 81.999998C 154 42.235998 121.765 9.999998 82 9.999998C 42.236 9.999998 10 42.235998 10 81.999998C 10 121.764998 42.236 153.999998 82 153.999998C 121.764 153.999998 154 121.764998 154 81.999998Z"></path></g></g></g><g id="g-root-tx__dbpx9n1jizthh-stroke" data-item-order="0" data-item-id="tx__dbpx9n1jizthh" data-item-class="Label Stroke SceneTarget SceneTitle Title ColorStrokeBlack" data-item-index="none" data-renderer-id="0" transform="translate(194, 2)"></g><g id="g-root-tx__mfh0h71jjkw76-stroke" data-item-order="0" data-item-id="tx__mfh0h71jjkw76" data-item-class="Label Stroke SceneTarget Indexed ColorStrokeBlack" data-item-index="3" data-renderer-id="0" transform="translate(2, 86)"></g><g id="g-root-brow_1hgyobv1jj3ztb-stroke" data-item-order="0" data-item-id="brow_1hgyobv1jj3ztb" data-item-class="Icon Stroke SceneTarget Indexed InsideFill InsideGrayFill ColorStrokeBlack" data-item-index="3" data-renderer-id="0" transform="translate(180, 74)"><g id="brow_1hgyobv1jj3ztb-stroke" fill="none" stroke-linecap="round" stroke-linejoin="round" stroke-miterlimit="4" stroke="#666666" stroke-width="2"><g><path d="M 11 19L 43 19M 16.5 14.5C 16.223858 14.5 16 14.723858 16 15C 16 15.276142 16.223858 15.5 16.5 15.5C 16.776142 15.5 17 15.276142 17 15C 17 14.723858 16.776142 14.5 16.5 14.5L 16.5 14.5M 21.5 14.5C 21.223858 14.5 21 14.723858 21 15C 21 15.276142 21.223858 15.5 21.5 15.5C 21.776142 15.5 22 15.276142 22 15C 22 14.723858 21.776142 14.5 21.5 14.5L 21.5 14.5M 26.5 14.5C 26.223858 14.5 26 14.723858 26 15C 26 15.276142 26.223858 15.5 26.5 15.5C 26.776142 15.5 27 15.276142 27 15C 27 14.723858 26.776142 14.5 26.5 14.5L 26.5 14.5M 15 11L 39 11C 39 11 43 11 43 15L 43 33C 43 33 43 37 39 37L 15 37C 15 37 11 37 11 33L 11 15C 11 15 11 11 15 11M 48 37L 57 37M 48 29L 53 29C 55.209141 29 57 30.790861 57 33L 57 53C 57 55.209141 55.209141 57 53 57L 29 57C 26.790861 57 25 55.209141 25 53L 25 42M 23 33L 23 26C 23 24.343147 24.343147 23 26 23C 27.656855 23 29 24.343147 29 26L 29 33M 23 29L 29 29M 45 44C 45 45.656857 43.656857 47 42 47L 39 47L 39 41L 42 41C 43.656857 41 45 42.343147 45 44ZM 45 50C 45 51.656857 43.656857 53 42 53L 39 53L 39 47L 42 47C 43.656857 47 45 48.343147 45 50Z"></path></g></g></g><g id="g-root-disa_92560b1jj400e-stroke" data-item-order="0" data-item-id="disa_92560b1jj400e" data-item-class="Icon Stroke SceneTarget Indexed Indexed_1 InsideFill" data-item-index="1" data-renderer-id="0" transform="translate(472, 74)"><g id="disa_92560b1jj400e-stroke" fill="none" stroke-linecap="round" stroke-linejoin="round" stroke-miterlimit="4" stroke="#886AFF" stroke-width="2"><g><path d="M 17.912001 28.5C 17.910934 37.49968 25.206318 44.795929 34.206001 44.795929C 43.205681 44.795929 50.501068 37.49968 50.5 28.5C 50.501068 19.50032 43.205681 12.204071 34.206001 12.204071C 25.206318 12.204071 17.910934 19.50032 17.912001 28.5M 30.778 19.114C 30.777779 20.88699 32.215012 22.3244 33.987999 22.3244C 35.76099 22.3244 37.198219 20.88699 37.197998 19.114C 37.198219 17.341011 35.76099 15.903601 33.987999 15.903601C 32.215012 15.903601 30.777779 17.341011 30.778 19.114M 10 10M 37.094002 28.851999L 41.807999 27.798C 42.846298 27.566042 43.499962 26.536297 43.268002 25.498001C 43.036041 24.459705 42.006298 23.806042 40.968002 24.038002L 35.077999 25.355999C 34.503742 25.484272 33.908257 25.484272 33.334 25.355999L 27.444 24.038C 26.405704 23.806042 25.375961 24.459705 25.144001 25.498001C 24.912041 26.536297 25.565704 27.566042 26.604 27.798L 31.316 28.851999L 31.316 31.608L 28.771999 36.891998C 28.465277 37.512962 28.515572 38.25079 28.903725 38.824379C 29.291876 39.397972 29.958111 39.718994 30.648594 39.665138C 31.339079 39.611282 31.947481 39.190842 32.242001 38.564003L 34.206001 34.486L 36.167999 38.563999C 36.629517 39.523113 37.781281 39.926338 38.740253 39.464531C 39.699226 39.00272 40.1021 37.85083 39.639999 36.891998L 37.094002 31.608L 37.094002 28.851999ZM 42.152 47.880001L 44.992001 52.138L 47.830002 47.877998M 44.990002 52.138L 44.990002 56.396M 10 10M 20.146 56.396L 22.102001 48.57C 22.202927 48.164921 22.566536 47.880466 22.984001 47.880001L 22.984001 47.880001C 23.402 47.880001 23.764 48.164001 23.866001 48.57L 25.824001 56.396M 20.855999 53.560001L 25.114 53.560001M 31.266001 56.396L 31.266001 47.880001L 31.266001 48.152C 31.264898 49.177689 30.433689 50.0089 29.408001 50.010002L 29.139999 50.009998M 33.396 56.396L 29.138 56.396M 38.517998 56.396L 38.517998 47.880001L 38.517998 48.152C 38.516899 49.178471 37.684471 50.010002 36.658001 50.010002L 36.388 50.009998M 40.646 56.396L 36.388 56.396"></path></g></g></g><g id="g-root-tx__18nth9n1jjkv7w-stroke" data-item-order="0" data-item-id="tx__18nth9n1jjkv7w" data-item-class="Label Stroke SceneTarget Indexed Indexed_1" data-item-index="1" data-renderer-id="0" transform="translate(542, 86)"></g><g id="g-root-3_1qaq9bf1jj400c-stroke" data-item-order="0" data-item-id="3_1qaq9bf1jj400c" data-item-class="Icon Stroke SceneTarget SceneEnd InsideFill InsideGrayFill ColorStrokeBlack" data-item-index="none" data-renderer-id="0" transform="translate(314, 145.99600219726562)"><g id="3_1qaq9bf1jj400c-stroke" fill="none" stroke-linecap="round" stroke-linejoin="round" stroke-miterlimit="4" stroke="#666666" stroke-width="2"><g><path d="M 14.5 11.491L 74.5 11.491C 74.5 11.491 77.5 11.491 77.5 14.491L 77.5 74.490997C 77.5 74.490997 77.5 77.490997 74.5 77.490997L 14.5 77.490997C 14.5 77.490997 11.5 77.490997 11.5 74.490997L 11.5 14.491C 11.5 14.491 11.5 11.491 14.5 11.491M 32.5 29.491001L 32.5 77.490997M 56.5 29.539L 56.5 77.490997M 11.5 29.491001L 77.5 29.491001"></path></g></g></g><g id="g-root-arra_1czw8171jj3yfh-stroke" data-item-order="0" data-item-id="arra_1czw8171jj3yfh" data-item-class="Icon Stroke SceneTarget Indexed InsideFill InsideGrayFill ColorStrokeBlack" data-item-index="2" data-renderer-id="0" transform="translate(326, 326)"><g id="arra_1czw8171jj3yfh-stroke" fill="none" stroke-linecap="round" stroke-linejoin="round" stroke-miterlimit="4" stroke="#666666" stroke-width="2"><g><path d="M 19 51C 19 52.104568 18.104568 53 17 53L 13 53C 11.895431 53 11 52.104568 11 51L 11 17C 11 15.895431 11.895431 15 13 15L 17 15C 18.104568 15 19 15.895431 19 17ZM 57 51C 57 52.104568 56.104568 53 55 53L 51 53C 49.895432 53 49 52.104568 49 51L 49 17C 49 15.895431 49.895432 15 51 15L 55 15C 56.104568 15 57 15.895431 57 17ZM 45 17C 45 15.895431 44.104568 15 43 15L 25 15C 23.895432 15 23 15.895431 23 17L 23 51C 23 52.104568 23.895432 53 25 53L 43 53C 44.104568 53 45 52.104568 45 51Z"></path></g></g></g><g id="g-root-tx_css_8zyy31jjkvez-stroke" data-item-order="0" data-item-id="tx_css_8zyy31jjkvez" data-item-class="Label Stroke SceneTarget Indexed ColorStrokeBlack" data-item-index="2" data-renderer-id="0" transform="translate(302, 398)"></g></g></g></svg>