<?xml version="1.0" encoding="utf-8" standalone="yes"?>
<!DOCTYPE svg PUBLIC "-//W3C//DTD SVG 1.1//EN" "http://www.w3.org/Graphics/SVG/1.1/DTD/svg11.dtd">
<svg width="613" height="373" viewBox="0 0 613 373" style="fill:none;stroke:none;fill-rule:evenodd;clip-rule:evenodd;stroke-linecap:round;stroke-linejoin:round;stroke-miterlimit:1.5;" version="1.1" xmlns="http://www.w3.org/2000/svg" xmlns:xlink="http://www.w3.org/1999/xlink"><style id="fontImports">@import url("https://fonts.googleapis.com/css2?family=Roboto:wght@400;700&amp;display=block");</style><rect id="" x="0" y="0" width="613" height="373" style="fill: #ffffff;"></rect><g id="items" style="isolation: isolate"><g id="blend" style="mix-blend-mode:multiply"><g id="g-root-3.cu_sy_18k23qx1mvek24-fill" data-item-order="-103676" data-item-id="3.cu_sy_18k23qx1mvek24" data-item-class="ScenePart Part Indexed Fill Stroke ColorStrokeBlack" data-item-index="3" data-renderer-id="0" transform="translate(302, 62)"><g id="3.cu_sy_18k23qx1mvek24-fill" stroke="none" fill="#de9ffb"><g><path d="M 298 154C 298 233.529 233.529 298 154 298C 74.471 298 10 233.529 10 154C 10 74.471 74.471 10 154 10C 233.529 10 298 74.471 298 154ZM 154 250C 207.019 250 250 207.019 250 154C 250 100.9807 207.019 58 154 58C 100.9807 58 58 100.9807 58 154C 58 207.019 100.9807 250 154 250Z"></path></g></g></g><g id="g-root-3.line_sy_18k23qx1mvek25-fill" data-item-order="-103673" data-item-id="3.line_sy_18k23qx1mvek25" data-item-class="ScenePart Part Indexed Stroke LeaderLine ColorStrokeBlack" data-item-index="3" data-renderer-id="0" transform="translate(230, 122.0001220703125)"></g><g id="g-root-2.cu_sy_1luw5151mvelmy-fill" data-item-order="-103672" data-item-id="2.cu_sy_1luw5151mvelmy" data-item-class="ScenePart Part Indexed Fill Stroke ColorStrokeBlack" data-item-index="2" data-renderer-id="0" transform="translate(350, 110)"><g id="2.cu_sy_1luw5151mvelmy-fill" stroke="none" fill="#b179ca"><g><path d="M 202 106C 202 159.019 159.019 202 106 202C 52.9807 202 10 159.019 10 106C 10 52.9807 52.9807 10 106 10C 159.019 10 202 52.9807 202 106ZM 106 154C 132.51 154 154 132.51 154 106C 154 79.4903 132.51 58 106 58C 79.4903 58 58 79.4903 58 106C 58 132.51 79.4903 154 106 154Z"></path></g></g></g><g id="g-root-2.line_sy_1hfp3zt1mvej9f-fill" data-item-order="-103669" data-item-id="2.line_sy_1hfp3zt1mvej9f" data-item-class="ScenePart Part Indexed Stroke LeaderLine ColorStrokeBlack" data-item-index="2" data-renderer-id="0" transform="translate(230, 206.00970458984375)"></g><g id="g-root-1.cu_sy_58lfd1mvek94-fill" data-item-order="-103668" data-item-id="1.cu_sy_58lfd1mvek94" data-item-class="ScenePart Part Indexed Indexed_1 Fill Stroke ColorStrokeBlack" data-item-index="1" data-renderer-id="0" transform="translate(398, 158)"><g id="1.cu_sy_58lfd1mvek94-fill" stroke="none" fill="#83539a"><g><path d="M 106 58C 106 84.5097 84.5097 106 58 106C 31.4903 106 10 84.5097 10 58C 10 31.4903 31.4903 10 58 10C 84.5097 10 106 31.4903 106 58Z"></path></g></g></g><g id="g-root-1.line_sy_1uqj5a11mveku9-fill" data-item-order="-103665" data-item-id="1.line_sy_1uqj5a11mveku9" data-item-class="ScenePart Part Indexed Indexed_1 Stroke LeaderLine ColorStrokeBlack" data-item-index="1" data-renderer-id="0" transform="translate(230, 223.501953125)"></g><g id="g-root-tx__1448lmh1mvekue-fill" data-item-order="0" data-item-id="tx__1448lmh1mvekue" data-item-class="Label Stroke SceneTarget SceneTitle Title ColorStrokeBlack" data-item-index="none" data-renderer-id="0" transform="translate(146, 2)"><g id="tx__1448lmh1mvekue-fill" stroke="none" fill="#666666"><g><text style="font: 20px Roboto, sans-serif; white-space: pre;"><tspan x="13.85" y="33.5" dominant-baseline="ideographic">전자기 이론의 발전</tspan></text></g></g></g><g id="g-root-tx__924juh1mvelmp-fill" data-item-order="0" data-item-id="tx__924juh1mvelmp" data-item-class="Label Stroke SceneTarget Indexed ColorStrokeBlack" data-item-index="3" data-renderer-id="0" transform="translate(2, 110)"><g id="tx__924juh1mvelmp-fill" stroke="none" fill="#666666"><g><text style="font: 20px Roboto, sans-serif; white-space: pre;"><tspan x="20.65" y="33.5" dominant-baseline="ideographic">외르스테드의 발견</tspan></text></g></g></g><g id="g-root-magn_18gbce11muwaoc-fill" data-item-order="0" data-item-id="magn_18gbce11muwaoc" data-item-class="Icon Stroke SceneTarget Indexed ColorStrokeBlack" data-item-index="3" data-renderer-id="0" transform="translate(170, 98)"></g><g id="g-root-tx__dhy1yx1mvekug-fill" data-item-order="0" data-item-id="tx__dhy1yx1mvekug" data-item-class="Label Stroke SceneTarget Indexed ColorStrokeBlack" data-item-index="2" data-renderer-id="0" transform="translate(26, 194)"><g id="tx__dhy1yx1mvekug-fill" stroke="none" fill="#666666"><g><text style="font: 20px Roboto, sans-serif; white-space: pre;"><tspan x="13.95" y="33.5" dominant-baseline="ideographic">패러데이의 유도</tspan></text></g></g></g><g id="g-root-magn_4g2e0p1muuvb7-fill" data-item-order="0" data-item-id="magn_4g2e0p1muuvb7" data-item-class="Icon Stroke SceneTarget Indexed ColorStrokeBlack" data-item-index="2" data-renderer-id="0" transform="translate(170, 182)"></g><g id="g-root-tx__hxrk3d1mvek27-fill" data-item-order="0" data-item-id="tx__hxrk3d1mvek27" data-item-class="Label Stroke SceneTarget Indexed Indexed_1 ColorStrokeBlack" data-item-index="1" data-renderer-id="0" transform="translate(38, 278)"><g id="tx__hxrk3d1mvek27-fill" stroke="none" fill="#666666"><g><text style="font: 20px Roboto, sans-serif; white-space: pre;"><tspan x="19.24" y="33.5" dominant-baseline="ideographic">맥스웰 방정식</tspan></text></g></g></g><g id="g-root-dire_de7am11muwbgl-fill" data-item-order="0" data-item-id="dire_de7am11muwbgl" data-item-class="Icon Stroke SceneTarget Indexed Indexed_1 ColorStrokeBlack" data-item-index="1" data-renderer-id="0" transform="translate(170, 266)"></g><g id="g-root-3.cu_sy_18k23qx1mvek24-stroke" data-item-order="-103676" data-item-id="3.cu_sy_18k23qx1mvek24" data-item-class="ScenePart Part Indexed Fill Stroke ColorStrokeBlack" data-item-index="3" data-renderer-id="0" transform="translate(302, 62)"><g id="3.cu_sy_18k23qx1mvek24-stroke" fill="none" stroke-linecap="round" stroke-linejoin="round" stroke-miterlimit="4" stroke="#ffffff" stroke-width="2"><g><path d="M 298 154C 298 233.529 233.529 298 154 298C 74.471 298 10 233.529 10 154C 10 74.471 74.471 10 154 10C 233.529 10 298 74.471 298 154ZM 154 250C 207.0193 250 250 207.0193 250 154C 250 100.9807 207.0193 58 154 58C 100.9807 58 58 100.9807 58 154C 58 207.0193 100.9807 250 154 250Z"></path></g></g></g><g id="g-root-3.line_sy_18k23qx1mvek25-stroke" data-item-order="-103673" data-item-id="3.line_sy_18k23qx1mvek25" data-item-class="ScenePart Part Indexed Stroke LeaderLine ColorStrokeBlack" data-item-index="3" data-renderer-id="0" transform="translate(230, 122.0001220703125)"><g id="3.line_sy_18k23qx1mvek25-stroke" fill="none" stroke-linecap="round" stroke-linejoin="round" stroke-miterlimit="4" stroke="#666666" stroke-width="2"><g><path d="M 10 9.999878L 89.64 40.969878"></path><path d="M 81.7 44.899878L 90.1 41.199878L 86.4 32.699878" stroke-dasharray="none"></path></g></g></g><g id="g-root-2.cu_sy_1luw5151mvelmy-stroke" data-item-order="-103672" data-item-id="2.cu_sy_1luw5151mvelmy" data-item-class="ScenePart Part Indexed Fill Stroke ColorStrokeBlack" data-item-index="2" data-renderer-id="0" transform="translate(350, 110)"><g id="2.cu_sy_1luw5151mvelmy-stroke" fill="none" stroke-linecap="round" stroke-linejoin="round" stroke-miterlimit="4" stroke="#ffffff" stroke-width="2"><g><path d="M 202 106C 202 159.0193 159.0193 202 106 202C 52.9807 202 10 159.0193 10 106C 10 52.9807 52.9807 10 106 10C 159.0193 10 202 52.9807 202 106ZM 106 154C 132.5097 154 154 132.5097 154 106C 154 79.4903 132.5097 58 106 58C 79.4903 58 58 79.4903 58 106C 58 132.5097 79.4903 154 106 154Z"></path></g></g></g><g id="g-root-2.line_sy_1hfp3zt1mvej9f-stroke" data-item-order="-103669" data-item-id="2.line_sy_1hfp3zt1mvej9f" data-item-class="ScenePart Part Indexed Stroke LeaderLine ColorStrokeBlack" data-item-index="2" data-renderer-id="0" transform="translate(230, 206.00970458984375)"><g id="2.line_sy_1hfp3zt1mvej9f-stroke" fill="none" stroke-linecap="round" stroke-linejoin="round" stroke-miterlimit="4" stroke="#666666" stroke-width="2"><g><path d="M 10 10.000295L 128 10.000295"></path><path d="M 122 16.490295L 128.5 9.990295L 122 3.490295" stroke-dasharray="none"></path></g></g></g><g id="g-root-1.cu_sy_58lfd1mvek94-stroke" data-item-order="-103668" data-item-id="1.cu_sy_58lfd1mvek94" data-item-class="ScenePart Part Indexed Indexed_1 Fill Stroke ColorStrokeBlack" data-item-index="1" data-renderer-id="0" transform="translate(398, 158)"><g id="1.cu_sy_58lfd1mvek94-stroke" fill="none" stroke-linecap="round" stroke-linejoin="round" stroke-miterlimit="4" stroke="#ffffff" stroke-width="2"><g><path d="M 106 58C 106 84.5097 84.5097 106 58 106C 31.4903 106 10 84.5097 10 58C 10 31.4903 31.4903 10 58 10C 84.5097 10 106 31.4903 106 58Z"></path></g></g></g><g id="g-root-1.line_sy_1uqj5a11mveku9-stroke" data-item-order="-103665" data-item-id="1.line_sy_1uqj5a11mveku9" data-item-class="ScenePart Part Indexed Indexed_1 Stroke LeaderLine ColorStrokeBlack" data-item-index="1" data-renderer-id="0" transform="translate(230, 223.501953125)"><g id="1.line_sy_1uqj5a11mveku9-stroke" fill="none" stroke-linecap="round" stroke-linejoin="round" stroke-miterlimit="4" stroke="#666666" stroke-width="2"><g><path d="M 10 76.498047L 179.14 10.728047"></path><path d="M 175.9 18.998047L 179.6 10.498047L 171.2 6.798047" stroke-dasharray="none"></path></g></g></g><g id="g-root-tx__1448lmh1mvekue-stroke" data-item-order="0" data-item-id="tx__1448lmh1mvekue" data-item-class="Label Stroke SceneTarget SceneTitle Title ColorStrokeBlack" data-item-index="none" data-renderer-id="0" transform="translate(146, 2)"></g><g id="g-root-tx__924juh1mvelmp-stroke" data-item-order="0" data-item-id="tx__924juh1mvelmp" data-item-class="Label Stroke SceneTarget Indexed ColorStrokeBlack" data-item-index="3" data-renderer-id="0" transform="translate(2, 110)"></g><g id="g-root-magn_18gbce11muwaoc-stroke" data-item-order="0" data-item-id="magn_18gbce11muwaoc" data-item-class="Icon Stroke SceneTarget Indexed ColorStrokeBlack" data-item-index="3" data-renderer-id="0" transform="translate(170, 98)"><g id="magn_18gbce11muwaoc-stroke" fill="none" stroke-linecap="round" stroke-linejoin="round" stroke-miterlimit="4" stroke="#666666" stroke-width="2"><g><path d="M 40.205715 51.382858C 33.691479 57.89415 23.132572 57.892956 16.619808 51.380192C 10.107045 44.867432 10.105852 34.308521 16.617144 27.794287L 32.697144 11.714286L 40.205715 19.222857L 25.462858 34C 23.499882 36.413486 23.679913 39.920502 25.879707 42.120293C 28.0795 44.320087 31.586514 44.500118 34 42.537144L 48.742859 27.794287L 56.285713 35.302856ZM 41.508572 35.062859L 49.017143 42.57143M 25.428572 18.982857L 32.937141 26.491428"></path></g></g></g><g id="g-root-tx__dhy1yx1mvekug-stroke" data-item-order="0" data-item-id="tx__dhy1yx1mvekug" data-item-class="Label Stroke SceneTarget Indexed ColorStrokeBlack" data-item-index="2" data-renderer-id="0" transform="translate(26, 194)"></g><g id="g-root-magn_4g2e0p1muuvb7-stroke" data-item-order="0" data-item-id="magn_4g2e0p1muuvb7" data-item-class="Icon Stroke SceneTarget Indexed ColorStrokeBlack" data-item-index="2" data-renderer-id="0" transform="translate(170, 182)"><g id="magn_4g2e0p1muuvb7-stroke" fill="none" stroke-linecap="round" stroke-linejoin="round" stroke-miterlimit="4" stroke="#666666" stroke-width="2"><g><path d="M 31 23L 31 11L 37 23L 37 11M 37 45L 33.599998 45C 32.164059 45 31 46.164059 31 47.599998C 30.998497 48.474747 31.433655 49.292542 32.159996 49.779999L 35.84 52.220001C 36.566345 52.707455 37.001503 53.525249 37 54.399998C 37 55.835941 35.835938 57 34.400002 57L 31 57M 12.5 34C 12.5 34.276142 12.723858 34.5 13 34.5C 13.276142 34.5 13.5 34.276142 13.5 34C 13.5 33.723858 13.276142 33.5 13 33.5C 12.723858 33.5 12.5 33.723858 12.5 34M 15.82 45C 15.543858 45 15.32 44.776142 15.32 44.5C 15.32 44.223858 15.543858 44 15.82 44C 16.096142 44 16.32 44.223858 16.32 44.5C 16.32 44.776142 16.096142 45 15.82 45ZM 23.5 52.68C 23.223858 52.68 23 52.456142 23 52.18C 23 51.903858 23.223858 51.68 23.5 51.68C 23.776142 51.68 24 51.903858 24 52.18C 24 52.456142 23.776142 52.68 23.5 52.68ZM 45 52.18C 45 52.456142 44.776142 52.68 44.5 52.68C 44.223858 52.68 44 52.456142 44 52.18C 44 51.903858 44.223858 51.68 44.5 51.68C 44.776142 51.68 45 51.903858 45 52.18ZM 52.68 44.5C 52.68 44.776142 52.456142 45 52.18 45C 51.903858 45 51.68 44.776142 51.68 44.5C 51.68 44.223858 51.903858 44 52.18 44C 52.456142 44 52.68 44.223858 52.68 44.5ZM 54.5 34C 54.5 34.276142 54.723858 34.5 55 34.5C 55.276142 34.5 55.5 34.276142 55.5 34C 55.5 33.723858 55.276142 33.5 55 33.5C 54.723858 33.5 54.5 33.723858 54.5 34M 52.18 23C 52.456142 23 52.68 23.223858 52.68 23.5C 52.68 23.776142 52.456142 24 52.18 24C 51.903858 24 51.68 23.776142 51.68 23.5C 51.68 23.223858 51.903858 23 52.18 23ZM 44.5 15.32C 44.776142 15.32 45 15.543858 45 15.82C 45 16.096142 44.776142 16.32 44.5 16.32C 44.223858 16.32 44 16.096142 44 15.82C 44 15.543858 44.223858 15.32 44.5 15.32ZM 23 15.82C 23 15.543858 23.223858 15.32 23.5 15.32C 23.776142 15.32 24 15.543858 24 15.82C 24 16.096142 23.776142 16.32 23.5 16.32C 23.223858 16.32 23 16.096142 23 15.82ZM 15.32 23.5C 15.32 23.223858 15.543858 23 15.82 23C 16.096142 23 16.32 23.223858 16.32 23.5C 16.32 23.776142 16.096142 24 15.82 24C 15.543858 24 15.32 23.776142 15.32 23.5Z"></path></g></g></g><g id="g-root-tx__hxrk3d1mvek27-stroke" data-item-order="0" data-item-id="tx__hxrk3d1mvek27" data-item-class="Label Stroke SceneTarget Indexed Indexed_1 ColorStrokeBlack" data-item-index="1" data-renderer-id="0" transform="translate(38, 278)"></g><g id="g-root-dire_de7am11muwbgl-stroke" data-item-order="0" data-item-id="dire_de7am11muwbgl" data-item-class="Icon Stroke SceneTarget Indexed Indexed_1 ColorStrokeBlack" data-item-index="1" data-renderer-id="0" transform="translate(170, 266)"><g id="dire_de7am11muwbgl-stroke" fill="none" stroke-linecap="round" stroke-linejoin="round" stroke-miterlimit="4" stroke="#666666" stroke-width="2"><g><path d="M 10 10M 51 24L 57 18L 51 12M 17 44L 11 50L 17 56M 57.040001 18L 52.959999 18M 49.040001 18L 44.959999 18M 41.040001 18L 36.959999 18M 33.038002 18C 31.679951 17.913733 30.316442 17.99975 28.98 18.256001M 25.568001 20.125999C 24.567917 21.055695 23.821693 22.225281 23.400002 23.524M 23.124001 27.4C 23.363661 28.74572 23.944889 30.007345 24.812 31.063999M 27.938 33.400002C 29.210106 33.895035 30.576635 34.100014 31.938 34M 35.863998 34C 37.224449 33.895973 38.591625 34.077175 39.878002 34.532001M 43.057999 36.774002C 43.95245 37.810295 44.566017 39.058777 44.84 40.400002M 44.669998 44.284C 44.278385 45.593628 43.55822 46.781288 42.577999 47.734001M 39.214001 49.689999C 37.885941 49.992123 36.520561 50.096581 35.162003 50.000004M 31.242001 50L 27.162001 50M 23.242001 50L 19.161999 50M 15.242001 50L 11.162 50"></path></g></g></g></g></g></svg>