<?xml version="1.0" encoding="utf-8" standalone="yes"?>
<!DOCTYPE svg PUBLIC "-//W3C//DTD SVG 1.1//EN" "http://www.w3.org/Graphics/SVG/1.1/DTD/svg11.dtd">
<svg width="578" height="278" viewBox="0 0 578 278" style="fill:none;stroke:none;fill-rule:evenodd;clip-rule:evenodd;stroke-linecap:round;stroke-linejoin:round;stroke-miterlimit:1.5;" version="1.1" xmlns="http://www.w3.org/2000/svg" xmlns:xlink="http://www.w3.org/1999/xlink"><style id="fontImports">@import url("https://fonts.googleapis.com/css2?family=Roboto:wght@400;700&amp;display=block");</style><rect id="" x="0" y="0" width="578" height="278" style="fill: #ffffff;"></rect><g id="items" style="isolation: isolate"><g id="blend" style="mix-blend-mode:multiply"><g id="g-root-ro_8z03bw1lrer5v-fill" data-item-order="-25200" data-item-id="ro_8z03bw1lrer5v" data-item-class="Shape Stroke Fill" data-item-index="none" data-renderer-id="0" transform="translate(195, 15)"><g id="ro_8z03bw1lrer5v-fill" stroke="none" fill="#f0f0f0"><g><path d="M 34 10L 154 10C 154 10 178 10 178 34L 178 136C 178 136 178 160 154 160L 34 160C 34 160 10 160 10 136L 10 34C 10 34 10 10 34 10"></path></g></g></g><g id="g-root-ro_m97qos1lqxyq0-fill" data-item-order="-7776" data-item-id="ro_m97qos1lqxyq0" data-item-class="Shape Stroke Fill" data-item-index="none" data-renderer-id="0" transform="translate(3, 3)"><g id="ro_m97qos1lqxyq0-fill" stroke="none" fill="#e6efff"><g><path d="M 22 10L 142 10C 142 10 154 10 154 22L 154 52C 154 52 154 64 142 64L 22 64C 22 64 10 64 10 52L 10 22C 10 22 10 10 22 10"></path></g></g></g><g id="g-root-ro_93dexo1lretqn-fill" data-item-order="-7776" data-item-id="ro_93dexo1lretqn" data-item-class="Shape Stroke Fill" data-item-index="none" data-renderer-id="0" transform="translate(411, 3)"><g id="ro_93dexo1lretqn-fill" stroke="none" fill="#e9fbf3"><g><path d="M 22 10L 142 10C 142 10 154 10 154 22L 154 52C 154 52 154 64 142 64L 22 64C 22 64 10 64 10 52L 10 22C 10 22 10 10 22 10"></path></g></g></g><g id="g-root-ro_hv9nto1lqwirv-fill" data-item-order="-6480" data-item-id="ro_hv9nto1lqwirv" data-item-class="Shape Stroke Fill" data-item-index="none" data-renderer-id="0" transform="translate(219, 201)"><g id="ro_hv9nto1lqwirv-fill" stroke="none" fill="#f7e6fe"><g><path d="M 22 10L 118 10C 118 10 130 10 130 22L 130 52C 130 52 130 64 118 64L 22 64C 22 64 10 64 10 52L 10 22C 10 22 10 10 22 10"></path></g></g></g><g id="g-root-tx__qp18t81lqxxxq-fill" data-item-order="0" data-item-id="tx__qp18t81lqxxxq" data-item-class="Label Stroke" data-item-index="none" data-renderer-id="0" transform="translate(15, 18)"><g id="tx__qp18t81lqxxxq-fill" stroke="none" fill="#4682e3"><g><text style="font: 20px Roboto, sans-serif; white-space: pre;"><tspan x="17.4" y="33.5" dominant-baseline="ideographic">유클리드</tspan></text></g></g></g><g id="g-root-phil_m97qos1lqxypz-fill" data-item-order="0" data-item-id="phil_m97qos1lqxypz" data-item-class="Icon Stroke" data-item-index="none" data-renderer-id="0" transform="translate(105, 15)"></g><g id="g-root-myth_hz0f6k1lresxy-fill" data-item-order="0" data-item-id="myth_hz0f6k1lresxy" data-item-class="Icon Stroke" data-item-index="none" data-renderer-id="0" transform="translate(423, 15)"></g><g id="g-root-cu_hu0png1lqxwch-fill" data-item-order="0" data-item-id="cu_hu0png1lqxwch" data-item-class="Curve Stroke ColorFillGray ColorStrokeGray" data-item-index="none" data-renderer-id="0" transform="translate(147, 30)"></g><g id="g-root-tx__hz0f6k1lresxx-fill" data-item-order="0" data-item-id="tx__hz0f6k1lresxx" data-item-class="Label Stroke" data-item-index="none" data-renderer-id="0" transform="translate(459, 18)"><g id="tx__hz0f6k1lresxx-fill" stroke="none" fill="#3bc482"><g><text style="font: 20px Roboto, sans-serif; white-space: pre;"><tspan x="17.4" y="33.5" dominant-baseline="ideographic">데카르트</tspan></text></g></g></g><g id="g-root-math_de74d81lretje-fill" data-item-order="0" data-item-id="math_de74d81lretje" data-item-class="Icon Stroke" data-item-index="none" data-renderer-id="0" transform="translate(255, 39)"></g><g id="g-root-cu_hu0png1lqxwck-fill" data-item-order="0" data-item-id="cu_hu0png1lqxwck" data-item-class="Curve Stroke ColorFillGray ColorStrokeGray" data-item-index="none" data-renderer-id="0" transform="translate(363, 30)"></g><g id="g-root-tx__de74d81lretjd-fill" data-item-order="0" data-item-id="tx__de74d81lretjd" data-item-class="Label Stroke" data-item-index="none" data-renderer-id="0" transform="translate(219, 93)"><g id="tx__de74d81lretjd-fill" stroke="none" fill="#484848"><g><text style="font: 20px Roboto, sans-serif; white-space: pre;"><tspan x="13.81" y="33.5" dominant-baseline="ideographic">수학사의 주요 </tspan><tspan x="42.24" y="57.5" dominant-baseline="ideographic">전환점</tspan></text></g></g></g><g id="g-root-cu_hu0png1lqxwcn-fill" data-item-order="0" data-item-id="cu_hu0png1lqxwcn" data-item-class="Curve Stroke ColorFillGray ColorStrokeGray" data-item-index="none" data-renderer-id="0" transform="translate(279, 165)"></g><g id="g-root-1_qqwo2k1lqwhz6-fill" data-item-order="0" data-item-id="1_qqwo2k1lqwhz6" data-item-class="Icon Stroke" data-item-index="none" data-renderer-id="0" transform="translate(231, 213)"></g><g id="g-root-tx__v63p3w1lqwkcp-fill" data-item-order="0" data-item-id="tx__v63p3w1lqwkcp" data-item-class="Label Stroke" data-item-index="none" data-renderer-id="0" transform="translate(267, 216)"><g id="tx__v63p3w1lqwkcp-fill" stroke="none" fill="#b65edf"><g><text style="font: 20px Roboto, sans-serif; white-space: pre;"><tspan x="14.05" y="33.5" dominant-baseline="ideographic">칸토어</tspan></text></g></g></g><g id="g-root-ro_8z03bw1lrer5v-stroke" data-item-order="-25200" data-item-id="ro_8z03bw1lrer5v" data-item-class="Shape Stroke Fill" data-item-index="none" data-renderer-id="0" transform="translate(195, 15)"><g id="ro_8z03bw1lrer5v-stroke" fill="none" stroke-linecap="round" stroke-linejoin="round" stroke-miterlimit="4" stroke="#484848" stroke-width="2"><g><path d="M 34 10L 154 10C 154 10 178 10 178 34L 178 136C 178 136 178 160 154 160L 34 160C 34 160 10 160 10 136L 10 34C 10 34 10 10 34 10"></path></g></g></g><g id="g-root-ro_m97qos1lqxyq0-stroke" data-item-order="-7776" data-item-id="ro_m97qos1lqxyq0" data-item-class="Shape Stroke Fill" data-item-index="none" data-renderer-id="0" transform="translate(3, 3)"><g id="ro_m97qos1lqxyq0-stroke" fill="none" stroke-linecap="round" stroke-linejoin="round" stroke-miterlimit="4" stroke="#4682e3" stroke-width="2"><g><path d="M 22 10L 142 10C 142 10 154 10 154 22L 154 52C 154 52 154 64 142 64L 22 64C 22 64 10 64 10 52L 10 22C 10 22 10 10 22 10"></path></g></g></g><g id="g-root-ro_93dexo1lretqn-stroke" data-item-order="-7776" data-item-id="ro_93dexo1lretqn" data-item-class="Shape Stroke Fill" data-item-index="none" data-renderer-id="0" transform="translate(411, 3)"><g id="ro_93dexo1lretqn-stroke" fill="none" stroke-linecap="round" stroke-linejoin="round" stroke-miterlimit="4" stroke="#3bc482" stroke-width="2"><g><path d="M 22 10L 142 10C 142 10 154 10 154 22L 154 52C 154 52 154 64 142 64L 22 64C 22 64 10 64 10 52L 10 22C 10 22 10 10 22 10"></path></g></g></g><g id="g-root-ro_hv9nto1lqwirv-stroke" data-item-order="-6480" data-item-id="ro_hv9nto1lqwirv" data-item-class="Shape Stroke Fill" data-item-index="none" data-renderer-id="0" transform="translate(219, 201)"><g id="ro_hv9nto1lqwirv-stroke" fill="none" stroke-linecap="round" stroke-linejoin="round" stroke-miterlimit="4" stroke="#b65edf" stroke-width="2"><g><path d="M 22 10L 118 10C 118 10 130 10 130 22L 130 52C 130 52 130 64 118 64L 22 64C 22 64 10 64 10 52L 10 22C 10 22 10 10 22 10"></path></g></g></g><g id="g-root-tx__qp18t81lqxxxq-stroke" data-item-order="0" data-item-id="tx__qp18t81lqxxxq" data-item-class="Label Stroke" data-item-index="none" data-renderer-id="0" transform="translate(15, 18)"></g><g id="g-root-phil_m97qos1lqxypz-stroke" data-item-order="0" data-item-id="phil_m97qos1lqxypz" data-item-class="Icon Stroke" data-item-index="none" data-renderer-id="0" transform="translate(105, 15)"><g id="phil_m97qos1lqxypz-stroke" fill="none" stroke-linecap="round" stroke-linejoin="round" stroke-miterlimit="4" stroke="#4682e3" stroke-width="2"><g><path d="M 39.375 39.375L 39.375 38.125C 39.376568 36.037209 38.080738 34.168228 36.125 33.4375L 29.475 31.25M 20.525 31.25L 13.875 33.4375C 11.919262 34.168228 10.623434 36.037209 10.625 38.125L 10.625 39.375M 17.5 19.375C 22.294613 17.348244 27.705387 17.348244 32.5 19.375M 23.75 21.25C 23.480045 20.827568 22.999918 20.587503 22.5 20.625C 22.000082 20.587503 21.519955 20.827568 21.25 21.25M 28.75 21.25C 28.480045 20.827568 27.999918 20.587503 27.5 20.625C 27.000082 20.587503 26.519955 20.827568 26.25 21.25M 17.5 17.8125C 15.938354 18.296471 14.625392 19.367453 13.837501 20.800001L 11.575 23.8375C 10.719499 25.43228 10.441303 27.27367 10.7875 29.050001C 12.344199 28.694073 13.694225 27.731054 14.537499 26.375L 16.549999 23.125M 23.125 28.125C 23.593624 28.538502 24.200132 28.76148 24.824999 28.75L 25.175001 28.75C 25.799868 28.76148 26.406376 28.538502 26.875 28.125M 32.087502 32.087502L 20.625 39.375M 36.887501 33.800003L 28.125 39.375M 23.125 13.75L 24.65 14.775C 24.863407 14.911369 25.136591 14.911369 25.349998 14.775L 26.875 13.75M 31.25 25.112499C 30.574001 25.770416 29.690125 26.172581 28.750002 26.250002C 27.5 26.25 27.5 24.375 25 24.375C 22.5 24.375 22.5 26.25 21.25 26.25C 20.309071 26.175686 19.424187 25.773064 18.75 25.112499M 17.5 20.625L 17.5 13.675C 17.477148 12.578549 18.171562 11.595219 19.2125 11.25C 20.565712 10.818136 21.97966 10.607099 23.4 10.625L 26.6 10.625C 28.02034 10.607099 29.43429 10.818136 30.787502 11.25C 31.828438 11.595219 32.52285 12.578549 32.5 13.675L 32.5 20.625M 18.8375 22.8125C 18.8375 26.674999 17.674999 32.5 25 32.5C 32.325001 32.5 31.1625 26.674999 31.1625 22.8125"></path></g></g></g><g id="g-root-myth_hz0f6k1lresxy-stroke" data-item-order="0" data-item-id="myth_hz0f6k1lresxy" data-item-class="Icon Stroke" data-item-index="none" data-renderer-id="0" transform="translate(423, 15)"><g id="myth_hz0f6k1lresxy-stroke" fill="none" stroke-linecap="round" stroke-linejoin="round" stroke-miterlimit="4" stroke="#3bc482" stroke-width="2"><g><path d="M 27.623751 18.252501L 16.466249 18.252501M 28.36125 18.817499L 28.36125 24.217499M 15.71875 39.231251L 15.71875 18.81875M 19.932501 21.63875L 19.932501 39.231251M 24.14625 21.63875L 24.14625 23.93M 13.6925 14.305C 14.069712 13.983984 14.55694 13.822172 15.05125 13.85375C 16.365765 13.936105 17.364981 15.067915 17.283751 16.3825L 17.283751 16.391251C 17.176775 18.033623 15.758617 19.278286 14.11625 19.171251L 14.11625 19.171249C 12.062463 19.041418 10.50276 17.271294 10.6325 15.2175L 10.6325 15.20875C 10.6325 12.68688 12.67688 10.6425 15.19875 10.6425L 28.881248 10.6425C 31.40292 10.6425 33.446941 12.687082 33.446251 15.208751L 33.446251 15.20875C 33.578934 17.261225 32.022491 19.032581 29.969999 19.165001L 29.969999 19.164999C 29.181366 19.216024 28.4048 18.951435 27.811377 18.429523C 27.217953 17.90761 26.856358 17.171192 26.80625 16.3825L 26.80625 16.3825C 26.723551 15.067884 27.721695 13.934901 29.036251 13.85125L 29.036251 13.85125C 29.541546 13.818892 30.038958 13.988893 30.418749 14.32375M 31.450001 28.85125C 29.116423 27.625893 26.536659 26.942284 23.9025 26.85125C 23.806984 26.846693 23.71312 26.877388 23.63875 26.9375C 23.56946 26.991329 23.528131 27.073528 23.526249 27.161249L 23.526251 37.392498C 23.539526 37.571995 23.69132 37.709492 23.87125 37.704998C 26.280609 37.394329 28.722055 37.948441 30.76125 39.268753C 30.982052 39.348076 31.217972 39.376282 31.451252 39.35125M 31.450001 28.85125C 33.784096 27.626072 36.36422 26.942482 38.998749 26.85125C 39.094234 26.846926 39.188019 26.877596 39.262501 26.9375C 39.332611 26.991756 39.37405 27.075102 39.374996 27.16375L 39.375 37.392498C 39.361725 37.571995 39.20993 37.709492 39.030003 37.704998C 36.62064 37.394329 34.179195 37.948441 32.139999 39.268753C 31.919178 39.347992 31.683281 39.376198 31.450001 39.35125M 31.450001 28.85125L 31.450001 39.355M 15.71875 21.63875L 28.36125 21.63875M 26.033749 30.473749C 27.068924 30.485727 28.084854 30.755066 28.99 31.2575M 26.033749 33.71125C 27.068867 33.723644 28.084696 33.992958 28.99 34.495003M 36.889999 30.473749C 35.855247 30.485882 34.839756 30.755219 33.935001 31.2575M 36.889999 33.71125C 35.855309 33.723854 34.839931 33.993156 33.935001 34.495003"></path></g></g></g><g id="g-root-cu_hu0png1lqxwch-stroke" data-item-order="0" data-item-id="cu_hu0png1lqxwch" data-item-class="Curve Stroke ColorFillGray ColorStrokeGray" data-item-index="none" data-renderer-id="0" transform="translate(147, 30)"><g id="cu_hu0png1lqxwch-stroke" fill="none" stroke-linecap="round" stroke-linejoin="round" stroke-miterlimit="4" stroke="#888888" stroke-width="2" stroke-dasharray="5.0, 7.0"><g><path d="M 58 45L 55 45L 54.9 45C 50.422131 44.972593 45.63978 43.214375 41.299999 40C 38.67988 38.118536 36.018569 33.561496 33.999999 27.499999C 31.98143 21.438501 29.320119 16.881461 26.699999 15C 22.360218 11.785625 17.577867 10.027408 13.1 10L 13 10L 10 10"></path></g></g></g><g id="g-root-tx__hz0f6k1lresxx-stroke" data-item-order="0" data-item-id="tx__hz0f6k1lresxx" data-item-class="Label Stroke" data-item-index="none" data-renderer-id="0" transform="translate(459, 18)"></g><g id="g-root-math_de74d81lretje-stroke" data-item-order="0" data-item-id="math_de74d81lretje" data-item-class="Icon Stroke" data-item-index="none" data-renderer-id="0" transform="translate(255, 39)"><g id="math_de74d81lretje-stroke" fill="none" stroke-linecap="round" stroke-linejoin="round" stroke-miterlimit="4" stroke="#484848" stroke-width="2"><g><path d="M 33.664001 24.098L 36.634003 27.068001L 41.585999 18.158001L 48.021999 18.158001M 41.155998 32.02L 53.040001 32.02M 47.098 26.077999C 47.508121 26.079103 47.840004 26.41188 47.84 26.822001M 46.355999 26.822001C 46.355999 26.41188 46.687881 26.079103 47.098003 26.078001M 47.098 27.563999C 46.688206 27.564001 46.355999 27.231796 46.355999 26.822001M 47.84 26.822001C 47.84 27.231796 47.507797 27.564001 47.098 27.564001M 47.098 37.959999C 47.507797 37.959999 47.84 37.627796 47.84 37.218002M 46.355999 37.218002C 46.355999 37.627796 46.688206 37.959999 47.098 37.959999M 47.098 36.475998C 46.688206 36.475998 46.355999 36.808205 46.355999 37.218002M 47.84 37.218002C 47.84 36.808205 47.507797 36.475998 47.098 36.475998M 37.200001 44.891998L 54.034 44.891998C 55.672726 44.889793 57.000004 43.560726 57.000004 41.922001L 57 14.2C 57.001064 13.411614 56.688622 12.655155 56.131523 12.097307C 55.574429 11.539458 54.81839 11.226 54.030003 11.226L 31.256001 11.226M 14.96 18.158001C 14.960001 21.986439 18.063562 25.09 21.892 25.09C 25.720438 25.09 28.824001 21.986439 28.824001 18.158001C 28.824001 14.329562 25.720438 11.226 21.892 11.226C 18.063562 11.226 14.960001 14.329562 14.960001 18.158001M 15.054 19.299999C 17.68338 19.271183 20.17375 18.114498 21.892 16.124001C 23.610159 18.113235 26.099638 19.269115 28.728001 19.298M 26.284 29.474001L 21.892 36.388L 17.540001 29.445999M 21.892 28.058001C 25.375168 28.058504 28.402632 30.449697 29.210001 33.838001L 32.784 46.872002L 26.927999 46.872002L 24.841999 56.773998L 18.9 56.773998L 16.812 46.872002L 11 46.872002L 14.573999 33.837997C 15.382021 30.450111 18.409088 28.059233 21.891998 28.057999Z"></path></g></g></g><g id="g-root-cu_hu0png1lqxwck-stroke" data-item-order="0" data-item-id="cu_hu0png1lqxwck" data-item-class="Curve Stroke ColorFillGray ColorStrokeGray" data-item-index="none" data-renderer-id="0" transform="translate(363, 30)"><g id="cu_hu0png1lqxwck-stroke" fill="none" stroke-linecap="round" stroke-linejoin="round" stroke-miterlimit="4" stroke="#888888" stroke-width="2" stroke-dasharray="5.0, 7.0"><g><path d="M 10 45L 13 45L 13.1 45C 17.577866 44.972592 22.360217 43.214375 26.699999 40C 29.320119 38.118536 31.98143 33.561497 33.999999 27.499999C 36.018569 21.438502 38.67988 16.881462 41.299999 15C 45.63978 11.785625 50.422131 10.027407 54.899998 9.999999L 55 10L 58 10"></path></g></g></g><g id="g-root-tx__de74d81lretjd-stroke" data-item-order="0" data-item-id="tx__de74d81lretjd" data-item-class="Label Stroke" data-item-index="none" data-renderer-id="0" transform="translate(219, 93)"></g><g id="g-root-cu_hu0png1lqxwcn-stroke" data-item-order="0" data-item-id="cu_hu0png1lqxwcn" data-item-class="Curve Stroke ColorFillGray ColorStrokeGray" data-item-index="none" data-renderer-id="0" transform="translate(279, 165)"><g id="cu_hu0png1lqxwcn-stroke" fill="none" stroke-linecap="round" stroke-linejoin="round" stroke-miterlimit="4" stroke="#888888" stroke-width="2" stroke-dasharray="5.0, 7.0"><g><path d="M 10 10L 10 28L 10 46"></path></g></g></g><g id="g-root-1_qqwo2k1lqwhz6-stroke" data-item-order="0" data-item-id="1_qqwo2k1lqwhz6" data-item-class="Icon Stroke" data-item-index="none" data-renderer-id="0" transform="translate(231, 213)"><g id="1_qqwo2k1lqwhz6-stroke" fill="none" stroke-linecap="round" stroke-linejoin="round" stroke-miterlimit="4" stroke="#b65edf" stroke-width="2"><g><path d="M 18.483749 39.0625L 31.516249 10.9375M 12.995 21.227501L 37.005001 21.227501M 12.995 28.772499L 37.005001 28.772499"></path></g></g></g><g id="g-root-tx__v63p3w1lqwkcp-stroke" data-item-order="0" data-item-id="tx__v63p3w1lqwkcp" data-item-class="Label Stroke" data-item-index="none" data-renderer-id="0" transform="translate(267, 216)"></g></g></g></svg>