<?xml version="1.0" encoding="utf-8" standalone="yes"?>
<!DOCTYPE svg PUBLIC "-//W3C//DTD SVG 1.1//EN" "http://www.w3.org/Graphics/SVG/1.1/DTD/svg11.dtd">
<svg width="756" height="326" viewBox="0 0 756 326" style="fill:none;stroke:none;fill-rule:evenodd;clip-rule:evenodd;stroke-linecap:round;stroke-linejoin:round;stroke-miterlimit:1.5;" version="1.1" xmlns="http://www.w3.org/2000/svg" xmlns:xlink="http://www.w3.org/1999/xlink"><style id="fontImports">@import url("https://fonts.googleapis.com/css2?family=Shantell+Sans:wght@300..800&amp;display=block");</style><rect id="" x="0" y="0" width="756" height="326" style="fill: #ffffff;"></rect><g id="items" style="isolation: isolate"><g id="blend" style="mix-blend-mode:multiply"><g id="g-root--1.cu_sy_4ikwjt1noxwxv-fill" data-item-order="-90716" data-item-id="-1.cu_sy_4ikwjt1noxwxv" data-item-class="ScenePart Part Fill Stroke ColorStrokeBlack" data-item-index="-1" data-renderer-id="0" transform="translate(193, 51)"><g id="-1.cu_sy_4ikwjt1noxwxv-fill" stroke="none" fill="none"><g><path d="M 125 34L 101 10L 10 166L 34 190L 125 34ZM 125 34L 34 190L 216 190L 125 34Z"></path></g></g></g><g id="g-root-0.line-start_sy_4ikwjt1noxwxw-fill" data-item-order="-90713" data-item-id="0.line-start_sy_4ikwjt1noxwxw" data-item-class="ScenePart Part Indexed_0 Stroke ColorStrokeBlack" data-item-index="0" data-renderer-id="0" transform="translate(152, 153)"></g><g id="g-root-4.line_sy_2refd1noxxq8-fill" data-item-order="-90711" data-item-id="4.line_sy_2refd1noxxq8" data-item-class="ScenePart Part Indexed Stroke ColorStrokeBlack" data-item-index="4" data-renderer-id="0" transform="translate(262.5, 153)"></g><g id="g-root-3.line_sy_1uo1ya11noxxjj-fill" data-item-order="-90709" data-item-id="3.line_sy_1uo1ya11noxxjj" data-item-class="ScenePart Part Indexed Stroke ColorStrokeBlack" data-item-index="3" data-renderer-id="0" transform="translate(263, 153)"></g><g id="g-root-2.line_sy_1uo1ya11noxxji-fill" data-item-order="-90707" data-item-id="2.line_sy_1uo1ya11noxxji" data-item-class="ScenePart Part Indexed Stroke ColorStrokeBlack" data-item-index="2" data-renderer-id="0" transform="translate(262.5, 111)"></g><g id="g-root-1.line_sy_4ikwjt1noxwxx-fill" data-item-order="-90705" data-item-id="1.line_sy_4ikwjt1noxwxx" data-item-class="ScenePart Part Indexed Indexed_1 Stroke ColorStrokeBlack" data-item-index="1" data-renderer-id="0" transform="translate(262.5, 27)"></g><g id="g-root-ques_6i8y11noxvrf-fill" data-item-order="0" data-item-id="ques_6i8y11noxvrf" data-item-class="Icon Stroke SceneTarget Indexed Indexed_1 ColorStrokeBlack" data-item-index="1" data-renderer-id="0" transform="translate(530, 3)"></g><g id="g-root-tx__18hkwqx1noxxj9-fill" data-item-order="0" data-item-id="tx__18hkwqx1noxxj9" data-item-class="Label Stroke SceneTarget Indexed Indexed_1 ColorStrokeBlack" data-item-index="1" data-renderer-id="0" transform="translate(590, 3)"><g id="tx__18hkwqx1noxxj9-fill" stroke="none" fill="#484848"><g><text style="font: 20px &quot;Shantell Sans&quot;, cursive; white-space: pre;"><tspan x="12" y="35.5" dominant-baseline="ideographic">해결되지 않은 미</tspan><tspan x="12" y="59.5" dominant-baseline="ideographic">스터리</tspan></text></g></g></g><g id="g-root-hole_91is3t1noxy4i-fill" data-item-order="0" data-item-id="hole_91is3t1noxy4i" data-item-class="Icon Stroke SceneTarget Indexed ColorStrokeBlack" data-item-index="2" data-renderer-id="0" transform="translate(530, 87)"></g><g id="g-root-tx__18hkwqx1noxxj8-fill" data-item-order="0" data-item-id="tx__18hkwqx1noxxj8" data-item-class="Label Stroke SceneTarget Indexed ColorStrokeBlack" data-item-index="2" data-renderer-id="0" transform="translate(590, 99)"><g id="tx__18hkwqx1noxxj8-fill" stroke="none" fill="#484848"><g><text style="font: 20px &quot;Shantell Sans&quot;, cursive; white-space: pre;"><tspan x="12" y="35.5" dominant-baseline="ideographic">암흑 물질</tspan></text></g></g></g><g id="g-root-tx__1lt1f491noxvy9-fill" data-item-order="0" data-item-id="tx__1lt1f491noxvy9" data-item-class="Label Stroke SceneTarget SceneStart ColorStrokeBlack" data-item-index="none" data-renderer-id="0" transform="translate(2, 141)"><g id="tx__1lt1f491noxvy9-fill" stroke="none" fill="#484848"><g><text style="font: 20px &quot;Shantell Sans&quot;, cursive; white-space: pre;"><tspan x="15.98" y="35.5" dominant-baseline="ideographic">빅뱅 이론</tspan></text></g></g></g><g id="g-root-gala_v7ztmx1noxy4v-fill" data-item-order="0" data-item-id="gala_v7ztmx1noxy4v" data-item-class="Icon Stroke SceneTarget SceneStart ColorStrokeBlack" data-item-index="none" data-renderer-id="0" transform="translate(98, 129)"></g><g id="g-root-flas_dhca891noxxc9-fill" data-item-order="0" data-item-id="flas_dhca891noxxc9" data-item-class="Icon Stroke SceneTarget Indexed ColorStrokeBlack" data-item-index="3" data-renderer-id="0" transform="translate(530, 171)"></g><g id="g-root-tx__18hkwqx1noxxj7-fill" data-item-order="0" data-item-id="tx__18hkwqx1noxxj7" data-item-class="Label Stroke SceneTarget Indexed ColorStrokeBlack" data-item-index="3" data-renderer-id="0" transform="translate(590, 183)"><g id="tx__18hkwqx1noxxj7-fill" stroke="none" fill="#484848"><g><text style="font: 20px &quot;Shantell Sans&quot;, cursive; white-space: pre;"><tspan x="12" y="35.5" dominant-baseline="ideographic">암흑 에너지</tspan></text></g></g></g><g id="g-root-1_dhca891noxxc8-fill" data-item-order="0" data-item-id="1_dhca891noxxc8" data-item-class="Icon Stroke SceneTarget Indexed ColorStrokeBlack" data-item-index="4" data-renderer-id="0" transform="translate(530, 255)"></g><g id="g-root-tx__1cxeevd1noxwqy-fill" data-item-order="0" data-item-id="tx__1cxeevd1noxwqy" data-item-class="Label Stroke SceneTarget Indexed ColorStrokeBlack" data-item-index="4" data-renderer-id="0" transform="translate(590, 255)"><g id="tx__1cxeevd1noxwqy-fill" stroke="none" fill="#484848"><g><text style="font: 20px &quot;Shantell Sans&quot;, cursive; white-space: pre;"><tspan x="12" y="35.5" dominant-baseline="ideographic">물질-반물질 비대</tspan><tspan x="12" y="59.5" dominant-baseline="ideographic">칭성</tspan></text></g></g></g><g id="g-root--1.cu_sy_4ikwjt1noxwxv-stroke" data-item-order="-90716" data-item-id="-1.cu_sy_4ikwjt1noxwxv" data-item-class="ScenePart Part Fill Stroke ColorStrokeBlack" data-item-index="-1" data-renderer-id="0" transform="translate(193, 51)"><g id="-1.cu_sy_4ikwjt1noxwxv-stroke" fill="none" stroke-linecap="round" stroke-linejoin="round" stroke-miterlimit="4" stroke="#484848" stroke-width="4"><g><path d="M 125 33.999969C 115.7 27.499969 109 17.999969 101 9.999969C 90.8 29.399969 78 47.399969 67.8 66.899969C 59.9 82.199969 50.1 96.499969 41.8 111.499969C 31.6 129.899969 20 147.499969 10 165.999969C 17.8 174.299969 26.1 181.899969 34 189.999969C 41.8 178.199969 47.8 165.299969 55.4 153.299969C 63.2 140.999969 70.8 128.599969 77.4 115.599969C 84.3 101.899969 92 88.699969 100.5 75.999969C 109.5 62.499969 117.9 48.499969 125 33.999969M 125 33.999969C 117.9 46.599969 110 58.799969 103.1 71.599969C 95.2 86.099969 87.1 100.499969 78.1 114.299969C 70.1 126.699969 64.9 140.899969 55.9 152.499969C 47 163.899969 42 177.899969 34 189.999969C 47 190.399969 60.1 189.799969 73.2 189.999969C 84.5 190.199969 96.1 191.999969 107.3 189.999969C 119.5 187.799969 132.2 191.599969 144.4 189.999969C 156 188.499969 167.8 188.699969 179.4 189.999969C 191.5 191.399969 203.8 190.499969 216 189.999969C 206.6 171.099969 194 153.999969 184.1 135.299969C 175.4 118.799969 165.9 102.599969 155.8 86.799969C 144.8 69.599969 136.3 50.999969 125 33.999969"></path><path d="M 125 34L 101 10L 10 166L 34 190L 125 34ZM 125 34L 34 190L 216 190L 125 34Z"></path></g></g></g><g id="g-root-0.line-start_sy_4ikwjt1noxwxw-stroke" data-item-order="-90713" data-item-id="0.line-start_sy_4ikwjt1noxwxw" data-item-class="ScenePart Part Indexed_0 Stroke ColorStrokeBlack" data-item-index="0" data-renderer-id="0" transform="translate(152, 153)"><g id="0.line-start_sy_4ikwjt1noxwxw-stroke" fill="none" stroke-linecap="round" stroke-linejoin="round" stroke-miterlimit="4" stroke="#484848" stroke-width="4"><g><path d="M 10 10C 46.8 9 83.7 12 120.5 10"></path><path d="M 10 10.000061L 120.5 10.000061"></path></g></g></g><g id="g-root-4.line_sy_2refd1noxxq8-stroke" data-item-order="-90711" data-item-id="4.line_sy_2refd1noxxq8" data-item-class="ScenePart Part Indexed Stroke ColorStrokeBlack" data-item-index="4" data-renderer-id="0" transform="translate(262.5, 153)"><g id="4.line_sy_2refd1noxxq8-stroke" fill="none" stroke-linecap="round" stroke-linejoin="round" stroke-miterlimit="4" stroke="#484848" stroke-width="2"><g><path d="M 257.9 134.8C 247 129.2 238 120.5 228.2 113.2C 218.8 106.1 209.2 99.2 199.6 92.3C 190.7 85.9 182.3 78.8 173 72.9C 163.4 66.7 154.7 59 145.2 52.6C 133.7 44.8 121.5 37.7 111.5 28C 95.5 27.1 80.1 21.6 64.3 19.6C 46.1 17.3 28.2 12.5 10 10"></path><path d="M 257.88 134.82L 111.5 28L 10 10"></path><path d="M 249.2 136.5C 252.1 135.6 255.3 135.5 258.3 135.1C 257.7 132.1 257.4 129 256.9 126" stroke-dasharray="none"></path><path d="M 249.2 136.5L 258.3 135.1L 256.9 126" stroke-dasharray="none"></path></g></g></g><g id="g-root-3.line_sy_1uo1ya11noxxjj-stroke" data-item-order="-90709" data-item-id="3.line_sy_1uo1ya11noxxjj" data-item-class="ScenePart Part Indexed Stroke ColorStrokeBlack" data-item-index="3" data-renderer-id="0" transform="translate(263, 153)"><g id="3.line_sy_1uo1ya11noxxjj-stroke" fill="none" stroke-linecap="round" stroke-linejoin="round" stroke-miterlimit="4" stroke="#484848" stroke-width="2"><g><path d="M 257.1 51.6C 241.7 47.9 226.6 42.5 210.9 40.8C 191.6 38.7 173.1 31.7 154.1 27.6C 137.3 24 120.8 19.3 104 16C 88.1 14.5 72 14.9 56.1 12.9C 40.8 11.1 25.2 12.5 10 10"></path><path d="M 257.05 51.55L 104 16L 10 10"></path><path d="M 249.7 56.5C 252.4 55 255.3 53.8 257.5 51.7C 255.5 49.4 254.5 46.3 252.7 43.9" stroke-dasharray="none"></path><path d="M 249.7 56.5L 257.5 51.7L 252.7 43.9" stroke-dasharray="none"></path></g></g></g><g id="g-root-2.line_sy_1uo1ya11noxxji-stroke" data-item-order="-90707" data-item-id="2.line_sy_1uo1ya11noxxji" data-item-class="ScenePart Part Indexed Stroke ColorStrokeBlack" data-item-index="2" data-renderer-id="0" transform="translate(262.5, 111)"><g id="2.line_sy_1uo1ya11noxxji-stroke" fill="none" stroke-linecap="round" stroke-linejoin="round" stroke-miterlimit="4" stroke="#484848" stroke-width="2"><g><path d="M 257.6 10.4C 243.6 13.8 229.6 17 215.6 19.8C 203.6 22.1 191.7 25.5 179.7 27.7C 166.9 30.2 154.1 32.9 141.4 36.2C 126.9 40.1 112.4 44.1 97.5 46C 82.7 48.9 67.4 47.2 52.5 49.1C 38.4 50.9 24.2 52.8 10 52"></path><path d="M 257.55 10.43L 97.5 46L 10 52"></path><path d="M 253.1 18.1C 254.7 15.5 256.3 12.9 258 10.3C 255.3 8.9 252.8 7.1 250.3 5.4" stroke-dasharray="none"></path><path d="M 253.1 18.1L 258 10.3L 250.3 5.4" stroke-dasharray="none"></path></g></g></g><g id="g-root-1.line_sy_4ikwjt1noxwxx-stroke" data-item-order="-90705" data-item-id="1.line_sy_4ikwjt1noxwxx" data-item-class="ScenePart Part Indexed Indexed_1 Stroke ColorStrokeBlack" data-item-index="1" data-renderer-id="0" transform="translate(262.5, 27)"><g id="1.line_sy_4ikwjt1noxwxx-stroke" fill="none" stroke-linecap="round" stroke-linejoin="round" stroke-miterlimit="4" stroke="#484848" stroke-width="2"><g><path d="M 10 136C 37 130.9 63.3 122 90.5 118C 120.9 100.4 150.5 81.4 179.3 61.2C 204.7 43.4 231.7 27.8 257.8 11.1"></path><path d="M 10 136L 90.5 118L 257.81 11.08"></path><path d="M 256.3 19.8C 257.7 17.1 256.7 13.5 258.2 10.8C 255.5 9.5 252.3 9.3 249.3 8.8" stroke-dasharray="none"></path><path d="M 256.3 19.8L 258.2 10.8L 249.3 8.8" stroke-dasharray="none"></path></g></g></g><g id="g-root-ques_6i8y11noxvrf-stroke" data-item-order="0" data-item-id="ques_6i8y11noxvrf" data-item-class="Icon Stroke SceneTarget Indexed Indexed_1 ColorStrokeBlack" data-item-index="1" data-renderer-id="0" transform="translate(530, 3)"><g id="ques_6i8y11noxvrf-stroke" fill="none" stroke-linecap="round" stroke-linejoin="round" stroke-miterlimit="4" stroke="#484848" stroke-width="2"><g><path d="M 34 11.714286C 25.771429 13.085714 18.571428 16.514286 14.457143 23.371429C 10 30.571428 10.685715 39.485718 15.485714 46.342857C 15.142858 49.771431 13.085714 53.200001 11.714286 56.285713C 15.828571 56.628574 20.285715 55.600002 24.4 53.885715C 31.6 59.371429 43.600002 57.657143 49.085712 50.457146C 54.57143 43.257141 56.285713 35.028572 54.914288 25.771429C 53.542858 16.857143 42.57143 14.8 34 11.714286M 28.857143 28.857143C 28.171429 26.114285 31.257143 24.742859 34 23.714287C 36.742859 23.028572 38.799999 26.114285 39.142857 28.857143C 39.485718 31.6 36.742859 33.314285 34 34C 34.342857 35.028572 34 36.399998 34 37.428574"></path><path d="M 34 11.714286C 25.78648 11.716842 18.24015 16.237019 14.361948 23.477287C 10.483745 30.717556 10.902401 39.504124 15.451428 46.342857L 11.714286 56.285713L 24.228573 54.022858C 32.478989 58.054592 42.357716 56.612949 49.111847 50.391537C 55.865974 44.170128 58.112556 34.442822 54.770702 25.889679C 51.428848 17.336535 43.182823 11.708866 34 11.714286ZM 28.857143 28.857143C 28.857143 26.016823 31.159679 23.714287 34 23.714287C 36.840321 23.714287 39.142857 26.016823 39.142857 28.857143C 39.142857 31.697466 36.840321 34 34 34L 34 37.428574"></path></g></g></g><g id="g-root-tx__18hkwqx1noxxj9-stroke" data-item-order="0" data-item-id="tx__18hkwqx1noxxj9" data-item-class="Label Stroke SceneTarget Indexed Indexed_1 ColorStrokeBlack" data-item-index="1" data-renderer-id="0" transform="translate(590, 3)"></g><g id="g-root-hole_91is3t1noxy4i-stroke" data-item-order="0" data-item-id="hole_91is3t1noxy4i" data-item-class="Icon Stroke SceneTarget Indexed ColorStrokeBlack" data-item-index="2" data-renderer-id="0" transform="translate(530, 87)"><g id="hole_91is3t1noxy4i-stroke" fill="none" stroke-linecap="round" stroke-linejoin="round" stroke-miterlimit="4" stroke="#484848" stroke-width="2"><g><path d="M 29.6 22.6C 37 17.6 47.400002 15.4 52.400002 22.6C 57.200001 30 56.799999 37.799999 52.400002 45.400002C 47.799999 52.799999 35.200001 52.200001 29.6 45.400002M 25 34C 26.200001 38.200001 27.4 41.799999 30.6 42C 33.599998 42.200001 35.599998 38.400002 36 34C 36.400002 29.6 33.599998 26.200001 30.6 26C 27.4 25.799999 26.200001 29.799999 25 34M 37.400002 26C 37.799999 26.200001 38.200001 26 38.599998 26C 40.200001 25.799999 41.599998 26.799999 43.200001 27C 48.200001 28.200001 52.799999 31.200001 57 34M 11 26C 15 26.200001 19.200001 26 23.4 26M 37.400002 42C 37.799999 41.799999 38.200001 42.200001 38.599998 42C 40.200001 41.400002 41.599998 41.400002 43.200001 41C 48.200001 39.599998 51.799999 34.599998 57 34M 11 42C 15 43 19.200001 41.599998 23.4 42M 29 34C 37.799999 31 47.599998 34.200001 57 34M 14 23C 15 24 16.200001 24.799999 17 26C 15.8 26.799999 14.8 27.799999 14 29M 17 31C 18.4 31.6 18.799999 33.200001 20 34C 19 35 18.200001 36.200001 17 37M 14 39C 15.2 39.799999 15.8 41.200001 17 42C 16 42.799999 14.8 43.799999 14 45M 11 34C 14.4 33.400002 17.6 34.599998 21 34"></path><path d="M 29.686001 22.686001C 35.934471 16.437847 46.064964 16.438023 52.313221 22.68639C 58.561481 28.934755 58.561481 39.065247 52.313221 45.31361C 46.064964 51.561977 35.934471 51.562153 29.686001 45.313999M 25 34C 25 38.418278 27.462435 42 30.5 42C 33.537567 42 36 38.418278 36 34C 36 29.581722 33.537567 26 30.5 26C 27.462435 26 25 29.581722 25 34M 37.351997 26L 38.639999 26C 40.192429 26.000105 41.723511 26.361649 43.112 27.056L 57 34M 11 26L 23.352001 26M 37.351997 42L 38.639999 42C 40.192429 41.999893 41.723511 41.638351 43.112 40.944L 57 34M 11 42L 23.352001 42M 29 34L 57 34M 14 23L 17 26L 14 29M 17 31L 20 34L 17 37M 14 39L 17 42L 14 45M 11 33.989998L 21 33.989998"></path></g></g></g><g id="g-root-tx__18hkwqx1noxxj8-stroke" data-item-order="0" data-item-id="tx__18hkwqx1noxxj8" data-item-class="Label Stroke SceneTarget Indexed ColorStrokeBlack" data-item-index="2" data-renderer-id="0" transform="translate(590, 99)"></g><g id="g-root-tx__1lt1f491noxvy9-stroke" data-item-order="0" data-item-id="tx__1lt1f491noxvy9" data-item-class="Label Stroke SceneTarget SceneStart ColorStrokeBlack" data-item-index="none" data-renderer-id="0" transform="translate(2, 141)"></g><g id="g-root-gala_v7ztmx1noxy4v-stroke" data-item-order="0" data-item-id="gala_v7ztmx1noxy4v" data-item-class="Icon Stroke SceneTarget SceneStart ColorStrokeBlack" data-item-index="none" data-renderer-id="0" transform="translate(98, 129)"><g id="gala_v7ztmx1noxy4v-stroke" fill="none" stroke-linecap="round" stroke-linejoin="round" stroke-miterlimit="4" stroke="#484848" stroke-width="2"><g><path d="M 28.799999 33.799999C 29.200001 36.599998 31.200001 39.599998 34 39C 36.799999 38.400002 40.200001 36.400002 39.200001 33.799999C 38 31.200001 36.599998 27.799999 34 28.799999C 31.4 29.6 28.4 31 28.799999 33.799999M 52 15C 52 15.4 52.400002 16 53 16C 53.599998 15.8 54.200001 15.4 54 15C 53.799999 14.4 53.599998 14 53 14C 52.400002 13.8 52 14.4 52 15M 51.799999 55C 52 55.400002 52.200001 55.799999 52.799999 56C 53.200001 56.200001 53.799999 55.400002 53.799999 55C 53.599998 54.400002 53.200001 53.799999 52.799999 54C 52.200001 54 51.599998 54.400002 51.799999 55M 23.200001 56C 23.200001 56.599998 23.6 57 24.200001 57C 24.799999 57 25.200001 56.599998 25.200001 56C 25.200001 55.400002 24.799999 54.799999 24.200001 55C 23.6 55.200001 23.200001 55.400002 23.200001 56M 12.8 49C 12.8 49.599998 13.2 50.200001 13.8 50C 14.2 49.799999 14.6 49.599998 14.8 49C 14.8 48.400002 14.2 48 13.8 48C 13.2 48 12.6 48.400002 12.8 49M 11.8 12C 11.8 12.6 12.2 13 12.8 13C 13.2 13 13.6 12.6 13.8 12C 13.8 11.4 13.2 11.2 12.8 11C 12.2 10.8 11.6 11.4 11.8 12M 33.400002 52C 46.200001 49.200001 56.599998 45.400002 57 37.200001C 57.400002 29.200001 47.799999 23.6 33.400002 22.6C 25.4 22 19.799999 29 22.200001 35C 22.200001 35 12.2 30.799999 19.4 23.799999C 23.799999 19.6 34.599998 15.8 34.599998 15.8C 22 12.4 13.2 22.6 11 30.4C 8.8 38.200001 19.799999 46.200001 34 45.200001C 42.200001 44.400002 47.400002 39 45.799999 32.599998C 45.799999 32.599998 53.799999 35.200001 48.599998 43.799999C 45.400002 49 33.400002 52 33.400002 52"></path><path d="M 28.888 33.816002C 28.887753 36.639454 31.176546 38.928444 34 38.928444C 36.823456 38.928444 39.112244 36.639454 39.112 33.816002C 39.112244 30.992546 36.823456 28.703554 34 28.703554C 31.176546 28.703554 28.887753 30.992546 28.888 33.816002M 52 14.92C 52 15.472284 52.447716 15.92 53 15.92C 53.552284 15.92 54 15.472284 54 14.92C 54 14.367716 53.552284 13.92 53 13.92C 52.447716 13.92 52 14.367716 52 14.92M 51.709999 54.919998C 51.709999 55.472286 52.157715 55.919998 52.709999 55.919998C 53.262283 55.919998 53.709999 55.472286 53.709999 54.919998C 53.709999 54.367714 53.262283 53.919998 52.709999 53.919998C 52.157715 53.919998 51.709999 54.367714 51.709999 54.919998M 23.209999 56C 23.209999 56.552284 23.657715 57 24.209999 57C 24.762283 57 25.209999 56.552284 25.209999 56C 25.209999 55.447716 24.762283 55 24.209999 55C 23.657715 55 23.209999 55.447716 23.209999 56M 12.71 49C 12.71 49.552284 13.157715 50 13.71 50C 14.262285 50 14.71 49.552284 14.71 49C 14.71 48.447716 14.262285 48 13.71 48C 13.157715 48 12.71 48.447716 12.71 49M 11.71 12C 11.71 12.552284 12.157715 13 12.71 13C 13.262285 13 13.71 12.552284 13.71 12C 13.71 11.447716 13.262285 11 12.71 11C 12.157715 11 11.71 11.447716 11.71 12M 33.487999 51.919998C 46.473999 51.919998 57 45.334 57 37.209999C 57 29.086 47.799999 22.501999 33.487999 22.501999C 25.312 22.501999 19.178001 29.290001 22.243999 34.947998C 22.243999 34.947998 12.21 30.9 19.498001 23.778C 23.798 19.577999 34.512001 15.712 34.512001 15.712C 21.526001 15.712 11 22.298 11 30.422001C 11 38.545998 19.700001 45.132 34.012001 45.132C 42.188 45.132 48.821999 38.341999 45.756001 32.683998C 45.756001 32.683998 55.790001 36.734001 48.501999 43.855999C 44.202 48.056 33.487999 51.919998 33.487999 51.919998"></path></g></g></g><g id="g-root-flas_dhca891noxxc9-stroke" data-item-order="0" data-item-id="flas_dhca891noxxc9" data-item-class="Icon Stroke SceneTarget Indexed ColorStrokeBlack" data-item-index="3" data-renderer-id="0" transform="translate(530, 171)"><g id="flas_dhca891noxxc9-stroke" fill="none" stroke-linecap="round" stroke-linejoin="round" stroke-miterlimit="4" stroke="#484848" stroke-width="2"><g><path d="M 26 57C 25.200001 49.400002 32.200001 42.599998 32 35C 29.6 34 26.6 35.799999 24 35C 26.4 27.200001 30.200001 19.200001 30 11C 35.200001 12.4 40.799999 12.4 46 11C 41.400002 15.2 38 21 36 27C 39.200001 27.6 42.799999 26 46 27C 38 36 34.400002 48.400002 26 57"></path><path d="M 26 56.995998L 32 34.996002L 24 34.996002L 30 10.996L 46 10.996L 36 26.996L 46 26.996L 26 56.995998Z"></path></g></g></g><g id="g-root-tx__18hkwqx1noxxj7-stroke" data-item-order="0" data-item-id="tx__18hkwqx1noxxj7" data-item-class="Label Stroke SceneTarget Indexed ColorStrokeBlack" data-item-index="3" data-renderer-id="0" transform="translate(590, 183)"></g><g id="g-root-1_dhca891noxxc8-stroke" data-item-order="0" data-item-id="1_dhca891noxxc8" data-item-class="Icon Stroke SceneTarget Indexed ColorStrokeBlack" data-item-index="4" data-renderer-id="0" transform="translate(530, 255)"><g id="1_dhca891noxxc8-stroke" fill="none" stroke-linecap="round" stroke-linejoin="round" stroke-miterlimit="4" stroke="#484848" stroke-width="2"><g><path d="M 33 47C 29.4 49.200001 28.4 54.400002 25 57C 30.200001 56 35.799999 58.400002 41 57C 37.599998 54.400002 36.799999 49.200001 33 47M 55 53C 41 46.599998 26.200001 42.599998 12.6 35.400002M 21.6 17C 20.799999 19.200001 19.6 20.6 17.6 21C 15.8 21.4 14.2 20.6 12.6 21C 11.8 18.4 11.8 15.6 12.6 13C 14.2 12.6 16 13.4 17.6 13C 19.6 12.4 21.799999 14.8 21.6 17M 21.6 25C 21 27.200001 19.799999 29.200001 17.6 29C 15.8 28.799999 14.2 29.200001 12.6 29C 12.4 26.4 13 23.6 12.6 21C 14.2 21.4 15.8 21.200001 17.6 21C 19.799999 20.799999 21.4 22.799999 21.6 25M 15.6 11C 15.6 11.6 15.6 12.4 15.6 13M 15.6 29C 15.4 29.6 15.6 30.4 15.6 31M 21.6 17C 21 19.200001 19.799999 21.200001 17.6 21C 15.8 20.799999 14.2 20.799999 12.6 21C 12 18.4 13.2 15.6 12.6 13C 14.2 12.8 15.8 13.2 17.6 13C 19.799999 12.8 21.799999 14.8 21.6 17M 21.6 25C 21.799999 27.200001 19.6 28.6 17.6 29C 15.8 29.200001 14.2 28.799999 12.6 29C 13.4 26.6 11.8 23.6 12.6 21C 14 21.4 15.8 20.6 17.6 21C 19.6 21.6 20.799999 22.799999 21.6 25M 15.6 11C 15.6 11.6 15.8 12.4 15.6 13M 15.6 29C 15.4 29.6 15.4 30.4 15.6 31M 55.599998 27C 54.200001 26.6 52.599998 27.4 51.200001 27C 49.599998 26.4 48.599998 28.4 47.599998 29.799999C 46.799999 31.4 48 33.599998 49.599998 34C 51 34.400002 52.200001 35.200001 53.400002 36C 54.799999 37 56 38.599998 55.400002 40.200001C 55 41.799999 53.400002 42.400002 51.799999 43C 50.400002 43.599998 49 42.799999 47.599998 43M 50.599998 43C 50.599998 44 50.799999 45 50.599998 46M 52.599998 24C 52.799999 25 52.400002 26 52.599998 27"></path><path d="M 33.006001 47L 25.006001 57L 41.006001 57L 33.006001 47ZM 55.006001 53L 12.507999 35.396M 21.507999 17C 21.507999 19.209139 19.71714 21 17.507999 21L 12.507999 21L 12.507999 13L 17.507999 13C 19.71714 13 21.507999 14.790861 21.507999 17ZM 21.507999 25C 21.507999 27.209139 19.71714 29 17.507999 29L 12.507999 29L 12.507999 21L 17.507999 21C 19.71714 21 21.507999 22.790861 21.507999 25ZM 15.507999 11L 15.507999 13M 15.507999 29L 15.507999 31M 21.507999 17C 21.507999 19.209139 19.71714 21 17.507999 21L 12.507999 21L 12.507999 13L 17.507999 13C 19.71714 13 21.507999 14.790861 21.507999 17ZM 21.507999 25C 21.507999 27.209139 19.71714 29 17.507999 29L 12.507999 29L 12.507999 21L 17.507999 21C 19.71714 21 21.507999 22.790861 21.507999 25ZM 15.507999 11L 15.507999 13M 15.507999 29L 15.507999 31M 55.507999 27L 51.216 27C 49.496788 27.000622 48.003479 28.182915 47.608517 29.856146C 47.213554 31.529375 48.020538 33.254646 49.558002 34.024002L 53.458 35.973999C 54.99781 36.742203 55.806767 38.46883 55.411545 40.143627C 55.016327 41.818424 53.520798 43.00124 51.800003 43L 47.507999 43M 50.507999 43L 50.507999 46M 52.507999 24L 52.507999 27"></path></g></g></g><g id="g-root-tx__1cxeevd1noxwqy-stroke" data-item-order="0" data-item-id="tx__1cxeevd1noxwqy" data-item-class="Label Stroke SceneTarget Indexed ColorStrokeBlack" data-item-index="4" data-renderer-id="0" transform="translate(590, 255)"></g></g></g></svg>