<?xml version="1.0" encoding="utf-8" standalone="yes"?>
<!DOCTYPE svg PUBLIC "-//W3C//DTD SVG 1.1//EN" "http://www.w3.org/Graphics/SVG/1.1/DTD/svg11.dtd">
<svg width="564" height="468" viewBox="0 0 564 468" style="fill:none;stroke:none;fill-rule:evenodd;clip-rule:evenodd;stroke-linecap:round;stroke-linejoin:round;stroke-miterlimit:1.5;" version="1.1" xmlns="http://www.w3.org/2000/svg" xmlns:xlink="http://www.w3.org/1999/xlink"><style id="fontImports">@import url("https://fonts.googleapis.com/css2?family=Shantell+Sans:wght@300..800&amp;display=block");</style><rect id="" x="0" y="0" width="564" height="468" style="fill: #ffffff;"></rect><g id="items" style="isolation: isolate"><g id="blend" style="mix-blend-mode:multiply"><g id="g-root-3.Vector_sy_zjg3a11mkzif7-fill" data-item-order="-122556" data-item-id="3.Vector_sy_zjg3a11mkzif7" data-item-class="ScenePart Part Indexed Fill Stroke" data-item-index="3" data-renderer-id="0" transform="translate(91.7030029296875, 57.06298828125)"><g id="3.Vector_sy_zjg3a11mkzif7-fill" stroke="none" fill="#cef3ff"><g><path d="M 110.974997 70.788996L 116.622997 88.936996L 98.081997 93.118996L 101.669997 86.903996L 79.046997 73.842996C 68.091997 87.338996 48.651997 91.262996 33.118997 82.294996C 15.899997 72.353996 9.999997 50.336996 19.941997 33.117996C 29.882997 15.899996 51.899997 9.999996 69.118997 19.940996C 84.630997 28.896996 90.955997 47.654996 84.787997 63.874996L 107.421997 76.941996L 110.974997 70.788996Z"></path></g></g></g><g id="g-root-2.Vector_sy_13z9leh1mkzhmy-fill" data-item-order="-122554" data-item-id="2.Vector_sy_13z9leh1mkzhmy" data-item-class="ScenePart Part Indexed Fill Stroke" data-item-index="2" data-renderer-id="0" transform="translate(242, 274.299072265625)"><g id="2.Vector_sy_13z9leh1mkzhmy-fill" stroke="none" fill="#d8ceff"><g><path d="M 58.893 23.965989L 46 9.999989L 33.108 23.965989L 40.284 23.965989L 40.284 50.151989C 23.118 52.890989 10 67.763989 10 85.700989C 10 105.582989 26.118 121.700989 46 121.700989C 65.882 121.700989 82 105.582989 82 85.700989C 82 67.788989 68.918 52.931989 51.788 50.163989L 51.788 23.965989L 58.893 23.965989Z"></path></g></g></g><g id="g-root-1.Vector_sy_13z9leh1mkzhmx-fill" data-item-order="-122552" data-item-id="1.Vector_sy_13z9leh1mkzhmx" data-item-class="ScenePart Part Indexed Indexed_1 Fill Stroke" data-item-index="1" data-renderer-id="0" transform="translate(357.67401123046875, 57.06298828125)"><g id="1.Vector_sy_13z9leh1mkzhmx-fill" stroke="none" fill="#ffd0ce"><g><path d="M 28.540989 93.119996L 9.999989 88.936996L 15.647989 70.788996L 19.235989 77.003996L 41.859989 63.941996C 35.648989 47.706996 41.969989 28.909996 57.503989 19.940996C 74.722989 9.999996 96.739989 15.899996 106.680989 33.117996C 116.621989 50.336996 110.722989 72.353996 93.503989 82.294996C 77.991989 91.250996 58.584989 87.349996 47.621989 73.898996L 24.987989 86.965996L 28.540989 93.119996Z"></path></g></g></g><g id="g-root-0.Vector_sy_13z9leh1mkzhmw-fill" data-item-order="-122550" data-item-id="0.Vector_sy_13z9leh1mkzhmw" data-item-class="ScenePart Part Indexed_0 Fill Stroke ColorFillGray ColorStrokeBlack" data-item-index="0" data-renderer-id="0" transform="translate(206, 109.99609375)"><g id="0.Vector_sy_13z9leh1mkzhmw-fill" stroke="none" fill="#eaeaea"><g><path d="M 154 81.999998C 154 42.235998 121.765 9.999998 82 9.999998C 42.236 9.999998 10 42.235998 10 81.999998C 10 121.764998 42.236 153.999998 82 153.999998C 121.764 153.999998 154 121.764998 154 81.999998Z"></path></g></g></g><g id="g-root-tx_cp_m7zkwp1mkzk07-fill" data-item-order="0" data-item-id="tx_cp_m7zkwp1mkzk07" data-item-class="Label Stroke SceneTarget SceneTitle Title ColorStrokeBlack" data-item-index="none" data-renderer-id="0" transform="translate(122, 2)"><g id="tx_cp_m7zkwp1mkzk07-fill" stroke="none" fill="#484848"><g><text style="font: 20px &quot;Shantell Sans&quot;, cursive; white-space: pre;"><tspan x="14.63" y="35.5" dominant-baseline="ideographic">CP 위반과 우주의 물질-반물질 불균형</tspan></text></g></g></g><g id="g-root-tx__zjg3a11mkzif8-fill" data-item-order="0" data-item-id="tx__zjg3a11mkzif8" data-item-class="Label Stroke SceneTarget Indexed ColorStrokeBlack" data-item-index="3" data-renderer-id="0" transform="translate(2, 86)"><g id="tx__zjg3a11mkzif8-fill" stroke="none" fill="#484848"><g><text style="font: 20px &quot;Shantell Sans&quot;, cursive; white-space: pre;"><tspan x="15.98" y="35.5" dominant-baseline="ideographic">초기 우주</tspan></text></g></g></g><g id="g-root-blac_18egmft1ml2ccg-fill" data-item-order="0" data-item-id="blac_18egmft1ml2ccg" data-item-class="Icon Stroke SceneTarget Indexed InsideFill" data-item-index="3" data-renderer-id="0" transform="translate(108, 74)"></g><g id="g-root-doub_959pqx1ml0wei-fill" data-item-order="0" data-item-id="doub_959pqx1ml0wei" data-item-class="Icon Stroke SceneTarget Indexed Indexed_1 InsideFill" data-item-index="1" data-renderer-id="0" transform="translate(400, 74)"></g><g id="g-root-tx_cp_m7zkwp1mkzk06-fill" data-item-order="0" data-item-id="tx_cp_m7zkwp1mkzk06" data-item-class="Label Stroke SceneTarget Indexed Indexed_1 ColorStrokeBlack" data-item-index="1" data-renderer-id="0" transform="translate(470, 86)"><g id="tx_cp_m7zkwp1mkzk06-fill" stroke="none" fill="#484848"><g><text style="font: 20px &quot;Shantell Sans&quot;, cursive; white-space: pre;"><tspan x="12" y="35.5" dominant-baseline="ideographic">CP 위반</tspan></text></g></g></g><g id="g-root-1_1cz9x951ml0xkx-fill" data-item-order="0" data-item-id="1_1cz9x951ml0xkx" data-item-class="Icon Stroke SceneTarget SceneEnd InsideFill InsideGrayFill ColorStrokeBlack" data-item-index="none" data-renderer-id="0" transform="translate(242, 145.99609375)"></g><g id="g-root-bomb_13yn4bd1ml2ccv-fill" data-item-order="0" data-item-id="bomb_13yn4bd1ml2ccv" data-item-class="Icon Stroke SceneTarget Indexed InsideFill" data-item-index="2" data-renderer-id="0" transform="translate(254, 326)"></g><g id="g-root-tx__qnt3151mkzj7x-fill" data-item-order="0" data-item-id="tx__qnt3151mkzj7x" data-item-class="Label Stroke SceneTarget Indexed ColorStrokeBlack" data-item-index="2" data-renderer-id="0" transform="translate(194, 398)"><g id="tx__qnt3151mkzj7x-fill" stroke="none" fill="#484848"><g><text style="font: 20px &quot;Shantell Sans&quot;, cursive; white-space: pre;"><tspan x="16.56" y="35.5" dominant-baseline="ideographic">물질-반물질 비대칭</tspan><tspan x="85.35" y="59.5" dominant-baseline="ideographic">성</tspan></text></g></g></g><g id="g-root-3.Vector_sy_zjg3a11mkzif7-stroke" data-item-order="-122556" data-item-id="3.Vector_sy_zjg3a11mkzif7" data-item-class="ScenePart Part Indexed Fill Stroke" data-item-index="3" data-renderer-id="0" transform="translate(91.7030029296875, 57.06298828125)"><g id="3.Vector_sy_zjg3a11mkzif7-stroke" fill="none" stroke-linecap="round" stroke-linejoin="round" stroke-miterlimit="4" stroke="#17b0e3" stroke-width="2"><g><path d="M 110.974997 70.788996L 116.622997 88.936996L 98.081997 93.118996L 101.669997 86.903996L 79.046997 73.842996C 68.091997 87.338996 48.651997 91.262996 33.118997 82.294996C 15.899997 72.353996 9.999997 50.336996 19.941997 33.117996C 29.882997 15.899996 51.899997 9.999996 69.118997 19.940996C 84.630997 28.896996 90.955997 47.654996 84.787997 63.874996L 107.421997 76.941996L 110.974997 70.788996Z"></path></g></g></g><g id="g-root-2.Vector_sy_13z9leh1mkzhmy-stroke" data-item-order="-122554" data-item-id="2.Vector_sy_13z9leh1mkzhmy" data-item-class="ScenePart Part Indexed Fill Stroke" data-item-index="2" data-renderer-id="0" transform="translate(242, 274.299072265625)"><g id="2.Vector_sy_13z9leh1mkzhmy-stroke" fill="none" stroke-linecap="round" stroke-linejoin="round" stroke-miterlimit="4" stroke="#795ee3" stroke-width="2"><g><path d="M 58.893 23.965989L 46 9.999989L 33.108 23.965989L 40.284 23.965989L 40.284 50.151989C 23.118 52.890989 10 67.763989 10 85.700989C 10 105.582989 26.118 121.700989 46 121.700989C 65.882 121.700989 82 105.582989 82 85.700989C 82 67.788989 68.918 52.931989 51.788 50.163989L 51.788 23.965989L 58.893 23.965989Z"></path></g></g></g><g id="g-root-1.Vector_sy_13z9leh1mkzhmx-stroke" data-item-order="-122552" data-item-id="1.Vector_sy_13z9leh1mkzhmx" data-item-class="ScenePart Part Indexed Indexed_1 Fill Stroke" data-item-index="1" data-renderer-id="0" transform="translate(357.67401123046875, 57.06298828125)"><g id="1.Vector_sy_13z9leh1mkzhmx-stroke" fill="none" stroke-linecap="round" stroke-linejoin="round" stroke-miterlimit="4" stroke="#e15e5a" stroke-width="2"><g><path d="M 28.540989 93.119996L 9.999989 88.936996L 15.647989 70.788996L 19.235989 77.003996L 41.859989 63.941996C 35.648989 47.706996 41.969989 28.909996 57.503989 19.940996C 74.722989 9.999996 96.739989 15.899996 106.680989 33.117996C 116.621989 50.336996 110.722989 72.353996 93.503989 82.294996C 77.991989 91.250996 58.584989 87.349996 47.621989 73.898996L 24.987989 86.965996L 28.540989 93.119996Z"></path></g></g></g><g id="g-root-0.Vector_sy_13z9leh1mkzhmw-stroke" data-item-order="-122550" data-item-id="0.Vector_sy_13z9leh1mkzhmw" data-item-class="ScenePart Part Indexed_0 Fill Stroke ColorFillGray ColorStrokeBlack" data-item-index="0" data-renderer-id="0" transform="translate(206, 109.99609375)"><g id="0.Vector_sy_13z9leh1mkzhmw-stroke" fill="none" stroke-linecap="round" stroke-linejoin="round" stroke-miterlimit="4" stroke="#ffffff" stroke-width="2"><g><path d="M 154 81.999998C 154 42.235998 121.765 9.999998 82 9.999998C 42.236 9.999998 10 42.235998 10 81.999998C 10 121.764998 42.236 153.999998 82 153.999998C 121.764 153.999998 154 121.764998 154 81.999998Z"></path></g></g></g><g id="g-root-tx_cp_m7zkwp1mkzk07-stroke" data-item-order="0" data-item-id="tx_cp_m7zkwp1mkzk07" data-item-class="Label Stroke SceneTarget SceneTitle Title ColorStrokeBlack" data-item-index="none" data-renderer-id="0" transform="translate(122, 2)"></g><g id="g-root-tx__zjg3a11mkzif8-stroke" data-item-order="0" data-item-id="tx__zjg3a11mkzif8" data-item-class="Label Stroke SceneTarget Indexed ColorStrokeBlack" data-item-index="3" data-renderer-id="0" transform="translate(2, 86)"></g><g id="g-root-blac_18egmft1ml2ccg-stroke" data-item-order="0" data-item-id="blac_18egmft1ml2ccg" data-item-class="Icon Stroke SceneTarget Indexed InsideFill" data-item-index="3" data-renderer-id="0" transform="translate(108, 74)"><g id="blac_18egmft1ml2ccg-stroke" fill="none" stroke-linecap="round" stroke-linejoin="round" stroke-miterlimit="4" stroke="#17b0e3" stroke-width="2"><g><path d="M 26 34C 26 38.418278 29.581722 42 34 42C 38.418278 42 42 38.418278 42 34C 42 29.581722 38.418278 26 34 26C 29.581722 26 26 29.581722 26 34M 34 48L 34 57M 34 20L 34 11M 25.821999 34L 11 34M 57 34L 42.178001 34"></path></g></g></g><g id="g-root-doub_959pqx1ml0wei-stroke" data-item-order="0" data-item-id="doub_959pqx1ml0wei" data-item-class="Icon Stroke SceneTarget Indexed Indexed_1 InsideFill" data-item-index="1" data-renderer-id="0" transform="translate(400, 74)"><g id="doub_959pqx1ml0wei-stroke" fill="none" stroke-linecap="round" stroke-linejoin="round" stroke-miterlimit="4" stroke="#e15e5a" stroke-width="2"><g><path d="M 17 42L 14 42C 12.35 42 11 40.200001 11 38L 11 20C 11.00659 17.793596 12.793596 16.00659 15 16L 43 16C 45.200001 16 47 17.35 47 19L 47 22M 17 38L 16 38C 15.447716 38 15 37.552284 15 37L 15 21C 15 20.447716 15.447716 20 16 20L 42 20C 42.552284 20 43 20.447716 43 21L 43 22M 25 26L 53 26C 53 26 57 26 57 30L 57 48C 57 48 57 52 53 52L 25 52C 25 52 21 52 21 48L 21 30C 21 30 21 26 25 26M 26 30L 52 30C 52 30 53 30 53 31L 53 47C 53 47 53 48 52 48L 26 48C 26 48 25 48 25 47L 25 31C 25 31 25 30 26 30"></path></g></g></g><g id="g-root-tx_cp_m7zkwp1mkzk06-stroke" data-item-order="0" data-item-id="tx_cp_m7zkwp1mkzk06" data-item-class="Label Stroke SceneTarget Indexed Indexed_1 ColorStrokeBlack" data-item-index="1" data-renderer-id="0" transform="translate(470, 86)"></g><g id="g-root-1_1cz9x951ml0xkx-stroke" data-item-order="0" data-item-id="1_1cz9x951ml0xkx" data-item-class="Icon Stroke SceneTarget SceneEnd InsideFill InsideGrayFill ColorStrokeBlack" data-item-index="none" data-renderer-id="0" transform="translate(242, 145.99609375)"><g id="1_1cz9x951ml0xkx-stroke" fill="none" stroke-linecap="round" stroke-linejoin="round" stroke-miterlimit="4" stroke="#484848" stroke-width="2"><g><path d="M 44.509003 65.5L 32.508999 80.5L 56.509003 80.5L 44.509003 65.5ZM 77.509003 74.5L 13.762 48.094002M 27.262001 20.5C 27.262001 23.813709 24.575708 26.5 21.261999 26.5L 13.762 26.5L 13.762 14.5L 21.261999 14.5C 24.575708 14.5 27.262001 17.186291 27.262001 20.5ZM 27.262001 32.5C 27.262001 35.813709 24.575708 38.5 21.261999 38.5L 13.762 38.5L 13.762 26.5L 21.261999 26.5C 24.575708 26.5 27.262001 29.186291 27.262001 32.5ZM 18.261999 11.5L 18.261999 14.5M 18.261999 38.5L 18.261999 41.5M 27.262001 20.5C 27.262001 23.813709 24.575708 26.5 21.261999 26.5L 13.762 26.5L 13.762 14.5L 21.261999 14.5C 24.575708 14.5 27.262001 17.186291 27.262001 20.5ZM 27.262001 32.5C 27.262001 35.813709 24.575708 38.5 21.261999 38.5L 13.762 38.5L 13.762 26.5L 21.261999 26.5C 24.575708 26.5 27.262001 29.186291 27.262001 32.5ZM 18.261999 11.5L 18.261999 14.5M 18.261999 38.5L 18.261999 41.5M 78.262001 35.5L 71.823997 35.5C 69.245178 35.500931 67.005219 37.274372 66.412773 39.784218C 65.820328 42.294064 67.030807 44.881973 69.337006 46.035999L 75.186996 48.961002C 77.496719 50.113304 78.710152 52.703247 78.117317 55.215439C 77.52449 57.727638 75.281197 59.501862 72.700005 59.5L 66.262001 59.5M 70.762001 59.5L 70.762001 64M 73.762001 31L 73.762001 35.5"></path></g></g></g><g id="g-root-bomb_13yn4bd1ml2ccv-stroke" data-item-order="0" data-item-id="bomb_13yn4bd1ml2ccv" data-item-class="Icon Stroke SceneTarget Indexed InsideFill" data-item-index="2" data-renderer-id="0" transform="translate(254, 326)"><g id="bomb_13yn4bd1ml2ccv-stroke" fill="none" stroke-linecap="round" stroke-linejoin="round" stroke-miterlimit="4" stroke="#795ee3" stroke-width="2"><g><path d="M 52.400002 20C 52.362648 16.649437 49.61657 13.963346 46.265999 14C 44.932861 14.002306 43.636517 14.437462 42.571999 15.24C 40.53196 12.567478 37.362167 10.999353 34 10.999353C 30.637836 10.999353 27.468044 12.567478 25.428001 15.24C 24.363482 14.437462 23.067139 14.002306 21.734001 14C 18.383429 13.963346 15.637349 16.649437 15.6 20M 15.6 20C 13.960314 19.951109 12.423818 20.797951 11.589535 22.210373C 10.755253 23.622795 10.755253 25.377205 11.589535 26.789627C 12.423818 28.202049 13.960314 29.048891 15.6 29L 21 29M 52.400002 20C 54.039684 19.951109 55.576183 20.797951 56.410465 22.210373C 57.244747 23.622795 57.244747 25.377205 56.410465 26.789627C 55.576183 28.202049 54.039684 29.048891 52.399998 29L 47 29M 27 28L 27 33M 34 28L 34 31M 41 28L 41 33M 21 57C 23.67 57 27 54.574001 27 49M 47 57C 44.330002 57 41 54.574001 41 49M 34 46L 34 57M 42.5 45C 44.709141 45 46.5 43.209141 46.5 41C 46.5 38.790863 44.709141 37 42.5 37L 38.942001 37C 37.816078 35.727905 36.198799 34.999573 34.5 34.999573C 32.801201 34.999573 31.18392 35.727905 30.058001 37L 26.5 37C 24.290861 37 22.5 38.790863 22.5 41C 22.5 43.209141 24.290861 45 26.5 45"></path></g></g></g><g id="g-root-tx__qnt3151mkzj7x-stroke" data-item-order="0" data-item-id="tx__qnt3151mkzj7x" data-item-class="Label Stroke SceneTarget Indexed ColorStrokeBlack" data-item-index="2" data-renderer-id="0" transform="translate(194, 398)"></g></g></g></svg>