<?xml version="1.0" encoding="utf-8" standalone="yes"?>
<!DOCTYPE svg PUBLIC "-//W3C//DTD SVG 1.1//EN" "http://www.w3.org/Graphics/SVG/1.1/DTD/svg11.dtd">
<svg width="720" height="206" viewBox="0 0 720 206" style="fill:none;stroke:none;fill-rule:evenodd;clip-rule:evenodd;stroke-linecap:round;stroke-linejoin:round;stroke-miterlimit:1.5;" version="1.1" xmlns="http://www.w3.org/2000/svg" xmlns:xlink="http://www.w3.org/1999/xlink"><style id="fontImports">@import url("https://fonts.googleapis.com/css2?family=Roboto:wght@400;700&amp;display=block");</style><rect id="" x="0" y="0" width="720" height="206" style="fill: #ffffff;"></rect><g id="items" style="isolation: isolate"><g id="blend" style="mix-blend-mode:multiply"><g id="g-root--1.cu_sy_mdl8ix1mvd4p4-fill" data-item-order="-86396" data-item-id="-1.cu_sy_mdl8ix1mvd4p4" data-item-class="ScenePart Part Fill Stroke ColorFillGray ColorStrokeGray" data-item-index="-1" data-renderer-id="0" transform="translate(205, 3)"><g id="-1.cu_sy_mdl8ix1mvd4p4-fill" stroke="none" fill="#f6f6f6"><g><path d="M 125 34L 101 10L 10 166L 34 190L 125 34ZM 125 34L 34 190L 216 190L 125 34Z"></path></g></g></g><g id="g-root-0.line-start_sy_mdl8ix1mvd4p5-fill" data-item-order="-86393" data-item-id="0.line-start_sy_mdl8ix1mvd4p5" data-item-class="ScenePart Part Indexed_0 Stroke" data-item-index="0" data-renderer-id="0" transform="translate(182, 105)"></g><g id="g-root-0.cr-small_cr_hxrqeh1mvd5he-fill" data-item-order="-86392" data-item-id="0.cr-small_cr_hxrqeh1mvd5he" data-item-class="Shape Stroke Fill ScenePart Part Indexed_0" data-item-index="0" data-renderer-id="0" transform="translate(110, 69)"><g id="0.cr-small_cr_hxrqeh1mvd5he-fill" stroke="none" fill="#f0f0f0"><g><path d="M 10 46C 10 65.882251 26.117749 82 46 82C 65.882251 82 82 65.882251 82 46C 82 26.117749 65.882251 10 46 10C 26.117749 10 10 26.117749 10 46"></path></g></g></g><g id="g-root-2.line_sy_924q5l1mvd6a5-fill" data-item-order="-86389" data-item-id="2.line_sy_924q5l1mvd6a5" data-item-class="ScenePart Part Indexed Stroke" data-item-index="2" data-renderer-id="0" transform="translate(274.5, 105)"></g><g id="g-root-2.cr-small_cr_4mb8151mvd72e-fill" data-item-order="-86388" data-item-id="2.cr-small_cr_4mb8151mvd72e" data-item-class="Shape Stroke Fill ScenePart Part Indexed" data-item-index="2" data-renderer-id="0" transform="translate(530, 117)"><g id="2.cr-small_cr_4mb8151mvd72e-fill" stroke="none" fill="#fef2e6"><g><path d="M 10 40C 10.000002 56.568544 23.431459 70.000002 40.000002 70.000002C 56.568544 70.000002 70.000002 56.568544 70.000002 40.000002C 70.000002 23.431459 56.568544 10.000002 40.000002 10.000002C 23.431459 10.000002 10.000002 23.431459 10.000002 40.000002"></path></g></g></g><g id="g-root-1.line_sy_hxrqeh1mvd5hf-fill" data-item-order="-86385" data-item-id="1.line_sy_hxrqeh1mvd5hf" data-item-class="ScenePart Part Indexed Indexed_1 Stroke" data-item-index="1" data-renderer-id="0" transform="translate(274.5, 63)"></g><g id="g-root-1.cr-small_cr_924q5l1mvd6a4-fill" data-item-order="-86384" data-item-id="1.cr-small_cr_924q5l1mvd6a4" data-item-class="Shape Stroke Fill ScenePart Part Indexed Indexed_1" data-item-index="1" data-renderer-id="0" transform="translate(530, 32.99993896484375)"><g id="1.cr-small_cr_924q5l1mvd6a4-fill" stroke="none" fill="#fffce6"><g><path d="M 10 40C 10.000002 56.568544 23.431459 70.000002 40.000002 70.000002C 56.568544 70.000002 70.000002 56.568544 70.000002 40.000002C 70.000002 23.431459 56.568544 10.000002 40.000002 10.000002C 23.431459 10.000002 10.000002 23.431459 10.000002 40.000002"></path></g></g></g><g id="g-root-grav_4o6nah1mvel1l-fill" data-item-order="0" data-item-id="grav_4o6nah1mvel1l" data-item-class="Icon Stroke SceneTarget Indexed Indexed_1 InsideFill InsideColorFill" data-item-index="1" data-renderer-id="0" transform="translate(542, 45)"></g><g id="g-root-tx__18lb8891mvd7nl-fill" data-item-order="0" data-item-id="tx__18lb8891mvd7nl" data-item-class="Label Stroke SceneTarget Indexed Indexed_1" data-item-index="1" data-renderer-id="0" transform="translate(602, 51)"><g id="tx__18lb8891mvd7nl-fill" stroke="none" fill="#484848"><g><text style="font: 20px Roboto, sans-serif; white-space: pre;"><tspan x="12" y="33.5" dominant-baseline="ideographic">양자 중력</tspan></text></g></g></g><g id="g-root-tx__1qcl8q11mvd5af-fill" data-item-order="0" data-item-id="tx__1qcl8q11mvd5af" data-item-class="Label Stroke SceneTarget SceneStart" data-item-index="none" data-renderer-id="0" transform="translate(2, 93)"><g id="tx__1qcl8q11mvd5af-fill" stroke="none" fill="#484848"><g><text style="font: 20px Roboto, sans-serif; white-space: pre;"><tspan x="12.55" y="33.5" dominant-baseline="ideographic">중력 복잡성</tspan></text></g></g></g><g id="g-root-hole_4o6nah1mvel1m-fill" data-item-order="0" data-item-id="hole_4o6nah1mvel1m" data-item-class="Icon Stroke SceneTarget SceneStart InsideFill" data-item-index="none" data-renderer-id="0" transform="translate(122, 81)"></g><g id="g-root-1_hzn5nt1mvejgo-fill" data-item-order="0" data-item-id="1_hzn5nt1mvejgo" data-item-class="Icon Stroke SceneTarget Indexed InsideFill InsideColorFill" data-item-index="2" data-renderer-id="0" transform="translate(542, 129)"></g><g id="g-root-tx__1d14qcp1mvd6vc-fill" data-item-order="0" data-item-id="tx__1d14qcp1mvd6vc" data-item-class="Label Stroke SceneTarget Indexed" data-item-index="2" data-renderer-id="0" transform="translate(602, 135)"><g id="tx__1d14qcp1mvd6vc-fill" stroke="none" fill="#484848"><g><text style="font: 20px Roboto, sans-serif; white-space: pre;"><tspan x="12" y="33.5" dominant-baseline="ideographic">암흑 에너지</tspan></text></g></g></g><g id="g-root--1.cu_sy_mdl8ix1mvd4p4-stroke" data-item-order="-86396" data-item-id="-1.cu_sy_mdl8ix1mvd4p4" data-item-class="ScenePart Part Fill Stroke ColorFillGray ColorStrokeGray" data-item-index="-1" data-renderer-id="0" transform="translate(205, 3)"><g id="-1.cu_sy_mdl8ix1mvd4p4-stroke" fill="none" stroke-linecap="round" stroke-linejoin="round" stroke-miterlimit="4" stroke="#888888" stroke-width="2"><g><path d="M 125 34L 101 10L 10 166L 34 190L 125 34ZM 125 34L 34 190L 216 190L 125 34Z"></path></g></g></g><g id="g-root-0.line-start_sy_mdl8ix1mvd4p5-stroke" data-item-order="-86393" data-item-id="0.line-start_sy_mdl8ix1mvd4p5" data-item-class="ScenePart Part Indexed_0 Stroke" data-item-index="0" data-renderer-id="0" transform="translate(182, 105)"><g id="0.line-start_sy_mdl8ix1mvd4p5-stroke" fill="none" stroke-linecap="round" stroke-linejoin="round" stroke-miterlimit="4" stroke="#484848" stroke-width="2"><g><path d="M 10 10L 102.5 10"></path></g></g></g><g id="g-root-0.cr-small_cr_hxrqeh1mvd5he-stroke" data-item-order="-86392" data-item-id="0.cr-small_cr_hxrqeh1mvd5he" data-item-class="Shape Stroke Fill ScenePart Part Indexed_0" data-item-index="0" data-renderer-id="0" transform="translate(110, 69)"><g id="0.cr-small_cr_hxrqeh1mvd5he-stroke" fill="none" stroke-linecap="round" stroke-linejoin="round" stroke-miterlimit="4" stroke="#484848" stroke-width="2"><g><path d="M 10 46C 10 65.882251 26.117749 82 46 82C 65.882251 82 82 65.882251 82 46C 82 26.117749 65.882251 10 46 10C 26.117749 10 10 26.117749 10 46"></path></g></g></g><g id="g-root-2.line_sy_924q5l1mvd6a5-stroke" data-item-order="-86389" data-item-id="2.line_sy_924q5l1mvd6a5" data-item-class="ScenePart Part Indexed Stroke" data-item-index="2" data-renderer-id="0" transform="translate(274.5, 105)"><g id="2.line_sy_924q5l1mvd6a5-stroke" fill="none" stroke-linecap="round" stroke-linejoin="round" stroke-miterlimit="4" stroke="#dd8433" stroke-width="2"><g><path d="M 257.55 51.55L 104.5 16L 10 10"></path><path d="M 250.2 56.5L 258 51.7L 253.2 43.9" stroke-dasharray="none"></path></g></g></g><g id="g-root-2.cr-small_cr_4mb8151mvd72e-stroke" data-item-order="-86388" data-item-id="2.cr-small_cr_4mb8151mvd72e" data-item-class="Shape Stroke Fill ScenePart Part Indexed" data-item-index="2" data-renderer-id="0" transform="translate(530, 117)"><g id="2.cr-small_cr_4mb8151mvd72e-stroke" fill="none" stroke-linecap="round" stroke-linejoin="round" stroke-miterlimit="4" stroke="#dd8433" stroke-width="2"><g><path d="M 10 40C 10.000002 56.568544 23.431459 70.000002 40.000002 70.000002C 56.568544 70.000002 70.000002 56.568544 70.000002 40.000002C 70.000002 23.431459 56.568544 10.000002 40.000002 10.000002C 23.431459 10.000002 10.000002 23.431459 10.000002 40.000002"></path></g></g></g><g id="g-root-1.line_sy_hxrqeh1mvd5hf-stroke" data-item-order="-86385" data-item-id="1.line_sy_hxrqeh1mvd5hf" data-item-class="ScenePart Part Indexed Indexed_1 Stroke" data-item-index="1" data-renderer-id="0" transform="translate(274.5, 63)"><g id="1.line_sy_hxrqeh1mvd5hf-stroke" fill="none" stroke-linecap="round" stroke-linejoin="round" stroke-miterlimit="4" stroke="#e3cd09" stroke-width="2"><g><path d="M 10 52L 97.5 46L 257.55 10.43"></path><path d="M 253.1 18.1L 258 10.3L 250.3 5.4" stroke-dasharray="none"></path></g></g></g><g id="g-root-1.cr-small_cr_924q5l1mvd6a4-stroke" data-item-order="-86384" data-item-id="1.cr-small_cr_924q5l1mvd6a4" data-item-class="Shape Stroke Fill ScenePart Part Indexed Indexed_1" data-item-index="1" data-renderer-id="0" transform="translate(530, 32.99993896484375)"><g id="1.cr-small_cr_924q5l1mvd6a4-stroke" fill="none" stroke-linecap="round" stroke-linejoin="round" stroke-miterlimit="4" stroke="#e3cd09" stroke-width="2"><g><path d="M 10 40C 10.000002 56.568544 23.431459 70.000002 40.000002 70.000002C 56.568544 70.000002 70.000002 56.568544 70.000002 40.000002C 70.000002 23.431459 56.568544 10.000002 40.000002 10.000002C 23.431459 10.000002 10.000002 23.431459 10.000002 40.000002"></path></g></g></g><g id="g-root-grav_4o6nah1mvel1l-stroke" data-item-order="0" data-item-id="grav_4o6nah1mvel1l" data-item-class="Icon Stroke SceneTarget Indexed Indexed_1 InsideFill InsideColorFill" data-item-index="1" data-renderer-id="0" transform="translate(542, 45)"><g id="grav_4o6nah1mvel1l-stroke" fill="none" stroke-linecap="round" stroke-linejoin="round" stroke-miterlimit="4" stroke="#e3cd09" stroke-width="2"><g><path d="M 28 36.229L 28 44.479M 24.25 41.479L 28 44.479L 31.75 41.479M 16 30.979L 16 39.229M 12.25 36.229L 16 39.229L 19.75 36.229M 40 30.979L 40 39.229M 43.75 36.229L 40 39.229L 36.25 36.229M 22.8745 28.526501C 24.074501 29.559999 22.585001 29.671001 24.985001 31.737999C 27.385 33.805 33.591999 31.178501 36.348999 27.979C 39.105999 24.779499 39.175003 20.657499 36.775002 18.5905C 34.375 16.5235 34.012001 17.2195 33.212502 16.529501C 32.413002 15.839499 32.830002 14.77 30.431499 12.7C 28.033001 10.63 23.965 11.3095 21.208 14.509C 18.451 17.7085 16.987 24.849998 19.3855 26.914C 21.784 28.978001 21.6745 27.493 22.8745 28.526501ZM 33.212502 16.529501L 36.0205 12.937"></path></g></g></g><g id="g-root-tx__18lb8891mvd7nl-stroke" data-item-order="0" data-item-id="tx__18lb8891mvd7nl" data-item-class="Label Stroke SceneTarget Indexed Indexed_1" data-item-index="1" data-renderer-id="0" transform="translate(602, 51)"></g><g id="g-root-tx__1qcl8q11mvd5af-stroke" data-item-order="0" data-item-id="tx__1qcl8q11mvd5af" data-item-class="Label Stroke SceneTarget SceneStart" data-item-index="none" data-renderer-id="0" transform="translate(2, 93)"></g><g id="g-root-hole_4o6nah1mvel1m-stroke" data-item-order="0" data-item-id="hole_4o6nah1mvel1m" data-item-class="Icon Stroke SceneTarget SceneStart InsideFill" data-item-index="none" data-renderer-id="0" transform="translate(122, 81)"><g id="hole_4o6nah1mvel1m-stroke" fill="none" stroke-linecap="round" stroke-linejoin="round" stroke-miterlimit="4" stroke="#484848" stroke-width="2"><g><path d="M 29.686001 22.686001C 35.934471 16.437847 46.064964 16.438023 52.313221 22.68639C 58.561481 28.934755 58.561481 39.065247 52.313221 45.31361C 46.064964 51.561977 35.934471 51.562153 29.686001 45.313999M 25 34C 25 38.418278 27.462435 42 30.5 42C 33.537567 42 36 38.418278 36 34C 36 29.581722 33.537567 26 30.5 26C 27.462435 26 25 29.581722 25 34M 37.351997 26L 38.639999 26C 40.192429 26.000105 41.723511 26.361649 43.112 27.056L 57 34M 11 26L 23.352001 26M 37.351997 42L 38.639999 42C 40.192429 41.999893 41.723511 41.638351 43.112 40.944L 57 34M 11 42L 23.352001 42M 29 34L 57 34M 14 23L 17 26L 14 29M 17 31L 20 34L 17 37M 14 39L 17 42L 14 45M 11 33.989998L 21 33.989998"></path></g></g></g><g id="g-root-1_hzn5nt1mvejgo-stroke" data-item-order="0" data-item-id="1_hzn5nt1mvejgo" data-item-class="Icon Stroke SceneTarget Indexed InsideFill InsideColorFill" data-item-index="2" data-renderer-id="0" transform="translate(542, 129)"><g id="1_hzn5nt1mvejgo-stroke" fill="none" stroke-linecap="round" stroke-linejoin="round" stroke-miterlimit="4" stroke="#dd8433" stroke-width="2"><g><path d="M 11.125 28C 11.125 37.319805 18.680195 44.875 28 44.875C 37.319805 44.875 44.875 37.319805 44.875 28C 44.875 18.680195 37.319805 11.125 28 11.125C 18.680195 11.125 11.125 18.680195 11.125 28M 11.125 28.375L 44.875 28.375M 19.748501 20.5C 19.748501 22.985283 21.763218 25 24.248501 25C 26.733782 25 28.748501 22.985283 28.748501 20.5C 28.748501 18.014719 26.733782 16 24.248501 16C 21.763218 16 19.748501 18.014719 19.748501 20.5M 13.7425 35.875L 27.248499 35.875M 25.375 40.375L 38.881001 40.375M 35.498501 20.5L 43.100498 20.5M 23.498499 20.5C 23.498499 20.914213 23.834286 21.25 24.248499 21.25C 24.662714 21.25 24.998499 20.914213 24.998499 20.5C 24.998499 20.085787 24.662714 19.75 24.248499 19.75C 23.834286 19.75 23.498499 20.085787 23.498499 20.5"></path></g></g></g><g id="g-root-tx__1d14qcp1mvd6vc-stroke" data-item-order="0" data-item-id="tx__1d14qcp1mvd6vc" data-item-class="Label Stroke SceneTarget Indexed" data-item-index="2" data-renderer-id="0" transform="translate(602, 135)"></g></g></g></svg>