<?xml version="1.0" encoding="utf-8" standalone="yes"?>
<!DOCTYPE svg PUBLIC "-//W3C//DTD SVG 1.1//EN" "http://www.w3.org/Graphics/SVG/1.1/DTD/svg11.dtd">
<svg width="673" height="281" viewBox="0 0 673 281" style="fill:none;stroke:none;fill-rule:evenodd;clip-rule:evenodd;stroke-linecap:round;stroke-linejoin:round;stroke-miterlimit:1.5;" version="1.1" xmlns="http://www.w3.org/2000/svg" xmlns:xlink="http://www.w3.org/1999/xlink"><style id="fontImports">@import url("https://fonts.googleapis.com/css2?family=Shantell+Sans:wght@300..800&amp;display=block");</style><rect id="" x="0" y="0" width="673" height="281" style="fill: #ffffff;"></rect><g id="items" style="isolation: isolate"><g id="blend" style="mix-blend-mode:multiply"><g id="g-root--1.line_sy_5vuzt1n52y32-fill" data-item-order="-3883" data-item-id="-1.line_sy_5vuzt1n52y32" data-item-class="ScenePart Part Stroke ColorStrokeBlack" data-item-index="-1" data-renderer-id="0" transform="translate(582, 254)"></g><g id="g-root--1.vector_sy_5vuzt1n52y33-fill" data-item-order="-3881" data-item-id="-1.vector_sy_5vuzt1n52y33" data-item-class="ScenePart Part Stroke ColorStrokeBlack" data-item-index="-1" data-renderer-id="0" transform="translate(3, 253.99609375)"></g><g id="g-root-4.cu-smallCircle_sy_1ur6euh1n52yob-fill" data-item-order="-3879" data-item-id="4.cu-smallCircle_sy_1ur6euh1n52yob" data-item-class="ScenePart Part Indexed Stroke ColorStrokeBlack" data-item-index="4" data-renderer-id="0" transform="translate(576, 251)"></g><g id="g-root-3.cu-smallCircle_sy_1ur6euh1n52yoa-fill" data-item-order="-3877" data-item-id="3.cu-smallCircle_sy_1ur6euh1n52yoa" data-item-class="ScenePart Part Indexed Stroke ColorStrokeBlack" data-item-index="3" data-renderer-id="0" transform="translate(408, 251)"></g><g id="g-root-2.cu-smallCircle_sy_1ur6euh1n52yo9-fill" data-item-order="-3875" data-item-id="2.cu-smallCircle_sy_1ur6euh1n52yo9" data-item-class="ScenePart Part Indexed Stroke ColorStrokeBlack" data-item-index="2" data-renderer-id="0" transform="translate(240, 251)"></g><g id="g-root-1.cu-smallCircle_sy_4lpd491n52y2o-fill" data-item-order="-3873" data-item-id="1.cu-smallCircle_sy_4lpd491n52y2o" data-item-class="ScenePart Part Indexed Indexed_1 Stroke ColorStrokeBlack" data-item-index="1" data-renderer-id="0" transform="translate(72, 251)"></g><g id="g-root-tx__18kpdbd1n52yo0-fill" data-item-order="0" data-item-id="tx__18kpdbd1n52yo0" data-item-class="Label Stroke SceneTarget SceneTitle Title ColorStrokeBlack" data-item-index="none" data-renderer-id="0" transform="translate(123, 2)"><g id="tx__18kpdbd1n52yo0-fill" stroke="none" fill="#484848"><g><text style="font: bold 25px &quot;Shantell Sans&quot;, cursive; white-space: pre;"><tspan x="15.2" y="44.5" dominant-baseline="ideographic">힉스 보손 발견과 물질 질량의 기원 이해</tspan></text></g></g></g><g id="g-root-tx__1d0ivft1n52xvr-fill" data-item-order="0" data-item-id="tx__1d0ivft1n52xvr" data-item-class="Label Stroke SceneTarget Indexed Indexed_1 ColorStrokeBlack" data-item-index="1" data-renderer-id="0" transform="translate(3, 110)"><g id="tx__1d0ivft1n52xvr-fill" stroke="none" fill="#484848"><g><text style="font: 20px &quot;Shantell Sans&quot;, cursive; white-space: pre;"><tspan x="14.63" y="35.5" dominant-baseline="ideographic">힉스 장의 양자화</tspan><tspan x="23.28" y="59.5" dominant-baseline="ideographic">된 상태인 힉스 </tspan><tspan x="64.7" y="83.5" dominant-baseline="ideographic">보손</tspan></text></g></g></g><g id="g-root-tx__1hgcdk91n52x3h-fill" data-item-order="0" data-item-id="tx__1hgcdk91n52x3h" data-item-class="Label Stroke SceneTarget Indexed ColorStrokeBlack" data-item-index="3" data-renderer-id="0" transform="translate(339, 110)"><g id="tx__1hgcdk91n52x3h-fill" stroke="none" fill="#484848"><g><text style="font: 20px &quot;Shantell Sans&quot;, cursive; white-space: pre;"><tspan x="12.81" y="35.5" dominant-baseline="ideographic">표준 모형의 마지</tspan><tspan x="12.81" y="59.5" dominant-baseline="ideographic">막 퍼즐의 중요한 </tspan><tspan x="62.88" y="83.5" dominant-baseline="ideographic">전환</tspan></text></g></g></g><g id="g-root-tx_cern2012_1hgcdk91n52x3i-fill" data-item-order="0" data-item-id="tx_cern2012_1hgcdk91n52x3i" data-item-class="Label Stroke SceneTarget Indexed ColorStrokeBlack" data-item-index="2" data-renderer-id="0" transform="translate(171, 134)"><g id="tx_cern2012_1hgcdk91n52x3i-fill" stroke="none" fill="#484848"><g><text style="font: 20px &quot;Shantell Sans&quot;, cursive; white-space: pre;"><tspan x="22.81" y="35.5" dominant-baseline="ideographic">힉스 보손 발견 </tspan><tspan x="16.93" y="59.5" dominant-baseline="ideographic">(CERN, 2012)</tspan></text></g></g></g><g id="g-root-tx__1qbzdt51n52was-fill" data-item-order="0" data-item-id="tx__1qbzdt51n52was" data-item-class="Label Stroke SceneTarget Indexed ColorStrokeBlack" data-item-index="4" data-renderer-id="0" transform="translate(507, 134)"><g id="tx__1qbzdt51n52was-fill" stroke="none" fill="#484848"><g><text style="font: 20px &quot;Shantell Sans&quot;, cursive; white-space: pre;"><tspan x="12.81" y="35.5" dominant-baseline="ideographic">물질 질량의 기원 </tspan><tspan x="62.88" y="59.5" dominant-baseline="ideographic">이해</tspan></text></g></g></g><g id="g-root-thre_1hegyax1n54d1d-fill" data-item-order="0" data-item-id="thre_1hegyax1n54d1d" data-item-class="Icon Stroke SceneTarget Indexed Indexed_1 ColorStrokeBlack" data-item-index="1" data-renderer-id="0" transform="translate(51, 194)"></g><g id="g-root-tech_zitm7d1n54c25-fill" data-item-order="0" data-item-id="tech_zitm7d1n54c25" data-item-class="Icon Stroke SceneTarget Indexed ColorStrokeBlack" data-item-index="2" data-renderer-id="0" transform="translate(219, 194)"></g><g id="g-root-1_18jgf551n54aoa-fill" data-item-order="0" data-item-id="1_18jgf551n54aoa" data-item-class="Icon Stroke SceneTarget Indexed ColorStrokeBlack" data-item-index="3" data-renderer-id="0" transform="translate(387, 194)"></g><g id="g-root-1_4mwtl1n54avb-fill" data-item-order="0" data-item-id="1_4mwtl1n54avb" data-item-class="Icon Stroke SceneTarget Indexed ColorStrokeBlack" data-item-index="4" data-renderer-id="0" transform="translate(555, 194)"></g><g id="g-root--1.line_sy_5vuzt1n52y32-stroke" data-item-order="-3883" data-item-id="-1.line_sy_5vuzt1n52y32" data-item-class="ScenePart Part Stroke ColorStrokeBlack" data-item-index="-1" data-renderer-id="0" transform="translate(582, 254)"><g id="-1.line_sy_5vuzt1n52y32-stroke" fill="none" stroke-linecap="round" stroke-linejoin="round" stroke-miterlimit="4" stroke="#484848" stroke-width="2"><g><path d="M 77 10C 54.7 9.5 32.3 11.5 10 10"></path><path d="M 77 10L 10 10"></path><path d="M 71 16.5C 73.4 14.6 74.7 11.2 77.5 10C 75.1 8.1 73.7 5 71 3.5" stroke-dasharray="none"></path><path d="M 71 16.5L 77.5 10L 71 3.5" stroke-dasharray="none"></path></g></g></g><g id="g-root--1.vector_sy_5vuzt1n52y33-stroke" data-item-order="-3881" data-item-id="-1.vector_sy_5vuzt1n52y33" data-item-class="ScenePart Part Stroke ColorStrokeBlack" data-item-index="-1" data-renderer-id="0" transform="translate(3, 253.99609375)"><g id="-1.vector_sy_5vuzt1n52y33-stroke" fill="none" stroke-linecap="round" stroke-linejoin="round" stroke-miterlimit="4" stroke="#484848" stroke-width="2"><g><path d="M 581 10.003906C 562.9 9.103906 544.8 10.303906 526.8 10.003906C 507.5 9.603906 488.2 8.903906 468.9 10.003906C 453 10.903906 437 9.603906 421 10.003906C 394.6 10.603906 368.1 11.603906 341.8 10.003906C 312.2 8.203906 282.6 10.503906 253 10.003906C 237.6 9.803906 222.1 11.503906 206.8 10.003906C 193.6 8.703906 180.3 10.303906 167 10.003906C 152.9 9.703906 138.9 10.603906 124.8 10.003906C 111.6 9.403906 98.2 8.403906 85 10.003906C 60.2 13.003906 34.9 8.203906 10 10.003906"></path><path d="M 581 10.003906L 421 10.003906L 253 10.003906L 85 10.003906L 10 10.003906"></path><path d="M 575 16.503906C 577.7 15.103906 579.1 11.903906 581.5 10.003906C 579.1 8.103906 577.3 5.503906 575 3.503906" stroke-dasharray="none"></path><path d="M 575 16.503906L 581.5 10.003906L 575 3.503906" stroke-dasharray="none"></path></g></g></g><g id="g-root-4.cu-smallCircle_sy_1ur6euh1n52yob-stroke" data-item-order="-3879" data-item-id="4.cu-smallCircle_sy_1ur6euh1n52yob" data-item-class="ScenePart Part Indexed Stroke ColorStrokeBlack" data-item-index="4" data-renderer-id="0" transform="translate(576, 251)"><g id="4.cu-smallCircle_sy_1ur6euh1n52yob-stroke" fill="none" stroke-linecap="round" stroke-linejoin="round" stroke-miterlimit="4" stroke="#484848" stroke-width="4"><g><path d="M 16 13C 16.5 14.6 14.6 15.7 13 16C 11.4 16.3 10.1 14.6 10 13C 9.9 11.3 11.4 9.7 13 10C 14.6 10.3 16 11.3 16 13"></path><path d="M 16 13C 16 14.6569 14.6569 16 13 16C 11.3431 16 10 14.6569 10 13C 10 11.3431 11.3431 10 13 10C 14.6569 10 16 11.3431 16 13Z"></path></g></g></g><g id="g-root-3.cu-smallCircle_sy_1ur6euh1n52yoa-stroke" data-item-order="-3877" data-item-id="3.cu-smallCircle_sy_1ur6euh1n52yoa" data-item-class="ScenePart Part Indexed Stroke ColorStrokeBlack" data-item-index="3" data-renderer-id="0" transform="translate(408, 251)"><g id="3.cu-smallCircle_sy_1ur6euh1n52yoa-stroke" fill="none" stroke-linecap="round" stroke-linejoin="round" stroke-miterlimit="4" stroke="#484848" stroke-width="4"><g><path d="M 16 13C 15.5 14.6 14.7 16 13 16C 11.3 16 9.8 14.6 10 13C 10.2 11.4 11.4 10.5 13 10C 14.6 9.5 16.4 11.4 16 13"></path><path d="M 16 13C 16 14.6569 14.6569 16 13 16C 11.3431 16 10 14.6569 10 13C 10 11.3431 11.3431 10 13 10C 14.6569 10 16 11.3431 16 13Z"></path></g></g></g><g id="g-root-2.cu-smallCircle_sy_1ur6euh1n52yo9-stroke" data-item-order="-3875" data-item-id="2.cu-smallCircle_sy_1ur6euh1n52yo9" data-item-class="ScenePart Part Indexed Stroke ColorStrokeBlack" data-item-index="2" data-renderer-id="0" transform="translate(240, 251)"><g id="2.cu-smallCircle_sy_1ur6euh1n52yo9-stroke" fill="none" stroke-linecap="round" stroke-linejoin="round" stroke-miterlimit="4" stroke="#484848" stroke-width="4"><g><path d="M 16 13C 16.1 14.6 14.6 16.4 13 16C 11.4 15.6 9.7 14.6 10 13C 10.3 11.4 11.4 10.6 13 10C 14.5 9.4 15.7 11.4 16 13"></path><path d="M 16 13C 16 14.6569 14.6569 16 13 16C 11.3431 16 10 14.6569 10 13C 10 11.3431 11.3431 10 13 10C 14.6569 10 16 11.3431 16 13Z"></path></g></g></g><g id="g-root-1.cu-smallCircle_sy_4lpd491n52y2o-stroke" data-item-order="-3873" data-item-id="1.cu-smallCircle_sy_4lpd491n52y2o" data-item-class="ScenePart Part Indexed Indexed_1 Stroke ColorStrokeBlack" data-item-index="1" data-renderer-id="0" transform="translate(72, 251)"><g id="1.cu-smallCircle_sy_4lpd491n52y2o-stroke" fill="none" stroke-linecap="round" stroke-linejoin="round" stroke-miterlimit="4" stroke="#484848" stroke-width="4"><g><path d="M 16 13C 16.4 14.6 14.6 15.7 13 16C 11.4 16.3 10.3 14.6 10 13C 9.8 11.4 11.4 9.7 13 10C 14.6 10.3 15.8 11.4 16 13"></path><path d="M 16 13C 16 14.6569 14.6569 16 13 16C 11.3431 16 10 14.6569 10 13C 10 11.3431 11.3431 10 13 10C 14.6569 10 16 11.3431 16 13Z"></path></g></g></g><g id="g-root-tx__18kpdbd1n52yo0-stroke" data-item-order="0" data-item-id="tx__18kpdbd1n52yo0" data-item-class="Label Stroke SceneTarget SceneTitle Title ColorStrokeBlack" data-item-index="none" data-renderer-id="0" transform="translate(123, 2)"></g><g id="g-root-tx__1d0ivft1n52xvr-stroke" data-item-order="0" data-item-id="tx__1d0ivft1n52xvr" data-item-class="Label Stroke SceneTarget Indexed Indexed_1 ColorStrokeBlack" data-item-index="1" data-renderer-id="0" transform="translate(3, 110)"></g><g id="g-root-tx__1hgcdk91n52x3h-stroke" data-item-order="0" data-item-id="tx__1hgcdk91n52x3h" data-item-class="Label Stroke SceneTarget Indexed ColorStrokeBlack" data-item-index="3" data-renderer-id="0" transform="translate(339, 110)"></g><g id="g-root-tx_cern2012_1hgcdk91n52x3i-stroke" data-item-order="0" data-item-id="tx_cern2012_1hgcdk91n52x3i" data-item-class="Label Stroke SceneTarget Indexed ColorStrokeBlack" data-item-index="2" data-renderer-id="0" transform="translate(171, 134)"></g><g id="g-root-tx__1qbzdt51n52was-stroke" data-item-order="0" data-item-id="tx__1qbzdt51n52was" data-item-class="Label Stroke SceneTarget Indexed ColorStrokeBlack" data-item-index="4" data-renderer-id="0" transform="translate(507, 134)"></g><g id="g-root-thre_1hegyax1n54d1d-stroke" data-item-order="0" data-item-id="thre_1hegyax1n54d1d" data-item-class="Icon Stroke SceneTarget Indexed Indexed_1 ColorStrokeBlack" data-item-index="1" data-renderer-id="0" transform="translate(51, 194)"><g id="thre_1hegyax1n54d1d-stroke" fill="none" stroke-linecap="round" stroke-linejoin="round" stroke-miterlimit="4" stroke="#484848" stroke-width="2"><g><path d="M 15 17C 23.6 16.4 32.400002 15.4 41 17C 42.799999 28.200001 43.200001 39.799999 41 51C 32.400002 50 23.4 53.200001 15 51C 14.6 39.599998 16.200001 28.200001 15 17M 41 45C 32.400002 44.599998 23.6 44.400002 15 45M 41 38C 32.599998 39.799999 23.6 38.599998 15 38M 41 31C 32.400002 29.6 23.6 29.200001 15 31M 41 24C 32.400002 22.6 23.4 22 15 24M 11 14C 11.4 15.6 12.4 17.4 14 17C 23 14.4 32.799999 18.200001 42 17C 43.599998 16.799999 45.400002 15.6 45 14C 44.599998 12.4 43.599998 10.4 42 11C 33.200001 14.2 23.200001 12.8 14 11C 12.4 10.6 11.4 12.4 11 14M 11 54C 10.6 55.599998 12.4 57 14 57C 23.4 56.599998 33 54.799999 42 57C 43.599998 57.400002 44.400002 55.599998 45 54C 45.599998 52.400002 43.599998 50.400002 42 51C 33.400002 54.400002 23.200001 52 14 51C 12.4 50.799999 11.6 52.400002 11 54M 41 45C 42.200001 45.200001 43.599998 45.200001 45 45C 47.200001 44.799999 49.799999 43 49 41C 47.599998 37.200001 49.799999 32.799999 49 29C 48.599998 26.799999 51 24.200001 53 25C 55 25.799999 57.599998 26.799999 57 29C 56.200001 31.799999 56 35.200001 57 38"></path><path d="M 14.998 16.978001L 40.998001 16.978001L 40.998001 50.978001L 14.998 50.978001ZM 40.998001 44.978001L 14.998 44.978001M 40.998001 37.978001L 14.998 37.978001M 40.998001 30.978001L 14.998 30.978001M 40.998001 23.978001L 14.998 23.978001M 11 13.978C 11 15.634854 12.343145 16.978001 14 16.978001L 42 16.978001C 43.656857 16.978001 45 15.634854 45 13.978001C 45 12.321146 43.656857 10.978 42 10.978L 14 10.978C 12.343145 10.978 11 12.321146 11 13.978001ZM 11 53.978001C 11 55.634857 12.343145 56.978001 14 56.978001L 42 56.978001C 43.656857 56.978001 45 55.634857 45 53.978001C 45 52.321148 43.656857 50.978001 42 50.978001L 14 50.978001C 12.343145 50.978001 11 52.321148 11 53.978001ZM 41 44.978001L 45 44.978001C 47.209141 44.978001 49 43.187138 49 40.978001L 49 28.978001C 49 26.768862 50.790859 24.978001 53 24.978001L 53 24.978001C 55.209141 24.978001 57 26.768862 57 28.978001L 57 37.978001"></path></g></g></g><g id="g-root-tech_zitm7d1n54c25-stroke" data-item-order="0" data-item-id="tech_zitm7d1n54c25" data-item-class="Icon Stroke SceneTarget Indexed ColorStrokeBlack" data-item-index="2" data-renderer-id="0" transform="translate(219, 194)"><g id="tech_zitm7d1n54c25-stroke" fill="none" stroke-linecap="round" stroke-linejoin="round" stroke-miterlimit="4" stroke="#484848" stroke-width="2"><g><path d="M 13 11C 27 12.2 41 11.4 55 11C 55 11 56.799999 11 57 13C 58 27 57.599998 41 57 55C 57 55 56.799999 56.200001 55 57C 42 62 26.799999 58.799999 13 57C 13 57 11.2 57 11 55C 10 41 9.4 26.799999 11 13C 11 13 11.2 10.4 13 11M 24 48C 30.6 47 37.599998 49.599998 44 48M 29.4 25C 29 31 29 37 29.4 43M 23.4 25C 27.4 25 31.6 26.200001 35.400002 25M 43 34.599998C 42.599998 33.799999 41.400002 32.799999 40.200001 33C 38.799999 33.400002 37.599998 34.200001 37.400002 35.599998C 37.400002 37.200001 37.799999 38.799999 37.400002 40.599998C 37.200001 41.799999 38.799999 43.200001 40.200001 43C 41.400002 42.799999 42.400002 42.200001 43 41.400002"></path><path d="M 13 11L 55 11C 55 11 57 11 57 13L 57 55C 57 55 57 57 55 57L 13 57C 13 57 11 57 11 55L 11 13C 11 13 11 11 13 11M 24 48L 44 48M 29.375999 25.001999L 29.375999 43.001999M 23.375999 25.001999L 35.375999 25.001999M 43 34.667999C 42.619999 33.695999 41.431999 33.001999 40.222 33.001999C 38.688 33.001999 37.444 34.122002 37.444 35.501999L 37.444 40.501999C 37.444 41.882 38.688 43.001999 40.223999 43.001999C 41.431999 43.001999 42.618 42.306 43 41.334"></path></g></g></g><g id="g-root-1_18jgf551n54aoa-stroke" data-item-order="0" data-item-id="1_18jgf551n54aoa" data-item-class="Icon Stroke SceneTarget Indexed ColorStrokeBlack" data-item-index="3" data-renderer-id="0" transform="translate(387, 194)"><g id="1_18jgf551n54aoa-stroke" fill="none" stroke-linecap="round" stroke-linejoin="round" stroke-miterlimit="4" stroke="#484848" stroke-width="2"><g><path d="M 24.057142 14.114285C 24.742859 15.485714 26.114285 16.857143 26.114285 18.571428C 28.514286 17.199999 29.885715 13.771429 32.285713 12.4C 32.971428 12.057143 33.314285 12.057143 34 11.714286C 34.685715 11.371428 35.371429 11.714286 35.714287 12.4C 37.085716 14.457143 39.485718 15.485714 40.857143 17.542858C 40.171429 18.228571 39.485718 18.571428 38.799999 18.914286C 37.085716 22.342857 37.085716 25.428572 39.142857 28.857143C 40.857143 31.942858 45.657143 30.914286 48.742859 28.857143C 49.771431 28.514286 49.771431 27.828571 50.114285 27.142857C 51.142857 29.542856 53.542858 30.914286 55.600002 32.285713C 56.285713 32.628571 56.628574 33.314285 56.285713 34C 56.285713 34.685715 55.942856 35.371429 55.600002 35.714287C 53.200001 37.771431 51.828571 40.514286 49.428574 41.885715C 52.857143 40.857143 55.942856 45.314285 55.942856 49.085712C 55.942856 52.857143 52.514286 54.57143 49.085712 55.942856C 45.657143 57.314285 40.857143 52.857143 41.885715 49.428574C 40.514286 51.828571 37.428574 53.200001 35.714287 55.600002C 35.371429 56.285713 34.685715 56.285713 34 56.285713C 33.314285 56.285713 32.628571 55.942856 32.285713 55.600002C 30.571428 53.885715 29.200001 51.485718 27.142857 50.457146C 27.828571 50.114285 28.514286 49.428574 29.200001 49.085712C 31.942858 46.342857 31.257143 42.228569 29.200001 38.799999C 27.142857 35.714287 22.342857 36.742859 18.914286 39.142857C 18.228571 39.485718 18.228571 40.514286 17.542858 40.857143C 15.485714 39.828571 13.771429 37.771431 12.4 35.714287C 12.057143 35.028572 11.714286 34.685715 11.714286 34C 11.371428 33.314285 11.714286 32.628571 12.4 32.285713C 14.8 30.571428 16.171429 27.485714 18.571428 26.114285C 16.857143 25.771429 15.485714 24.742859 14.114285 24.057142C 10.685715 22 10.685715 15.485714 14.114285 14.114285C 17.542858 12.4 22.342857 10.685715 24.057142 14.114285"></path><path d="M 24.022858 14.08C 25.258335 15.286715 25.992985 16.915182 26.08 18.639999L 32.354286 12.4C 32.790134 11.91136 33.413795 11.631939 34.068573 11.631939C 34.723347 11.631939 35.347008 11.91136 35.782856 12.4L 40.857143 17.68C 40.13644 18.029476 39.476597 18.492525 38.902859 19.05143C 36.366226 21.841013 36.468044 26.131165 39.134155 28.797272C 41.800262 31.463381 46.090416 31.565199 48.879997 29.02857C 49.438904 28.454834 49.901951 27.794989 50.251427 27.074286L 55.600002 32.354286C 56.088642 32.790134 56.368061 33.413795 56.368061 34.068573C 56.368061 34.723347 56.088642 35.347008 55.600002 35.782856L 49.360001 41.920002C 53.124832 42.147659 56.03883 45.306301 55.962902 49.077248C 55.886978 52.84819 52.84819 55.886978 49.077248 55.962902C 45.306301 56.03883 42.147659 53.124832 41.920002 49.360001L 35.645714 55.600002C 35.209866 56.088642 34.586205 56.368061 33.931427 56.368061C 33.276653 56.368061 32.652992 56.088642 32.217144 55.600002L 27.142857 50.32C 27.86356 49.970524 28.523405 49.507477 29.097143 48.948574C 31.852257 46.174526 31.836906 41.692257 29.062859 38.937145C 26.288811 36.182034 21.806541 36.197384 19.05143 38.971432C 18.492525 39.545166 18.029476 40.205009 17.68 40.925716L 12.4 35.645714C 11.91136 35.209866 11.631939 34.586205 11.631939 33.931427C 11.631939 33.276653 11.91136 32.652992 12.4 32.217144L 18.639999 26.08C 16.915182 25.992985 15.286715 25.258335 14.08 24.022858C 11.335168 21.277073 11.335553 16.826168 14.080861 14.080861C 16.826168 11.335553 21.277073 11.335168 24.022856 14.08Z"></path></g></g></g><g id="g-root-1_4mwtl1n54avb-stroke" data-item-order="0" data-item-id="1_4mwtl1n54avb" data-item-class="Icon Stroke SceneTarget Indexed ColorStrokeBlack" data-item-index="4" data-renderer-id="0" transform="translate(555, 194)"><g id="1_4mwtl1n54avb-stroke" fill="none" stroke-linecap="round" stroke-linejoin="round" stroke-miterlimit="4" stroke="#484848" stroke-width="2"><g><path d="M 11 34C 11 46.799999 21.799999 53.400002 34 57C 46.200001 60.599998 58 46.599998 57 34C 56 21.4 46.200001 7.8 34 11C 21.799999 14.2 13.8 21.6 11 34M 23 29.6C 23.200001 29.4 23.6 29.799999 23.6 30C 23.4 30.200001 23.200001 30.4 23 30.6C 22.799999 30.6 22.6 30.200001 22.6 30C 22.4 29.799999 22.799999 29.4 23 29.6M 45 29.6C 44.799999 29.6 44.599998 29.799999 44.599998 30C 44.400002 30.200001 44.799999 30.4 45 30.6C 45.200001 30.6 45.400002 30.200001 45.599998 30C 45.599998 29.799999 45.200001 29.6 45 29.6M 25 48C 24.799999 43 29.200001 37.799999 34 39C 38.799999 40.200001 43.400002 43 43 48"></path><path d="M 11 34C 11 46.702549 21.297451 57 34 57C 46.702549 57 57 46.702549 57 34C 57 21.297451 46.702549 11 34 11C 21.297451 11 11 21.297451 11 34ZM 23 29.5C 23.276142 29.5 23.5 29.723858 23.5 30C 23.5 30.276142 23.276142 30.5 23 30.5C 22.723858 30.5 22.5 30.276142 22.5 30C 22.5 29.723858 22.723858 29.5 23 29.5M 45 29.5C 44.723858 29.5 44.5 29.723858 44.5 30C 44.5 30.276142 44.723858 30.5 45 30.5C 45.276142 30.5 45.5 30.276142 45.5 30C 45.5 29.723858 45.276142 29.5 45 29.5M 25 48C 25 43.029438 29.029438 39 34 39C 38.970562 39 43 43.029438 43 48"></path></g></g></g></g></g></svg>