<?xml version="1.0" encoding="utf-8" standalone="yes"?>
<!DOCTYPE svg PUBLIC "-//W3C//DTD SVG 1.1//EN" "http://www.w3.org/Graphics/SVG/1.1/DTD/svg11.dtd">
<svg width="862" height="154" viewBox="0 0 862 154" style="fill:none;stroke:none;fill-rule:evenodd;clip-rule:evenodd;stroke-linecap:round;stroke-linejoin:round;stroke-miterlimit:1.5;" version="1.1" xmlns="http://www.w3.org/2000/svg" xmlns:xlink="http://www.w3.org/1999/xlink"><style id="fontImports">@import url("https://fonts.googleapis.com/css2?family=Roboto:wght@400;700&amp;display=block");</style><rect id="" x="0" y="0" width="862" height="154" style="fill: #ffffff;"></rect><g id="items" style="isolation: isolate"><g id="blend" style="mix-blend-mode:multiply"><g id="g-root-ro_1cu8zeh1pcsnie-fill" data-item-order="-8424" data-item-id="ro_1cu8zeh1pcsnie" data-item-class="Shape Stroke Fill" data-item-index="none" data-renderer-id="0" transform="translate(343, 3)"><g id="ro_1cu8zeh1pcsnie-fill" stroke="none" fill="#e6f9ff"><g><path d="M 22 10L 154 10C 154 10 166 10 166 22L 166 52C 166 52 166 64 154 64L 22 64C 22 64 10 64 10 52L 10 22C 10 22 10 10 22 10"></path></g></g></g><g id="g-root-ro_93d5bt1pcsnic-fill" data-item-order="-8424" data-item-id="ro_93d5bt1pcsnic" data-item-class="Shape Stroke Fill" data-item-index="none" data-renderer-id="0" transform="translate(343, 77)"><g id="ro_93d5bt1pcsnic-fill" stroke="none" fill="#e6f9ff"><g><path d="M 22 10L 154 10C 154 10 166 10 166 22L 166 52C 166 52 166 64 154 64L 22 64C 22 64 10 64 10 52L 10 22C 10 22 10 10 22 10"></path></g></g></g><g id="g-root-ro_2qce11pcvgg0-fill" data-item-order="-6480" data-item-id="ro_2qce11pcvgg0" data-item-class="Shape Stroke Fill" data-item-index="none" data-renderer-id="0" transform="translate(719, 77)"><g id="ro_2qce11pcvgg0-fill" stroke="none" fill="#e6f9ff"><g><path d="M 22 10L 118 10C 118 10 130 10 130 22L 130 52C 130 52 130 64 118 64L 22 64C 22 64 10 64 10 52L 10 22C 10 22 10 10 22 10"></path></g></g></g><g id="g-root-ro_mgqed51p3bbpk-fill" data-item-order="-6480" data-item-id="ro_mgqed51p3bbpk" data-item-class="Shape Stroke Fill" data-item-index="none" data-renderer-id="0" transform="translate(167, 40)"><g id="ro_mgqed51p3bbpk-fill" stroke="none" fill="#e6f9ff"><g><path d="M 22 10L 118 10C 118 10 130 10 130 22L 130 52C 130 52 130 64 118 64L 22 64C 22 64 10 64 10 52L 10 22C 10 22 10 10 22 10"></path></g></g></g><g id="g-root-ro_1lu9b951pcu2oa-fill" data-item-order="-5832" data-item-id="ro_1lu9b951pcu2oa" data-item-class="Shape Stroke Fill" data-item-index="none" data-renderer-id="0" transform="translate(555, 77)"><g id="ro_1lu9b951pcu2oa-fill" stroke="none" fill="#e6f9ff"><g><path d="M 22 10L 106 10C 106 10 118 10 118 22L 118 52C 118 52 118 64 106 64L 22 64C 22 64 10 64 10 52L 10 22C 10 22 10 10 22 10"></path></g></g></g><g id="g-root-ro_mbqlo91p3bcaq-fill" data-item-order="-5832" data-item-id="ro_mbqlo91p3bcaq" data-item-class="Shape Stroke Fill" data-item-index="none" data-renderer-id="0" transform="translate(3, 40)"><g id="ro_mbqlo91p3bcaq-fill" stroke="none" fill="#f0f0f0"><g><path d="M 22 10L 106 10C 106 10 118 10 118 22L 118 52C 118 52 118 64 106 64L 22 64C 22 64 10 64 10 52L 10 22C 10 22 10 10 22 10"></path></g></g></g><g id="g-root-tx__zn741l1p3baps-fill" data-item-order="0" data-item-id="tx__zn741l1p3baps" data-item-class="Label Stroke" data-item-index="none" data-renderer-id="0" transform="translate(51, 55)"><g id="tx__zn741l1p3baps-fill" stroke="none" fill="#484848"><g><text style="font: 20px Roboto, sans-serif; white-space: pre;"><tspan x="12" y="33.5" dominant-baseline="ideographic">입자</tspan></text></g></g></g><g id="g-root-anti_qwjwhl1p3baxb-fill" data-item-order="0" data-item-id="anti_qwjwhl1p3baxb" data-item-class="Icon Stroke" data-item-index="none" data-renderer-id="0" transform="translate(179, 52)"></g><g id="g-root-tx__1uuw46x1pcr9qk-fill" data-item-order="0" data-item-id="tx__1uuw46x1pcr9qk" data-item-class="Label Stroke" data-item-index="none" data-renderer-id="0" transform="translate(391, 18)"><g id="tx__1uuw46x1pcr9qk-fill" stroke="none" fill="#17b0e3"><g><text style="font: 20px Roboto, sans-serif; white-space: pre;"><tspan x="12" y="33.5" dominant-baseline="ideographic">같은 질량</tspan></text></g></g></g><g id="g-root-tx__zrkfnd1p3bdae-fill" data-item-order="0" data-item-id="tx__zrkfnd1p3bdae" data-item-class="Label Stroke" data-item-index="none" data-renderer-id="0" transform="translate(215, 55)"><g id="tx__zrkfnd1p3bdae-fill" stroke="none" fill="#17b0e3"><g><text style="font: 20px Roboto, sans-serif; white-space: pre;"><tspan x="12" y="33.5" dominant-baseline="ideographic">반입자</tspan></text></g></g></g><g id="g-root-yang_dj6ng91pcsmq3-fill" data-item-order="0" data-item-id="yang_dj6ng91pcsmq3" data-item-class="Icon Stroke" data-item-index="none" data-renderer-id="0" transform="translate(355, 89)"></g><g id="g-root-nega_qrk3sp1p3bbih-fill" data-item-order="0" data-item-id="nega_qrk3sp1p3bbih" data-item-class="Icon Stroke" data-item-index="none" data-renderer-id="0" transform="translate(15, 52)"></g><g id="g-root-tx__me76m11pcsp36-fill" data-item-order="0" data-item-id="tx__me76m11pcsp36" data-item-class="Label Stroke" data-item-index="none" data-renderer-id="0" transform="translate(391, 92)"><g id="tx__me76m11pcsp36-fill" stroke="none" fill="#17b0e3"><g><text style="font: 20px Roboto, sans-serif; white-space: pre;"><tspan x="12" y="33.5" dominant-baseline="ideographic">정반대 성질</tspan></text></g></g></g><g id="g-root-powe_1lu9b951pcu2o9-fill" data-item-order="0" data-item-id="powe_1lu9b951pcu2o9" data-item-class="Icon Stroke" data-item-index="none" data-renderer-id="0" transform="translate(567, 89)"></g><g id="g-root-tx__4ijuih1pcvfnq-fill" data-item-order="0" data-item-id="tx__4ijuih1pcvfnq" data-item-class="Label Stroke" data-item-index="none" data-renderer-id="0" transform="translate(767, 92)"><g id="tx__4ijuih1pcvfnq-fill" stroke="none" fill="#17b0e3"><g><text style="font: 20px Roboto, sans-serif; white-space: pre;"><tspan x="12" y="33.5" dominant-baseline="ideographic">양전자</tspan></text></g></g></g><g id="g-root-tx__1upwbi11pcu1vk-fill" data-item-order="0" data-item-id="tx__1upwbi11pcu1vk" data-item-class="Label Stroke" data-item-index="none" data-renderer-id="0" transform="translate(603, 92)"><g id="tx__1upwbi11pcu1vk-fill" stroke="none" fill="#17b0e3"><g><text style="font: 20px Roboto, sans-serif; white-space: pre;"><tspan x="12" y="33.5" dominant-baseline="ideographic">전자</tspan></text></g></g></g><g id="g-root-irid_1uo0w8p1pcvg9b-fill" data-item-order="0" data-item-id="irid_1uo0w8p1pcvg9b" data-item-class="Icon Stroke" data-item-index="none" data-renderer-id="0" transform="translate(731, 89)"></g><g id="g-root-scal_1ha2hix1pcsmq5-fill" data-item-order="0" data-item-id="scal_1ha2hix1pcsmq5" data-item-class="Icon Stroke" data-item-index="none" data-renderer-id="0" transform="translate(355, 15)"></g><g id="g-root-cu_141qcl51pcvh1g-fill" data-item-order="2" data-item-id="cu_141qcl51pcvh1g" data-item-class="Curve Stroke" data-item-index="none" data-renderer-id="0" transform="translate(111, 67)"></g><g id="g-root-cu_zlwugp1pcvh1r-fill" data-item-order="2" data-item-id="cu_zlwugp1pcvh1r" data-item-class="Curve Stroke" data-item-index="none" data-renderer-id="0" transform="translate(287, 67)"></g><g id="g-root-cu_141qcl51pcvh1e-fill" data-item-order="2" data-item-id="cu_141qcl51pcvh1e" data-item-class="Curve Stroke" data-item-index="none" data-renderer-id="0" transform="translate(287, 30)"></g><g id="g-root-cu_18hjupl1pcvg90-fill" data-item-order="2" data-item-id="cu_18hjupl1pcvg90" data-item-class="Curve Stroke" data-item-index="none" data-renderer-id="0" transform="translate(499, 104)"></g><g id="g-root-cu_18hjupl1pcvg8x-fill" data-item-order="2" data-item-id="cu_18hjupl1pcvg8x" data-item-class="Curve Stroke" data-item-index="none" data-renderer-id="0" transform="translate(663, 104)"></g><g id="g-root-ro_1cu8zeh1pcsnie-stroke" data-item-order="-8424" data-item-id="ro_1cu8zeh1pcsnie" data-item-class="Shape Stroke Fill" data-item-index="none" data-renderer-id="0" transform="translate(343, 3)"><g id="ro_1cu8zeh1pcsnie-stroke" fill="none" stroke-linecap="round" stroke-linejoin="round" stroke-miterlimit="4" stroke="#17b0e3" stroke-width="2"><g><path d="M 22 10L 154 10C 154 10 166 10 166 22L 166 52C 166 52 166 64 154 64L 22 64C 22 64 10 64 10 52L 10 22C 10 22 10 10 22 10"></path></g></g></g><g id="g-root-ro_93d5bt1pcsnic-stroke" data-item-order="-8424" data-item-id="ro_93d5bt1pcsnic" data-item-class="Shape Stroke Fill" data-item-index="none" data-renderer-id="0" transform="translate(343, 77)"><g id="ro_93d5bt1pcsnic-stroke" fill="none" stroke-linecap="round" stroke-linejoin="round" stroke-miterlimit="4" stroke="#17b0e3" stroke-width="2"><g><path d="M 22 10L 154 10C 154 10 166 10 166 22L 166 52C 166 52 166 64 154 64L 22 64C 22 64 10 64 10 52L 10 22C 10 22 10 10 22 10"></path></g></g></g><g id="g-root-ro_2qce11pcvgg0-stroke" data-item-order="-6480" data-item-id="ro_2qce11pcvgg0" data-item-class="Shape Stroke Fill" data-item-index="none" data-renderer-id="0" transform="translate(719, 77)"><g id="ro_2qce11pcvgg0-stroke" fill="none" stroke-linecap="round" stroke-linejoin="round" stroke-miterlimit="4" stroke="#17b0e3" stroke-width="2"><g><path d="M 22 10L 118 10C 118 10 130 10 130 22L 130 52C 130 52 130 64 118 64L 22 64C 22 64 10 64 10 52L 10 22C 10 22 10 10 22 10"></path></g></g></g><g id="g-root-ro_mgqed51p3bbpk-stroke" data-item-order="-6480" data-item-id="ro_mgqed51p3bbpk" data-item-class="Shape Stroke Fill" data-item-index="none" data-renderer-id="0" transform="translate(167, 40)"><g id="ro_mgqed51p3bbpk-stroke" fill="none" stroke-linecap="round" stroke-linejoin="round" stroke-miterlimit="4" stroke="#17b0e3" stroke-width="2"><g><path d="M 22 10L 118 10C 118 10 130 10 130 22L 130 52C 130 52 130 64 118 64L 22 64C 22 64 10 64 10 52L 10 22C 10 22 10 10 22 10"></path></g></g></g><g id="g-root-ro_1lu9b951pcu2oa-stroke" data-item-order="-5832" data-item-id="ro_1lu9b951pcu2oa" data-item-class="Shape Stroke Fill" data-item-index="none" data-renderer-id="0" transform="translate(555, 77)"><g id="ro_1lu9b951pcu2oa-stroke" fill="none" stroke-linecap="round" stroke-linejoin="round" stroke-miterlimit="4" stroke="#17b0e3" stroke-width="2"><g><path d="M 22 10L 106 10C 106 10 118 10 118 22L 118 52C 118 52 118 64 106 64L 22 64C 22 64 10 64 10 52L 10 22C 10 22 10 10 22 10"></path></g></g></g><g id="g-root-ro_mbqlo91p3bcaq-stroke" data-item-order="-5832" data-item-id="ro_mbqlo91p3bcaq" data-item-class="Shape Stroke Fill" data-item-index="none" data-renderer-id="0" transform="translate(3, 40)"><g id="ro_mbqlo91p3bcaq-stroke" fill="none" stroke-linecap="round" stroke-linejoin="round" stroke-miterlimit="4" stroke="#484848" stroke-width="2"><g><path d="M 22 10L 106 10C 106 10 118 10 118 22L 118 52C 118 52 118 64 106 64L 22 64C 22 64 10 64 10 52L 10 22C 10 22 10 10 22 10"></path></g></g></g><g id="g-root-tx__zn741l1p3baps-stroke" data-item-order="0" data-item-id="tx__zn741l1p3baps" data-item-class="Label Stroke" data-item-index="none" data-renderer-id="0" transform="translate(51, 55)"></g><g id="g-root-anti_qwjwhl1p3baxb-stroke" data-item-order="0" data-item-id="anti_qwjwhl1p3baxb" data-item-class="Icon Stroke" data-item-index="none" data-renderer-id="0" transform="translate(179, 52)"><g id="anti_qwjwhl1p3baxb-stroke" fill="none" stroke-linecap="round" stroke-linejoin="round" stroke-miterlimit="4" stroke="#17b0e3" stroke-width="2"><g><path d="M 11.875 10.625L 38.125 10.625C 38.125 10.625 39.375 10.625 39.375 11.875L 39.375 38.125C 39.375 38.125 39.375 39.375 38.125 39.375L 11.875 39.375C 11.875 39.375 10.625 39.375 10.625 38.125L 10.625 11.875C 10.625 11.875 10.625 10.625 11.875 10.625M 18.75 33.75L 31.25 33.75M 26.5625 30.625L 26.5625 19.375M 26.5625 27.1875C 26.5625 25.634199 27.821699 24.375 29.375 24.375C 30.928303 24.375 32.1875 25.634199 32.1875 27.1875L 32.1875 27.8125C 32.1875 29.365801 30.928303 30.625 29.375 30.625C 27.821699 30.625 26.5625 29.365801 26.5625 27.8125L 26.5625 27.1875ZM 23.90625 21.25C 23.52 20.158751 22.318748 19.375 21.09375 19.375C 19.598749 19.375 18.28125 20.5875 18.28125 22.0825C 18.281523 23.24682 19.074142 24.261559 20.203751 24.543751L 21.79125 24.94125C 23.033964 25.251574 23.905979 26.367876 23.90625 27.64875L 23.90625 27.813751C 23.90625 29.36705 22.647051 30.626249 21.09375 30.626249C 19.86875 30.626249 18.6675 29.842499 18.28125 28.751251"></path></g></g></g><g id="g-root-tx__1uuw46x1pcr9qk-stroke" data-item-order="0" data-item-id="tx__1uuw46x1pcr9qk" data-item-class="Label Stroke" data-item-index="none" data-renderer-id="0" transform="translate(391, 18)"></g><g id="g-root-tx__zrkfnd1p3bdae-stroke" data-item-order="0" data-item-id="tx__zrkfnd1p3bdae" data-item-class="Label Stroke" data-item-index="none" data-renderer-id="0" transform="translate(215, 55)"></g><g id="g-root-yang_dj6ng91pcsmq3-stroke" data-item-order="0" data-item-id="yang_dj6ng91pcsmq3" data-item-class="Icon Stroke" data-item-index="none" data-renderer-id="0" transform="translate(355, 89)"><g id="yang_dj6ng91pcsmq3-stroke" fill="none" stroke-linecap="round" stroke-linejoin="round" stroke-miterlimit="4" stroke="#17b0e3" stroke-width="2"><g><path d="M 11.071428 25C 11.071429 32.692539 17.307463 38.92857 25 38.92857C 32.692539 38.92857 38.92857 32.692539 38.92857 25C 38.92857 17.307463 32.692539 11.071429 25 11.071429C 17.307463 11.071429 11.071429 17.307463 11.071429 25M 25 11.071428C 25 11.071428 16.278572 18.764286 25 25C 32.5 30.357141 25 38.92857 25 38.92857M 27.142857 19.642857C 27.142857 20.826324 28.102245 21.785713 29.285713 21.785713C 30.469181 21.785713 31.42857 20.826324 31.42857 19.642857C 31.42857 18.459389 30.469181 17.5 29.285713 17.5C 28.102245 17.5 27.142857 18.459389 27.142857 19.642857M 18.571428 30.357141C 18.571428 31.540611 19.530819 32.5 20.714285 32.5C 21.897753 32.5 22.857143 31.540611 22.857143 30.357141C 22.857143 29.173674 21.897753 28.214285 20.714285 28.214285C 19.530819 28.214285 18.571428 29.173674 18.571428 30.357141"></path></g></g></g><g id="g-root-nega_qrk3sp1p3bbih-stroke" data-item-order="0" data-item-id="nega_qrk3sp1p3bbih" data-item-class="Icon Stroke" data-item-index="none" data-renderer-id="0" transform="translate(15, 52)"><g id="nega_qrk3sp1p3bbih-stroke" fill="none" stroke-linecap="round" stroke-linejoin="round" stroke-miterlimit="4" stroke="#484848" stroke-width="2"><g><path d="M 37.799999 19.96875C 40.154099 25.96327 38.027 32.788479 32.684074 36.384197C 27.341148 39.979919 20.217339 39.380447 15.550455 34.942402C 10.883573 30.504356 9.926995 23.419655 13.249774 17.902843C 16.572552 12.386034 23.282291 9.918758 29.387501 11.96875M 18.75 25C 18.75 28.45178 21.548222 31.25 25 31.25C 28.45178 31.25 31.25 28.45178 31.25 25C 31.25 21.548222 28.45178 18.75 25 18.75C 21.548222 18.75 18.75 21.548222 18.75 25M 21.875 25L 28.125 25M 25 21.875L 25 28.125M 31.25 15C 31.25 16.725889 32.649109 18.125 34.375 18.125C 36.100891 18.125 37.5 16.725889 37.5 15C 37.5 13.27411 36.100891 11.875 34.375 11.875C 32.649109 11.875 31.25 13.27411 31.25 15M 33.125 15L 35.494999 15"></path></g></g></g><g id="g-root-tx__me76m11pcsp36-stroke" data-item-order="0" data-item-id="tx__me76m11pcsp36" data-item-class="Label Stroke" data-item-index="none" data-renderer-id="0" transform="translate(391, 92)"></g><g id="g-root-powe_1lu9b951pcu2o9-stroke" data-item-order="0" data-item-id="powe_1lu9b951pcu2o9" data-item-class="Icon Stroke" data-item-index="none" data-renderer-id="0" transform="translate(567, 89)"><g id="powe_1lu9b951pcu2o9-stroke" fill="none" stroke-linecap="round" stroke-linejoin="round" stroke-miterlimit="4" stroke="#17b0e3" stroke-width="2"><g><path d="M 18.088751 33.75L 31.838751 33.75C 32.529106 33.75 33.088753 34.309647 33.088753 35L 33.088753 38.125C 33.088753 38.470177 32.808929 38.75 32.463753 38.75L 17.463751 38.75C 17.118572 38.75 16.838751 38.470177 16.838751 38.125L 16.838751 35C 16.838751 34.309647 17.398394 33.75 18.088751 33.75ZM 32.463753 13.125C 32.463753 14.160534 31.624283 15 30.588751 15L 19.338751 15C 18.303217 15 17.463751 14.160534 17.463751 13.125C 17.463751 12.089466 18.303217 11.25 19.338751 11.25L 30.588751 11.25C 31.624283 11.25 32.463753 12.089466 32.463753 13.125ZM 22.463749 22.5L 27.463749 22.5M 22.463749 18.75L 27.463749 18.75M 22.463749 26.25L 27.463749 26.25M 22.463749 30L 27.463749 30M 15.58875 16.25L 11.40125 21.485001C 11.251494 21.672537 11.222348 21.92926 11.326253 22.145594C 11.430157 22.361927 11.648758 22.499659 11.88875 22.5L 14.33875 22.5L 14.33875 26.875L 18.616251 20.9925C 18.754404 20.802452 18.774302 20.550978 18.667751 20.34157C 18.561201 20.13216 18.346207 20.000202 18.11125 20L 15.58875 20ZM 35.588753 17.5L 31.401251 22.735001C 31.251495 22.922537 31.222347 23.17926 31.326254 23.395594C 31.430157 23.611927 31.648758 23.749659 31.88875 23.75L 34.338753 23.75L 34.338753 28.125L 38.616249 22.2425C 38.753891 22.053181 38.774208 21.80282 38.6689 21.593782C 38.563591 21.384743 38.350307 21.252068 38.116249 21.25L 35.588753 21.25ZM 29.963749 33.75L 32.463753 28.75M 19.963751 33.75L 17.463751 28.75"></path></g></g></g><g id="g-root-tx__4ijuih1pcvfnq-stroke" data-item-order="0" data-item-id="tx__4ijuih1pcvfnq" data-item-class="Label Stroke" data-item-index="none" data-renderer-id="0" transform="translate(767, 92)"></g><g id="g-root-tx__1upwbi11pcu1vk-stroke" data-item-order="0" data-item-id="tx__1upwbi11pcu1vk" data-item-class="Label Stroke" data-item-index="none" data-renderer-id="0" transform="translate(603, 92)"></g><g id="g-root-irid_1uo0w8p1pcvg9b-stroke" data-item-order="0" data-item-id="irid_1uo0w8p1pcvg9b" data-item-class="Icon Stroke" data-item-index="none" data-renderer-id="0" transform="translate(731, 89)"><g id="irid_1uo0w8p1pcvg9b-stroke" fill="none" stroke-linecap="round" stroke-linejoin="round" stroke-miterlimit="4" stroke="#17b0e3" stroke-width="2"><g><path d="M 11.875 10.625L 38.125 10.625C 38.125 10.625 39.375 10.625 39.375 11.875L 39.375 38.125C 39.375 38.125 39.375 39.375 38.125 39.375L 11.875 39.375C 11.875 39.375 10.625 39.375 10.625 38.125L 10.625 11.875C 10.625 11.875 10.625 10.625 11.875 10.625M 18.75 33.75L 31.25 33.75M 25 30.627501L 19.375 30.627501M 19.375 19.376249L 25 19.376249M 22.1875 19.376249L 22.1875 30.626249M 27.9175 30.626249L 27.9175 26.460001C 27.917969 25.596424 28.451063 24.822624 29.257805 24.514515C 30.064547 24.206406 30.977741 24.427841 31.553753 25.071251M 27.9175 26.460001L 27.9175 24.375"></path></g></g></g><g id="g-root-scal_1ha2hix1pcsmq5-stroke" data-item-order="0" data-item-id="scal_1ha2hix1pcsmq5" data-item-class="Icon Stroke" data-item-index="none" data-renderer-id="0" transform="translate(355, 15)"><g id="scal_1ha2hix1pcsmq5-stroke" fill="none" stroke-linecap="round" stroke-linejoin="round" stroke-miterlimit="4" stroke="#17b0e3" stroke-width="2"><g><path d="M 30 24.400002L 30 30.625L 37.5 30.625L 37.5 24.375M 10 10M 28.125 26.25L 32.924999 21.6C 33.396881 21.185442 34.103119 21.185442 34.575001 21.6L 39.375 26.25M 25 15.625L 25 39.375M 21.35 39.375L 28.612501 39.375M 26.862499 13.75C 26.867563 14.504428 26.417006 15.187389 25.721453 15.479612C 25.0259 15.771834 24.222763 15.615587 23.687498 15.083913C 23.152233 14.552239 22.99058 13.750174 23.278111 13.05267C 23.565643 12.355165 24.245556 11.900017 25.000002 11.900001C 26.023769 11.899977 26.855629 12.726254 26.862501 13.75ZM 37.5 21.5L 33.75 11.1375L 30 21.5M 26.699999 12.7375L 35.962502 10.625M 12.4625 25.387501L 16.25 15.1125L 19.7875 24.700001M 10.625 29.6875C 10.625 32.96669 13.283309 35.625 16.5625 35.625C 19.84169 35.625 22.5 32.96669 22.5 29.6875C 22.5 26.40831 19.84169 23.75 16.5625 23.75C 13.283309 23.75 10.625 26.40831 10.625 29.6875M 18.049999 26.725L 16.0375 26.725C 15.446759 26.77169 14.958848 27.20495 14.842632 27.786024C 14.726418 28.367102 15.010159 28.954691 15.537499 29.224998L 17.5875 30.050001C 18.11484 30.320305 18.398582 30.907896 18.282366 31.488972C 18.166151 32.070049 17.67824 32.503307 17.0875 32.549999L 15.075 32.550003M 16.5625 26.725L 16.5625 25.975M 16.5625 33.399998L 16.5625 32.662498M 23.150002 13.55L 14.0375 15.625M 35.962502 10.625L 26.5625 12.7625"></path></g></g></g><g id="g-root-cu_141qcl51pcvh1g-stroke" data-item-order="2" data-item-id="cu_141qcl51pcvh1g" data-item-class="Curve Stroke" data-item-index="none" data-renderer-id="0" transform="translate(111, 67)"><g id="cu_141qcl51pcvh1g-stroke" fill="none" stroke-linecap="round" stroke-linejoin="round" stroke-miterlimit="4" stroke="#484848" stroke-width="2"><g><path d="M 10 10L 38 10L 64 10"></path><path d="M 58 16.5L 64.5 10L 58 3.5" stroke-dasharray="none"></path></g></g></g><g id="g-root-cu_zlwugp1pcvh1r-stroke" data-item-order="2" data-item-id="cu_zlwugp1pcvh1r" data-item-class="Curve Stroke" data-item-index="none" data-renderer-id="0" transform="translate(287, 67)"><g id="cu_zlwugp1pcvh1r-stroke" fill="none" stroke-linecap="round" stroke-linejoin="round" stroke-miterlimit="4" stroke="#484848" stroke-width="2"><g><path d="M 10 10L 24 10L 38 10L 38 28.5L 38 47L 52 47L 64 47"></path><path d="M 58 53.5L 64.5 47L 58 40.5" stroke-dasharray="none"></path></g></g></g><g id="g-root-cu_141qcl51pcvh1e-stroke" data-item-order="2" data-item-id="cu_141qcl51pcvh1e" data-item-class="Curve Stroke" data-item-index="none" data-renderer-id="0" transform="translate(287, 30)"><g id="cu_141qcl51pcvh1e-stroke" fill="none" stroke-linecap="round" stroke-linejoin="round" stroke-miterlimit="4" stroke="#484848" stroke-width="2"><g><path d="M 10 47L 24 47L 38 47L 38 28.5L 38 10L 52 10L 64 10"></path><path d="M 58 16.5L 64.5 10L 58 3.5" stroke-dasharray="none"></path></g></g></g><g id="g-root-cu_18hjupl1pcvg90-stroke" data-item-order="2" data-item-id="cu_18hjupl1pcvg90" data-item-class="Curve Stroke" data-item-index="none" data-renderer-id="0" transform="translate(499, 104)"><g id="cu_18hjupl1pcvg90-stroke" fill="none" stroke-linecap="round" stroke-linejoin="round" stroke-miterlimit="4" stroke="#484848" stroke-width="2"><g><path d="M 10 10L 38 10L 64 10"></path><path d="M 58 16.5L 64.5 10L 58 3.5" stroke-dasharray="none"></path></g></g></g><g id="g-root-cu_18hjupl1pcvg8x-stroke" data-item-order="2" data-item-id="cu_18hjupl1pcvg8x" data-item-class="Curve Stroke" data-item-index="none" data-renderer-id="0" transform="translate(663, 104)"><g id="cu_18hjupl1pcvg8x-stroke" fill="none" stroke-linecap="round" stroke-linejoin="round" stroke-miterlimit="4" stroke="#484848" stroke-width="2"><g><path d="M 10 10L 38 10L 64 10"></path><path d="M 58 16.5L 64.5 10L 58 3.5" stroke-dasharray="none"></path></g></g></g></g></g></svg>