<svg width="533" height="434" viewBox="0 0 533 434" fill="none" xmlns="http://www.w3.org/2000/svg">
<path d="M532 0H0V434H532V0Z" fill="white"/>
<g style="mix-blend-mode:multiply">
<path d="M205.497 28.524H206.313V30.468C206.313 32.964 204.969 35.28 203.193 36.18L202.581 35.364C204.189 34.596 205.497 32.52 205.497 30.468V28.524ZM205.665 28.524H206.481V30.468C206.481 32.448 207.777 34.44 209.385 35.184L208.785 35.976C207.021 35.112 205.665 32.88 205.665 30.468V28.524ZM210.513 27.576H211.509V38.448H210.513V27.576ZM216.344 32.376H217.328V34.38H216.344V32.376ZM219.896 32.376H220.88V34.38H219.896V32.376ZM213.668 32.136H223.472V32.94H213.668V32.136ZM214.94 27.948H222.2V31.248H214.94V27.948ZM221.228 28.74H215.924V30.456H221.228V28.74ZM214.856 34.02H222.224V36.456H215.864V37.776H214.88V35.736H221.24V34.788H214.856V34.02ZM214.88 37.536H222.548V38.316H214.88V37.536ZM225.067 34.944H225.787C227.107 34.944 228.331 34.896 229.819 34.644L229.903 35.46C228.379 35.724 227.155 35.772 225.787 35.772H225.067V34.944ZM225.043 28.776H228.919V32.556H226.039V35.28H225.067V31.752H227.959V29.592H225.043V28.776ZM232.963 27.588H233.923V38.436H232.963V27.588ZM229.435 31.476H231.187V32.304H229.435V31.476ZM230.779 27.852H231.703V37.872H230.779V27.852ZM243.63 27.576H244.626V38.448H243.63V27.576ZM238.902 28.416C240.51 28.416 241.662 29.892 241.662 32.196C241.662 34.512 240.51 35.988 238.902 35.988C237.306 35.988 236.154 34.512 236.154 32.196C236.154 29.892 237.306 28.416 238.902 28.416ZM238.902 29.316C237.846 29.316 237.102 30.444 237.102 32.196C237.102 33.96 237.846 35.112 238.902 35.112C239.97 35.112 240.702 33.96 240.702 32.196C240.702 30.444 239.97 29.316 238.902 29.316ZM252.545 29.184H254.981V30.012H252.545V29.184ZM252.545 31.416H254.981V32.232H252.545V31.416ZM249.509 28.2H250.313V29.58C250.313 31.704 249.149 33.516 247.337 34.248L246.809 33.456C248.429 32.832 249.509 31.284 249.509 29.58V28.2ZM249.689 28.2H250.505V29.58C250.505 31.164 251.549 32.664 253.121 33.288L252.569 34.068C250.853 33.348 249.689 31.596 249.689 29.58V28.2ZM254.717 27.6H255.713V35.688H254.717V27.6ZM248.741 37.38H255.977V38.196H248.741V37.38ZM248.741 34.872H249.737V37.824H248.741V34.872ZM261.199 33.804H271.039V34.62H261.199V33.804ZM265.591 34.308H266.575V38.436H265.591V34.308ZM266.095 28.02C268.363 28.02 269.887 28.944 269.887 30.396C269.887 31.848 268.363 32.772 266.095 32.772C263.839 32.772 262.303 31.848 262.303 30.396C262.303 28.944 263.839 28.02 266.095 28.02ZM266.095 28.824C264.439 28.824 263.311 29.436 263.311 30.396C263.311 31.356 264.439 31.968 266.095 31.968C267.751 31.968 268.867 31.356 268.867 30.396C268.867 29.436 267.751 28.824 266.095 28.824ZM276.594 28.656H277.458V29.112C277.458 31.056 275.394 32.484 273.21 32.856L272.826 32.064C274.734 31.788 276.594 30.54 276.594 29.112V28.656ZM276.846 28.656H277.698V29.112C277.698 30.54 279.57 31.788 281.466 32.064L281.094 32.856C278.898 32.484 276.846 31.056 276.846 29.112V28.656ZM276.63 34.296H277.614V38.436H276.63V34.296ZM272.25 33.768H282.054V34.584H272.25V33.768ZM273.162 28.26H281.106V29.064H273.162V28.26ZM293.996 27.576H295.004V38.436H293.996V27.576ZM294.728 31.98H296.732V32.808H294.728V31.98ZM291.224 28.752H292.196C292.196 31.836 290.78 34.62 287.276 36.384L286.724 35.616C289.724 34.092 291.224 31.776 291.224 28.908V28.752ZM287.228 28.752H291.74V29.568H287.228V28.752ZM303.271 29.544H306.043V30.372H303.271V29.544ZM305.623 27.588H306.619V33.18H305.623V27.588ZM299.635 33.744H306.619V36.336H300.643V37.98H299.671V35.592H305.635V34.536H299.635V33.744ZM299.671 37.5H307.027V38.292H299.671V37.5ZM300.403 27.924H301.219V28.944C301.219 30.948 300.019 32.568 298.207 33.216L297.691 32.424C299.323 31.872 300.403 30.516 300.403 28.944V27.924ZM300.571 27.924H301.375V28.944C301.375 30.36 302.467 31.668 304.039 32.184L303.523 32.964C301.771 32.34 300.571 30.78 300.571 28.944V27.924Z" fill="#484848"/>
<path d="M79.2645 100.752H80.0805V101.628C80.0805 103.62 78.8805 105.288 77.0565 105.948L76.5525 105.156C78.1845 104.58 79.2645 103.176 79.2645 101.628V100.752ZM79.4445 100.752H80.2605V101.616C80.2605 103.032 81.2925 104.304 82.8885 104.832L82.4085 105.612C80.5965 105.012 79.4445 103.464 79.4445 101.616V100.752ZM76.8525 100.392H82.6485V101.208H76.8525V100.392ZM84.0165 99.588H85.0125V106.128H84.0165V99.588ZM84.7365 102.336H86.6205V103.176H84.7365V102.336ZM81.5565 106.416C83.7645 106.416 85.1205 107.148 85.1205 108.408C85.1205 109.68 83.7645 110.412 81.5565 110.412C79.3485 110.412 77.9925 109.68 77.9925 108.408C77.9925 107.148 79.3485 106.416 81.5565 106.416ZM81.5565 107.22C79.9485 107.22 78.9645 107.652 78.9645 108.408C78.9645 109.176 79.9485 109.632 81.5565 109.632C83.1645 109.632 84.1485 109.176 84.1485 108.408C84.1485 107.652 83.1645 107.22 81.5565 107.22ZM93.4236 102.3H95.8356V103.128H93.4236V102.3ZM95.5596 99.588H96.5556V105.936H95.5596V99.588ZM89.5236 106.464H96.5556V110.292H89.5236V106.464ZM95.5836 107.256H90.4956V109.488H95.5836V107.256ZM90.3996 100.62H91.2156V101.496C91.2156 103.476 89.9916 105.168 88.1796 105.84L87.6636 105.048C89.2836 104.472 90.3996 103.032 90.3996 101.496V100.62ZM90.5916 100.62H91.3956V101.484C91.3956 102.888 92.4516 104.244 94.0236 104.796L93.5196 105.588C91.7556 104.952 90.5916 103.308 90.5916 101.484V100.62ZM87.9756 100.284H93.7716V101.088H87.9756V100.284Z" fill="#484848"/>
<path d="M384.016 99.576H385.012V107.436H384.016V99.576ZM384.712 102.804H386.62V103.632H384.712V102.804ZM377.092 104.7H377.932C380.164 104.7 381.424 104.64 382.876 104.34L382.984 105.144C381.496 105.456 380.212 105.528 377.932 105.528H377.092V104.7ZM377.092 100.512H381.88V101.34H378.076V105.144H377.092V100.512ZM378.256 109.38H385.504V110.196H378.256V109.38ZM378.256 106.656H379.252V109.752H378.256V106.656ZM393.424 102.3H395.836V103.128H393.424V102.3ZM395.56 99.588H396.556V105.936H395.56V99.588ZM389.524 106.464H396.556V110.292H389.524V106.464ZM395.584 107.256H390.496V109.488H395.584V107.256ZM390.4 100.62H391.216V101.496C391.216 103.476 389.992 105.168 388.18 105.84L387.664 105.048C389.284 104.472 390.4 103.032 390.4 101.496V100.62ZM390.592 100.62H391.396V101.484C391.396 102.888 392.452 104.244 394.024 104.796L393.52 105.588C391.756 104.952 390.592 103.308 390.592 101.484V100.62ZM387.976 100.284H393.772V101.088H387.976V100.284Z" fill="#484848"/>
<path d="M78.8685 220.608H79.6485V222.672C79.6485 224.94 78.6885 227.136 77.1045 228.096L76.4685 227.352C77.9685 226.476 78.8685 224.532 78.8685 222.672V220.608ZM79.0485 220.608H79.8285V222.612C79.8285 224.4 80.6685 226.236 82.1085 227.04L81.5085 227.82C79.9245 226.908 79.0485 224.796 79.0485 222.612V220.608ZM84.8565 219.588H85.8165V230.436H84.8565V219.588ZM83.1405 223.944H85.2165V224.772H83.1405V223.944ZM82.4685 219.816H83.4165V229.896H82.4685V219.816ZM87.6396 228.276H97.4676V229.104H87.6396V228.276ZM92.0316 225.948H93.0276V228.624H92.0316V225.948ZM88.8276 220.392H96.2556V223.68H89.8476V225.852H88.8636V222.876H95.2716V221.196H88.8276V220.392ZM88.8636 225.432H96.5076V226.248H88.8636V225.432ZM98.6666 225.084H108.507V225.9H98.6666V225.084ZM103.155 225.6H104.163V228.096H103.155V225.6ZM99.9146 229.368H107.415V230.196H99.9146V229.368ZM99.9146 227.028H100.911V229.596H99.9146V227.028ZM103.575 219.852C105.867 219.852 107.379 220.692 107.379 222.036C107.379 223.38 105.867 224.22 103.575 224.22C101.271 224.22 99.7706 223.38 99.7706 222.036C99.7706 220.692 101.271 219.852 103.575 219.852ZM103.575 220.668C101.919 220.668 100.827 221.196 100.827 222.036C100.827 222.888 101.919 223.404 103.575 223.404C105.231 223.404 106.323 222.888 106.323 222.036C106.323 221.196 105.231 220.668 103.575 220.668ZM113.669 220.428H118.469V221.244H113.669V220.428ZM115.301 222.852H116.285V225.564H115.301V222.852ZM118.073 220.428H119.057V221.004C119.057 221.712 119.057 222.792 118.769 224.22L117.797 224.112C118.073 222.684 118.073 221.7 118.073 221.004V220.428ZM120.533 219.588H121.529V227.76H120.533V219.588ZM121.073 223.116H123.077V223.944H121.073V223.116ZM114.677 229.38H121.877V230.196H114.677V229.38ZM114.677 227.004H115.661V229.632H114.677V227.004ZM113.117 226.032L113.009 225.216C114.941 225.216 117.605 225.168 119.801 224.868L119.873 225.588C117.617 225.984 115.025 226.032 113.117 226.032ZM129.916 222.3H132.328V223.128H129.916V222.3ZM132.052 219.588H133.048V225.936H132.052V219.588ZM126.016 226.464H133.048V230.292H126.016V226.464ZM132.076 227.256H126.988V229.488H132.076V227.256ZM126.892 220.62H127.708V221.496C127.708 223.476 126.484 225.168 124.672 225.84L124.156 225.048C125.776 224.472 126.892 223.032 126.892 221.496V220.62ZM127.084 220.62H127.888V221.484C127.888 222.888 128.944 224.244 130.516 224.796L130.012 225.588C128.248 224.952 127.084 223.308 127.084 221.484V220.62ZM124.468 220.284H130.264V221.088H124.468V220.284Z" fill="#484848"/>
<path d="M384.016 219.6H385.012V227.556H384.016V219.6ZM384.7 222.876H386.62V223.704H384.7V222.876ZM378.256 229.38H385.504V230.196H378.256V229.38ZM378.256 226.788H379.252V229.572H378.256V226.788ZM377.044 220.368H378.028V222.18H381.088V220.368H382.06V225.744H377.044V220.368ZM378.028 222.96V224.94H381.088V222.96H378.028ZM387.628 224.748H397.432V225.552H387.628V224.748ZM392.524 226.488C394.84 226.488 396.244 227.208 396.244 228.456C396.244 229.704 394.84 230.412 392.524 230.412C390.208 230.412 388.804 229.704 388.804 228.456C388.804 227.208 390.208 226.488 392.524 226.488ZM392.524 227.28C390.832 227.28 389.812 227.7 389.812 228.456C389.812 229.2 390.832 229.632 392.524 229.632C394.228 229.632 395.236 229.2 395.236 228.456C395.236 227.7 394.228 227.28 392.524 227.28ZM391.888 220.572H392.776V220.896C392.776 222.636 390.784 223.824 388.54 224.088L388.18 223.308C390.124 223.092 391.888 222.12 391.888 220.896V220.572ZM392.308 220.572H393.184V220.896C393.184 222.12 394.948 223.092 396.892 223.308L396.532 224.088C394.288 223.824 392.308 222.636 392.308 220.896V220.572ZM388.528 220.14H396.556V220.944H388.528V220.14ZM406.446 224.796H407.43V226.452H406.446V224.796ZM403.35 219.756H404.334V220.764H409.578V219.756H410.574V223.332H403.35V219.756ZM404.334 221.532V222.564H409.578V221.532H404.334ZM402.042 224.22H411.846V225.024H402.042V224.22ZM403.23 226.08H410.598V228.492H404.238V229.836H403.254V227.772H409.614V226.836H403.23V226.08ZM403.254 229.548H410.922V230.316H403.254V229.548ZM420.425 219.576H421.433V230.436H420.425V219.576ZM421.157 223.98H423.161V224.808H421.157V223.98ZM417.653 220.752H418.625C418.625 223.836 417.209 226.62 413.705 228.384L413.153 227.616C416.153 226.092 417.653 223.776 417.653 220.908V220.752ZM413.657 220.752H418.169V221.568H413.657V220.752ZM425.464 222.6H432.82V223.416H425.464V222.6ZM425.464 219.804H426.448V222.96H425.464V219.804ZM424.132 224.676H433.936V225.48H424.132V224.676ZM429.016 226.452C431.332 226.452 432.736 227.16 432.736 228.432C432.736 229.68 431.332 230.4 429.016 230.4C426.7 230.4 425.296 229.68 425.296 228.432C425.296 227.16 426.7 226.452 429.016 226.452ZM429.016 227.232C427.324 227.232 426.304 227.664 426.304 228.432C426.304 229.176 427.324 229.608 429.016 229.608C430.72 229.608 431.728 229.176 431.728 228.432C431.728 227.664 430.72 227.232 429.016 227.232Z" fill="#484848"/>
<path d="M84.4965 303.588H85.4925V314.436H84.4965V303.588ZM81.3165 304.752H82.3005C82.3005 307.896 80.8845 310.644 77.2605 312.42L76.7325 311.616C79.8645 310.104 81.3165 307.8 81.3165 304.92V304.752ZM77.2245 304.752H81.7485V305.568H77.2245V304.752ZM91.8876 304.608H92.7756V304.932C92.7756 306.768 90.8196 308.064 88.5996 308.4L88.2276 307.596C90.1476 307.344 91.8876 306.264 91.8876 304.932V304.608ZM92.3076 304.608H93.1836V304.932C93.1836 306.252 94.9356 307.344 96.8556 307.596L96.4716 308.4C94.2636 308.064 92.3076 306.768 92.3076 304.932V304.608ZM88.5276 304.116H96.5556V304.92H88.5276V304.116ZM88.8996 313.38H96.3516V314.196H88.8996V313.38ZM88.8996 311.136H89.8956V313.704H88.8996V311.136ZM87.6276 309.444H97.4676V310.248H87.6276V309.444ZM92.0316 307.644H93.0156V309.768H92.0316V307.644ZM102.582 304.14H103.566V305.808H106.506V304.14H107.478V309.108H102.582V304.14ZM103.566 306.588V308.292H106.506V306.588H103.566ZM107.202 306.252H110.274V307.068H107.202V306.252ZM109.974 303.588H110.97V309.516H109.974V303.588ZM104.022 310.044H105.006V311.352H109.986V310.044H110.97V314.292H104.022V310.044ZM105.006 312.144V313.476H109.986V312.144H105.006ZM116.033 305.508H116.849V305.964C116.849 307.884 115.613 309.468 113.789 310.08L113.297 309.3C114.917 308.772 116.033 307.452 116.033 305.964V305.508ZM116.201 305.508H117.017V305.964C117.017 307.356 118.157 308.604 119.765 309.096L119.297 309.876C117.461 309.3 116.201 307.8 116.201 305.964V305.508ZM113.561 304.896H119.465V305.7H113.561V304.896ZM116.033 303.54H117.017V305.316H116.033V303.54ZM120.977 303.588H121.985V310.272H120.977V303.588ZM114.737 310.824H121.985V314.436H120.977V311.628H114.737V310.824ZM128.524 307.8H130.576V308.628H128.524V307.8ZM132.388 303.588H133.348V314.436H132.388V303.588ZM130.24 303.816H131.188V313.896H130.24V303.816ZM126.568 304.488C127.972 304.488 128.884 305.94 128.884 308.268C128.884 310.596 127.972 312.048 126.568 312.048C125.164 312.048 124.264 310.596 124.264 308.268C124.264 305.94 125.164 304.488 126.568 304.488ZM126.568 305.412C125.716 305.412 125.176 306.516 125.176 308.268C125.176 310.02 125.716 311.124 126.568 311.124C127.432 311.124 127.972 310.02 127.972 308.268C127.972 306.516 127.432 305.412 126.568 305.412ZM139.782 308.652H147.234V309.468H139.782V308.652ZM138.546 312.24H148.374V313.08H138.546V312.24ZM142.938 309H143.934V312.576H142.938V309ZM139.782 304.452H147.126V305.268H140.778V309.012H139.782V304.452ZM155.333 306.576H158.069V307.392H155.333V306.576ZM157.505 303.6H158.501V311.544H157.505V303.6ZM151.577 313.38H158.801V314.196H151.577V313.38ZM151.577 310.848H152.573V313.8H151.577V310.848ZM152.345 304.944H153.161V305.82C153.161 307.788 151.937 309.492 150.125 310.164L149.609 309.372C151.229 308.796 152.345 307.356 152.345 305.82V304.944ZM152.537 304.944H153.341V305.808C153.341 307.212 154.397 308.58 155.969 309.132L155.465 309.912C153.701 309.276 152.537 307.644 152.537 305.808V304.944ZM149.921 304.476H155.717V305.28H149.921V304.476Z" fill="#484848"/>
<path d="M384.484 291.588H385.48V297.204H384.484V291.588ZM378.472 297.756H385.492V300.36H379.468V301.848H378.496V299.616H384.508V298.536H378.472V297.756ZM378.496 301.524H385.852V302.316H378.496V301.524ZM379.42 291.9H380.248V292.728C380.248 294.732 379 296.436 377.164 297.108L376.672 296.316C378.304 295.74 379.42 294.3 379.42 292.728V291.9ZM379.6 291.9H380.416V292.728C380.416 294.228 381.556 295.584 383.164 296.112L382.672 296.892C380.848 296.268 379.6 294.672 379.6 292.728V291.9ZM395.884 291.588H396.844V302.436H395.884V291.588ZM391.936 295.476H394.012V296.304H391.936V295.476ZM393.712 291.84H394.648V301.884H393.712V291.84ZM389.848 293.268H390.616V294.648C390.616 297.024 389.704 299.268 388.108 300.276L387.496 299.532C389.008 298.62 389.848 296.64 389.848 294.648V293.268ZM390.052 293.268H390.82V294.648C390.82 296.532 391.636 298.416 393.124 299.28L392.512 300.012C390.928 299.052 390.052 296.916 390.052 294.648V293.268ZM387.796 292.848H392.752V293.676H387.796V292.848ZM402.042 297.132H411.87V297.948H402.042V297.132ZM406.53 297.636H407.526V300.132H406.53V297.636ZM403.302 292.092H410.598V295.908H403.302V292.092ZM409.614 292.896H404.274V295.104H409.614V292.896ZM403.29 301.38H410.778V302.196H403.29V301.38ZM403.29 299.088H404.274V301.668H403.29V299.088ZM421.337 291.588H422.297V302.436H421.337V291.588ZM417.389 295.476H419.465V296.304H417.389V295.476ZM419.165 291.84H420.101V301.884H419.165V291.84ZM415.301 293.268H416.069V294.648C416.069 297.024 415.157 299.268 413.561 300.276L412.949 299.532C414.461 298.62 415.301 296.64 415.301 294.648V293.268ZM415.505 293.268H416.273V294.648C416.273 296.532 417.089 298.416 418.577 299.28L417.965 300.012C416.381 299.052 415.505 296.916 415.505 294.648V293.268ZM413.249 292.848H418.205V293.676H413.249V292.848ZM428.524 295.8H430.576V296.628H428.524V295.8ZM432.388 291.588H433.348V302.436H432.388V291.588ZM430.24 291.816H431.188V301.896H430.24V291.816ZM426.568 292.488C427.972 292.488 428.884 293.94 428.884 296.268C428.884 298.596 427.972 300.048 426.568 300.048C425.164 300.048 424.264 298.596 424.264 296.268C424.264 293.94 425.164 292.488 426.568 292.488ZM426.568 293.412C425.716 293.412 425.176 294.516 425.176 296.268C425.176 298.02 425.716 299.124 426.568 299.124C427.432 299.124 427.972 298.02 427.972 296.268C427.972 294.516 427.432 293.412 426.568 293.412ZM440.583 295.26H443.607V296.076H440.583V295.26ZM437.967 292.524H438.783V294.456C438.783 296.892 437.499 299.22 435.783 300.144L435.147 299.352C436.743 298.56 437.967 296.472 437.967 294.456V292.524ZM438.159 292.524H438.963V294.456C438.963 296.436 440.187 298.404 441.759 299.148L441.171 299.952C439.419 299.064 438.159 296.832 438.159 294.456V292.524ZM443.115 291.576H444.099V302.448H443.115V291.576ZM453.929 292.656H454.793V293.112C454.793 295.056 452.729 296.484 450.545 296.856L450.161 296.064C452.069 295.788 453.929 294.54 453.929 293.112V292.656ZM454.181 292.656H455.033V293.112C455.033 294.54 456.905 295.788 458.801 296.064L458.429 296.856C456.233 296.484 454.181 295.056 454.181 293.112V292.656ZM453.965 298.296H454.949V302.436H453.965V298.296ZM449.585 297.768H459.389V298.584H449.585V297.768ZM450.497 292.26H458.441V293.064H450.497V292.26Z" fill="#484848"/>
<path d="M380.116 316.368C381.808 316.368 383.02 317.412 383.02 318.924C383.02 320.448 381.808 321.492 380.116 321.492C378.424 321.492 377.2 320.448 377.2 318.924C377.2 317.412 378.424 316.368 380.116 316.368ZM380.116 317.232C378.988 317.232 378.172 317.916 378.172 318.924C378.172 319.932 378.988 320.628 380.116 320.628C381.232 320.628 382.048 319.932 382.048 318.924C382.048 317.916 381.232 317.232 380.116 317.232ZM384.436 315.576H385.432V326.448H384.436V315.576ZM376.792 324.072L376.648 323.244C378.628 323.244 381.364 323.232 383.728 322.86L383.812 323.592C381.376 324.06 378.724 324.072 376.792 324.072ZM391.003 321.312H400.831V322.128H391.003V321.312ZM395.491 321.72H396.487V324.216H395.491V321.72ZM392.251 325.38H399.739V326.196H392.251V325.38ZM392.251 323.256H393.235V325.692H392.251V323.256ZM392.311 315.924H393.295V317.304H398.539V315.924H399.535V320.268H392.311V315.924ZM393.295 318.084V319.464H398.539V318.084H393.295ZM404.718 316.248H405.534V317.58C405.534 319.704 404.358 321.396 402.534 322.104L402.006 321.312C403.662 320.724 404.718 319.26 404.718 317.58V316.248ZM404.886 316.248H405.702V317.616C405.702 319.092 406.782 320.484 408.366 321.048L407.874 321.828C406.086 321.18 404.886 319.524 404.886 317.616V316.248ZM409.47 315.576H410.466V323.592H409.47V315.576ZM410.154 318.912H412.074V319.74H410.154V318.912ZM403.734 325.38H410.946V326.196H403.734V325.38ZM403.734 322.836H404.73V325.776H403.734V322.836Z" fill="#484848"/>
<path d="M79.3005 389.256H80.1165V389.712C80.1165 391.428 78.8445 392.784 77.0085 393.288L76.5645 392.508C78.1725 392.088 79.3005 390.996 79.3005 389.712V389.256ZM79.4805 389.256H80.2965V389.712C80.2965 390.912 81.4605 391.932 83.0565 392.304L82.6365 393.072C80.7885 392.616 79.4805 391.344 79.4805 389.712V389.256ZM76.9005 388.656H82.6845V389.472H76.9005V388.656ZM79.3005 387.54H80.2965V389.112H79.3005V387.54ZM82.3725 390.276H85.1565V391.092H82.3725V390.276ZM84.5205 387.588H85.5165V393.264H84.5205V387.588ZM78.5325 393.792H85.5165V396.372H79.5285V397.98H78.5565V395.628H84.5325V394.584H78.5325V393.792ZM78.5565 397.536H85.9125V398.316H78.5565V397.536ZM87.6636 388.728H94.0716V389.544H87.6636V388.728ZM90.8676 390.096C92.4036 390.096 93.4596 390.864 93.4596 392.064C93.4596 393.252 92.4036 394.008 90.8676 394.008C89.3076 394.008 88.2636 393.252 88.2636 392.064C88.2636 390.864 89.3076 390.096 90.8676 390.096ZM90.8676 390.876C89.8716 390.876 89.2116 391.332 89.2116 392.064C89.2116 392.772 89.8716 393.24 90.8676 393.24C91.8396 393.24 92.5116 392.772 92.5116 392.064C92.5116 391.332 91.8396 390.876 90.8676 390.876ZM95.0556 387.588H96.0516V394.368H95.0556V387.588ZM95.7756 390.576H97.6596V391.404H95.7756V390.576ZM89.0076 394.956H96.0516V398.436H95.0556V395.772H89.0076V394.956ZM90.3636 387.528H91.3596V389.184H90.3636V387.528ZM101.439 388.692H102.255V389.568C102.255 391.548 101.031 393.24 99.2186 393.912L98.7026 393.12C100.323 392.544 101.439 391.104 101.439 389.568V388.692ZM101.631 388.692H102.435V389.568C102.435 390.96 103.491 392.316 105.063 392.868L104.559 393.66C102.795 393.012 101.631 391.38 101.631 389.568V388.692ZM104.475 390.408H106.887V391.236H104.475V390.408ZM99.0146 388.332H104.811V389.136H99.0146V388.332ZM100.359 394.668H107.595V398.436H106.599V395.484H100.359V394.668ZM106.599 387.588H107.595V394.08H106.599V387.588ZM120.509 387.588H121.505V394.116H120.509V387.588ZM121.229 390.468H123.113V391.296H121.229V390.468ZM114.689 394.728H121.505V398.292H114.689V394.728ZM120.533 395.532H115.661V397.488H120.533V395.532ZM113.117 388.728H119.525V389.544H113.117V388.728ZM116.321 390.072C117.869 390.072 118.913 390.84 118.913 392.016C118.913 393.192 117.869 393.936 116.321 393.936C114.761 393.936 113.717 393.192 113.717 392.016C113.717 390.84 114.761 390.072 116.321 390.072ZM116.321 390.84C115.325 390.84 114.665 391.296 114.665 392.016C114.665 392.724 115.325 393.18 116.321 393.18C117.293 393.18 117.965 392.724 117.965 392.016C117.965 391.296 117.293 390.84 116.321 390.84ZM115.817 387.492H116.813V389.148H115.817V387.492ZM127.648 388.368C129.34 388.368 130.552 389.412 130.552 390.924C130.552 392.448 129.34 393.492 127.648 393.492C125.956 393.492 124.732 392.448 124.732 390.924C124.732 389.412 125.956 388.368 127.648 388.368ZM127.648 389.232C126.52 389.232 125.704 389.916 125.704 390.924C125.704 391.932 126.52 392.628 127.648 392.628C128.764 392.628 129.58 391.932 129.58 390.924C129.58 389.916 128.764 389.232 127.648 389.232ZM131.968 387.576H132.964V398.448H131.968V387.576ZM124.324 396.072L124.18 395.244C126.16 395.244 128.896 395.232 131.26 394.86L131.344 395.592C128.908 396.06 126.256 396.072 124.324 396.072Z" fill="#484848"/>
<path d="M384.484 375.6H385.492V383.52H384.484V375.6ZM378.52 385.38H385.816V386.196H378.52V385.38ZM378.52 382.704H379.504V385.656H378.52V382.704ZM379.672 376.344C381.292 376.344 382.492 377.448 382.492 379.02C382.492 380.58 381.292 381.696 379.672 381.696C378.052 381.696 376.84 380.58 376.84 379.02C376.84 377.448 378.052 376.344 379.672 376.344ZM379.672 377.208C378.616 377.208 377.812 377.952 377.812 379.02C377.812 380.076 378.616 380.82 379.672 380.82C380.728 380.82 381.532 380.076 381.532 379.02C381.532 377.952 380.728 377.208 379.672 377.208ZM395.056 375.588H396.052V383.52H395.056V375.588ZM395.74 378.876H397.66V379.704H395.74V378.876ZM392.092 376.428H393.148C393.148 379.236 391.18 381.288 388.072 382.284L387.64 381.468C390.376 380.628 392.092 378.948 392.092 376.86V376.428ZM388.084 376.428H392.596V377.244H388.084V376.428ZM389.284 385.38H396.532V386.196H389.284V385.38ZM389.284 382.716H390.28V385.704H389.284V382.716ZM402.195 376.368C403.887 376.368 405.099 377.412 405.099 378.924C405.099 380.448 403.887 381.492 402.195 381.492C400.503 381.492 399.279 380.448 399.279 378.924C399.279 377.412 400.503 376.368 402.195 376.368ZM402.195 377.232C401.067 377.232 400.251 377.916 400.251 378.924C400.251 379.932 401.067 380.628 402.195 380.628C403.311 380.628 404.127 379.932 404.127 378.924C404.127 377.916 403.311 377.232 402.195 377.232ZM406.515 375.576H407.511V386.448H406.515V375.576ZM398.871 384.072L398.727 383.244C400.707 383.244 403.443 383.232 405.807 382.86L405.891 383.592C403.455 384.06 400.803 384.072 398.871 384.072ZM417.437 376.656H418.301V377.112C418.301 379.056 416.237 380.484 414.053 380.856L413.669 380.064C415.577 379.788 417.437 378.54 417.437 377.112V376.656ZM417.689 376.656H418.541V377.112C418.541 378.54 420.413 379.788 422.309 380.064L421.937 380.856C419.741 380.484 417.689 379.056 417.689 377.112V376.656ZM417.473 382.296H418.457V386.436H417.473V382.296ZM413.093 381.768H422.897V382.584H413.093V381.768ZM414.005 376.26H421.949V377.064H414.005V376.26ZM428.548 379.872H430.6V380.688H428.548V379.872ZM426.34 378.36H427.108V378.924C427.108 381.084 426.208 383.268 424.624 384.216L424.036 383.46C425.5 382.608 426.34 380.7 426.34 378.924V378.36ZM426.52 378.36H427.288V378.924C427.288 380.652 428.152 382.44 429.616 383.232L429.052 383.976C427.456 383.088 426.52 381.036 426.52 378.924V378.36ZM424.336 377.58H429.292V378.408H424.336V377.58ZM426.34 375.972H427.3V378.216H426.34V375.972ZM432.376 375.588H433.336V386.436H432.376V375.588ZM430.204 375.84H431.14V385.884H430.204V375.84ZM437.895 376.2H438.723V377.316C438.723 379.416 437.535 381.132 435.675 381.828L435.159 381.012C436.815 380.424 437.895 378.972 437.895 377.316V376.2ZM438.075 376.2H438.891V377.28C438.891 378.816 439.947 380.172 441.531 380.724L440.991 381.504C439.239 380.844 438.075 379.248 438.075 377.28V376.2ZM443.091 375.588H444.087V382.008H443.091V375.588ZM440.523 382.32C442.755 382.32 444.135 383.076 444.135 384.372C444.135 385.668 442.755 386.412 440.523 386.412C438.279 386.412 436.899 385.668 436.899 384.372C436.899 383.076 438.279 382.32 440.523 382.32ZM440.523 383.112C438.891 383.112 437.895 383.58 437.895 384.372C437.895 385.164 438.891 385.632 440.523 385.632C442.155 385.632 443.151 385.164 443.151 384.372C443.151 383.58 442.155 383.112 440.523 383.112ZM440.739 377.88H443.307V378.708H440.739V377.88ZM457.001 375.588H457.997V381.732H457.001V375.588ZM457.721 378.228H459.605V379.056H457.721V378.228ZM454.001 376.284H455.057C455.057 379.02 453.149 380.988 449.957 381.852L449.573 381.06C452.381 380.292 454.001 378.72 454.001 376.728V376.284ZM450.041 376.284H454.553V377.088H450.041V376.284ZM451.169 382.248H457.997V386.292H451.169V382.248ZM457.013 383.052H452.153V385.476H457.013V383.052Z" fill="#484848"/>
<path d="M376.6 408.204H386.428V409.032H376.6V408.204ZM380.968 405.576H381.952V408.48H380.968V405.576ZM380.944 400.308H381.808V401.148C381.808 403.464 379.588 405.252 377.404 405.708L376.984 404.88C378.892 404.532 380.944 402.936 380.944 401.148V400.308ZM381.124 400.308H381.988V401.148C381.988 402.948 384.052 404.532 385.96 404.88L385.528 405.708C383.344 405.252 381.124 403.464 381.124 401.148V400.308Z" fill="#484848"/>
<path d="M518 155.999C492.7 155.599 467.3 157.099 442 155.999C419.4 154.999 396.7 156.499 374 155.999C349.5 155.399 324.9 155.399 300.4 155.999C278.6 156.499 256.9 155.399 235.1 155.999C208.3 156.799 181.4 155.399 154.6 155.999C130.7 156.599 106.8 157.699 83 155.999C60 154.399 36.9 157.399 14 155.999" stroke="#484848" stroke-width="4" stroke-linecap="round" stroke-linejoin="round"/>
<path d="M518 155.999L14 156" stroke="#484848" stroke-width="4" stroke-linecap="round" stroke-linejoin="round"/>
<path d="M266.001 420C264.901 392 264.401 364 266.001 336C264.601 322.1 266.001 308.1 266.001 294.1C266.001 280.1 266.601 266 266.001 252C267.901 236.6 267.501 220.9 266.001 205.5C264.401 189.1 267.701 172.4 266.001 156C264.601 143.4 266.201 130.7 266.001 118M266.001 74C267.201 65.4 267.601 56.5 266.001 48" stroke="#484848" stroke-width="4" stroke-linecap="round" stroke-linejoin="round"/>
<path d="M266 420V336V252V156V118M266 74V48" stroke="#484848" stroke-width="4" stroke-linecap="round" stroke-linejoin="round"/>
<path fill-rule="evenodd" clip-rule="evenodd" d="M236 96C240.4 87 247.3 79.4 254 72C253.4 74.6 253.3 77.4 254 80C262 80.5 270 79.8 278 80C277.9 77.3 278.8 74.5 278 72C283.5 80.4 289.3 88.6 296 96C291 104.7 282.9 111.3 278 120C278 117.3 278.6 114.6 278 112C270 112.7 261.9 113.5 254 112C254.6 114.6 253.8 117.4 254 120C248.8 111.4 242.9 103.2 236 96Z" stroke="#484848" stroke-width="4" stroke-linecap="round" stroke-linejoin="round"/>
<path fill-rule="evenodd" clip-rule="evenodd" d="M236 96L254 72V80H278V72L296 96L278 120V112H254V120L236 96Z" stroke="#484848" stroke-width="4" stroke-linecap="round" stroke-linejoin="round"/>
<path d="M256.601 90.4C259.301 93.3 260.101 97.6 261.001 101.5M261.201 101.1C263.401 98.1 265.101 94.4 265.601 90.7M275.401 92.2C275.201 91.8 274.701 91.7 274.401 91.4C273.801 90.9 272.701 90.2 271.501 90.8C270.301 91.3 269.201 91.5 269.401 92.7C269.401 93.8 270.501 94.4 272.301 95.9C274.601 96.4 275.201 98 275.401 99.3C275.201 100.5 274.601 101.3 273.101 101.6C271.501 101.9 270.701 101.2 269.901 100.5C269.501 100.1 269.401 99.6 269.001 99.2" stroke="#484848" stroke-width="4" stroke-linecap="round" stroke-linejoin="round"/>
<path d="M256.6 90.373L261 101.48M261.2 101.097L265.6 90.66M275.4 92.192C275.066 91.937 274.733 91.682 274.4 91.426C273.8 90.852 272.833 90.628 271.5 90.756C270.166 90.884 269.466 91.522 269.4 92.671C269.266 93.82 270.233 94.905 272.3 95.927C274.433 96.884 275.466 98.001 275.4 99.278C275.4 100.555 274.633 101.321 273.1 101.576C271.5 101.767 270.433 101.416 269.9 100.523C269.566 100.076 269.266 99.629 269 99.182" stroke="#484848" stroke-width="4" stroke-linecap="round" stroke-linejoin="round"/>
<path d="M38.0004 194.743C37.3147 196.457 38.6861 198.171 38.0004 199.886M51.7147 199.543C50.3432 200.571 49.6575 202.629 47.9432 203.314M59.6004 210.171C57.8861 210.514 56.1718 209.829 54.4575 210.171M24.2861 199.543C24.9718 201.257 26.6861 202.286 28.0575 203.314M16.4004 210.171C18.1147 210.857 19.829 210.514 21.5432 210.171M50.0004 219.429C48.2861 213.6 45.8861 206.743 39.7147 207.429C33.8861 208.114 28.0575 210.171 26.6861 215.657C24.9718 221.486 27.3718 227.314 32.5147 230.057C32.1718 232.114 33.2004 234.171 32.5147 235.886C32.5147 236.571 33.2004 237.6 33.8861 237.257C36.629 236.571 39.3718 237.6 42.1147 237.257C42.8004 237.257 43.1432 236.571 43.4861 235.886C44.1718 234.171 42.8004 232.114 43.4861 230.057C47.6004 229.029 49.6575 223.886 50.0004 219.429Z" stroke="#484848" stroke-width="2" stroke-linecap="round" stroke-linejoin="round"/>
<path d="M38.0004 194.777V199.92M51.7147 199.68L48.0804 203.349M59.5319 210.309H54.389M24.2861 199.68L27.9204 203.349M16.469 210.309H21.6119M50.0004 219.429C50.0226 213.506 45.7208 208.453 39.8707 207.53C34.0207 206.607 28.3721 210.09 26.5697 215.732C24.7673 221.373 27.3503 227.486 32.6519 230.126V236.023C32.6704 236.748 33.2637 237.326 33.989 237.326H42.0119C42.7371 237.326 43.3304 236.748 43.349 236.023V230.023C47.377 228.018 49.9448 223.928 50.0004 219.429Z" stroke="#484848" stroke-width="2" stroke-linecap="round" stroke-linejoin="round"/>
<path d="M331 207.6C330.6 203.6 334 200.8 338 200C341.8 199.4 345.2 202.6 346 206.4C346.8 210.2 344 213.8 340.2 214.8C339.2 215 338.8 215.8 338.4 216.8C338.2 217.4 338.6 218.2 338.6 219M338.6 224C338.8 224 339 224.2 339 224.6C339 224.8 338.8 225 338.6 225C338.2 225 338 224.8 338 224.6C338 224.2 338.2 224 338.6 224ZM359 231C348.2 228.8 336.8 233.4 326 231C322.2 232.8 319.2 236 315.8 238.4C315.6 238.6 315.4 238.6 315.2 238.4C315.2 238.4 315 238.2 315 238C313.6 223.8 314 209.2 315 195C315 193.8 315.8 193 317 193C331 193 345.2 190.2 359 193C360 193.2 360.6 194 361 195C365.4 205.4 362 217.8 361 229C361 230.2 360 231 359 231Z" stroke="#484848" stroke-width="2" stroke-linecap="round" stroke-linejoin="round"/>
<path d="M331 207.502C330.999 203.568 334.035 200.301 337.959 200.015C341.882 199.729 345.36 202.521 345.93 206.413C346.499 210.306 343.965 213.977 340.124 214.826C339.19 215.01 338.513 215.824 338.5 216.776V219M338.5 224C338.777 224 339 224.224 339 224.5C339 224.776 338.777 225 338.5 225C338.224 225 338 224.776 338 224.5C338 224.224 338.224 224 338.5 224ZM359 231H326L315.8 238.424C315.649 238.538 315.446 238.556 315.277 238.471C315.107 238.387 315 238.213 315 238.024V195C315 193.895 315.896 193 317 193H359C360.105 193 361 193.895 361 195V229C361 230.105 360.105 231 359 231Z" stroke="#484848" stroke-width="2" stroke-linecap="round" stroke-linejoin="round"/>
<path d="M43.1434 309.257C44.5148 306.171 48.6291 305.143 50.0005 302.4C51.7148 299.314 55.1434 297.943 57.5434 295.2C60.9719 290.743 60.2862 285.6 57.5434 280.457C54.4576 275.657 46.9148 276.686 42.8005 280.457C41.0862 282.171 40.0576 284.229 38.0005 285.6C35.9434 286.971 33.8862 288.686 32.8576 290.743M26.0005 297.6C22.9148 298.971 20.8576 302.057 18.8005 304.8C15.0291 309.257 15.0291 315.086 18.8005 319.2C22.5719 323.657 28.4005 322.286 33.2005 319.2C34.5719 318.514 35.2576 316.8 36.6291 315.771M28.4005 283.2C34.2291 294.514 38.6862 307.543 47.6005 317.143" stroke="#484848" stroke-width="2" stroke-linecap="round" stroke-linejoin="round"/>
<path d="M43.2805 309.257L50.1377 302.4L57.4063 295.131C61.417 291.116 61.417 284.61 57.4063 280.594C53.3905 276.583 46.8849 276.583 42.8691 280.594L38.0005 285.463L32.7205 290.743M26.0005 297.463L18.732 304.731C14.7212 308.747 14.7212 315.253 18.732 319.269C22.7478 323.279 29.2533 323.279 33.2691 319.269L36.6977 315.84M28.2977 283.029L47.7034 316.971" stroke="#484848" stroke-width="2" stroke-linecap="round" stroke-linejoin="round"/>
<path d="M315.715 305.143C316.058 306.857 317.429 309.257 319.143 308.571M319.143 277.714C317.086 277.714 316.058 279.429 315.715 281.143M346.572 281.143C346.572 279.086 345.201 277.714 343.143 277.714M327.715 277.714C330.115 277.371 332.515 278.4 334.572 277.714M315.715 289.714C315.715 292.114 316.401 294.514 315.715 296.571M346.572 291.429C350.001 292.114 353.429 291.086 356.858 291.429C358.572 291.771 359.943 293.143 360.286 294.857C362.001 302.743 362.343 311.314 360.286 318.857C359.943 320.571 358.572 322.971 356.858 322.286C349.315 319.2 340.401 319.2 332.858 322.286C331.143 322.971 328.743 320.571 329.429 318.857C330.458 315.429 330.458 312 329.429 308.571C333.886 308.571 338.686 308.571 343.143 308.571C345.201 308.571 347.258 306.857 346.572 305.143C345.201 300.686 344.858 295.543 346.572 291.429Z" stroke="#484848" stroke-width="2" stroke-linecap="round" stroke-linejoin="round"/>
<path d="M315.715 305.143C315.715 307.036 317.25 308.571 319.143 308.571M319.143 277.714C317.25 277.714 315.715 279.249 315.715 281.143M346.572 281.143C346.572 279.249 345.037 277.714 343.143 277.714M327.715 277.714H334.572M315.715 289.714V296.571M346.572 291.429H356.858C358.751 291.429 360.286 292.964 360.286 294.857V318.857C360.286 320.751 358.751 322.286 356.858 322.286H332.858C330.964 322.286 329.429 320.751 329.429 318.857V308.571H343.143C345.037 308.571 346.572 307.036 346.572 305.143V291.429Z" stroke="#484848" stroke-width="2" stroke-linecap="round" stroke-linejoin="round"/>
<path d="M32.8577 378.857C32.5148 376.114 35.2577 373.371 38.0006 373.714C40.7434 374.057 43.8291 376.114 43.1434 378.857C42.4577 381.6 40.7434 383.314 38.0006 384C37.6577 385.029 37.6577 386.4 38.0006 387.429M38.0006 361.714C29.772 362.057 20.8577 365.829 18.4577 373.371C15.7148 381.257 15.7148 389.143 19.4863 396.343C18.8006 399.771 17.772 403.543 15.7148 406.286C19.8291 406.971 23.9434 404.571 28.4006 403.886C36.972 406.286 47.9434 408 53.0863 400.457C58.2291 392.571 61.6577 384.686 58.9148 375.771C55.8291 367.2 46.9148 358.971 38.0006 361.714Z" stroke="#484848" stroke-width="2" stroke-linecap="round" stroke-linejoin="round"/>
<path d="M32.8577 378.857C32.8577 376.017 35.1602 373.714 38.0006 373.714C40.8409 373.714 43.1434 376.017 43.1434 378.857C43.1434 381.698 40.8409 384 38.0006 384V387.429M38.0006 361.714C29.787 361.717 22.2407 366.237 18.3625 373.477C14.4843 380.718 14.903 389.504 19.452 396.343L15.7148 406.286L28.2291 404.023C36.4795 408.055 46.3583 406.613 53.1124 400.392C59.8665 394.17 62.1131 384.443 58.7713 375.89C55.4294 367.337 47.1834 361.709 38.0006 361.714Z" stroke="#484848" stroke-width="2" stroke-linecap="round" stroke-linejoin="round"/>
<path d="M340.601 380.6C339.001 379.4 336.601 379.2 335.401 380.6M328.001 376.8C328.801 381.6 333.001 384.8 338.001 385.2C343.001 385.6 347.201 381.6 348.001 376.8M347.401 368.2C345.201 364.6 341.801 360.2 338.001 361.6C334.201 363.2 330.401 364.4 328.601 368.2M356.401 397C356.601 395.8 356.201 394.4 355.201 394C352.401 393.2 347.601 390.2 338.001 389.4C328.401 388.6 323.601 393.2 320.801 394C319.801 394.4 319.601 395.6 319.601 396.8M326.201 372.8C328.601 371.8 332.401 371.2 334.401 371.8M343.001 371.4C345.401 372 347.201 372.4 349.401 372.4M326.401 401.6C325.601 403.2 324.801 405 323.601 406.4M351.601 401.6C350.201 403 349.601 404.8 348.601 406.4M338.801 401.6C337.601 403 337.401 405.2 336.001 406.4M333.801 397C332.401 398.2 331.801 400.2 330.801 401.6M347.601 397C347.401 398.8 345.801 400.2 344.801 401.6M338.001 376C341.001 376.4 345.201 376.2 347.601 376.8C348.201 376.8 348.801 376.6 349.201 376.2C349.601 375.8 350.001 375.4 350.001 374.8C350.001 373.2 350.401 371.6 350.001 370.2C349.801 369.2 349.201 368.6 348.201 368.2C346.001 367.2 341.201 367 338.001 367.4C334.801 367.6 330.201 368 327.801 368.2C326.801 368.4 325.801 369.2 326.001 370.2C326.401 371.6 326.601 373.4 326.001 374.8C325.601 375.8 327.201 376.4 328.401 376.8C330.801 377.4 335.001 375.2 338.001 376ZM318.001 406.4C331.401 406.6 345.201 410 358.001 406.4C359.201 406 360.601 405.4 360.401 404C360.201 402.8 359.401 401.6 358.001 401.6C344.801 402.8 331.401 401.4 318.001 401.6C316.601 401.8 315.801 402.8 315.601 404C315.601 405.4 316.601 406.2 318.001 406.4ZM319.001 401.6C331.601 403.6 344.401 404.2 356.801 401.6C358.001 401.4 359.001 400.6 359.201 399.4C359.401 398 358.001 397.2 356.801 397C344.401 395.4 331.401 394.2 319.001 397C317.801 397.2 316.801 398 316.801 399.4C316.801 400.6 317.801 401.8 319.001 401.6Z" stroke="#484848" stroke-width="2" stroke-linecap="round" stroke-linejoin="round"/>
<path d="M340.516 380.552C339.026 379.435 336.977 379.435 335.486 380.552M328.068 376.706C328.854 381.582 333.062 385.166 338 385.166C342.939 385.166 347.147 381.582 347.932 376.706M347.402 368.156C345.908 364.263 342.169 361.693 337.999 361.693C333.83 361.693 330.091 364.263 328.596 368.156M356.446 396.968V396.724C356.453 395.688 355.975 394.708 355.154 394.076C352.924 392.368 347.608 389.356 338 389.356C328.392 389.356 323.084 392.374 320.846 394.076C320.026 394.708 319.548 395.688 319.554 396.724V396.932M326.262 372.866C328.778 372.026 332.382 371.712 334.49 371.712M342.926 371.398C345.442 371.66 347.326 371.746 349.476 372.342M326.418 401.686L323.538 406.378M351.532 401.686L348.652 406.378M338.82 401.686L335.94 406.378M333.706 396.992L330.826 401.686M347.606 396.992L344.726 401.686M338.036 375.938C341.052 375.938 345.144 376.396 347.668 376.718C348.248 376.794 348.831 376.617 349.272 376.233C349.712 375.849 349.965 375.294 349.968 374.71L349.968 370.226C349.974 369.245 349.256 368.41 348.284 368.27C345.858 367.93 341.314 367.36 338.036 367.358C334.734 367.358 330.156 367.93 327.716 368.27C326.745 368.41 326.026 369.245 326.032 370.226L326.032 374.71C326.032 375.934 327.118 376.874 328.332 376.72C330.87 376.396 334.994 375.936 338.036 375.938ZM317.972 406.378H358.028C359.324 406.378 360.374 405.328 360.374 404.032C360.374 402.736 359.324 401.686 358.028 401.686H317.972C316.677 401.686 315.626 402.736 315.626 404.032C315.626 405.328 316.677 406.378 317.972 406.378ZM319.064 401.686H356.802C358.099 401.686 359.149 400.635 359.149 399.339C359.149 398.043 358.099 396.992 356.802 396.992L319.064 396.992C317.768 396.992 316.717 398.043 316.717 399.339C316.717 400.635 317.768 401.686 319.064 401.686Z" stroke="#484848" stroke-width="2" stroke-linecap="round" stroke-linejoin="round"/>
</g>
</svg>
