<?xml version="1.0" encoding="utf-8" standalone="yes"?>
<!DOCTYPE svg PUBLIC "-//W3C//DTD SVG 1.1//EN" "http://www.w3.org/Graphics/SVG/1.1/DTD/svg11.dtd">
<svg width="624" height="459" viewBox="0 0 624 459" style="fill:none;stroke:none;fill-rule:evenodd;clip-rule:evenodd;stroke-linecap:round;stroke-linejoin:round;stroke-miterlimit:1.5;" version="1.1" xmlns="http://www.w3.org/2000/svg" xmlns:xlink="http://www.w3.org/1999/xlink"><style id="fontImports">@import url("https://fonts.googleapis.com/css2?family=Shantell+Sans:wght@300..800&amp;display=block");</style><rect id="" x="0" y="0" width="624" height="458.865" style="fill: #ffffff;"></rect><g id="items" style="isolation: isolate"><g id="blend" style="mix-blend-mode:multiply"><g id="g-root-6.cr-small_cr_qpnt0p1pd3xms-fill" data-item-order="-148114" data-item-id="6.cr-small_cr_qpnt0p1pd3xms" data-item-class="Shape Stroke Fill ScenePart Part Indexed" data-item-index="6" data-renderer-id="0" transform="translate(182, 72.508056640625)"><g id="6.cr-small_cr_qpnt0p1pd3xms-fill" stroke="none" fill="#ecf7d5"><g><path d="M 10 46C 10 65.882251 26.117749 82 46 82C 65.882251 82 82 65.882251 82 46C 82 26.117749 65.882251 10 46 10C 26.117749 10 10 26.117749 10 46"></path></g></g></g><g id="g-root-5.cr-small_cr_qpnt0p1pd3xmr-fill" data-item-order="-148112" data-item-id="5.cr-small_cr_qpnt0p1pd3xmr" data-item-class="Shape Stroke Fill ScenePart Part Indexed" data-item-index="5" data-renderer-id="0" transform="translate(98, 218)"><g id="5.cr-small_cr_qpnt0p1pd3xmr-fill" stroke="none" fill="#fde6cf"><g><path d="M 10 46C 10 65.882251 26.117749 82 46 82C 65.882251 82 82 65.882251 82 46C 82 26.117749 65.882251 10 46 10C 26.117749 10 10 26.117749 10 46"></path></g></g></g><g id="g-root-4.cr-small_cr_qpnt0p1pd3xmq-fill" data-item-order="-148110" data-item-id="4.cr-small_cr_qpnt0p1pd3xmq" data-item-class="Shape Stroke Fill ScenePart Part Indexed" data-item-index="4" data-renderer-id="0" transform="translate(182, 363.864990234375)"><g id="4.cr-small_cr_qpnt0p1pd3xmq-fill" stroke="none" fill="#cef3ff"><g><path d="M 10 46C 10 65.882251 26.117749 82 46 82C 65.882251 82 82 65.882251 82 46C 82 26.117749 65.882251 10 46 10C 26.117749 10 10 26.117749 10 46"></path></g></g></g><g id="g-root-3.cr-small_cr_v5hb551pd3wuh-fill" data-item-order="-148108" data-item-id="3.cr-small_cr_v5hb551pd3wuh" data-item-class="Shape Stroke Fill ScenePart Part Indexed" data-item-index="3" data-renderer-id="0" transform="translate(350, 363.491943359375)"><g id="3.cr-small_cr_v5hb551pd3wuh-fill" stroke="none" fill="#ffd0ce"><g><path d="M 10 46C 10 65.882251 26.117749 82 46 82C 65.882251 82 82 65.882251 82 46C 82 26.117749 65.882251 10 46 10C 26.117749 10 10 26.117749 10 46"></path></g></g></g><g id="g-root-2.cr-small_cr_v5hb551pd3wug-fill" data-item-order="-148106" data-item-id="2.cr-small_cr_v5hb551pd3wug" data-item-class="Shape Stroke Fill ScenePart Part Indexed" data-item-index="2" data-renderer-id="0" transform="translate(433.63800048828125, 217.99609375)"><g id="2.cr-small_cr_v5hb551pd3wug-fill" stroke="none" fill="#d5f7e8"><g><path d="M 10 46C 10 65.882251 26.117749 82 46 82C 65.882251 82 82 65.882251 82 46C 82 26.117749 65.882251 10 46 10C 26.117749 10 10 26.117749 10 46"></path></g></g></g><g id="g-root-1.cr-small_cr_v5hb551pd3wuf-fill" data-item-order="-148104" data-item-id="1.cr-small_cr_v5hb551pd3wuf" data-item-class="Shape Stroke Fill ScenePart Part Indexed Indexed_1" data-item-index="1" data-renderer-id="0" transform="translate(350, 72.508056640625)"><g id="1.cr-small_cr_v5hb551pd3wuf-fill" stroke="none" fill="#fff9ce"><g><path d="M 10 46C 10 65.882251 26.117749 82 46 82C 65.882251 82 82 65.882251 82 46C 82 26.117749 65.882251 10 46 10C 26.117749 10 10 26.117749 10 46"></path></g></g></g><g id="g-root-0.Vector_sy_zlat9l1pd3w25-fill" data-item-order="-148102" data-item-id="0.Vector_sy_zlat9l1pd3w25" data-item-class="ScenePart Part Indexed_0 Fill Stroke ColorFillGray ColorStrokeBlack" data-item-index="0" data-renderer-id="0" transform="translate(230, 181.99609375)"><g id="0.Vector_sy_zlat9l1pd3w25-fill" stroke="none" fill="#eaeaea"><g><path d="M 154 81.999998C 154 42.235998 121.765 9.999998 82 9.999998L 82 9.999998C 42.236 9.999998 10 42.235998 10 81.999998L 10 81.999998C 10 121.764998 42.236 153.999998 82 153.999998L 82 153.999998C 121.765 153.999998 154 121.764998 154 81.999998L 154 81.999998Z"></path></g></g></g><g id="g-root-0.Union_sy_v5hb551pd3wue-fill" data-item-order="-148100" data-item-id="0.Union_sy_v5hb551pd3wue" data-item-class="ScenePart Part Indexed_0 Fill Stroke ColorFillGray ColorStrokeBlack" data-item-index="0" data-renderer-id="0" transform="translate(190, 156.885009765625)"><g id="0.Union_sy_v5hb551pd3wue-fill" stroke="none" fill="#eaeaea"><g><path d="M 61.889 28.540005L 66.072 10.000005L 84.22 15.648005L 78.005 19.236005L 91.166 42.033005C 100.513 37.597005 110.967 35.115005 122 35.115005C 133.077 35.115005 143.571 37.617005 152.945 42.086005L 166.127 19.254005L 159.974 15.702005L 178.122 10.053005L 182.305 28.594005L 176.09 25.006005L 162.9 47.851005C 180.201 59.814005 192.009 79.158005 193.771 101.331005L 220.135 101.331005L 220.135 94.226005L 234.101 107.119005L 220.135 120.011005L 220.135 112.835005L 193.776 112.835005C 192.032 135.030005 180.223 154.396005 162.911 166.371005L 176.058 189.142005L 182.211 185.590005L 178.029 204.130005L 159.881 198.482005L 166.096 194.894005L 152.958 172.138005C 143.58 176.611005 133.082 179.115005 122 179.115005C 110.936 179.115005 100.454 176.619005 91.088 172.160005L 77.973 194.876005L 84.127 198.428005L 65.979 204.077005L 61.796 185.536005L 68.011 189.124005L 81.131 166.400005C 63.787 154.420005 51.957 135.027005 50.221 112.799005L 23.965 112.799005L 23.965 119.904005L 10 107.011005L 23.965 94.119005L 23.965 101.295005L 50.232 101.295005C 52.008 79.094005 63.855 59.732005 81.202 47.781005L 68.042 24.988005L 61.889 28.540005Z"></path></g></g></g><g id="g-root-tx__3d9d51pd3xmz-fill" data-item-order="0" data-item-id="tx__3d9d51pd3xmz" data-item-class="Label Stroke SceneTarget SceneTitle Title ColorStrokeBlack" data-item-index="none" data-renderer-id="0" transform="translate(230, 2)"><g id="tx__3d9d51pd3xmz-fill" stroke="none" fill="#484848"><g><text style="font: 20px &quot;Shantell Sans&quot;, cursive; white-space: pre;"><tspan x="14.63" y="35.5" dominant-baseline="ideographic">표준 모형의 한계</tspan></text></g></g></g><g id="g-root-1_1hdtrxl1pd5ati-fill" data-item-order="0" data-item-id="1_1hdtrxl1pd5ati" data-item-class="Icon Stroke SceneTarget Indexed InsideFill" data-item-index="6" data-renderer-id="0" transform="translate(194, 84.508056640625)"></g><g id="g-root-2_1cy09t51pd5bls-fill" data-item-order="0" data-item-id="2_1cy09t51pd5bls" data-item-class="Icon Stroke SceneTarget Indexed Indexed_1 InsideFill" data-item-index="1" data-renderer-id="0" transform="translate(362, 84.508056640625)"></g><g id="g-root-tx_cp_qpnt0p1pd3xmt-fill" data-item-order="0" data-item-id="tx_cp_qpnt0p1pd3xmt" data-item-class="Label Stroke SceneTarget Indexed ColorStrokeBlack" data-item-index="6" data-renderer-id="0" transform="translate(50, 98)"><g id="tx_cp_qpnt0p1pd3xmt-fill" stroke="none" fill="#484848"><g><text style="font: 20px &quot;Shantell Sans&quot;, cursive; white-space: pre;"><tspan x="21.56" y="35.5" dominant-baseline="ideographic">강한 CP 문제</tspan></text></g></g></g><g id="g-root-tx__3d9d51pd3xmy-fill" data-item-order="0" data-item-id="tx__3d9d51pd3xmy" data-item-class="Label Stroke SceneTarget Indexed Indexed_1 ColorStrokeBlack" data-item-index="1" data-renderer-id="0" transform="translate(434, 98)"><g id="tx__3d9d51pd3xmy-fill" stroke="none" fill="#484848"><g><text style="font: 20px &quot;Shantell Sans&quot;, cursive; white-space: pre;"><tspan x="12" y="35.5" dominant-baseline="ideographic">중력 설명</tspan></text></g></g></g><g id="g-root-bact_8z09m11pd5b0i-fill" data-item-order="0" data-item-id="bact_8z09m11pd5b0i" data-item-class="Icon Stroke SceneTarget SceneStart InsideFill InsideGrayFill ColorStrokeBlack" data-item-index="none" data-renderer-id="0" transform="translate(266, 217.99609375)"></g><g id="g-root-tx__hun9ux1pd3v9q-fill" data-item-order="0" data-item-id="tx__hun9ux1pd3v9q" data-item-class="Label Stroke SceneTarget Indexed ColorStrokeBlack" data-item-index="5" data-renderer-id="0" transform="translate(2, 242)"><g id="tx__hun9ux1pd3v9q-fill" stroke="none" fill="#484848"><g><text style="font: 20px &quot;Shantell Sans&quot;, cursive; white-space: pre;"><tspan x="15.98" y="35.5" dominant-baseline="ideographic">계층 문제</tspan></text></g></g></g><g id="g-root-hier_3d9d51pd5bt7-fill" data-item-order="0" data-item-id="hier_3d9d51pd5bt7" data-item-class="Icon Stroke SceneTarget Indexed InsideFill" data-item-index="5" data-renderer-id="0" transform="translate(110, 230)"></g><g id="g-root-1_1uont7t1pd5cec-fill" data-item-order="0" data-item-id="1_1uont7t1pd5cec" data-item-class="Icon Stroke SceneTarget Indexed InsideFill" data-item-index="2" data-renderer-id="0" transform="translate(446, 230)"></g><g id="g-root-tx__8z09m11pd3wu9-fill" data-item-order="0" data-item-id="tx__8z09m11pd3wu9" data-item-class="Label Stroke SceneTarget Indexed ColorStrokeBlack" data-item-index="2" data-renderer-id="0" transform="translate(518, 242)"><g id="tx__8z09m11pd3wu9-fill" stroke="none" fill="#484848"><g><text style="font: 20px &quot;Shantell Sans&quot;, cursive; white-space: pre;"><tspan x="12" y="35.5" dominant-baseline="ideographic">암흑 물질</tspan></text></g></g></g><g id="g-root-tx__detrqh1pd3w1z-fill" data-item-order="0" data-item-id="tx__detrqh1pd3w1z" data-item-class="Label Stroke SceneTarget Indexed ColorStrokeBlack" data-item-index="4" data-renderer-id="0" transform="translate(26, 374)"><g id="tx__detrqh1pd3w1z-fill" stroke="none" fill="#484848"><g><text style="font: 20px &quot;Shantell Sans&quot;, cursive; white-space: pre;"><tspan x="17.26" y="35.5" dominant-baseline="ideographic">중성미자 질량 문</tspan><tspan x="134.7" y="59.5" dominant-baseline="ideographic">제</tspan></text></g></g></g><g id="g-root-meit_1hdtrxl1pd5atj-fill" data-item-order="0" data-item-id="meit_1hdtrxl1pd5atj" data-item-class="Icon Stroke SceneTarget Indexed InsideFill" data-item-index="4" data-renderer-id="0" transform="translate(194, 375.491943359375)"></g><g id="g-root-1_1ltna211pd5a19-fill" data-item-order="0" data-item-id="1_1ltna211pd5a19" data-item-class="Icon Stroke SceneTarget Indexed InsideFill" data-item-index="3" data-renderer-id="0" transform="translate(362, 375.491943359375)"></g><g id="g-root-tx__detrqh1pd3w20-fill" data-item-order="0" data-item-id="tx__detrqh1pd3w20" data-item-class="Label Stroke SceneTarget Indexed ColorStrokeBlack" data-item-index="3" data-renderer-id="0" transform="translate(434, 374)"><g id="tx__detrqh1pd3w20-fill" stroke="none" fill="#484848"><g><text style="font: 20px &quot;Shantell Sans&quot;, cursive; white-space: pre;"><tspan x="12" y="35.5" dominant-baseline="ideographic">물질-반물질 비대</tspan><tspan x="12" y="59.5" dominant-baseline="ideographic">칭성</tspan></text></g></g></g><g id="g-root-6.cr-small_cr_qpnt0p1pd3xms-stroke" data-item-order="-148114" data-item-id="6.cr-small_cr_qpnt0p1pd3xms" data-item-class="Shape Stroke Fill ScenePart Part Indexed" data-item-index="6" data-renderer-id="0" transform="translate(182, 72.508056640625)"><g id="6.cr-small_cr_qpnt0p1pd3xms-stroke" fill="none" stroke-linecap="round" stroke-linejoin="round" stroke-miterlimit="4" stroke="#93c131" stroke-width="2"><g><path d="M 10 46C 10 65.882251 26.117749 82 46 82C 65.882251 82 82 65.882251 82 46C 82 26.117749 65.882251 10 46 10C 26.117749 10 10 26.117749 10 46"></path></g></g></g><g id="g-root-5.cr-small_cr_qpnt0p1pd3xmr-stroke" data-item-order="-148112" data-item-id="5.cr-small_cr_qpnt0p1pd3xmr" data-item-class="Shape Stroke Fill ScenePart Part Indexed" data-item-index="5" data-renderer-id="0" transform="translate(98, 218)"><g id="5.cr-small_cr_qpnt0p1pd3xmr-stroke" fill="none" stroke-linecap="round" stroke-linejoin="round" stroke-miterlimit="4" stroke="#dd8433" stroke-width="2"><g><path d="M 10 46C 10 65.882251 26.117749 82 46 82C 65.882251 82 82 65.882251 82 46C 82 26.117749 65.882251 10 46 10C 26.117749 10 10 26.117749 10 46"></path></g></g></g><g id="g-root-4.cr-small_cr_qpnt0p1pd3xmq-stroke" data-item-order="-148110" data-item-id="4.cr-small_cr_qpnt0p1pd3xmq" data-item-class="Shape Stroke Fill ScenePart Part Indexed" data-item-index="4" data-renderer-id="0" transform="translate(182, 363.864990234375)"><g id="4.cr-small_cr_qpnt0p1pd3xmq-stroke" fill="none" stroke-linecap="round" stroke-linejoin="round" stroke-miterlimit="4" stroke="#17b0e3" stroke-width="2"><g><path d="M 10 46C 10 65.882251 26.117749 82 46 82C 65.882251 82 82 65.882251 82 46C 82 26.117749 65.882251 10 46 10C 26.117749 10 10 26.117749 10 46"></path></g></g></g><g id="g-root-3.cr-small_cr_v5hb551pd3wuh-stroke" data-item-order="-148108" data-item-id="3.cr-small_cr_v5hb551pd3wuh" data-item-class="Shape Stroke Fill ScenePart Part Indexed" data-item-index="3" data-renderer-id="0" transform="translate(350, 363.491943359375)"><g id="3.cr-small_cr_v5hb551pd3wuh-stroke" fill="none" stroke-linecap="round" stroke-linejoin="round" stroke-miterlimit="4" stroke="#e15e5a" stroke-width="2"><g><path d="M 10 46C 10 65.882251 26.117749 82 46 82C 65.882251 82 82 65.882251 82 46C 82 26.117749 65.882251 10 46 10C 26.117749 10 10 26.117749 10 46"></path></g></g></g><g id="g-root-2.cr-small_cr_v5hb551pd3wug-stroke" data-item-order="-148106" data-item-id="2.cr-small_cr_v5hb551pd3wug" data-item-class="Shape Stroke Fill ScenePart Part Indexed" data-item-index="2" data-renderer-id="0" transform="translate(433.63800048828125, 217.99609375)"><g id="2.cr-small_cr_v5hb551pd3wug-stroke" fill="none" stroke-linecap="round" stroke-linejoin="round" stroke-miterlimit="4" stroke="#3bc482" stroke-width="2"><g><path d="M 10 46C 10 65.882251 26.117749 82 46 82C 65.882251 82 82 65.882251 82 46C 82 26.117749 65.882251 10 46 10C 26.117749 10 10 26.117749 10 46"></path></g></g></g><g id="g-root-1.cr-small_cr_v5hb551pd3wuf-stroke" data-item-order="-148104" data-item-id="1.cr-small_cr_v5hb551pd3wuf" data-item-class="Shape Stroke Fill ScenePart Part Indexed Indexed_1" data-item-index="1" data-renderer-id="0" transform="translate(350, 72.508056640625)"><g id="1.cr-small_cr_v5hb551pd3wuf-stroke" fill="none" stroke-linecap="round" stroke-linejoin="round" stroke-miterlimit="4" stroke="#e3cd09" stroke-width="2"><g><path d="M 10 46C 10 65.882251 26.117749 82 46 82C 65.882251 82 82 65.882251 82 46C 82 26.117749 65.882251 10 46 10C 26.117749 10 10 26.117749 10 46"></path></g></g></g><g id="g-root-0.Vector_sy_zlat9l1pd3w25-stroke" data-item-order="-148102" data-item-id="0.Vector_sy_zlat9l1pd3w25" data-item-class="ScenePart Part Indexed_0 Fill Stroke ColorFillGray ColorStrokeBlack" data-item-index="0" data-renderer-id="0" transform="translate(230, 181.99609375)"><g id="0.Vector_sy_zlat9l1pd3w25-stroke" fill="none" stroke-linecap="round" stroke-linejoin="round" stroke-miterlimit="4" stroke="#ffffff" stroke-width="2"><g><path d="M 154 81.999998C 154 42.235998 121.765 9.999998 82 9.999998L 82 9.999998C 42.236 9.999998 10 42.235998 10 81.999998L 10 81.999998C 10 121.764998 42.236 153.999998 82 153.999998L 82 153.999998C 121.765 153.999998 154 121.764998 154 81.999998L 154 81.999998Z"></path></g></g></g><g id="g-root-0.Union_sy_v5hb551pd3wue-stroke" data-item-order="-148100" data-item-id="0.Union_sy_v5hb551pd3wue" data-item-class="ScenePart Part Indexed_0 Fill Stroke ColorFillGray ColorStrokeBlack" data-item-index="0" data-renderer-id="0" transform="translate(190, 156.885009765625)"><g id="0.Union_sy_v5hb551pd3wue-stroke" fill="none" stroke-linecap="round" stroke-linejoin="round" stroke-miterlimit="4" stroke="#ffffff" stroke-width="2"><g><path d="M 61.889 28.540005L 66.072 10.000005L 84.22 15.648005L 78.005 19.236005L 91.166 42.033005C 100.513 37.597005 110.967 35.115005 122 35.115005C 133.077 35.115005 143.571 37.617005 152.945 42.086005L 166.127 19.254005L 159.974 15.702005L 178.122 10.053005L 182.305 28.594005L 176.09 25.006005L 162.9 47.851005C 180.201 59.814005 192.009 79.158005 193.771 101.331005L 220.135 101.331005L 220.135 94.226005L 234.101 107.119005L 220.135 120.011005L 220.135 112.835005L 193.776 112.835005C 192.032 135.030005 180.223 154.396005 162.911 166.371005L 176.058 189.142005L 182.211 185.590005L 178.029 204.130005L 159.881 198.482005L 166.096 194.894005L 152.958 172.138005C 143.58 176.611005 133.082 179.115005 122 179.115005C 110.936 179.115005 100.454 176.619005 91.088 172.160005L 77.973 194.876005L 84.127 198.428005L 65.979 204.077005L 61.796 185.536005L 68.011 189.124005L 81.131 166.400005C 63.787 154.420005 51.957 135.027005 50.221 112.799005L 23.965 112.799005L 23.965 119.904005L 10 107.011005L 23.965 94.119005L 23.965 101.295005L 50.232 101.295005C 52.008 79.094005 63.855 59.732005 81.202 47.781005L 68.042 24.988005L 61.889 28.540005Z"></path></g></g></g><g id="g-root-tx__3d9d51pd3xmz-stroke" data-item-order="0" data-item-id="tx__3d9d51pd3xmz" data-item-class="Label Stroke SceneTarget SceneTitle Title ColorStrokeBlack" data-item-index="none" data-renderer-id="0" transform="translate(230, 2)"></g><g id="g-root-1_1hdtrxl1pd5ati-stroke" data-item-order="0" data-item-id="1_1hdtrxl1pd5ati" data-item-class="Icon Stroke SceneTarget Indexed InsideFill" data-item-index="6" data-renderer-id="0" transform="translate(194, 84.508056640625)"><g id="1_1hdtrxl1pd5ati-stroke" fill="none" stroke-linecap="round" stroke-linejoin="round" stroke-miterlimit="4" stroke="#93c131" stroke-width="2"><g><path d="M 24.022858 14.08C 25.258335 15.286715 25.992985 16.915182 26.08 18.639999L 32.354286 12.4C 32.790134 11.91136 33.413795 11.631939 34.068573 11.631939C 34.723347 11.631939 35.347008 11.91136 35.782856 12.4L 40.857143 17.68C 40.13644 18.029476 39.476597 18.492525 38.902859 19.05143C 36.366226 21.841013 36.468044 26.131165 39.134155 28.797272C 41.800262 31.463381 46.090416 31.565199 48.879997 29.02857C 49.438904 28.454834 49.901951 27.794989 50.251427 27.074286L 55.600002 32.354286C 56.088642 32.790134 56.368061 33.413795 56.368061 34.068573C 56.368061 34.723347 56.088642 35.347008 55.600002 35.782856L 49.360001 41.920002C 53.124832 42.147659 56.03883 45.306301 55.962902 49.077248C 55.886978 52.84819 52.84819 55.886978 49.077248 55.962902C 45.306301 56.03883 42.147659 53.124832 41.920002 49.360001L 35.645714 55.600002C 35.209866 56.088642 34.586205 56.368061 33.931427 56.368061C 33.276653 56.368061 32.652992 56.088642 32.217144 55.600002L 27.142857 50.32C 27.86356 49.970524 28.523405 49.507477 29.097143 48.948574C 31.852257 46.174526 31.836906 41.692257 29.062859 38.937145C 26.288811 36.182034 21.806541 36.197384 19.05143 38.971432C 18.492525 39.545166 18.029476 40.205009 17.68 40.925716L 12.4 35.645714C 11.91136 35.209866 11.631939 34.586205 11.631939 33.931427C 11.631939 33.276653 11.91136 32.652992 12.4 32.217144L 18.639999 26.08C 16.915182 25.992985 15.286715 25.258335 14.08 24.022858C 11.335168 21.277073 11.335553 16.826168 14.080861 14.080861C 16.826168 11.335553 21.277073 11.335168 24.022856 14.08Z"></path></g></g></g><g id="g-root-2_1cy09t51pd5bls-stroke" data-item-order="0" data-item-id="2_1cy09t51pd5bls" data-item-class="Icon Stroke SceneTarget Indexed Indexed_1 InsideFill" data-item-index="1" data-renderer-id="0" transform="translate(362, 84.508056640625)"><g id="2_1cy09t51pd5bls-stroke" fill="none" stroke-linecap="round" stroke-linejoin="round" stroke-miterlimit="4" stroke="#e3cd09" stroke-width="2"><g><path d="M 25 34C 25 38.970562 29.029438 43 34 43C 38.970562 43 43 38.970562 43 34C 43 29.029438 38.970562 25 34 25C 29.029438 25 25 29.029438 25 34M 57 33.599998C 57.014965 32.029598 55.931961 30.661678 54.400002 30.316002C 51.372982 29.680052 48.683643 27.957598 46.84 25.473999C 43.827465 21.405304 39.064575 19.005495 34.001999 19.005495C 28.939425 19.005495 24.176538 21.405304 21.164001 25.474001C 19.318346 27.956165 16.627583 29.676491 13.6 30.309999C 12.065823 30.656149 10.982191 32.027359 11 33.600002L 11 33.599998C 10.985059 35.152493 12.044334 36.50956 13.554 36.872002C 16.460142 37.531502 18.998154 39.290405 20.636 41.779999C 23.588703 46.285664 28.613026 49.000145 34 49.000145C 39.386971 49.000145 44.411293 46.285664 47.363998 41.779999C 49.001175 39.288589 51.539143 37.527565 54.445999 36.865997C 55.953465 36.504063 57.012135 35.150257 57 33.599998Z"></path></g></g></g><g id="g-root-tx_cp_qpnt0p1pd3xmt-stroke" data-item-order="0" data-item-id="tx_cp_qpnt0p1pd3xmt" data-item-class="Label Stroke SceneTarget Indexed ColorStrokeBlack" data-item-index="6" data-renderer-id="0" transform="translate(50, 98)"></g><g id="g-root-tx__3d9d51pd3xmy-stroke" data-item-order="0" data-item-id="tx__3d9d51pd3xmy" data-item-class="Label Stroke SceneTarget Indexed Indexed_1 ColorStrokeBlack" data-item-index="1" data-renderer-id="0" transform="translate(434, 98)"></g><g id="g-root-bact_8z09m11pd5b0i-stroke" data-item-order="0" data-item-id="bact_8z09m11pd5b0i" data-item-class="Icon Stroke SceneTarget SceneStart InsideFill InsideGrayFill ColorStrokeBlack" data-item-index="none" data-renderer-id="0" transform="translate(266, 217.99609375)"><g id="bact_8z09m11pd5b0i-stroke" fill="none" stroke-linecap="round" stroke-linejoin="round" stroke-miterlimit="4" stroke="#484848" stroke-width="2"><g><path d="M 56.362 25C 57.382462 25.000023 58.332932 25.518768 58.885002 26.377001L 70.456001 44.376999C 71.091911 45.365566 71.091911 46.634434 70.456001 47.623001L 58.885002 65.623001C 58.332932 66.481232 57.382462 66.999977 56.362 67L 35.638 67C 34.617538 66.999977 33.667068 66.481232 33.114998 65.623001L 21.544001 47.623001C 20.908091 46.634434 20.908091 45.365566 21.544001 44.376999L 33.114998 26.377001C 33.667068 25.518768 34.617538 25.000023 35.638 25ZM 70.932999 46L 80.5 46M 11.5 46L 21.066999 46M 57.733002 25.336L 64 17.5M 34.27 25.336L 28 17.5M 57.73 66.660995L 64 74.5M 34.266998 66.664001L 28 74.5M 44.5 39.25C 44.5 43.806351 48.193653 47.5 52.75 47.5C 57.306351 47.5 61 43.806351 61 39.25C 61 34.693653 57.306351 31.000002 52.75 31.000002C 48.193653 31.000002 44.5 34.693653 44.5 39.25M 35.5 55.75C 35.5 57.821068 37.178932 59.5 39.25 59.5C 41.321068 59.5 43 57.821068 43 55.75C 43 53.678932 41.321068 52 39.25 52C 37.178932 52 35.5 53.678932 35.5 55.75"></path></g></g></g><g id="g-root-tx__hun9ux1pd3v9q-stroke" data-item-order="0" data-item-id="tx__hun9ux1pd3v9q" data-item-class="Label Stroke SceneTarget Indexed ColorStrokeBlack" data-item-index="5" data-renderer-id="0" transform="translate(2, 242)"></g><g id="g-root-hier_3d9d51pd5bt7-stroke" data-item-order="0" data-item-id="hier_3d9d51pd5bt7" data-item-class="Icon Stroke SceneTarget Indexed InsideFill" data-item-index="5" data-renderer-id="0" transform="translate(110, 230)"><g id="hier_3d9d51pd5bt7-stroke" fill="none" stroke-linecap="round" stroke-linejoin="round" stroke-miterlimit="4" stroke="#dd8433" stroke-width="2"><g><path d="M 18 44.942001L 18 39.942001C 18 39.389717 18.447716 38.942001 19 38.942001L 49 38.942001C 49.552284 38.942001 50 39.389717 50 39.942001L 50 44.942001M 34 32.942001L 34 44.942001M 12 50.942001C 12 54.255711 14.686292 56.942001 18 56.942001C 21.313709 56.942001 24 54.255711 24 50.942001C 24 47.628292 21.313709 44.942001 18 44.942001C 14.686292 44.942001 12 47.628292 12 50.942001ZM 28 50.942001C 28 54.255711 30.686293 56.942001 34 56.942001C 37.313709 56.942001 40 54.255711 40 50.942001C 40 47.628292 37.313709 44.942001 34 44.942001C 30.686293 44.942001 28 47.628292 28 50.942001ZM 44 50.942001C 44 54.255711 46.686295 56.942001 50 56.942001C 53.313709 56.942001 56 54.255711 56 50.942001C 56 47.628292 53.313709 44.942001 50 44.942001C 46.686295 44.942001 44 47.628292 44 50.942001ZM 25 32.942001C 25 27.971437 29.029438 23.942001 34 23.942001C 38.970562 23.942001 43 27.971437 43 32.942001ZM 28.5 16.441999C 28.5 19.479567 30.962435 21.942001 34 21.942001C 37.037567 21.942001 39.5 19.479567 39.5 16.442001C 39.5 13.404434 37.037567 10.942 34 10.942C 30.962435 10.942 28.5 13.404434 28.5 16.442001Z"></path></g></g></g><g id="g-root-1_1uont7t1pd5cec-stroke" data-item-order="0" data-item-id="1_1uont7t1pd5cec" data-item-class="Icon Stroke SceneTarget Indexed InsideFill" data-item-index="2" data-renderer-id="0" transform="translate(446, 230)"><g id="1_1uont7t1pd5cec-stroke" fill="none" stroke-linecap="round" stroke-linejoin="round" stroke-miterlimit="4" stroke="#3bc482" stroke-width="2"><g><path d="M 11.5 34C 11.500001 46.426407 21.573593 56.5 34 56.5C 46.426407 56.5 56.5 46.426407 56.5 34C 56.5 21.573593 46.426407 11.500001 34 11.500001C 21.573593 11.500001 11.500001 21.573593 11.500001 34M 11.5 34.5L 56.5 34.5M 22.998001 24C 22.998001 27.313709 25.684292 30 28.998001 30C 32.311707 30 34.998001 27.313709 34.998001 24C 34.998001 20.686291 32.311707 18 28.998001 18C 25.684292 18 22.998001 20.686291 22.998001 24M 14.99 44.5L 32.998001 44.5M 30.5 50.5L 48.507999 50.5M 43.998001 24L 54.133999 24M 27.997999 24C 27.997999 24.552284 28.445715 25 28.997999 25C 29.550285 25 29.997999 24.552284 29.997999 24C 29.997999 23.447716 29.550285 23 28.997999 23C 28.445715 23 27.997999 23.447716 27.997999 24"></path></g></g></g><g id="g-root-tx__8z09m11pd3wu9-stroke" data-item-order="0" data-item-id="tx__8z09m11pd3wu9" data-item-class="Label Stroke SceneTarget Indexed ColorStrokeBlack" data-item-index="2" data-renderer-id="0" transform="translate(518, 242)"></g><g id="g-root-tx__detrqh1pd3w1z-stroke" data-item-order="0" data-item-id="tx__detrqh1pd3w1z" data-item-class="Label Stroke SceneTarget Indexed ColorStrokeBlack" data-item-index="4" data-renderer-id="0" transform="translate(26, 374)"></g><g id="g-root-meit_1hdtrxl1pd5atj-stroke" data-item-order="0" data-item-id="meit_1hdtrxl1pd5atj" data-item-class="Icon Stroke SceneTarget Indexed InsideFill" data-item-index="4" data-renderer-id="0" transform="translate(194, 375.491943359375)"><g id="meit_1hdtrxl1pd5atj-stroke" fill="none" stroke-linecap="round" stroke-linejoin="round" stroke-miterlimit="4" stroke="#17b0e3" stroke-width="2"><g><path d="M 13 11L 55 11C 55 11 57 11 57 13L 57 55C 57 55 57 57 55 57L 13 57C 13 57 11 57 11 55L 11 13C 11 13 11 11 13 11M 24 48L 44 48M 20.25 43L 20.25 25.9C 20.25 25.403999 20.65 25.001999 21.146 25.001999L 21.146 25.001999C 21.511278 25.002531 21.840008 25.223789 21.978001 25.562L 26.483999 36.655998C 26.569328 36.866058 26.773275 37.003605 27.000002 37.004002L 27 37.003998C 27.226728 37.003605 27.430674 36.866058 27.516001 36.656002L 32.021999 25.562C 32.159103 25.223068 32.488388 25.001434 32.854004 25.002001L 32.854 25.001999C 33.348 25.001999 33.75 25.403999 33.75 25.9L 33.75 43M 42.25 25L 42.25 40C 42.25 41.656853 43.593147 43 45.25 43M 38.5 29.5L 46 29.5"></path></g></g></g><g id="g-root-1_1ltna211pd5a19-stroke" data-item-order="0" data-item-id="1_1ltna211pd5a19" data-item-class="Icon Stroke SceneTarget Indexed InsideFill" data-item-index="3" data-renderer-id="0" transform="translate(362, 375.491943359375)"><g id="1_1ltna211pd5a19-stroke" fill="none" stroke-linecap="round" stroke-linejoin="round" stroke-miterlimit="4" stroke="#e15e5a" stroke-width="2"><g><path d="M 33.006001 47L 25.006001 57L 41.006001 57L 33.006001 47ZM 55.006001 53L 12.507999 35.396M 21.507999 17C 21.507999 19.209139 19.71714 21 17.507999 21L 12.507999 21L 12.507999 13L 17.507999 13C 19.71714 13 21.507999 14.790861 21.507999 17ZM 21.507999 25C 21.507999 27.209139 19.71714 29 17.507999 29L 12.507999 29L 12.507999 21L 17.507999 21C 19.71714 21 21.507999 22.790861 21.507999 25ZM 15.507999 11L 15.507999 13M 15.507999 29L 15.507999 31M 21.507999 17C 21.507999 19.209139 19.71714 21 17.507999 21L 12.507999 21L 12.507999 13L 17.507999 13C 19.71714 13 21.507999 14.790861 21.507999 17ZM 21.507999 25C 21.507999 27.209139 19.71714 29 17.507999 29L 12.507999 29L 12.507999 21L 17.507999 21C 19.71714 21 21.507999 22.790861 21.507999 25ZM 15.507999 11L 15.507999 13M 15.507999 29L 15.507999 31M 55.507999 27L 51.216 27C 49.496788 27.000622 48.003479 28.182915 47.608517 29.856146C 47.213554 31.529375 48.020538 33.254646 49.558002 34.024002L 53.458 35.973999C 54.99781 36.742203 55.806767 38.46883 55.411545 40.143627C 55.016327 41.818424 53.520798 43.00124 51.800003 43L 47.507999 43M 50.507999 43L 50.507999 46M 52.507999 24L 52.507999 27"></path></g></g></g><g id="g-root-tx__detrqh1pd3w20-stroke" data-item-order="0" data-item-id="tx__detrqh1pd3w20" data-item-class="Label Stroke SceneTarget Indexed ColorStrokeBlack" data-item-index="3" data-renderer-id="0" transform="translate(434, 374)"></g></g></g></svg>